<?xml version="1.0" encoding="UTF-8"?>
<svg version="1.1" xmlns="http://www.w3.org/2000/svg" width="512" height="512">
<path d="M0 0 C2.1604116 0.71263599 4.32148082 1.423281 6.4831543 2.13208008 C11.15316564 3.66506771 15.81997476 5.20736449 20.48535156 6.75439453 C28.53453984 9.41516658 36.60538514 12.0064706 44.6796875 14.58984375 C46.08447765 15.03980292 47.48924758 15.48982518 48.89399719 15.93991089 C51.68134164 16.83289178 54.46871274 17.72578931 57.25613403 18.61853027 C57.93792347 18.83689041 58.61971291 19.05525055 59.32216263 19.28022766 C60.68618849 19.71695805 62.05027047 20.15351319 63.41440964 20.58988953 C67.94069739 22.0378683 72.46487353 23.49226713 76.98828125 24.94921875 C78.11873871 25.31015121 79.24919617 25.67108368 80.41390991 26.04295349 C111.22043207 35.98992703 111.22043207 35.98992703 119.0625 51.25 C120.40801394 55.02900603 121.40675073 58.85952023 122.375 62.75 C122.85347491 64.62328617 123.33295119 66.49631675 123.81323242 68.36914062 C124.22965495 69.99609375 124.64607747 71.62304688 125.0625 73.25 C148.28173366 76.3465239 171.53566209 79.07270219 194.8125 81.69671631 C199.37324857 82.21139562 203.93367832 82.72888515 208.49414062 83.24609375 C217.34996211 84.25004833 226.20614248 85.25078512 235.0625 86.25 C235.3925 80.97 235.7225 75.69 236.0625 70.25 C231.17096529 70.2895679 231.17096529 70.2895679 226.27954102 70.34008789 C224.54028283 70.34724913 222.80104696 70.30024702 221.0625 70.25 C218.89253841 68.08003841 219.84869465 63.04358518 219.82421875 60.02734375 C219.816147 59.09330215 219.80807526 58.15926056 219.79975891 57.19691467 C219.7858946 55.21210599 219.77518301 53.22727323 219.76733398 51.24243164 C219.75020881 48.22430085 219.70635484 45.20729041 219.66210938 42.18945312 C219.65197501 40.26042472 219.64346124 38.33138699 219.63671875 36.40234375 C219.61921066 35.50619858 219.60170258 34.61005341 219.58366394 33.68675232 C219.60719886 26.79207357 221.25954461 21.57565104 225.73828125 16.26171875 C232.4397987 10.8397273 238.29935685 8.58949963 246.99609375 8.83984375 C253.54680238 9.71605318 258.92737186 12.69634748 263.5 17.4375 C269.97819213 26.32753481 269.50700416 36.70476136 269.39868164 47.22045898 C269.37481723 49.70654056 269.37817231 52.19156521 269.38476562 54.67773438 C269.37919618 56.26302723 269.37209094 57.84831559 269.36328125 59.43359375 C269.36419266 60.1741954 269.36510406 60.91479706 269.36604309 61.67784119 C269.31439646 65.40690258 269.1842794 67.06733091 267.0625 70.25 C264.41668391 70.47296203 262.06970498 70.53148752 259.4375 70.4375 C257.00375 70.375625 254.57 70.31375 252.0625 70.25 C252.0625 76.52 252.0625 82.79 252.0625 89.25 C255.0325 89.25 258.0025 89.25 261.0625 89.25 C264.79134595 89.47928581 268.48021222 89.91856238 272.1875 90.375 C273.13753906 90.4678125 274.08757812 90.560625 275.06640625 90.65625 C281.57621748 91.4688478 285.76115333 93.17852907 290.0625 98.25 C292.44272651 102.81210081 292.55924203 107.35548154 291.0625 112.25 C289.78724676 114.61837764 288.4165407 116.92509625 287.0625 119.25 C275.35256413 118.64766089 263.70996183 117.71674124 252.04452515 116.54199219 C250.29420507 116.36831007 248.54385518 116.19492809 246.79347861 116.02181625 C242.03362928 115.55020265 237.27420992 115.07437241 232.5148561 114.59778786 C227.36320915 114.08268418 222.21116634 113.57156777 217.05917358 113.05993652 C206.98897791 112.05926314 196.91914765 111.05495813 186.84943847 110.04940224 C175.11757594 108.87800439 163.38535178 107.7102482 151.65311213 106.54263449 C130.72402813 104.45961027 109.79527153 102.37331469 88.86669922 100.28515625 C68.56289946 98.25933785 48.25887308 96.23581079 27.95458984 94.21484375 C26.70250183 94.09021806 25.45041382 93.96559237 24.16038375 93.83719015 C22.91044531 93.71277878 21.66050687 93.58836741 20.37269151 93.460186 C-2.76204957 91.15748119 -25.89659395 88.85280586 -49.03103686 86.54710746 C-57.20875566 85.7321129 -65.38652964 84.91767354 -73.56431961 84.10339355 C-83.52245984 83.11179495 -93.48048429 82.11904233 -103.43836661 81.12485695 C-108.51864676 80.61766632 -113.59897254 80.11094532 -118.6794281 79.60551453 C-123.328742 79.14295822 -127.97791542 78.67901578 -132.62697987 78.21395922 C-134.30957496 78.04588801 -135.99222052 77.87832115 -137.67492087 77.71130705 C-139.96112811 77.48431423 -142.24714378 77.25547896 -144.53312111 77.02618408 C-145.80318367 76.89951984 -147.07324622 76.77285561 -148.38179553 76.64235306 C-149.555178 76.51287655 -150.72856048 76.38340004 -151.9375 76.25 C-153.81133616 76.05969774 -153.81133616 76.05969774 -155.72302759 75.86555099 C-160.08427176 75.03040051 -161.84124663 72.69511311 -164.3125 69.25 C-164.7458667 68.66275146 -165.1792334 68.07550293 -165.62573242 67.47045898 C-168.80371206 62.9390674 -170.83396981 58.91614892 -169.9375 53.25 C-168.5930714 49.13763016 -166.4421918 45.80635894 -162.95239258 43.14892578 C-153.98383397 39.14768589 -139.70126646 43.04754455 -130.125 44.25 C-127.79851874 44.53878118 -125.47182269 44.82516233 -123.1443634 45.10595703 C-121.71121986 45.2791416 -120.27861121 45.45684319 -118.84672546 45.64013672 C-109.94757834 46.96709283 -109.94757834 46.96709283 -101.8046875 44.23046875 C-100.79046664 43.31783734 -99.79367045 42.38557416 -98.8125 41.4375 C-97.68188969 40.4142282 -96.54900322 39.3934667 -95.4140625 38.375 C-94.55216309 37.58996094 -94.55216309 37.58996094 -93.67285156 36.7890625 C-90.94700159 34.37153884 -88.07367125 32.1588049 -85.1875 29.9375 C-79.85965022 25.79969145 -74.63214541 21.55366768 -69.4375 17.25 C-64.08389698 12.82045514 -58.70691971 8.42689135 -53.25 4.125 C-52.69828125 3.68800781 -52.1465625 3.25101563 -51.578125 2.80078125 C-33.70899547 -11.2047527 -19.8962683 -6.70537433 0 0 Z M-48.79199219 21.87060547 C-52.72188328 25.24732536 -56.72616271 28.50219634 -60.8125 31.6875 C-61.38073486 32.13101807 -61.94896973 32.57453613 -62.53442383 33.03149414 C-63.71032998 33.94904607 -64.88635767 34.86644225 -66.0625 35.78369141 C-69.49151567 38.46528882 -72.90462915 41.16660537 -76.3125 43.875 C-77.30419189 44.65701782 -77.30419189 44.65701782 -78.31591797 45.45483398 C-79.8753046 46.69656779 -81.40930068 47.97007956 -82.9375 49.25 C-82.9375 49.58 -82.9375 49.91 -82.9375 50.25 C-60.95162088 53.1768615 -38.93945779 55.78135601 -16.89599609 58.2331543 C-12.81781634 58.68734733 -8.73998088 59.1446117 -4.66210938 59.6015625 C3.24577333 60.48725946 11.1540088 61.36975291 19.0625 62.25 C20.94204273 57.59079837 22.81150799 52.92773099 24.67163086 48.26074219 C25.30622393 46.6727157 25.94358704 45.0857933 26.58374023 43.5 C27.50189035 41.22418251 28.41009881 38.94461751 29.31640625 36.6640625 C29.75068687 35.59679428 29.75068687 35.59679428 30.19374084 34.50796509 C30.87580522 32.77746897 31.47703764 31.01552045 32.0625 29.25 C31.22829982 27.03876281 31.22829982 27.03876281 28.8633728 26.32614136 C27.89187286 26.01081451 26.92037292 25.69548767 25.91943359 25.37060547 C24.82094086 25.010383 23.72244812 24.65016052 22.59066772 24.27902222 C21.39285675 23.89561676 20.19504578 23.5122113 18.9609375 23.1171875 C17.73597565 22.72048859 16.51101379 22.32378967 15.24893188 21.91506958 C12.64950808 21.07447871 10.04830117 20.23970593 7.44580078 19.40869141 C4.12318795 18.34704251 0.80600577 17.26945111 -2.50991249 16.18710136 C-5.68322779 15.15420348 -8.86136716 14.13653069 -12.0390625 13.1171875 C-13.22472809 12.72973358 -14.41039368 12.34227966 -15.63198853 11.94308472 C-31.21083035 7.00876686 -36.87065865 11.6218902 -48.79199219 21.87060547 Z M47.0625 33.25 C45.35132941 37.50327531 43.64239032 41.75743753 41.93554688 46.01245117 C41.35413449 47.46094192 40.77210445 48.9091849 40.18945312 50.35717773 C39.35385655 52.43408996 38.52045853 54.51187236 37.6875 56.58984375 C37.42501465 57.24089584 37.1625293 57.89194794 36.89208984 58.56272888 C35.6073223 61.32187913 35.6073223 61.32187913 35.0625 64.25 C44.006936 65.2950901 52.95158484 66.33833382 61.89651203 67.37921143 C66.04984862 67.86257398 70.20310866 68.34657571 74.35620117 68.83203125 C78.36306355 69.30037021 82.37011719 69.76703926 86.3773098 70.23254395 C87.90720764 70.4105668 89.43703522 70.58919446 90.96679115 70.76843262 C93.1069919 71.01909125 95.2474308 71.26761153 97.38793945 71.515625 C98.60705521 71.65774414 99.82617096 71.79986328 101.08222961 71.94628906 C104.06063952 72.30069105 104.06063952 72.30069105 107.0625 72.25 C106.25066472 63.31981189 105.02303488 56.02659729 97.89624023 50.04516602 C91.5862206 46.04778733 84.21143834 44.19980011 77.125 42 C75.50266486 41.48100845 73.88091375 40.96018756 72.25976562 40.4375 C69.18984907 39.45013094 66.11666014 38.47447407 63.03955078 37.50976562 C59.88286427 36.51727516 56.74883561 35.47138225 53.62109375 34.390625 C50.20918178 33.09738458 50.20918178 33.09738458 47.0625 33.25 Z " fill="#000000" transform="translate(194.9375,178.75)"/>
<path d="M0 0 C61.10458479 5.87089018 122.1942687 11.88656348 183.27734375 17.9765625 C184.15291603 18.06385443 185.0284883 18.15114636 185.93059307 18.2410835 C208.41606304 20.4828766 230.90127745 22.72722747 253.38640082 24.97249389 C266.42819274 26.27476578 279.47005503 27.57633113 292.51196289 28.87744141 C293.44372795 28.97039803 294.37549301 29.06335465 295.33549338 29.15912814 C300.01450397 29.62592145 304.69351568 30.09270349 309.37252796 30.55947995 C347.58185944 34.37124257 385.79099856 38.18493051 424 42 C423.16379201 45.64951177 421.78031266 48.61248161 420.05078125 51.9453125 C419.44943359 53.10546875 418.84808594 54.265625 418.22851562 55.4609375 C417.91309814 56.06389648 417.59768066 56.66685547 417.27270508 57.28808594 C416.32793214 59.09547765 415.39099329 60.90675889 414.45507812 62.71875 C404.87731049 81.12268951 404.87731049 81.12268951 402 84 C388.50685332 86.85431949 376.86477078 82.56219915 364.9375 76.5625 C353.62439978 70.92764625 342.94860145 66.37456538 330.125 66.5625 C329.35816895 66.57152344 328.59133789 66.58054687 327.80126953 66.58984375 C315.56762181 66.95616633 305.55379781 71.50858917 294.89453125 77.03125 C281.31700065 84.00268018 269.97161489 86.5341463 255 83 C250.16124883 81.14538268 245.56438822 78.88993415 240.9375 76.5625 C223.56917818 67.9116482 206.21599041 63.21353056 187.16015625 69.3203125 C180.15137963 72.00146196 173.37978547 75.40076539 166.67578125 78.75878906 C153.83499438 85.0034418 141.67249218 86.59465141 128.0078125 81.9921875 C122.53624708 79.80065864 117.35180257 77.15287347 112.125 74.4375 C95.41356459 66.06349845 78.84318247 64.35453407 61 70 C59.66812109 70.339098 58.33499432 70.67338242 57 71 C50.85175822 63.88853368 44.73661727 56.77181385 38.90234375 49.3984375 C32.44938215 41.26267072 25.77735131 33.29719225 19.17358398 25.28369141 C15.05101866 20.28008267 10.93832958 15.26874228 6.84375 10.2421875 C5.23338002 8.28381383 3.59195105 6.3585015 1.9375 4.4375 C0 2 0 2 0 0 Z M139.79296875 30.61328125 C137.48171777 33.68991382 137.58469601 35.44800823 137.75 39.25 C137.80414063 40.86648438 137.80414063 40.86648438 137.859375 42.515625 C137.90578125 43.33546875 137.9521875 44.1553125 138 45 C136.87851563 44.96519531 136.87851563 44.96519531 135.734375 44.9296875 C134.74953125 44.91164063 133.7646875 44.89359375 132.75 44.875 C131.77546875 44.85179687 130.8009375 44.82859375 129.796875 44.8046875 C126.94699991 45.00370112 125.38382777 45.47024204 123 47 C121.26176799 49.40041563 120.97020006 50.59273413 121.1875 53.5625 C122.07663481 56.22990442 122.75455191 57.33670512 125 59 C127.97172635 59.94350707 130.64334883 60.10818605 133.75 60.0625 C134.94882813 60.04896484 134.94882813 60.04896484 136.171875 60.03515625 C136.77515625 60.02355469 137.3784375 60.01195312 138 60 C137.94199219 60.81984375 137.88398438 61.6396875 137.82421875 62.484375 C137.34182418 69.11595965 137.34182418 69.11595965 140.1875 74.8125 C143.45108442 76.19045787 144.72512882 76.29271231 148 75 C149.93084565 73.41394821 150.88290172 72.23419656 152 70 C152.06996014 68.29297265 152.08440154 66.58331997 152.0625 64.875 C152.05347656 63.96492188 152.04445312 63.05484375 152.03515625 62.1171875 C152.02355469 61.41851562 152.01195312 60.71984375 152 60 C152.58007812 60.03480469 153.16015625 60.06960938 153.7578125 60.10546875 C158.8642401 60.28242416 162.79246334 60.26084091 167 57 C168.3309316 53.60030189 168.3309316 53.60030189 168 50 C166.15863826 47.58718117 164.69698174 46.34849087 162 45 C160.29297265 44.93003986 158.58331997 44.91559846 156.875 44.9375 C155.50988281 44.95103516 155.50988281 44.95103516 154.1171875 44.96484375 C153.06917969 44.98224609 153.06917969 44.98224609 152 45 C152.03480469 44.33613281 152.06960937 43.67226563 152.10546875 42.98828125 C152.22777694 38.99870449 152.25487323 35.73463461 150.9375 31.9375 C149.01228312 29.71083485 149.01228312 29.71083485 145.5625 28.9375 C142.02385235 28.65755226 142.02385235 28.65755226 139.79296875 30.61328125 Z " fill="#000000" transform="translate(50,269)"/>
<path d="M0 0 C5.43949966 1.78939441 10.43345651 4.20418599 15.5559082 6.75366211 C32.17198801 15.02324823 47.44512813 19.83248516 65.9375 13.98046875 C72.21126718 11.81819354 78.07667578 9.03608827 84 6.0625 C98.0201969 -0.97537956 111.37858065 -4.14351751 126.75 0.6875 C132.89329221 2.95967657 138.65785429 5.80495358 144.47607422 8.79907227 C158.44693854 15.94508907 172.81369055 18.82185475 188.25 14.6875 C194.02213942 12.72513681 199.46419106 10.07099148 204.94921875 7.4296875 C205.78187256 7.03015869 206.61452637 6.63062988 207.47241211 6.21899414 C209.11933999 5.4247209 210.76232764 4.62220863 212.40063477 3.81030273 C223.98918146 -1.82333849 236.76697497 -3.41091861 249.3125 0 C256.84990686 2.6072791 263.98695113 6.25275976 271.11743164 9.80200195 C285.48270807 16.92059116 299.89246108 18.58161646 315.32421875 13.71875 C321.59841135 11.43441912 327.50491685 8.59825976 333.4375 5.5625 C346.36378042 -0.99162763 358.91829156 -3.88415148 373.3125 0 C380.84990686 2.6072791 387.98695113 6.25275976 395.11743164 9.80200195 C408.63246854 16.49926228 422.80416882 18.80127888 437.61425781 14.60498047 C444.76908253 12.11444404 451.60962176 8.67601536 458.40283203 5.33544922 C467.94133388 0.667898 476.43111317 -2.66703158 487.25 -1.3125 C489.9375 0.1875 489.9375 0.1875 491.25 2.6875 C491.83890028 5.50498371 491.88094302 7.87430451 491.25 10.6875 C489.08678405 13.62329307 487.28821293 14.5206017 483.703125 15.09692383 C482.72859375 15.21575928 481.7540625 15.33459473 480.75 15.45703125 C474.13204068 16.50186725 468.89695553 18.92080656 463 22 C442.59352475 32.1389419 421.84499335 37.68423118 399.3203125 30.49609375 C391.46377719 27.77751965 384.00970738 24.25948924 376.65258789 20.40380859 C368.40987991 16.09665367 361.05719483 14.14790828 351.83203125 16.234375 C346.19999637 18.13261251 340.93029907 20.79654177 335.59790039 23.39526367 C316.33153825 32.76585211 296.38575448 37.22145879 275.31640625 30.49609375 C267.46183758 27.77587604 260.00858344 24.25890021 252.65258789 20.40380859 C244.09706869 15.9331969 235.92470546 13.71896547 226.40234375 16.52734375 C223.28498992 17.80087069 220.27423327 19.20559016 217.25 20.6875 C194.70156702 31.71155312 173.43327988 37.89727638 148.6875 29.6875 C141.37749245 26.92649601 134.36733868 23.52106195 127.35717773 20.078125 C126.49423096 19.6553125 125.63128418 19.2325 124.7421875 18.796875 C123.97245605 18.41499023 123.20272461 18.03310547 122.40966797 17.63964844 C114.79031187 14.2804478 106.74881202 14.8385933 99.0625 17.6875 C94.71341413 19.49618381 90.52919915 21.53915069 86.34863281 23.69897461 C67.70888817 33.32056941 48.46713564 36.45851349 28.0078125 30.7890625 C19.58962522 27.99620507 11.81819753 24.06953399 3.88452148 20.14404297 C-1.90463347 17.35387222 -7.05827617 15.71331573 -13.484375 15.015625 C-15.75 14.6875 -15.75 14.6875 -19 13.0625 C-21.17743011 10.10741628 -21.43154907 8.20679289 -21.1484375 4.59375 C-20.75 2.6875 -20.75 2.6875 -19.4375 0.1875 C-13.43241423 -3.16417578 -6.38982783 -1.71805967 0 0 Z " fill="#000000" transform="translate(20.75,350.3125)"/>
<path d="M0 0 C2.87426758 2.29077148 2.87426758 2.29077148 5.64453125 5.12109375 C6.1403923 5.62165787 6.63625336 6.12222198 7.1471405 6.63795471 C8.71439487 8.22639801 10.26311128 9.83164703 11.8125 11.4375 C12.8706354 12.51216117 13.92987111 13.58574011 14.99023438 14.65820312 C24.85505644 24.69550794 24.85505644 24.69550794 25.4375 29.9375 C25.34045937 33.2247514 25.10781294 33.86605059 22.9375 36.5625 C18.93015055 38.52354335 17.25506447 38.370275 13 37 C6.85809035 32.42421477 1.51405153 26.66741495 -3.875 21.25 C-5.01195312 20.11884766 -5.01195312 20.11884766 -6.171875 18.96484375 C-6.89632813 18.23910156 -7.62078125 17.51335937 -8.3671875 16.765625 C-9.01800293 16.11368164 -9.66881836 15.46173828 -10.33935547 14.79003906 C-12.91945493 12.00890274 -13.95838382 10.38148163 -14.375 6.5625 C-14 3 -14 3 -12.1875 0.625 C-7.70664931 -2.70363194 -5.02925652 -1.89706785 0 0 Z " fill="#000000" transform="translate(387,154)"/>
<path d="M0 0 C2.56205842 3.84308764 2.67366765 5.4340304 2 10 C0.75878906 11.77294922 0.75878906 11.77294922 -0.921875 13.6171875 C-1.55665771 14.31384521 -2.19144043 15.01050293 -2.84545898 15.72827148 C-6.76875063 19.86495463 -10.7719329 23.91556734 -14.8125 27.9375 C-15.67037109 28.79923828 -16.52824219 29.66097656 -17.41210938 30.54882812 C-18.23130859 31.36673828 -19.05050781 32.18464844 -19.89453125 33.02734375 C-20.63550049 33.76718506 -21.37646973 34.50702637 -22.13989258 35.26928711 C-24.5026492 37.46768345 -25.58091459 37.95343495 -28.8125 38.3125 C-32.8794044 37.91378388 -34.35296205 37.11416229 -37 34 C-37.86606321 27.46034776 -37.86606321 27.46034776 -35.96420288 24.25344849 C-34.46175193 22.50417687 -32.87958579 20.9267811 -31.19921875 19.34765625 C-30.60704056 18.76205429 -30.01486237 18.17645233 -29.40473938 17.57310486 C-28.1554212 16.34455575 -26.89664586 15.12555827 -25.62915039 13.91577148 C-23.68655629 12.06159924 -21.77219052 10.18172974 -19.86132812 8.29492188 C-18.64216078 7.10259429 -17.42150707 5.91178423 -16.19921875 4.72265625 C-15.33655647 3.88215477 -15.33655647 3.88215477 -14.45646667 3.02467346 C-9.21809236 -1.96483329 -6.84055562 -2.48747477 0 0 Z " fill="#000000" transform="translate(503,154)"/>
<path d="M0 0 C2.40844498 1.65784559 3.79129831 2.94774442 4.37280273 5.87963867 C4.53081545 8.26208677 4.55421672 10.61237481 4.53125 13 C4.5350769 13.87269531 4.53890381 14.74539062 4.54284668 15.64453125 C4.5455649 17.48699092 4.53820994 19.32948924 4.52148438 21.171875 C4.50007248 23.99045934 4.52128801 26.80649485 4.546875 29.625 C4.54423171 31.41667229 4.53910669 33.20834299 4.53125 35 C4.53934692 35.84175781 4.54744385 36.68351562 4.55578613 37.55078125 C4.46241333 43.38344889 4.46241333 43.38344889 2.11914062 46.5078125 C-0.38605298 48.27183823 -1.9374115 48.85060544 -5 49 C-7.75851626 48.29433305 -9.41825168 47.79386776 -11.12353516 45.46679688 C-12.43581509 41.7734051 -12.32542126 38.09272526 -12.3359375 34.21875 C-12.3425943 33.36825073 -12.3492511 32.51775146 -12.35610962 31.64147949 C-12.36621921 29.84613199 -12.37092716 28.05074703 -12.37060547 26.25537109 C-12.37498491 23.50946332 -12.41133789 20.76515544 -12.44921875 18.01953125 C-12.45508604 16.27344299 -12.45905602 14.52734711 -12.4609375 12.78125 C-12.47530853 11.96136597 -12.48967957 11.14148193 -12.50448608 10.29675293 C-12.45881296 4.59919866 -12.45881296 4.59919866 -10.09619141 1.51367188 C-6.31832859 -1.2143446 -4.54309586 -1.18120492 0 0 Z " fill="#000000" transform="translate(443,129)"/>
</svg>
