<?xml version="1.0" encoding="UTF-8"?>
<svg version="1.1" xmlns="http://www.w3.org/2000/svg" width="512" height="512">
<path d="M0 0 C3.51687914 2.33432677 6.34188056 5.26813262 9.27734375 8.28515625 C10.12929825 9.13420029 10.98125275 9.98324432 11.85902405 10.85801697 C13.65277089 12.65507887 15.43664463 14.46204269 17.21118164 16.27807617 C19.92812361 19.05292378 22.68043275 21.78854123 25.43945312 24.52148438 C27.17931845 26.27382529 28.91702421 28.02831359 30.65234375 29.78515625 C31.47516342 30.60210464 32.29798309 31.41905304 33.14573669 32.26075745 C33.90064896 33.04103806 34.65556122 33.82131866 35.43334961 34.62524414 C36.09983017 35.30253067 36.76631073 35.9798172 37.45298767 36.67762756 C40.94006286 41.91241926 40.00522889 47.66246878 39.10375977 53.60009766 C38.94304489 54.68686043 38.94304489 54.68686043 38.77908325 55.795578 C38.42573568 58.16989195 38.0585361 60.54184427 37.69140625 62.9140625 C37.44237972 64.57345226 37.19434325 66.23299088 36.94725037 67.89266968 C36.29653127 72.24855408 35.63453499 76.60264361 34.96948242 80.95635986 C33.90585821 87.93069118 32.85853467 94.90747973 31.8129406 101.88453293 C31.44671213 104.31633085 31.07512621 106.74726425 30.70277405 109.1781311 C30.47692894 110.67163125 30.25120915 112.16515035 30.02563477 113.65869141 C29.82720474 114.95884186 29.62877472 116.25899231 29.42433167 117.59854126 C28.88586641 121.79654235 28.88586641 121.79654235 29 126 C30.97800072 128.07248149 32.83120146 129.7427308 35.0625 131.5 C36.35742386 132.56300709 37.65167273 133.62683685 38.9453125 134.69140625 C39.61723633 135.23684082 40.28916016 135.78227539 40.98144531 136.34423828 C44.1905251 138.97655312 47.31129208 141.70779278 50.4375 144.4375 C51.69629498 145.53031618 52.9554114 146.62276219 54.21484375 147.71484375 C54.83987793 148.25737793 55.46491211 148.79991211 56.10888672 149.35888672 C57.98994321 150.99127269 59.87175938 152.62277766 61.75390625 154.25390625 C62.37273682 154.79023682 62.99156738 155.32656738 63.62915039 155.87915039 C64.87152483 156.95550742 66.11419835 158.03151935 67.35717773 159.10717773 C70.59009606 161.90593102 73.81586228 164.71236481 77.03125 167.53125 C77.69576172 168.11197266 78.36027344 168.69269531 79.04492188 169.29101562 C80.30367277 170.39132235 81.5603537 171.49400396 82.81445312 172.59960938 C86.71449105 176.00288269 90.74662705 179.04867999 95 182 C95.09031494 181.34483398 95.18062988 180.68966797 95.27368164 180.01464844 C96.23800741 176.01212923 97.89485381 172.49237214 99.62109375 168.765625 C100.1777346 167.54604095 100.1777346 167.54604095 100.74562073 166.30181885 C101.54985558 164.54047693 102.35633308 162.78015767 103.16479492 161.02075195 C105.34970278 156.26408223 107.51659484 151.49922419 109.68359375 146.734375 C110.12963959 145.75428467 110.57568542 144.77419434 111.0352478 143.7644043 C115.44821766 134.0492923 119.7335601 124.28012844 124 114.5 C131.07368997 98.29631713 138.30607384 82.16893427 145.6328125 66.078125 C146.0103064 65.24783783 146.38780029 64.41755066 146.7767334 63.56210327 C147.5096211 61.95089483 148.2440361 60.34038008 148.98010254 58.73062134 C150.62238432 55.12181802 152.22054634 51.50799832 153.70117188 47.82958984 C154.09390289 46.86450752 154.09390289 46.86450752 154.49456787 45.87992859 C155.17796178 44.18304421 155.84323118 42.47889059 156.50683594 40.77416992 C158.29448884 37.45286516 159.70712332 35.85784079 163 34 C167.33104739 33.8641325 169.96342234 34.65509967 173.16552734 37.46850586 C174.23793512 38.53515609 175.29413632 39.61828028 176.3359375 40.71484375 C176.90075836 41.28578262 177.46557922 41.8567215 178.04751587 42.44496155 C179.83790322 44.26217043 181.60605176 46.09944094 183.375 47.9375 C184.58590047 49.16993694 185.79812767 50.40107181 187.01171875 51.63085938 C197.2061303 62.01946623 197.2061303 62.01946623 197.12890625 70.47412109 C196.86208123 77.77239184 196.15279929 85.04043273 195.5 92.3125 C195.28406362 94.74456195 195.06955099 97.17672636 194.85803223 99.60917664 C194.72722887 101.11089297 194.59384387 102.61238756 194.45739746 104.11360168 C194.28544193 106.07412257 194.14183492 108.03707012 194 110 C193.75068726 111.49418457 193.75068726 111.49418457 193.49633789 113.01855469 C194.32751608 117.93874277 197.8553026 120.46877699 201.40234375 123.77734375 C202.1546376 124.50691788 202.90693146 125.236492 203.68202209 125.98817444 C206.89885046 129.10696168 210.14985736 132.1892434 213.39819336 135.27514648 C215.76598069 137.53436559 218.11555746 139.8114172 220.46484375 142.08984375 C221.20339096 142.77860092 221.94193817 143.46735809 222.7028656 144.17698669 C228.33564341 149.64574307 228.33564341 149.64574307 229.02978516 153.87304688 C228.99706656 157.30796345 228.81478876 158.18521124 226.4375 160.5625 C225.79683594 161.21476563 225.15617187 161.86703125 224.49609375 162.5390625 C223.67238281 163.35117188 222.84867187 164.16328125 222 165 C220.88365501 166.19245167 219.77063793 167.38802367 218.66015625 168.5859375 C217.44158594 169.87119818 216.22151968 171.1550421 215 172.4375 C214.41919678 173.065354 213.83839355 173.69320801 213.23999023 174.34008789 C210.27871857 177.37116363 208.46491795 178.85904084 204.328125 180.11328125 C200.48394008 179.98243458 199.42669389 179.42669389 196.75 176.75 C195.78320312 175.81414062 195.78320312 175.81414062 194.796875 174.859375 C194.20390625 174.24578125 193.6109375 173.6321875 193 173 C192.42765625 172.42765625 191.8553125 171.8553125 191.265625 171.265625 C190.84796875 170.84796875 190.4303125 170.4303125 190 170 C188.26360307 171.73639693 188.29283383 173.68484899 187.9765625 176.0703125 C188.03545744 182.92852659 191.08352 186.14132133 195.7109375 190.7421875 C198.55213055 193.50584999 201.45410105 196.19602381 204.375 198.875 C206.57499397 200.93430228 208.765958 203.00213604 210.94692993 205.08157349 C212.30104384 206.3682633 213.66729117 207.64233858 215.04696655 208.90158081 C218.66115641 212.28840632 221.22251632 214.90181725 222 220 C220.50167548 226.26776414 215.21100246 230.34158356 210.8125 234.75 C209.97396484 235.62527344 209.13542969 236.50054687 208.27148438 237.40234375 C201.27570076 244.44727807 201.27570076 244.44727807 197.0859375 245.18359375 C191.22915397 244.8351522 187.91684014 240.98393804 184 237 C181.07710329 249.46329666 181.07710329 249.46329666 183.9296875 261.3046875 C186.81163597 263.86006957 189.75415567 265.92978465 193 268 C194.83109581 269.45608325 196.64414853 270.93517487 198.4375 272.4375 C199.34371094 273.16839844 200.24992187 273.89929688 201.18359375 274.65234375 C204.74472315 277.62077477 208.12643157 280.75649449 211.51928711 283.91381836 C215.59913933 287.68799458 219.86437901 291.18439182 224.1953125 294.66796875 C228.36401156 298.13414332 232.31208674 301.81977912 236.2734375 305.51953125 C238.90418378 307.98218358 238.90418378 307.98218358 241.51953125 309.93359375 C254.37211121 320.64070367 263.99420484 338.48168693 266 355 C267.08810595 369.7982409 264.71719844 384.97791199 254.78222656 396.59277344 C252.5438271 399.08368329 250.28577151 401.55255344 248 404 C249.8394519 404.01401855 249.8394519 404.01401855 251.71606445 404.02832031 C256.26184543 404.06816464 260.80694562 404.13390756 265.35229492 404.20751953 C267.32030498 404.23576149 269.28842915 404.25695994 271.2565918 404.27099609 C274.0844173 404.29238121 276.91086615 404.3390074 279.73828125 404.390625 C280.61962234 404.39185364 281.50096344 404.39308228 282.40901184 404.39434814 C288.49058889 404.54048123 288.49058889 404.54048123 291.05151367 406.85058594 C292.36007026 409.8159739 292.46765576 411.79321762 292 415 C289.8255244 417.8928381 288.63794085 418.8919548 285.03276539 419.50254732 C283.86387618 419.50373881 282.69498697 419.50493029 281.49067688 419.50615788 C280.83554765 419.51227123 280.18041841 419.51838459 279.50543678 419.52468321 C277.30054452 419.54033832 275.09674363 419.52739608 272.8918457 419.5146637 C271.29906476 419.51998655 269.70628883 419.52705072 268.11352253 419.53571075 C263.72916757 419.55439971 259.34514894 419.54801174 254.96077967 419.53755772 C250.23540934 419.53058342 245.51010935 419.54655011 240.78475952 419.55955505 C231.52484256 419.58122966 222.26504832 419.58105937 213.00511432 419.57292951 C205.48139428 419.56663734 197.95771012 419.56775934 190.43399048 419.57420158 C189.36439789 419.57510324 188.2948053 419.57600489 187.19280082 419.57693387 C185.02014787 419.57878501 182.84749493 419.58064757 180.674842 419.58252143 C160.28750277 419.59911181 139.90023269 419.59037001 119.51289761 419.57353585 C100.84693174 419.55883611 82.1811268 419.57346899 63.51518166 419.60230602 C44.36356795 419.63167376 25.21202858 419.64268007 6.06039333 419.63312382 C3.89559874 419.63210123 1.73080414 419.63110662 -0.43399048 419.6301403 C-1.49919424 419.62966391 -2.56439801 419.62918752 -3.66188067 419.6286967 C-11.17918721 419.62652919 -18.69642362 419.63635446 -26.2137146 419.65091133 C-35.37107646 419.66839627 -44.52823304 419.6683726 -53.68558669 419.64555968 C-58.36055096 419.63438274 -63.03515305 419.63133267 -67.71010208 419.64986038 C-71.98610391 419.66658938 -76.26142558 419.66041812 -80.53738272 419.63564359 C-82.0877921 419.63073482 -83.63825555 419.63434487 -85.18861997 419.64713103 C-87.29013511 419.66321776 -89.38927094 419.64876183 -91.49067688 419.62641239 C-92.65956609 419.6261427 -93.8284553 419.62587301 -95.03276539 419.62559515 C-98 419 -98 419 -100.4146452 416.69131798 C-102 414 -102 414 -101.875 410.3125 C-101 407 -101 407 -99 405 C-97.04600322 404.74519098 -97.04600322 404.74519098 -94.59968376 404.73828697 C-93.66911844 404.73082148 -92.73855312 404.72335599 -91.77978885 404.71566427 C-90.23603901 404.71856637 -90.23603901 404.71856637 -88.66110229 404.7215271 C-87.02920163 404.7128385 -87.02920163 404.7128385 -85.36433327 404.70397437 C-81.69451956 404.68687879 -78.02483087 404.68408966 -74.35498047 404.68115234 C-71.73402596 404.67186076 -69.11307443 404.66169326 -66.49212646 404.65071106 C-60.83689788 404.62840451 -55.1816875 404.6134117 -49.52642441 404.60334396 C-41.349805 404.5887771 -33.17324898 404.56324596 -24.99666668 404.53501268 C-11.73168126 404.48950836 1.53331326 404.45290864 14.79833984 404.421875 C27.68637695 404.39170434 40.57439176 404.35736092 53.46240234 404.31738281 C54.65342541 404.31369049 54.65342541 404.31369049 55.86850955 404.30992357 C59.85173145 404.29754926 63.83495308 404.28509267 67.8181746 404.27259517 C100.87875285 404.16897289 133.9393555 404.07978766 167 404 C166.3137001 403.38647675 165.62740021 402.77295349 164.92030334 402.14083862 C163.56962013 400.93006149 163.56962013 400.93006149 162.19165039 399.69482422 C161.29910049 398.89567596 160.4065506 398.09652771 159.48695374 397.27316284 C156.63648836 394.66773762 154.02855322 391.9877286 151.4375 389.125 C150.98189697 388.62234619 150.52629395 388.11969238 150.05688477 387.60180664 C146.30451183 383.42559935 142.76608349 379.08816433 139.24609375 374.71484375 C136.9116941 371.89326505 134.48009402 369.19409288 132 366.5 C127.91585426 362.06290339 124.09203919 357.47515022 120.30859375 352.78125 C117.02921505 348.83045874 113.55992789 345.07391297 110.06640625 341.3125 C108 339 108 339 106 336 C103.44521839 335.59459601 103.44521839 335.59459601 100.5 335.75 C99.43265625 335.77578125 98.3653125 335.8015625 97.265625 335.828125 C92.82268849 336.06196376 88.41495628 336.45301427 84 337 C84.56589844 337.51949219 85.13179687 338.03898437 85.71484375 338.57421875 C86.44832031 339.27160156 87.18179688 339.96898437 87.9375 340.6875 C88.66839844 341.37199219 89.39929688 342.05648438 90.15234375 342.76171875 C92.30056141 345.36410505 93.00506731 346.62010247 93 350 C90.02513328 355.8749463 85.02429734 360.23731058 80.375 364.8125 C79.59898437 365.58787109 78.82296875 366.36324219 78.0234375 367.16210938 C71.40058367 373.73322216 71.40058367 373.73322216 67.375 374.5 C60.12474715 373.42588847 54.99240462 366.00106845 50.13671875 360.84765625 C48.53192695 359.16114783 46.92599386 357.47573497 45.31958008 355.79077148 C44.22776882 354.63461114 43.1450834 353.46976707 42.0715332 352.29663086 C35.94236401 345.25750521 35.94236401 345.25750521 27.82666016 341.21435547 C24.20408134 341.17714326 21.25866033 341.37066984 18 343 C18.56589844 343.55429687 19.13179687 344.10859375 19.71484375 344.6796875 C20.44832031 345.40414063 21.18179688 346.12859375 21.9375 346.875 C22.66839844 347.59429687 23.39929688 348.31359375 24.15234375 349.0546875 C26.44949698 351.47325475 26.94813032 352.48058276 27.28125 355.81640625 C26.65778846 362.87364452 19.92807541 368.34976945 14.8125 372.8125 C13.8225 373.63041016 13.8225 373.63041016 12.8125 374.46484375 C10.76982271 376.13472907 10.76982271 376.13472907 8.3125 378.875 C5.72626627 381.2515391 4.50363793 382 1 382 C-4.03661055 379.67671132 -6.95380704 375.79007797 -10.43359375 371.63671875 C-23.84524999 354.66966575 -23.84524999 354.66966575 -42.31800842 345.39677429 C-49.29607727 345.05593754 -56.033929 346.46957123 -62.76367188 348.21435547 C-66.85119718 349.20663492 -70.80811473 349.63218876 -75.00390625 349.83276367 C-78.03595154 349.94703373 -78.03595154 349.94703373 -81.13671875 350.5246582 C-86.50501527 351.14729926 -90.24627071 350.8786459 -94.54101562 347.49707031 C-98.36323723 344.11090716 -101.8010332 340.38374296 -105.25 336.625 C-106.48003952 335.33823929 -107.7130931 334.05435268 -108.94921875 332.7734375 C-118.84318607 322.44268813 -118.84318607 322.44268813 -119.3125 318.125 C-118.91432701 314.14327006 -118.06087711 313.51668761 -115 311 C-112.38095567 309.66887153 -109.81736836 308.47670516 -107.1171875 307.33984375 C-106.32764679 306.99792496 -105.53810608 306.65600616 -104.72463989 306.3037262 C-103.0116906 305.56286426 -101.29692159 304.82619867 -99.58056641 304.09326172 C-94.91761188 302.10134449 -90.26835477 300.07784321 -85.6171875 298.05859375 C-84.65327087 297.64108856 -83.68935425 297.22358337 -82.69622803 296.79342651 C-72.74579907 292.47539216 -62.87129682 287.99524172 -53 283.5 C-37.06224436 276.25284528 -21.06605144 269.14857411 -5.0234375 262.13671875 C-4.2281665 261.78910492 -3.43289551 261.44149109 -2.61352539 261.08334351 C-1.05567761 260.40276067 0.50242212 259.72275422 2.06079102 259.04336548 C6.08808579 257.28503933 10.10594462 255.50798629 14.11328125 253.70458984 C15.35803223 253.14568306 15.35803223 253.14568306 16.62792969 252.57548523 C18.21727896 251.86063069 19.80523979 251.14267883 21.39160156 250.42121887 C26.77847898 248 26.77847898 248 29 248 C24.47729405 242.35207977 19.90107268 236.82357894 15 231.5 C10.90648909 227.05272888 7.07557501 222.45282537 3.28125 217.75 C0.93281032 214.91900422 -1.50909902 212.20616402 -4 209.5 C-7.31246834 205.90082652 -10.48663412 202.24087503 -13.5625 198.4375 C-14.2946875 197.54289063 -15.026875 196.64828125 -15.78125 195.7265625 C-17.2993854 193.86096654 -18.79860641 191.97986236 -20.28125 190.0859375 C-21.0340625 189.17070312 -21.786875 188.25546875 -22.5625 187.3125 C-23.22378906 186.48363281 -23.88507813 185.65476563 -24.56640625 184.80078125 C-29.85760661 180.88546285 -37.96804037 183.31380158 -44.09017277 184.21255779 C-45.49992308 184.4241046 -46.90942829 184.63729004 -48.31870651 184.85195923 C-50.56440564 185.19373499 -52.81112878 185.52787263 -55.05825806 185.86010742 C-60.63806114 186.68648257 -66.21615194 187.52415223 -71.79388428 188.36437988 C-76.51569348 189.07554973 -81.2382937 189.78091614 -85.96217728 190.47817993 C-88.15971439 190.80488473 -90.35586483 191.13997228 -92.55209351 191.4753418 C-96.3606072 192.04901746 -100.17630281 192.53721548 -104 193 C-105.41988472 193.21370743 -105.41988472 193.21370743 -106.86845398 193.43173218 C-110.73142679 193.78922603 -113.03452166 193.62270153 -116.3392334 191.49127197 C-118.87819822 189.29720455 -121.17087006 186.98061706 -123.47265625 184.5390625 C-124.32178085 183.6781601 -125.17090546 182.81725769 -126.04576111 181.93026733 C-128.74236929 179.18447111 -131.40188702 176.40564244 -134.0625 173.625 C-135.88509901 171.76079802 -137.7099467 169.89879171 -139.53710938 168.0390625 C-142.86004126 164.64135845 -146.17604611 161.23767744 -149.46508789 157.80712891 C-150.12553604 157.11873932 -150.78598419 156.43034973 -151.46644592 155.72109985 C-153.53266036 153.40219802 -153.97255868 152.25246015 -154.3125 149.125 C-153.92233481 145.22334814 -152.94730038 144.47999573 -150 142 C-147.70927429 140.93656921 -147.70927429 140.93656921 -145.15112305 140.1315918 C-143.69494568 139.66333733 -143.69494568 139.66333733 -142.20935059 139.18562317 C-141.15413208 138.86010971 -140.09891357 138.53459625 -139.01171875 138.19921875 C-137.90050659 137.84554733 -136.78929443 137.49187592 -135.64440918 137.12748718 C-131.99568752 135.96913955 -128.34176907 134.82821374 -124.6875 133.6875 C-122.16866496 132.89193212 -119.65019442 132.09520936 -117.13208008 131.29736328 C-112.61906669 129.86823484 -108.10472169 128.44345997 -103.58869457 127.02388382 C-95.69447164 124.54177278 -87.81318074 122.02080165 -79.9375 119.48046875 C-77.76084902 118.77962474 -75.58417322 118.07885779 -73.4074707 117.37817383 C-70.31100472 116.38134959 -67.21478095 115.3838174 -64.11947632 114.38339233 C-61.28279117 113.46757689 -58.44438882 112.55729704 -55.60546875 111.6484375 C-54.77059937 111.3774675 -53.93572998 111.1064975 -53.07556152 110.82731628 C-49.94909743 109.83082506 -47.30295577 109 -44 109 C-43.87105347 107.64660522 -43.87105347 107.64660522 -43.73950195 106.26586914 C-42.91809227 100.57274847 -40.95705694 95.19391519 -39.16796875 89.74609375 C-38.7796991 88.54783966 -38.39142944 87.34958557 -37.99139404 86.11502075 C-37.15933861 83.54923045 -36.32534716 80.98417665 -35.48776245 78.42019653 C-33.52674108 72.41714966 -31.58116729 66.40908977 -29.63389778 60.40157127 C-28.98450545 58.39883981 -28.33438491 56.39634577 -27.68418884 54.39387512 C-25.13459143 46.53656628 -22.61507752 38.67041049 -20.140625 30.7890625 C-19.85943314 29.89355179 -19.57824127 28.99804108 -19.28852844 28.07539368 C-18.01349134 24.00884084 -16.74415145 19.94056461 -15.47924805 15.87084961 C-15.03699569 14.45685314 -14.59469745 13.04287102 -14.15234375 11.62890625 C-13.78101318 10.43338135 -13.40968262 9.23785645 -13.02709961 8.00610352 C-10.65564963 1.06537053 -7.83544847 -1.86252378 0 0 Z M-1 21 C-3.93227914 28.52458733 -6.38367156 36.19938909 -8.859375 43.8828125 C-9.33141444 45.34329967 -9.80360582 46.80373774 -10.27593994 48.26412964 C-11.26549491 51.32497369 -12.25384459 54.38620316 -13.24121094 57.44775391 C-14.48450874 61.30286144 -15.72976358 65.15733252 -16.97594452 69.01150894 C-17.70746805 71.27442377 -18.43830952 73.53755803 -19.16906738 75.80072021 C-20.12318242 78.7551938 -21.08009843 81.7087395 -22.03894043 84.66168213 C-24.12028098 91.08316302 -26.17078259 97.50649136 -28.08789062 103.97949219 C-28.55270844 105.52490189 -28.55270844 105.52490189 -29.0269165 107.10153198 C-29.58208375 108.95956309 -30.12254561 110.82208623 -30.64447021 112.68972778 C-31.00656586 113.89301224 -31.00656586 113.89301224 -31.37597656 115.12060547 C-31.57145081 115.80460419 -31.76692505 116.48860291 -31.96832275 117.19332886 C-34.27259447 121.22856491 -38.98007306 122.48582662 -43.19702148 123.80249023 C-44.21641815 124.12429764 -45.23581482 124.44610504 -46.28610229 124.77766418 C-47.38664948 125.11787094 -48.48719666 125.4580777 -49.62109375 125.80859375 C-50.77787628 126.17188278 -51.93465881 126.53517181 -53.12649536 126.9094696 C-56.25006694 127.88921517 -59.37533248 128.86330364 -62.5014534 129.83487701 C-65.73089043 130.8400868 -68.95801801 131.85265189 -72.18530273 132.86474609 C-76.71581111 134.284892 -81.24696844 135.70292716 -85.77910328 137.11787415 C-95.56298907 140.17244528 -105.33743584 143.25646709 -115.10940552 146.34890747 C-118.96956283 147.5701565 -122.83049826 148.78893922 -126.69140625 150.0078125 C-127.92060791 150.39598145 -129.14980957 150.78415039 -130.41625977 151.18408203 C-131.69521118 151.58796143 -131.69521118 151.58796143 -133 152 C-128.10351581 157.78461053 -123.11594597 163.46571902 -117.9375 169 C-117.16728516 169.88300781 -116.39707031 170.76601562 -115.60351562 171.67578125 C-111.18065309 176.44183813 -111.18065309 176.44183813 -105.16513062 178.1844635 C-104.15205841 178.0553508 -103.13898621 177.9262381 -102.09521484 177.79321289 C-100.94881027 177.66625031 -99.8024057 177.53928772 -98.6212616 177.40847778 C-96.82873711 177.20628128 -96.82873711 177.20628128 -95 177 C-92.63976388 176.85340123 -90.27857901 176.721425 -87.91674805 176.60327148 C-54.22385664 174.6101476 -22.59437442 171.6860965 1.44116211 145.41601562 C19.92669805 123.18988861 21.13553136 92.30200019 22.6872406 64.60105896 C22.91343404 61.99670584 23.22155489 59.56590536 23.68788147 57.00746155 C25.10984793 50.33771531 25.10984793 50.33771531 24.21136475 43.74537659 C22.87437491 41.90061287 21.49850148 40.53796841 19.76171875 39.06640625 C19.20635941 38.53272934 18.65100006 37.99905243 18.07881165 37.44920349 C16.31781042 35.77584099 14.50708444 34.17171388 12.6875 32.5625 C11.47863871 31.4304587 10.27351456 30.29441271 9.07226562 29.15429688 C4.44622801 24.02834315 4.44622801 24.02834315 -1 21 Z M167 55 C158.55903372 73.28063168 150.24473994 91.6091935 142.1875 110.0625 C134.73695707 127.12514804 127.12037486 144.10779967 119.4125824 161.05570984 C118.68202818 162.66491731 117.95343617 164.27501724 117.22694397 165.88606262 C115.38593236 169.9677956 113.51671743 174.0324567 111.59863281 178.07861328 C110.83913392 179.70993357 110.0796917 181.34128024 109.3203125 182.97265625 C108.95614227 183.72236191 108.59197205 184.47206757 108.21676636 185.24449158 C106.31258259 189.16668137 106.31258259 189.16668137 106.65405273 193.36035156 C108.57499617 195.70046695 110.67610312 197.67268298 112.9375 199.6875 C113.42549072 200.12392822 113.91348145 200.56035645 114.41625977 201.01000977 C118.56518076 204.69017127 122.86723257 208.17101119 127.18359375 211.65234375 C130.74393134 214.62011475 134.12482163 217.75518485 137.51708984 220.91162109 C141.61843688 224.70533395 145.90102884 228.22850722 150.2578125 231.7265625 C154.17917734 234.97760857 157.88123003 238.44345506 161.58984375 241.93359375 C163.71948625 243.75949469 165.49546369 244.82063617 168 246 C173.92627372 175.30954547 173.92627372 175.30954547 179.74771118 104.6104126 C179.95621082 102.05347732 180.16581129 99.49663155 180.3765564 96.93988037 C180.66176586 93.47579473 180.9428742 90.01140261 181.22265625 86.546875 C181.30345428 85.57483124 181.38425232 84.60278748 181.46749878 83.60128784 C181.66929368 81.06830495 181.84657396 78.53633862 182 76 C182.07157318 74.8621405 182.07157318 74.8621405 182.14459229 73.70129395 C182.25209718 70.73476967 182.29462462 68.53302412 180.83837891 65.8984375 C180.30647949 65.39570312 179.77458008 64.89296875 179.2265625 64.375 C178.3603125 63.53388672 178.3603125 63.53388672 177.4765625 62.67578125 C176.86554688 62.12277344 176.25453125 61.56976563 175.625 61 C175.02171875 60.41605469 174.4184375 59.83210938 173.796875 59.23046875 C170.89025286 56.07933825 170.89025286 56.07933825 167 55 Z M191 135 C189.79858609 139.63204092 188.77562491 144.29308634 190 149 C193.30218061 154.21182798 198.26677997 158.13378771 203 162 C204.17539996 161.07347299 205.34010577 160.13336613 206.5 159.1875 C207.1496875 158.66542969 207.799375 158.14335937 208.46875 157.60546875 C210.34509128 156.00795167 210.34509128 156.00795167 210 153 C208.33252105 150.89889106 208.33252105 150.89889106 206.09765625 148.76953125 C205.29005859 147.96708984 204.48246094 147.16464844 203.65039062 146.33789062 C202.79638672 145.50451172 201.94238281 144.67113281 201.0625 143.8125 C200.21236328 142.96751953 199.36222656 142.12253906 198.48632812 141.25195312 C195.175909 137.26450221 195.175909 137.26450221 191 135 Z M18.34846497 141.29077148 C17.75112045 141.89477783 17.15377594 142.49878418 16.53833008 143.12109375 C15.8578511 143.80179932 15.17737213 144.48250488 14.47627258 145.18383789 C13.74804794 145.92754639 13.0198233 146.67125488 12.26953125 147.4375 C11.51911057 148.19216553 10.76868988 148.94683105 9.99552917 149.72436523 C7.59407604 152.14264671 5.20324651 154.57113771 2.8125 157 C1.18883881 158.63870258 -0.43550167 160.2767324 -2.06054688 161.9140625 C-6.04828738 165.93492745 -10.02734819 169.96422965 -14 174 C-13.05263689 175.27606056 -12.10347472 176.5507856 -11.15356445 177.82495117 C-10.62519485 178.53495773 -10.09682526 179.24496429 -9.55244446 179.97648621 C-7.5694537 182.56119005 -5.41530716 184.93691127 -3.1875 187.3125 C0.1709078 190.95203013 3.39230467 194.64425766 6.5 198.5 C9.55348679 202.28460334 12.70668301 205.92207537 16 209.5 C20.09351091 213.94727112 23.92442499 218.54717463 27.71875 223.25 C30.86194258 227.03905407 34.20158595 230.63269352 37.53515625 234.25390625 C39.92707297 236.91875166 42.19254884 239.64831825 44.4375 242.4375 C47.65943101 246.43223986 51.00655495 250.24554349 54.5 254 C58.78955113 258.61004336 62.80410672 263.37782956 66.75390625 268.28515625 C69.0883059 271.10673495 71.51990598 273.80590712 74 276.5 C77.27418423 280.05670244 80.40642433 283.67161811 83.4375 287.4375 C86.65943101 291.43223986 90.00655495 295.24554349 93.5 299 C97.78955113 303.61004336 101.80410672 308.37782956 105.75390625 313.28515625 C108.0883059 316.10673495 110.51990598 318.80590712 113 321.5 C116.27418423 325.05670244 119.40642433 328.67161811 122.4375 332.4375 C125.65943101 336.43223986 129.00655495 340.24554349 132.5 344 C136.78955113 348.61004336 140.80410672 353.37782956 144.75390625 358.28515625 C147.88055839 362.0643271 151.20880398 365.64297257 154.53515625 369.24609375 C156.94893733 371.942949 159.19605671 374.72174033 161.4375 377.5625 C169.84295215 387.87828219 179.20281041 395.1014052 191 401 C191.74507812 401.38285156 192.49015625 401.76570313 193.2578125 402.16015625 C202.20439656 405.93175541 215.05868256 405.40132663 224.125 402.375 C228.98356021 400.25773752 233.03427048 397.49422028 237 394 C237.61746094 393.47535156 238.23492187 392.95070313 238.87109375 392.41015625 C246.23505267 385.67965616 250.38745755 376.39608274 251.3359375 366.4921875 C251.53752512 347.82517362 244.67999185 335.17937509 232 322 C231.3503125 321.31035156 230.700625 320.62070312 230.03125 319.91015625 C225.62390563 315.34927734 220.86463096 311.38446213 215.921875 307.41796875 C212.84776341 304.87401811 209.91830335 302.21878139 207 299.5 C202.39025806 295.21014194 197.62214231 291.19587064 192.71484375 287.24609375 C188.93290521 284.11715179 185.3524413 280.78482555 181.7421875 277.4609375 C179.09984117 275.08960105 176.39305833 272.84747003 173.625 270.625 C169.421856 267.23614031 165.43796823 263.68760734 161.5 260 C156.69453707 255.50041006 151.7483902 251.26896753 146.61328125 247.14453125 C144.00152377 245.00125044 141.49634698 242.7761967 139 240.5 C135.58260628 237.38541332 132.0947765 234.4081338 128.5 231.5 C124.03435293 227.8873417 119.76715385 224.11106455 115.5234375 220.2421875 C112.94917642 217.95484096 110.30710511 215.78451729 107.625 213.625 C103.07219493 209.94428153 98.76582589 206.07351352 94.4831543 202.08862305 C90.37239043 198.28614986 86.07733477 194.75736701 81.71484375 191.24609375 C77.93432714 188.11832821 74.35519125 184.78726117 70.74609375 181.46484375 C68.08124834 179.07292703 65.35168175 176.80745116 62.5625 174.5625 C58.02763839 170.90493736 53.74463817 167.05382973 49.48291016 163.08837891 C45.38344645 159.29640811 41.10465763 155.77316185 36.74609375 152.28125 C32.77326055 148.9809163 29.04686468 145.43719491 25.3125 141.87109375 C22.6338568 139.70374562 21.20029438 139.06189955 18.34846497 141.29077148 Z M186 203 C185.43354565 205.15284501 185.43354565 205.15284501 185 208 C184.7525 209.19625 184.505 210.3925 184.25 211.625 C184.21903552 215.66586523 186.1953484 217.66796965 188.93652344 220.48583984 C191.24154578 222.71815536 193.59466811 224.8758108 196 227 C198.31 225.02 200.62 223.04 203 221 C201.3245769 217.6491538 200.31401219 216.06524757 197.77734375 213.546875 C196.84631836 212.61875 196.84631836 212.61875 195.89648438 211.671875 C195.25001953 211.03765625 194.60355469 210.4034375 193.9375 209.75 C193.28716797 209.1003125 192.63683594 208.450625 191.96679688 207.78125 C189.36003892 204.63767297 189.36003892 204.63767297 186 203 Z M31.41015625 262.26953125 C30.6163707 262.61710983 29.82258514 262.96468842 29.00474548 263.32279968 C26.35631543 264.48373544 23.70932372 265.64790698 21.0625 266.8125 C19.69121948 267.41481445 19.69121948 267.41481445 18.29223633 268.02929688 C3.61658272 274.47767083 -11.00186201 281.04632657 -25.5947876 287.67944336 C-40.81291142 294.5944674 -56.09449047 301.3564437 -71.41601562 308.0390625 C-80.32554244 311.92764175 -89.19661829 315.87498124 -98 320 C-96.19796423 323.80780652 -93.9771042 326.62508584 -91.125 329.75 C-90.26132813 330.73484375 -89.39765625 331.7196875 -88.5078125 332.734375 C-81.24495324 338.69847574 -66.13371117 334.57193769 -57.26074219 333.82250977 C-55.71535593 333.69563939 -54.16993448 333.56919706 -52.6244812 333.44314575 C-48.46325399 333.10249612 -44.30255138 332.75579848 -40.14192867 332.40785336 C-35.77110338 332.04329346 -31.3998377 331.68408879 -27.02862549 331.32420349 C-19.69524062 330.71967002 -12.36216854 330.111458 -5.02929688 329.50073242 C4.36767006 328.71811666 13.76513446 327.94164896 23.16276932 327.16709995 C31.26791355 326.49902279 39.37281955 325.82807219 47.4776907 325.15669131 C50.07176576 324.94193272 52.66587377 324.72757555 55.25998688 324.51327705 C59.34120702 324.17594915 63.42227395 323.83682146 67.50323105 323.49632645 C68.99628618 323.37200303 70.4893879 323.24823756 71.98254013 323.12508583 C79.00644683 322.54539453 86.01569435 321.95835122 93 321 C89.09799267 315.51609781 84.82347522 310.55159426 80.2409668 305.63574219 C77.19624233 302.35230639 74.30704553 298.99242828 71.5 295.5 C68.3006763 291.52369768 64.97408767 287.73338378 61.5 284 C57.16126728 279.3356362 53.08020151 274.51800151 49.078125 269.55859375 C44.68618844 264.15080507 44.68618844 264.15080507 40 259 C37.23225515 259 33.96368092 261.14684323 31.41015625 262.26953125 Z M53.0625 338.5 C52.051875 338.665 51.04125 338.83 50 339 C54.98404168 345.03331362 60.41915303 350.5184171 66 356 C69.32759923 354.44805246 71.48580485 352.69378051 74 350 C71.78648673 345.01116805 68.31313462 341.3015085 64 338 C60.0436661 337.3753157 57.0257489 337.9967303 53.0625 338.5 Z M-10.625 343.5 C-11.62789062 343.5928125 -12.63078125 343.685625 -13.6640625 343.78125 C-14.43492187 343.8534375 -15.20578125 343.925625 -16 344 C-14.60652624 347.15204981 -12.97514921 349.26171773 -10.5234375 351.671875 C-9.853125 352.33574219 -9.1828125 352.99960937 -8.4921875 353.68359375 C-7.44417969 354.70646484 -7.44417969 354.70646484 -6.375 355.75 C-5.31539062 356.79607422 -5.31539062 356.79607422 -4.234375 357.86328125 C-2.49401297 359.58012488 -0.74915019 361.29211832 1 363 C4.32759923 361.44805246 6.48580485 359.69378051 9 357 C7.41438362 353.14406926 4.93490046 350.66783709 2 347.75 C1.113125 346.85796875 0.22625 345.9659375 -0.6875 345.046875 C-3.99107579 342.12276399 -6.35783576 343.10305449 -10.625 343.5 Z " fill="#000000" transform="translate(158,0)"/>
<path d="M0 0 C4.14324927 1.02081139 5.73486929 2.23419582 8.74095154 5.21170044 C9.68139816 6.13000641 10.62184479 7.04831238 11.59078979 7.9944458 C12.59359059 9.00466764 13.59552862 10.01574654 14.59666443 11.02761841 C15.639611 12.06397748 16.68337131 13.09951821 17.72790527 14.13427734 C19.90879626 16.30184001 22.07826531 18.48008579 24.24046326 20.66629028 C27.00841277 23.46284777 29.80466743 26.22898469 32.61038876 28.98758125 C34.77022803 31.11819524 36.91331612 33.2650566 39.05183601 35.41704941 C40.0763925 36.4437551 41.1062763 37.46517381 42.14156914 38.4810524 C43.58738154 39.90429785 45.00851471 41.35248225 46.42845154 42.80154419 C47.24228806 43.61793365 48.05612457 44.43432312 48.8946228 45.27545166 C51.1573061 48.68713504 51.07068312 50.87811064 50.63182068 54.89480591 C48.62955939 57.89819784 47.37328695 58.70943934 43.88182068 59.58230591 C33.22429062 57.3278284 22.49438262 42.09683716 14.99339294 34.66140747 C13.12099489 32.81073022 11.24235148 30.96635122 9.35765076 29.12820435 C6.62326839 26.46058377 3.90896428 23.77392485 1.19822693 21.08230591 C0.35353348 20.26544312 -0.49115997 19.44858032 -1.3614502 18.60696411 C-7.7647771 12.18071127 -7.7647771 12.18071127 -8.52857971 8.00808716 C-8.36817932 4.89480591 -8.36817932 4.89480591 -6.36817932 1.89480591 C-3.36817932 -0.10519409 -3.36817932 -0.10519409 0 0 Z " fill="#000000" transform="translate(433.36817932128906,426.1051940917969)"/>
<path d="M0 0 C1.9375 1.625 1.9375 1.625 3 4 C2.72685864 9.55181324 1.56940265 12.18553359 -2.31689453 16.10913086 C-3.2352005 17.04957748 -4.15350647 17.99002411 -5.09963989 18.95896912 C-6.10986173 19.96176991 -7.12094063 20.96370794 -8.1328125 21.96484375 C-9.16917157 23.00779032 -10.2047123 24.05155063 -11.23947144 25.09608459 C-13.4070341 27.27697558 -15.58527988 29.44644463 -17.77148438 31.60864258 C-20.56804187 34.37659209 -23.33417878 37.17284676 -26.09277534 39.97856808 C-28.22338933 42.13840735 -30.3702507 44.28149544 -32.5222435 46.42001534 C-33.54894919 47.44457182 -34.57036791 48.47445562 -35.58624649 49.50974846 C-37.00949194 50.95556086 -38.45767634 52.37669403 -39.90673828 53.79663086 C-40.72312775 54.61046738 -41.53951721 55.42430389 -42.38064575 56.26280212 C-45.79232913 58.52548542 -47.98330474 58.43886244 -52 58 C-55.00339193 55.99773871 -55.81463343 54.74146627 -56.6875 51.25 C-54.96600389 43.11201837 -45.37761329 36.21729995 -39.671875 30.50390625 C-38.80105286 29.62975571 -37.93023071 28.75560516 -37.03302002 27.85496521 C-35.20561461 26.02252729 -33.37687916 24.19141488 -31.546875 22.36157227 C-28.73930592 19.55179752 -25.93985276 16.73409752 -23.140625 13.91601562 C-21.35986417 12.132324 -19.57863092 10.34910386 -17.796875 8.56640625 C-16.5406131 7.29936607 -16.5406131 7.29936607 -15.25897217 6.00672913 C-14.48096252 5.23179611 -13.70295288 4.4568631 -12.90136719 3.65844727 C-12.21854675 2.97420181 -11.53572632 2.28995636 -10.83221436 1.5849762 C-7.26249134 -1.50305004 -4.35585064 -1.17970955 0 0 Z " fill="#000000" transform="translate(468,250)"/>
<path d="M0 0 C0.6671553 -0.00700928 1.33431061 -0.01401855 2.02168274 -0.02124023 C4.22126205 -0.03880818 6.41954884 -0.0272034 8.61914062 -0.01367188 C10.15084072 -0.01636718 11.68253915 -0.02024992 13.2142334 -0.02526855 C16.42212233 -0.03116191 19.62956531 -0.02260644 22.83740234 -0.00390625 C26.94685105 0.01888389 31.05525484 0.00575984 35.16466522 -0.01819611 C38.32688249 -0.03265887 41.48885251 -0.02804605 44.65107727 -0.01768494 C46.1661237 -0.01501894 47.68119266 -0.018283 49.19621277 -0.02760315 C51.31500594 -0.03777748 53.43211347 -0.02225918 55.55078125 0 C57.35802673 0.00477356 57.35802673 0.00477356 59.20178223 0.00964355 C62.87925612 0.61737098 64.07021405 1.56031322 66.27539062 4.51757812 C66.75416943 7.80063279 66.68744558 9.71113179 65.17370605 12.67372131 C62.38143901 15.38588418 60.3079295 15.01877442 56.46484375 15.01928711 C55.77672104 15.02469009 55.08859833 15.03009308 54.37962341 15.03565979 C52.10485835 15.04816798 49.83135389 15.03164399 47.55664062 15.01367188 C45.97627699 15.01382682 44.39591298 15.01531499 42.81555176 15.01808167 C39.50332849 15.01946658 36.19153776 15.00689266 32.87939453 14.98413086 C28.63207437 14.95574553 24.38547302 14.9584821 20.13809967 14.97122097 C16.87471366 14.97817342 13.61149404 14.97039392 10.34812927 14.95796394 C8.78202451 14.95344519 7.21590192 14.95311634 5.64979553 14.95702934 C3.46146997 14.95993743 1.27413761 14.9434557 -0.9140625 14.92163086 C-2.15965942 14.91622787 -3.40525635 14.91082489 -4.68859863 14.90525818 C-7.72460938 14.51757812 -7.72460938 14.51757812 -9.6229248 13.20716858 C-11.51743474 10.30166732 -11.13585236 7.86627104 -10.72460938 4.51757812 C-7.60930078 0.2716243 -5.11960447 0.01352264 0 0 Z " fill="#000000" transform="translate(441.724609375,350.482421875)"/>
<path d="M0 0 C1.66323853 1.12695312 1.66323853 1.12695312 3 3 C3.38095093 5.99804688 3.38095093 5.99804688 3.38818359 9.71875 C3.39344055 10.39711914 3.39869751 11.07548828 3.40411377 11.77441406 C3.41731635 14.01651035 3.40857538 16.25789651 3.3984375 18.5 C3.40045818 20.0579441 3.40336956 21.61588727 3.40713501 23.17382812 C3.41155869 26.43889369 3.40512609 29.70371305 3.39111328 32.96875 C3.37402113 37.15551349 3.38386211 41.34170007 3.40183067 45.52844238 C3.41266746 48.74548699 3.40922271 51.96239465 3.4014473 55.17944336 C3.39944499 56.7232266 3.40190566 58.26702225 3.40888596 59.81079102 C3.41649901 61.96794604 3.40489972 64.12416478 3.38818359 66.28125 C3.38579681 67.50908203 3.38341003 68.73691406 3.38095093 70.00195312 C3 73 3 73 1.59683228 74.89501953 C-0.39382968 76.27252336 -1.59255734 76.4023573 -4 76.375 C-5.0209375 76.38660156 -5.0209375 76.38660156 -6.0625 76.3984375 C-8.67944749 75.86027491 -9.40705803 75.15283699 -11 73 C-11.3742218 70.00195312 -11.3742218 70.00195312 -11.37231445 66.28125 C-11.37596512 65.60288086 -11.37961578 64.92451172 -11.38337708 64.22558594 C-11.39148233 61.9834692 -11.37787347 59.74207526 -11.36328125 57.5 C-11.36276264 55.9420573 -11.36328039 54.38411393 -11.36479187 52.82617188 C-11.36470215 49.56109854 -11.35427302 46.29627212 -11.33618164 43.03125 C-11.31349435 38.84458044 -11.31295033 34.65827172 -11.31969929 30.47155762 C-11.32303969 27.25452463 -11.31640786 24.03757401 -11.30657005 20.82055664 C-11.30271898 19.27677847 -11.30156945 17.73299114 -11.3031559 16.18920898 C-11.30352648 14.03221153 -11.29090881 11.87567783 -11.2746582 9.71875 C-11.27005081 8.49091797 -11.26544342 7.26308594 -11.26069641 5.99804688 C-11 3 -11 3 -9 0 C-5.45026831 -1.1832439 -3.60040463 -0.90010116 0 0 Z " fill="#000000" transform="translate(358,436)"/>
</svg>
