<?xml version="1.0" encoding="UTF-8"?>
<svg version="1.1" xmlns="http://www.w3.org/2000/svg" width="512" height="512">
<path d="M0 0 C5.7551782 3.30730907 9.55753964 7.33529646 13.5625 12.5625 C14.81561 14.15044099 16.06872943 15.73837456 17.32202148 17.32617188 C18.24267274 18.49686233 19.1600893 19.67010293 20.07446289 20.84570312 C23.81862285 25.65679881 27.67216369 30.36912718 31.5625 35.0625 C36.25567163 40.72829056 40.86039414 46.44822155 45.37890625 52.25390625 C49.027351 56.92349005 52.78263828 61.49890885 56.5625 66.0625 C61.25543817 71.72848799 65.86038888 77.44821479 70.37890625 83.25390625 C74.027351 87.92349005 77.78263828 92.49890885 81.5625 97.0625 C85.79889836 102.17728765 89.9833122 107.32139844 94.0625 112.5625 C98.79383321 118.64047735 103.67130475 124.58972281 108.57983398 130.52514648 C112.2423499 134.95478713 115.8693815 139.40777491 119.4375 143.9140625 C121.16887098 146.07191089 122.92073878 148.20722104 124.6875 150.3359375 C144.18372216 173.88339527 144.18372216 173.88339527 143.3984375 187.3828125 C142.14900311 196.17785067 139.02332125 202.88269833 132.0625 208.5 C125.12515555 213.66636744 117.69458016 215.09401257 109.12890625 214.3515625 C103.47566936 213.31301292 99.2161002 210.84739426 94.5625 207.5625 C93.5725 206.9025 92.5825 206.2425 91.5625 205.5625 C91.38099144 207.48859352 91.38099144 207.48859352 91.19581604 209.45359802 C90.63154856 214.50348567 89.59609174 219.36428911 88.42944336 224.30493164 C88.21471878 225.23283508 87.9999942 226.16073853 87.77876282 227.11676025 C87.07483425 230.15321597 86.36365259 233.18792175 85.65234375 236.22265625 C85.16007714 238.33961191 84.66826779 240.45667394 84.17689514 242.57383728 C82.88764462 248.12325136 81.592218 253.6712056 80.29547119 259.21887207 C78.97122031 264.88918163 77.6528552 270.56085902 76.33398438 276.23242188 C73.74922684 287.34378948 71.15793825 298.45362276 68.5625 309.5625 C69.403187 309.56608253 69.403187 309.56608253 70.26085758 309.56973743 C83.91618501 309.62894766 97.57133468 309.70472365 111.2264719 309.79821491 C117.83008668 309.84292873 124.43363961 309.88218291 131.03735352 309.90893555 C137.41114355 309.934958 143.78469574 309.97535362 150.15833855 310.02568626 C152.58914162 310.042362 155.01998583 310.05387186 157.45083809 310.06011391 C160.85753396 310.06974694 164.26362033 310.09779821 167.67016602 310.13012695 C169.17528748 310.12797432 169.17528748 310.12797432 170.71081543 310.1257782 C176.40821662 310.20216444 180.56163005 310.74212577 185.5625 313.5625 C187.97959885 317.18814828 187.85071992 319.83739222 187.83665466 324.02682495 C187.84189134 324.79356824 187.84712802 325.56031153 187.85252339 326.35028946 C187.86756205 328.92742628 187.86822938 331.50436523 187.86889648 334.08154297 C187.87651536 335.92606951 187.88494238 337.77059286 187.89411926 339.6151123 C187.91609754 344.63164541 187.92486759 349.64811754 187.92994571 354.66469336 C187.93358523 357.7973551 187.93982316 360.93000077 187.9469471 364.0626564 C187.97145278 374.98725336 187.98449599 385.91180275 187.98803711 396.83642578 C187.99167366 407.02653979 188.02157477 417.21635283 188.06344169 427.40637481 C188.09810732 436.14955141 188.1135849 444.89262808 188.11428314 453.63587296 C188.11507721 458.86027842 188.12387518 464.08437743 188.15228081 469.30871201 C188.17839771 474.22210624 188.1807024 479.13493858 188.16462517 484.04837036 C188.16280561 485.85234931 188.16954699 487.6563601 188.18544388 489.46026993 C188.20581837 491.92225201 188.19540539 494.3822521 188.17723083 496.84420776 C188.1904308 497.55909548 188.20363077 498.27398319 188.21723074 499.01053417 C188.15728832 502.56242565 187.69741444 504.38258247 185.55127293 507.24460745 C181.73741627 510.2023798 178.75484817 510.26029229 174.12130737 510.1917057 C173.26947254 510.19897291 172.41763772 510.20624011 171.53998971 510.21372753 C168.67188549 510.23204482 165.80510725 510.21459102 162.93701172 510.19741821 C160.86560314 510.20317673 158.79419967 510.21111603 156.72280693 510.22105443 C151.02002842 510.2419878 145.31766658 510.23158297 139.61488628 510.21612334 C133.468916 510.20484034 127.32301888 510.22225738 121.17706299 510.23602295 C109.82949768 510.25700452 98.48210281 510.25513958 87.13454169 510.24146561 C76.65215982 510.22889595 66.16982682 510.22560051 55.68743896 510.23157883 C54.64512382 510.23215172 54.64512382 510.23215172 53.58175181 510.23273618 C50.76113701 510.23429283 47.94052224 510.23588482 45.11990749 510.237535 C18.65147778 510.25283567 -7.81686699 510.23895374 -34.2852836 510.21205051 C-57.80937519 510.18832183 -81.33333146 510.19044494 -104.85742188 510.21435547 C-131.27692428 510.24111911 -157.69635163 510.25175062 -184.11586571 510.23629415 C-186.93139011 510.23469052 -189.74691453 510.23312633 -192.56243896 510.23157883 C-193.60234685 510.23098575 -193.60234685 510.23098575 -194.66326298 510.23038069 C-205.13997014 510.22468937 -215.6166231 510.23135202 -226.09332275 510.24397659 C-238.00386863 510.25825726 -249.91425464 510.25424982 -261.82479429 510.22757287 C-267.90539087 510.21440397 -273.98571233 510.2093348 -280.06630707 510.22581863 C-285.62770009 510.2406673 -291.1885618 510.23261383 -296.7499063 510.20593087 C-298.76665079 510.20032432 -300.78343975 510.20323467 -302.80015588 510.21530981 C-305.53285277 510.2304226 -308.26370813 510.21501815 -310.99630737 510.1917057 C-311.78712448 510.20341153 -312.57794158 510.21511737 -313.39272285 510.22717792 C-317.33709673 510.15949871 -319.24550996 509.70768046 -322.42574918 507.30282342 C-324.46694283 504.5223942 -325.06305785 503.4528415 -325.0667057 500.08811951 C-325.07974444 499.21736566 -325.09278318 498.3466118 -325.10621703 497.44947147 C-325.09506342 496.5024911 -325.08390981 495.55551073 -325.07241821 494.57983398 C-325.08021817 493.5663687 -325.08801812 492.55290342 -325.09605443 491.50872707 C-325.11601894 488.10831429 -325.10019159 484.7090151 -325.08447266 481.30859375 C-325.09124675 478.87264349 -325.1001487 476.43669835 -325.11102295 474.00076294 C-325.13147602 468.06869472 -325.12845409 462.13691636 -325.11395974 456.20485616 C-325.10266763 451.38376727 -325.10113645 446.56276702 -325.10657883 441.7416687 C-325.10734499 441.05550018 -325.10811116 440.36933165 -325.10890054 439.66237015 C-325.11049917 438.26843045 -325.11212023 436.87449077 -325.1137635 435.48055112 C-325.12802115 422.40962605 -325.1116281 409.3388763 -325.08476166 396.26797998 C-325.06242279 385.05258895 -325.06630292 373.83745667 -325.08935547 362.62207031 C-325.11611328 349.59792476 -325.12664786 336.57393288 -325.11129415 323.54976368 C-325.10970141 322.16095291 -325.10812955 320.77214212 -325.10657883 319.3833313 C-325.10580745 318.70001045 -325.10503607 318.0166896 -325.10424132 317.31266207 C-325.09992424 312.4973748 -325.10721099 307.68218501 -325.11897659 302.86691284 C-325.13446428 296.38584589 -325.12343723 289.90515293 -325.09450531 283.42412949 C-325.08788332 281.04287403 -325.08981102 278.66157751 -325.10081863 276.28033829 C-325.11444082 273.03472114 -325.09739674 269.79068203 -325.07241821 266.54516602 C-325.08357182 265.59818564 -325.09472543 264.65120527 -325.10621703 263.67552853 C-325.03782488 259.10815928 -324.93452157 257.19264088 -322.02281761 253.50108337 C-318.76803259 251.06050427 -317.2274553 250.43783697 -313.24874878 250.40428162 C-311.93201675 250.38959839 -311.93201675 250.38959839 -310.58868408 250.37461853 C-309.62339783 250.36886307 -308.65811157 250.3631076 -307.66357422 250.35717773 C-306.14157913 250.34232834 -306.14157913 250.34232834 -304.58883667 250.32717896 C-301.22331097 250.29550331 -297.85777113 250.27078255 -294.4921875 250.24609375 C-292.16333644 250.22552946 -289.83448916 250.20453313 -287.50564575 250.18312073 C-281.36703545 250.12784584 -275.22839117 250.07846047 -269.08972168 250.03027344 C-262.82931483 249.98009792 -256.56895751 249.92439127 -250.30859375 249.86914062 C-238.01827145 249.7614928 -225.7279062 249.66006258 -213.4375 249.5625 C-213.2067575 248.52928635 -213.2067575 248.52928635 -212.97135353 247.4751997 C-212.75583525 246.51015672 -212.54031696 245.54511374 -212.31826782 244.55082703 C-212.08060385 243.48640035 -211.84293987 242.42197367 -211.59807396 241.32529163 C-211.07902383 239.00154724 -210.55959241 236.67788799 -210.0397892 234.35431194 C-208.42972664 227.15880788 -208.42972664 227.15880788 -206.84735107 219.95718384 C-206.13581122 216.70179991 -205.39665165 213.45414431 -204.6484375 210.20703125 C-204.42003174 209.13142944 -204.19162598 208.05582764 -203.95629883 206.94763184 C-201.96356385 198.45818426 -201.96356385 198.45818426 -198.61523438 195.44726562 C-195.46363568 193.57800149 -192.94740497 192.55180883 -189.3828125 191.76171875 C-188.27421875 191.50712891 -187.165625 191.25253906 -186.0234375 190.99023438 C-184.88132813 190.74595703 -183.73921875 190.50167969 -182.5625 190.25 C-181.3971875 189.98638672 -180.231875 189.72277344 -179.03125 189.45117188 C-176.16973238 188.80615766 -173.3056554 188.17719568 -170.4375 187.5625 C-170.4375 186.9025 -170.4375 186.2425 -170.4375 185.5625 C-172.03084239 184.12700274 -173.69001082 182.76422673 -175.375 181.4375 C-179.12989674 178.42485029 -182.8642815 175.40608788 -186.5 172.25 C-187.21285156 171.63511719 -187.92570313 171.02023438 -188.66015625 170.38671875 C-191.05302705 167.93073927 -192.35665282 165.97732558 -192.5546875 162.51171875 C-191.71085367 154.63139957 -189.61536246 147.15969462 -187.4375 139.5625 C-187.97117188 139.72105469 -188.50484375 139.87960938 -189.0546875 140.04296875 C-199.3578952 142.28940584 -208.35874758 140.29264353 -217.1875 134.875 C-223.9334909 127.94162046 -227.26736734 120.84092775 -227.8125 111.25 C-227.59741309 103.46654258 -224.66896432 95.72946507 -219.17724609 90.15429688 C-212.77230605 84.29403739 -204.39530159 81.11839645 -196.56106567 77.63272095 C-192.8774486 75.99310506 -189.20283503 74.33351276 -185.52734375 72.67578125 C-184.77178696 72.335504 -184.01623016 71.99522675 -183.23777771 71.64463806 C-175.4549452 68.133012 -167.72435475 64.51304024 -160 60.875 C-157.32569974 59.61680694 -154.65117526 58.35909111 -151.9765625 57.1015625 C-151.33160324 56.79825516 -150.68664398 56.49494781 -150.0221405 56.18244934 C-140.75498921 51.82763302 -131.45086449 47.55289085 -122.14941406 43.27197266 C-115.50972959 40.21514173 -108.87409694 37.14951857 -102.23760986 34.08575439 C-99.75017277 32.93757975 -97.26256412 31.7897776 -94.77490234 30.64208984 C-87.00735138 27.05828594 -79.24068383 23.47261448 -71.47773743 19.87884521 C-67.98980432 18.26428641 -64.50131448 16.65093248 -61.01278687 15.03765869 C-59.3691387 14.27714778 -57.72575606 13.51606266 -56.08267212 12.7543335 C-47.91711656 8.96899625 -39.73884104 5.22024299 -31.49609375 1.60546875 C-30.82755875 1.31190994 -30.15902374 1.01835114 -29.4702301 0.71589661 C-19.83870318 -3.47998895 -9.71536345 -4.48592037 0 0 Z M-25.71875 22.0859375 C-26.51224854 22.45844635 -27.30574707 22.8309552 -28.12329102 23.2147522 C-30.73396308 24.44351736 -33.33545541 25.69058337 -35.9375 26.9375 C-37.77861292 27.80743857 -39.6204218 28.6759056 -41.46289062 29.54296875 C-45.26422204 31.33297842 -49.0627057 33.12883545 -52.859375 34.92871094 C-60.39841463 38.49629219 -67.97442745 41.98271213 -75.55273438 45.46588135 C-79.57860123 47.31714951 -83.60178104 49.17423606 -87.625 51.03125 C-88.42776367 51.40170441 -89.23052734 51.77215881 -90.05761719 52.15383911 C-99.35590232 56.44595411 -108.64661944 60.75438707 -117.9375 65.0625 C-130.78775659 71.0206394 -143.64104712 76.97212022 -156.50131226 82.90863037 C-158.96523059 84.04644383 -161.42858044 85.18548053 -163.8918457 86.32470703 C-170.93669105 89.58055642 -177.9867087 92.82143208 -185.0703125 95.9921875 C-186.19493896 96.49814453 -187.31956543 97.00410156 -188.47827148 97.52539062 C-190.49508199 98.43044392 -192.51516638 99.32825746 -194.53930664 100.21679688 C-201.96095301 103.47495232 -201.96095301 103.47495232 -206.375 110 C-206.45747067 113.38129751 -205.4573841 114.89336744 -203.4375 117.5625 C-199.87982725 119.93428183 -198.63436576 119.97908336 -194.4375 119.5625 C-191.89176889 118.59005621 -189.56350343 117.57843859 -187.13671875 116.37109375 C-186.43619888 116.03468369 -185.73567902 115.69827362 -185.01393127 115.35166931 C-183.50292158 114.6246863 -181.99440047 113.89251257 -180.48815918 113.15570068 C-176.43946152 111.17568906 -172.37246939 109.23376916 -168.30859375 107.28515625 C-167.47945465 106.88619141 -166.65031555 106.48722656 -165.79605103 106.07617188 C-157.81386998 102.24202751 -149.7610537 98.57424138 -141.6875 94.9375 C-130.89563079 90.06582661 -120.1483814 85.10972333 -109.4375 80.0625 C-97.96558537 74.65714541 -86.44827185 69.36261926 -74.89294434 64.13809204 C-62.73485802 58.63877679 -50.64186376 53.00761495 -38.57617188 47.30859375 C-37.93166077 47.00472244 -37.28714966 46.70085114 -36.62310791 46.38777161 C-34.88776375 45.56932359 -33.15332 44.74896722 -31.41894531 43.9284668 C-21.40980935 39.34272198 -21.40980935 39.34272198 -15.4375 40.5625 C-9.13407926 44.60620387 -4.96220972 50.77780706 -0.453125 56.65625 C2.60634547 60.64198217 5.76030587 64.54530601 8.9375 68.4375 C9.47737549 69.10007813 10.01725098 69.76265625 10.57348633 70.4453125 C11.67637262 71.79849112 12.77964659 73.15135386 13.88330078 74.50390625 C16.71767592 77.97867379 19.5466721 81.45780958 22.375 84.9375 C23.19846924 85.95046143 23.19846924 85.95046143 24.03857422 86.98388672 C27.51965958 91.26935787 30.97687383 95.57295643 34.41796875 99.890625 C36.66113729 102.68539236 38.9230123 105.46425056 41.18725586 108.24194336 C45.84405764 113.95499644 50.46871251 119.68677987 55 125.5 C59.75488838 131.59610088 64.65279965 137.56725987 69.57958984 143.52490234 C73.24622768 147.95942245 76.87345116 152.42059345 80.453125 156.92578125 C83.23775579 160.40656974 86.05814896 163.85777139 88.875 167.3125 C93.67239463 173.19700617 98.40248635 179.12859083 103.0480957 185.13378906 C106.01966718 189.1232003 106.01966718 189.1232003 109.5625 192.5625 C115.13286117 193.19665653 115.13286117 193.19665653 120.0625 191 C122.13943767 187.62497629 121.93739959 185.48452653 121.5625 181.5625 C119.8725316 178.48352863 119.8725316 178.48352863 117.375 175.625 C116.70658081 174.80092651 116.70658081 174.80092651 116.0246582 173.96020508 C115.05790193 172.7718694 114.08356055 171.58967262 113.10253906 170.41308594 C111.53696944 168.53182124 109.99628791 166.63254784 108.4609375 164.7265625 C105.17910703 160.65737464 101.87170538 156.60943244 98.5625 152.5625 C92.35638895 144.96314333 86.15910163 137.36205181 80.125 129.625 C75.36993461 123.52903251 70.47220528 117.5577461 65.54541016 111.60009766 C61.87877232 107.16557755 58.25154884 102.70440655 54.671875 98.19921875 C51.88724316 94.71842895 49.06675028 91.26731217 46.25 87.8125 C42.15672803 82.78899233 38.10868008 77.73580246 34.125 72.625 C29.44404307 66.62249278 24.61704223 60.7490593 19.76074219 54.88793945 C16.06271871 50.4145076 12.43775978 45.89420392 8.875 41.3125 C5.19589362 36.58658732 1.43043878 31.94789456 -2.4375 27.375 C-2.89471436 26.83391602 -3.35192871 26.29283203 -3.82299805 25.73535156 C-5.01636453 24.33455011 -6.2261487 22.94777843 -7.4375 21.5625 C-7.89125 20.94761719 -8.345 20.33273438 -8.8125 19.69921875 C-14.07989888 16.01457194 -20.68613736 19.63780121 -25.71875 22.0859375 Z M-30.82421875 66.31640625 C-31.46494827 66.60833359 -32.1056778 66.90026093 -32.76582336 67.20103455 C-34.88818412 68.17004289 -37.00659265 69.14738252 -39.125 70.125 C-40.61768254 70.80893432 -42.11052353 71.49252294 -43.60351562 72.17578125 C-54.23939771 77.05210503 -64.83629974 82.01124933 -75.42129517 86.99688721 C-86.18793041 92.06786217 -97.00450565 97.01923314 -107.8493042 101.92053223 C-120.4307884 107.61033214 -132.93357488 113.45989625 -145.41162109 119.37280273 C-146.09842957 119.69782272 -146.78523804 120.02284271 -147.49285889 120.35771179 C-149.34431609 121.23426435 -151.19489721 122.11266669 -153.04541016 122.99121094 C-156.4375 124.5625 -156.4375 124.5625 -158.3553009 125.22769165 C-161.63404045 126.39905716 -163.17649883 127.04883302 -164.78295898 130.21044922 C-164.99766846 131.25217285 -165.21237793 132.29389648 -165.43359375 133.3671875 C-165.68173828 134.50800781 -165.92988281 135.64882812 -166.18554688 136.82421875 C-166.41306641 138.01660156 -166.64058594 139.20898438 -166.875 140.4375 C-167.12958984 141.62214844 -167.38417969 142.80679688 -167.64648438 144.02734375 C-169.24585076 151.23027447 -169.24585076 151.23027447 -169.4375 158.5625 C-167.64182796 160.8216189 -167.64182796 160.8216189 -165.125 162.8125 C-164.20847656 163.59367187 -163.29195312 164.37484375 -162.34765625 165.1796875 C-159.59013274 167.43752554 -156.82890346 169.69055222 -154.0625 171.9375 C-152.18414037 173.47507153 -150.30932485 175.01697975 -148.4375 176.5625 C-147.62635742 177.22451416 -147.62635742 177.22451416 -146.79882812 177.89990234 C-145.1170521 179.28663847 -143.46330838 180.70161655 -141.8125 182.125 C-140.80960938 182.97191406 -139.80671875 183.81882812 -138.7734375 184.69140625 C-135.65958984 188.51862704 -135.56687131 190.67624509 -135.4375 195.5625 C-136.78919299 199.36413653 -137.91188393 200.30674694 -141.54785156 202.07592773 C-145.50160306 203.69083762 -149.50363542 204.64811257 -153.671875 205.53515625 C-154.43171692 205.70373642 -155.19155884 205.87231659 -155.97442627 206.04600525 C-158.37740365 206.57886207 -160.78215368 207.10294862 -163.1875 207.625 C-166.37144383 208.31695517 -169.55336277 209.01736308 -172.734375 209.72265625 C-173.46251404 209.87791275 -174.19065308 210.03316925 -174.94085693 210.19313049 C-178.29746263 210.93748875 -180.53984062 211.63072708 -183.4375 213.5625 C-184.20833676 215.35197402 -184.20833676 215.35197402 -184.60424805 217.46142578 C-184.78420822 218.2621048 -184.9641684 219.06278381 -185.14958191 219.88772583 C-185.33096207 220.75235443 -185.51234222 221.61698303 -185.69921875 222.5078125 C-185.89473831 223.3928244 -186.09025787 224.2778363 -186.29170227 225.18966675 C-186.91422316 228.01992001 -187.51977127 230.85350389 -188.125 233.6875 C-188.54381012 235.60571182 -188.96371838 237.52368424 -189.38476562 239.44140625 C-190.41511182 244.14575312 -191.43025003 248.85315632 -192.4375 253.5625 C-181.44208696 256.24826146 -170.44211608 258.91470349 -159.4375 261.5625 C-158.76023865 261.72568726 -158.08297729 261.88887451 -157.38519287 262.05700684 C-153.17613711 263.07035854 -148.96403157 264.07006281 -144.75 265.0625 C-143.68990723 265.31725098 -142.62981445 265.57200195 -141.53759766 265.83447266 C-140.55194824 266.06440918 -139.56629883 266.2943457 -138.55078125 266.53125 C-137.70298096 266.73169922 -136.85518066 266.93214844 -135.98168945 267.13867188 C-133.09869995 267.61893958 -130.35575529 267.58970969 -127.4375 267.5625 C-127.3020364 266.96504408 -127.1665728 266.36758816 -127.02700424 265.75202751 C-123.72687571 251.20095637 -120.41292761 236.65308493 -117.08366013 222.10865593 C-115.47396805 215.07493688 -113.86893429 208.04021579 -112.27490234 201.00292969 C-110.88519783 194.86775755 -109.4867143 188.73466417 -108.07774377 182.60388672 C-107.33231151 179.35893211 -106.59257064 176.11285009 -105.86071014 172.86480331 C-105.04206269 169.23507448 -104.20794688 165.60922846 -103.37011719 161.98388672 C-103.13202835 160.91142197 -102.89393951 159.83895721 -102.64863586 158.73399353 C-101.35467775 153.2134808 -100.076232 148.96385249 -96.4375 144.5625 C-90.85016314 141.76883157 -83.42648748 143.98983152 -77.63818359 145.35083008 C-76.7980925 145.54108261 -75.9580014 145.73133514 -75.092453 145.92735291 C-72.3382166 146.55357525 -69.58708241 147.19237528 -66.8359375 147.83203125 C-64.91130769 148.27378998 -62.98655174 148.71499942 -61.06167603 149.15568542 C-57.03752177 150.07905675 -53.01485675 151.00859445 -48.99316406 151.94262695 C-43.84665528 153.1374413 -38.69690036 154.3175113 -33.54596519 155.49307728 C-29.57434773 156.40107796 -25.60447326 157.316515 -21.63508987 158.23422813 C-19.73704275 158.67218714 -17.83848326 159.10793187 -15.93940353 159.54139137 C-13.2838128 160.14877373 -10.63071287 160.76605614 -7.97802734 161.38598633 C-7.19865311 161.56221527 -6.41927887 161.73844421 -5.61628723 161.92001343 C0.08209149 163.26819016 5.16902718 164.47229077 8.5625 169.5625 C9.54186301 176.84626221 7.87113045 183.89171595 6.15991211 190.93139648 C5.77711342 192.56495842 5.77711342 192.56495842 5.38658142 194.23152161 C4.83495597 196.57886701 4.27821318 198.92501465 3.71684074 201.27004814 C2.82909225 204.97850679 1.95484455 208.68992575 1.08387756 212.40235901 C-0.60786346 219.60239033 -2.31452016 226.79880803 -4.0238266 233.99468231 C-6.35248563 243.80140638 -8.67042271 253.61060632 -10.97564507 263.42286873 C-11.83904615 267.08457806 -12.71255094 270.74377917 -13.58668518 274.40293884 C-14.11299253 276.63497879 -14.63888907 278.86711566 -15.16430664 281.09936523 C-15.41102112 282.12015167 -15.6577356 283.14093811 -15.91192627 284.19265747 C-16.12931961 285.12471512 -16.34671295 286.05677277 -16.57069397 287.01707458 C-16.7633487 287.82724753 -16.95600344 288.63742048 -17.15449619 289.47214413 C-17.61938585 291.75125194 -17.61938585 291.75125194 -16.4375 294.5625 C-13.91227169 295.55268515 -13.91227169 295.55268515 -10.75610352 296.18823242 C-8.93400108 296.60832832 -8.93400108 296.60832832 -7.0750885 297.03691101 C-5.73893646 297.33093969 -4.4027071 297.62461714 -3.06640625 297.91796875 C-1.70474533 298.22647928 -0.34333312 298.53608945 1.01783752 298.84675598 C4.60660461 299.66242301 8.19881255 300.46184129 11.79187012 301.25836182 C14.72629888 301.91170981 17.65809215 302.57643635 20.58981228 303.24181652 C24.07856483 304.03343964 27.56839209 304.82026184 31.05859375 305.60546875 C31.72719358 305.75594351 32.39579342 305.90641827 33.08465385 306.06145287 C34.9731007 306.48517428 36.8623858 306.90515452 38.75170898 307.32495117 C39.82791 307.56461105 40.90411102 307.80427094 42.01292419 308.05119324 C44.45593577 308.62804356 44.45593577 308.62804356 46.5625 308.5625 C49.08105006 299.61308909 51.25700978 290.78681907 52.5625 281.5625 C51.44230469 281.17578125 50.32210937 280.7890625 49.16796875 280.390625 C47.69507091 279.86526016 46.22242774 279.33918095 44.75 278.8125 C44.01201172 278.55984375 43.27402344 278.3071875 42.51367188 278.046875 C38.45032747 276.5759811 35.70489136 275.55039702 33.5625 271.5625 C32.21577816 268.00330655 32.55978449 266.57093238 33.75 262.875 C35.62698878 259.44464119 36.06979238 258.82622512 39.5625 257.5625 C41.60546875 257.515625 41.60546875 257.515625 43.75 257.8125 C44.52601563 257.91949219 45.30203125 258.02648437 46.1015625 258.13671875 C49.95720976 258.80380693 53.75849035 259.65066404 57.5625 260.5625 C61.29640933 246.77640552 64.6730237 232.91547248 67.95556641 219.01586914 C68.61343631 216.23374422 69.27925211 213.4536952 69.95166016 210.67504883 C70.77255975 207.28248782 71.57987574 203.88696679 72.37746048 200.48885155 C72.8282338 198.58334628 73.29258882 196.6810704 73.75717163 194.77888489 C74.02470245 193.62635727 74.29223328 192.47382965 74.56787109 191.28637695 C74.80895599 190.27460892 75.05004089 189.26284088 75.2984314 188.22041321 C75.69532336 184.22560135 74.21529734 182.41696242 71.85546875 179.328125 C71.16066406 178.49796875 70.46585937 177.6678125 69.75 176.8125 C68.94691406 175.84441406 68.14382813 174.87632812 67.31640625 173.87890625 C66.87570801 173.3492627 66.43500977 172.81961914 65.98095703 172.27392578 C63.36323379 169.11553682 60.77542314 165.9328173 58.1875 162.75 C57.63078613 162.06574951 57.07407227 161.38149902 56.50048828 160.67651367 C52.99716989 156.36008818 49.54339011 152.00886546 46.125 147.625 C41.36998974 141.52899073 36.47220382 135.55774433 31.54541016 129.60009766 C27.87877232 125.16557755 24.25154884 120.70440655 20.671875 116.19921875 C17.88724316 112.71842895 15.06675028 109.26731217 12.25 105.8125 C7.70846466 100.23885677 3.23659582 94.61790479 -1.18261719 88.94702148 C-5.63137163 83.26457203 -10.22902268 77.70670482 -14.84350586 72.15844727 C-15.41206299 71.47322998 -15.98062012 70.7880127 -16.56640625 70.08203125 C-17.32546265 69.17094604 -17.32546265 69.17094604 -18.09985352 68.24145508 C-19.29363749 66.7430699 -20.37480701 65.15653949 -21.4375 63.5625 C-25.20745351 63.5625 -27.39157443 64.74357656 -30.82421875 66.31640625 Z M-82.4375 165.5625 C-84.28061195 170.7267246 -85.54324382 175.95057854 -86.77587891 181.28393555 C-87.00050308 182.24559631 -87.22512726 183.20725708 -87.45655823 184.19805908 C-88.19530364 187.36444229 -88.92983938 190.5317841 -89.6640625 193.69921875 C-90.1767139 195.90309716 -90.68952336 198.10693881 -91.20248413 200.31074524 C-92.27523359 204.92262669 -93.34586208 209.53499416 -94.41503906 214.14770508 C-95.78730923 220.06712998 -97.16516727 225.98523784 -98.54464149 231.90298748 C-99.60387014 236.44993392 -100.65999616 240.99759663 -101.71519089 245.54548073 C-102.22215689 247.72865737 -102.73013235 249.91159985 -103.2391243 252.09430504 C-103.94856632 255.13855887 -104.65379615 258.18375815 -105.35791016 261.22924805 C-105.56983505 262.13475906 -105.78175995 263.04027008 -106.00010681 263.97322083 C-106.19074203 264.80167511 -106.38137726 265.63012939 -106.57778931 266.48368835 C-106.74480158 267.20319011 -106.91181385 267.92269186 -107.0838871 268.6639967 C-107.5290548 270.7321872 -107.5290548 270.7321872 -107.4375 273.5625 C-99.05040603 275.5247377 -90.66195623 277.48102658 -82.27171803 279.42977142 C-78.37568994 280.33487198 -74.48015777 281.24200128 -70.58569336 282.15380859 C-66.826144 283.03394903 -63.06537888 283.90870568 -59.30371666 284.7797699 C-57.86998742 285.11275968 -56.43670401 285.44767516 -55.00388527 285.78456116 C-52.9943838 286.25668803 -50.98339511 286.72189516 -48.97192383 287.18554688 C-47.82830887 287.45202026 -46.68469391 287.71849365 -45.50642395 287.99304199 C-42.72461752 288.50922355 -40.2559387 288.67846567 -37.4375 288.5625 C-34.30429299 275.05532001 -31.17488361 261.54726506 -28.04986572 248.03818798 C-26.5987873 241.7658576 -25.14648366 235.49381611 -23.69140625 229.22241211 C-22.28802638 223.17362259 -20.88783059 217.12410422 -19.48986816 211.07406044 C-18.9551398 208.7624603 -18.41925179 206.4511281 -17.88220215 204.14006615 C-17.13196611 200.91072299 -16.38580612 197.68046392 -15.640625 194.44995117 C-15.41620728 193.48826019 -15.19178955 192.52656921 -14.96057129 191.53573608 C-14.75863159 190.65654007 -14.55669189 189.77734406 -14.34863281 188.87150574 C-14.17164856 188.10733935 -13.99466431 187.34317297 -13.81231689 186.55585003 C-13.34510242 184.40915864 -13.34510242 184.40915864 -13.4375 181.5625 C-26.08867147 178.01768904 -38.87333696 175.07417021 -51.67602539 172.13378906 C-55.28811475 171.30374134 -58.89898352 170.46852657 -62.50976562 169.6328125 C-64.80461741 169.10386251 -67.09953679 168.57520564 -69.39453125 168.046875 C-70.47458939 167.79693787 -71.55464752 167.54700073 -72.66743469 167.28948975 C-73.65994736 167.06215149 -74.65246002 166.83481323 -75.67504883 166.60058594 C-76.54913895 166.39947205 -77.42322906 166.19835815 -78.32380676 165.9911499 C-80.40473007 165.49624971 -80.40473007 165.49624971 -82.4375 165.5625 Z M-303.4375 271.5625 C-303.4375 343.1725 -303.4375 414.7825 -303.4375 488.5625 C-148.3375 488.5625 6.7625 488.5625 166.5625 488.5625 C166.5625 436.7525 166.5625 384.9425 166.5625 331.5625 C88.93479561 329.65983059 88.93479561 329.65983059 11.9375 337 C10.76796658 337.19425253 10.76796658 337.19425253 9.57480621 337.39242935 C0.2065299 338.96150636 -9.12627161 340.68234298 -18.4375 342.5625 C-20.10414229 342.89595517 -21.77080104 343.22932817 -23.4375 343.5625 C-22.98944491 347.43876018 -22.52723638 351.31320725 -22.0625 355.1875 C-21.87300781 356.82912109 -21.87300781 356.82912109 -21.6796875 358.50390625 C-21.31263898 361.53205657 -20.8823258 364.54498565 -20.4375 367.5625 C-20.24607422 369.26599609 -20.24607422 369.26599609 -20.05078125 371.00390625 C-17.14882824 375.60627725 -11.90759862 376.93271777 -7 378.875 C-5.93716797 379.31650391 -4.87433594 379.75800781 -3.77929688 380.21289062 C-0.02571274 381.76323246 3.70918735 383.27806245 7.5625 384.5625 C8.92177332 388.64031997 9.19654564 392.30320519 8.5625 396.5625 C6.625 399.625 6.625 399.625 3.5625 401.5625 C-4.84496171 403.12756295 -11.63604996 399.14619806 -18.97265625 395.5859375 C-19.86339844 395.1734375 -20.75414062 394.7609375 -21.671875 394.3359375 C-22.86635254 393.75465088 -22.86635254 393.75465088 -24.08496094 393.16162109 C-27.2111774 392.36546759 -28.61734868 393.090817 -31.4375 394.5625 C-33.64132534 396.14572371 -35.76241887 397.74249339 -37.875 399.4375 C-38.97633672 400.31182385 -40.07919322 401.1842369 -41.18359375 402.0546875 C-41.66497803 402.43995605 -42.1463623 402.82522461 -42.64233398 403.22216797 C-44.4375 404.5625 -44.4375 404.5625 -47.58349609 405.94018555 C-50.91124788 408.99778879 -50.91580768 409.73942757 -51.25463867 414.07788086 C-51.31733053 416.39376391 -51.3489028 418.71062161 -51.35546875 421.02734375 C-51.38425613 422.25280411 -51.41304352 423.47826447 -51.44270325 424.74085999 C-51.53120322 428.66060546 -51.58056108 432.57952661 -51.625 436.5 C-51.68531296 440.41649764 -51.7541228 444.33239353 -51.83943176 448.24842834 C-51.89093336 450.68551365 -51.92718382 453.12297936 -51.94657898 455.56053162 C-51.96702774 456.6684053 -51.9874765 457.77627899 -52.00854492 458.91772461 C-52.01931564 459.88939072 -52.03008636 460.86105682 -52.04118347 461.86216736 C-52.5133741 465.07947393 -53.52658597 466.94793557 -55.4375 469.5625 C-59.13876859 472.03001239 -61.05973532 471.86971156 -65.4375 471.5625 C-69.55410386 470.17366597 -71.58928103 467.12878701 -74.0625 463.75 C-74.95555016 462.5597615 -75.84878416 461.36966092 -76.7421875 460.1796875 C-77.19303711 459.57350586 -77.64388672 458.96732422 -78.10839844 458.34277344 C-80.1071605 455.66551904 -82.14751535 453.02092069 -84.1875 450.375 C-84.5892041 449.85252686 -84.9909082 449.33005371 -85.40478516 448.79174805 C-89.06418952 444.03452237 -92.7504207 439.29828907 -96.4375 434.5625 C-102.1298402 427.24850027 -107.81547938 419.93075429 -113.4375 412.5625 C-114.2728125 411.50289063 -114.2728125 411.50289063 -115.125 410.421875 C-117.86036293 406.84725299 -119.4375 404.11805358 -119.4375 399.5625 C-117.24820277 393.23431237 -113.5890438 388.36146512 -109.5625 383.0625 C-107.74460864 380.63992057 -105.92779323 378.21682305 -104.12207031 375.78515625 C-103.05050261 374.37130808 -101.94829808 372.97979574 -100.80761719 371.62109375 C-99.16101743 369.67952728 -99.16101743 369.67952728 -97.4375 366.5625 C-98.58821235 361.88897824 -100.69847158 357.5621575 -102.6953125 353.1953125 C-103.00322723 352.51572479 -103.31114197 351.83613708 -103.62838745 351.13595581 C-104.60364238 348.98519444 -105.58299941 346.83633062 -106.5625 344.6875 C-107.22813746 343.22147803 -107.89350479 341.75533339 -108.55859375 340.2890625 C-110.18177532 336.71211531 -111.8086362 333.13686299 -113.4375 329.5625 C-118.36906246 330.99605619 -123.27087687 332.46704335 -128.10546875 334.203125 C-128.85376953 334.46867187 -129.60207031 334.73421875 -130.37304688 335.0078125 C-131.88972583 335.54976543 -133.40273872 336.1020765 -134.91210938 336.6640625 C-139.80192821 338.37444069 -143.26401099 338.85424127 -148.4375 337.5625 C-151.66632279 335.35330546 -152.32628483 333.9914728 -153.3125 330.1875 C-153.45065824 326.18091095 -153.4871765 324.0311833 -151.4375 320.5625 C-149.66381836 319.76733398 -149.66381836 319.76733398 -147.46484375 319.12109375 C-144.07368421 318.0743811 -140.73144122 316.96958243 -137.40234375 315.73828125 C-136.16000977 315.27905273 -136.16000977 315.27905273 -134.89257812 314.81054688 C-134.06177734 314.50181641 -133.23097656 314.19308594 -132.375 313.875 C-131.50939453 313.55466797 -130.64378906 313.23433594 -129.75195312 312.90429688 C-127.64665373 312.12498716 -125.54184886 311.34437196 -123.4375 310.5625 C-123.7460286 308.89106379 -124.08793361 307.22583768 -124.4375 305.5625 C-124.68902832 304.28511963 -124.94055664 303.00773926 -125.19970703 301.69165039 C-126.94650074 295.42475052 -129.40155439 290.346531 -135.16345215 286.96063232 C-186.66782858 264.79188771 -250.66526972 271.5625 -303.4375 271.5625 Z M-106.4375 295.5625 C-100.21387232 310.23998173 -93.62964541 324.71758833 -86.79272461 339.1171875 C-85.28302321 342.29941999 -83.79220808 345.48994582 -82.31274414 348.68634033 C-81.72341917 349.94960813 -81.12674233 351.20946926 -80.52319336 352.46600342 C-74.12790622 365.79868963 -74.12790622 365.79868963 -76.4375 372.5625 C-78.23469545 375.74777913 -80.32857566 378.60882138 -82.5625 381.5 C-83.1505542 382.28616699 -83.7386084 383.07233398 -84.34448242 383.88232422 C-86.02596174 386.12197576 -87.72749793 388.34458691 -89.4375 390.5625 C-90.23542969 391.60792969 -91.03335938 392.65335937 -91.85546875 393.73046875 C-93.36575681 395.68917223 -94.88765607 397.63505773 -96.4375 399.5625 C-93.6925649 404.53520852 -90.19030958 408.86378404 -86.6875 413.3125 C-85.484375 414.84895833 -84.28125 416.38541667 -83.078125 417.921875 C-82.48322266 418.67791016 -81.88832031 419.43394531 -81.27539062 420.21289062 C-79.99440499 421.85053752 -78.72297518 423.49568493 -77.45898438 425.14648438 C-76.51249023 426.38108398 -76.51249023 426.38108398 -75.546875 427.640625 C-74.97420898 428.3924707 -74.40154297 429.14431641 -73.81152344 429.91894531 C-73.3580957 430.46131836 -72.90466797 431.00369141 -72.4375 431.5625 C-72.1075 431.5625 -71.7775 431.5625 -71.4375 431.5625 C-71.41768066 430.78648437 -71.39786133 430.01046875 -71.37744141 429.2109375 C-71.28160122 425.66114413 -71.17216196 422.11189219 -71.0625 418.5625 C-71.01609375 416.73138672 -71.01609375 416.73138672 -70.96875 414.86328125 C-70.44542816 398.72752444 -70.44542816 398.72752444 -66.95214844 394.9609375 C-65.03795502 393.36150433 -63.06835042 391.95634192 -61 390.5625 C-60.28513428 390.05485107 -59.57026855 389.54720215 -58.83374023 389.02416992 C-57.39274974 388.00259992 -55.94560281 386.98965398 -54.4921875 385.98583984 C-51.62375687 383.99879724 -48.81446952 381.9377099 -46 379.875 C-44.70255859 378.94107422 -44.70255859 378.94107422 -43.37890625 377.98828125 C-41.53139563 376.70685156 -41.53139563 376.70685156 -40.4375 375.5625 C-40.49374055 367.63258253 -41.82095462 359.75923993 -43 351.9375 C-45.79055684 333.08369591 -45.79055684 333.08369591 -43.265625 328.37890625 C-40.85604927 325.98477652 -39.14654809 325.69125349 -35.8125 325.0625 C-34.59046875 324.82917969 -33.3684375 324.59585937 -32.109375 324.35546875 C-22.2366003 322.64980645 -12.33929819 321.08917301 -2.4375 319.5625 C-5.09945052 318.14091462 -7.55467745 317.16906546 -10.49143982 316.48678589 C-11.28905731 316.29892517 -12.0866748 316.11106445 -12.90846252 315.91751099 C-13.77454636 315.71898529 -14.64063019 315.52045959 -15.53295898 315.31591797 C-16.45210083 315.10104736 -17.37124268 314.88617676 -18.3182373 314.66479492 C-21.35551656 313.9562721 -24.39446533 313.25523265 -27.43359375 312.5546875 C-29.54588871 312.06458736 -31.65811621 311.57419635 -33.77027893 311.08352661 C-38.19707918 310.05640975 -42.6247219 309.03302608 -47.05297852 308.01220703 C-52.7285962 306.70349742 -58.40195365 305.3852738 -64.07470608 304.06420708 C-68.43607736 303.04969347 -72.79864008 302.04038328 -77.16157722 301.03262711 C-79.25393631 300.54864139 -81.34591335 300.06300098 -83.43749809 299.57567978 C-86.36135144 298.89523928 -89.28674277 298.22185382 -92.21264648 297.55029297 C-93.07670609 297.34771881 -93.94076569 297.14514465 -94.83100891 296.93643188 C-98.76953218 296.03981961 -102.36707474 295.29958776 -106.4375 295.5625 Z " fill="#000000" transform="translate(324.4375,2.4375)"/>
<path d="M0 0 C0.91884979 -0.00817749 1.83769958 -0.01635498 2.78439331 -0.02478027 C5.83371321 -0.04965038 8.88298652 -0.06615388 11.93237305 -0.08056641 C13.49240083 -0.08855192 13.49240083 -0.08855192 15.08394432 -0.09669876 C20.58801919 -0.12343658 26.09207132 -0.14281001 31.59619141 -0.15722656 C37.28611786 -0.17388159 42.97546592 -0.21866504 48.66517353 -0.26959801 C53.03605325 -0.30322506 57.40679488 -0.314799 61.77779198 -0.32045364 C63.87539277 -0.327178 65.97298411 -0.34243065 68.07045937 -0.36634445 C71.0057883 -0.39790286 73.93954652 -0.39804673 76.875 -0.390625 C77.74220169 -0.40703033 78.60940338 -0.42343567 79.50288391 -0.44033813 C83.84503206 -0.39537506 85.59978737 -0.2164907 89.14762878 2.51449585 C91.65249272 5.89609395 92.1315918 7.99449271 92.1315918 12.19287109 C90.85364248 16.34620639 89.90700883 17.77720063 86.05618286 19.84147644 C81.80965206 21.53396447 77.86312917 21.60897637 73.33813477 21.56518555 C72.48682983 21.56883621 71.6355249 21.57248688 70.75842285 21.57624817 C67.9633345 21.58430999 65.16883378 21.5707823 62.3737793 21.55615234 C60.42278036 21.55563331 58.47178089 21.55615269 56.52078247 21.55766296 C52.44061431 21.55757344 48.36064456 21.54718316 44.28051758 21.52905273 C39.05389043 21.50633624 33.82755217 21.50582912 28.60088921 21.51257038 C24.57570839 21.51591299 20.5505933 21.50927524 16.52542496 21.49944115 C14.59812896 21.49559618 12.67082564 21.49443801 10.74352646 21.49602699 C8.05096258 21.49639827 5.35876808 21.48376098 2.66625977 21.4675293 C1.87236847 21.47000671 1.07847717 21.47248413 0.26052856 21.47503662 C-5.10860712 21.42343712 -8.75012907 20.62414078 -13.1809082 17.63037109 C-15.38216785 14.45077382 -15.42975997 12.18769888 -15.2668457 8.38427734 C-14.68052374 5.15950657 -13.2197725 3.40591984 -10.8684082 1.19287109 C-7.50511657 -0.48877472 -3.70044412 0.01805126 0 0 Z " fill="#000000" transform="translate(42.868408203125,448.80712890625)"/>
<path d="M0 0 C2.55620371 0.62019369 3.69878563 1.19673706 5.5078125 3.078125 C8.14592224 8.00259651 8.15450401 11.40561548 6.8203125 16.890625 C4.4011165 19.73055074 1.91627032 20.53546532 -1.6171875 21.578125 C-5.39166743 21.00235688 -7.85465717 20.0669265 -11.0546875 18.015625 C-13.4594533 14.26419036 -13.44547395 10.89864624 -12.6171875 6.578125 C-10.24077231 0.71470863 -5.87700302 -0.38595244 0 0 Z " fill="#000000" transform="translate(158.6171875,448.421875)"/>
</svg>
