<?xml version="1.0" encoding="UTF-8"?>
<svg version="1.1" xmlns="http://www.w3.org/2000/svg" width="512" height="512">
<path d="M0 0 C12.56616262 9.31834521 12.56616262 9.31834521 15.21044922 12.96728516 C17.90083264 16.75842085 17.90083264 16.75842085 21.97900391 18.65258789 C24.43807002 18.723137 26.81021916 18.59366475 29.26171875 18.390625 C31.05559686 18.32103772 32.84993853 18.26257228 34.64453125 18.21484375 C35.97532715 18.17883057 35.97532715 18.17883057 37.33300781 18.14208984 C57.2190838 18.13068292 75.13164752 28.22897069 88.88671875 41.890625 C96.88671875 50.03015988 96.88671875 50.03015988 96.88671875 53.140625 C97.86898437 53.08841797 97.86898437 53.08841797 98.87109375 53.03515625 C114.46451402 52.57263955 128.93234202 58.05032196 140.38671875 68.640625 C142.25645777 70.44275763 144.07211869 72.28156307 145.88671875 74.140625 C146.49128906 74.72457031 147.09585937 75.30851562 147.71875 75.91015625 C158.13107256 86.76204916 162.48061059 102.82179995 162.32421875 117.453125 C162.31285889 118.95697754 162.31285889 118.95697754 162.30126953 120.49121094 C161.91560846 137.95011585 154.99906113 152.58242953 142.88671875 165.140625 C129.57677082 176.8504699 114.71149163 182.76227377 97.01171875 182.390625 C96.00625 182.38546875 95.00078125 182.3803125 93.96484375 182.375 C86.61035948 182.29696834 86.61035948 182.29696834 83.17016602 181.55371094 C82.41662842 181.41739258 81.66309082 181.28107422 80.88671875 181.140625 C79.11686067 182.29524179 79.11686067 182.29524179 77.69921875 184.140625 C65.22960263 197.59608684 45.83105788 205.68508386 27.88671875 208.140625 C25.92931682 208.20450888 23.97001728 208.22700669 22.01171875 208.203125 C21.04492188 208.19410156 20.078125 208.18507812 19.08203125 208.17578125 C18.35757812 208.16417969 17.633125 208.15257812 16.88671875 208.140625 C16.72429687 209.38392578 16.72429687 209.38392578 16.55859375 210.65234375 C15.94325981 213.84707171 15.03018251 216.74782854 13.91870117 219.79931641 C7.59384668 237.21981792 4.21136489 255.91596092 3.34399414 274.41113281 C3.30217294 275.2797356 3.26035173 276.14833839 3.21726322 277.04326248 C2.79653406 286.29765341 2.66263389 295.55000847 2.5703125 304.8125 C2.54965546 306.59995913 2.52865736 308.38741435 2.50733948 310.17486572 C2.45301925 314.80402385 2.40322612 319.43321911 2.35449219 324.06243896 C2.30360491 328.81639784 2.2482755 333.57030501 2.19335938 338.32421875 C2.0868852 347.59630965 1.98521051 356.8684461 1.88671875 366.140625 C2.96848389 366.12249756 4.05024902 366.10437012 5.16479492 366.08569336 C6.60725487 366.07102825 8.04971942 366.0568105 9.4921875 366.04296875 C10.55753723 366.02333069 10.55753723 366.02333069 11.64440918 366.0032959 C22.8984569 365.92251749 31.9571354 370.5391663 40.88671875 377.140625 C41.35078125 377.70652344 41.81484375 378.27242188 42.29296875 378.85546875 C44.82921064 380.90062459 47.1455183 380.31072268 50.32421875 380.140625 C64.86199044 379.85615779 77.03617476 384.61875741 87.5625 394.6328125 C95.88331774 403.61090492 101.01787417 414.5250667 100.92602539 426.86132812 C100.91751305 428.34493835 100.91751305 428.34493835 100.90882874 429.85852051 C100.90153244 430.61161499 100.89423615 431.36470947 100.88671875 432.140625 C101.79238586 432.13174255 102.69805298 432.12286011 103.63116455 432.1137085 C112.16523 432.03356826 120.69916912 431.97266348 129.23352432 431.93337631 C133.62117817 431.91249929 138.00852116 431.8841799 142.39599609 431.83886719 C146.63000291 431.79541299 150.86371069 431.77148876 155.09792328 431.76111603 C156.71349546 431.75372383 158.32905124 431.7392885 159.94449615 431.71770477 C162.20717258 431.68867518 164.4686127 431.68466862 166.73144531 431.68652344 C168.01940002 431.67764099 169.30735474 431.66875854 170.63433838 431.65960693 C174.43559325 432.22180202 175.59931213 433.11677644 177.88671875 436.140625 C178.41796875 438.140625 178.41796875 438.140625 178.38671875 440.140625 C178.39703125 440.800625 178.40734375 441.460625 178.41796875 442.140625 C177.6221754 445.13655291 176.32485377 446.23714746 173.88671875 448.140625 C171.21458265 448.53282934 168.9544816 448.67872416 166.28417969 448.64398956 C165.5108643 448.64980333 164.7375489 448.65561709 163.94079971 448.66160703 C161.33391856 448.67627484 158.72796898 448.66229065 156.12109375 448.64855957 C154.23957841 448.65316581 152.35806667 448.65951686 150.4765625 448.66746855 C145.29410739 448.684223 140.11194553 448.67588777 134.92948914 448.66352367 C129.34522477 448.65450047 123.76101203 448.66842932 118.17675781 448.67944336 C107.23239827 448.6972624 96.28814823 448.69337353 85.34378433 448.6817928 C76.45183664 448.67277205 67.55991971 448.67152858 58.66796875 448.67588806 C57.40410088 448.67650099 56.140233 448.67711393 54.8380661 448.67774543 C52.27082315 448.67902429 49.70358021 448.68032114 47.13633728 448.6816358 C23.73082413 448.69272586 0.32538134 448.68121039 -23.08011818 448.66026541 C-44.45578792 448.64128235 -65.83136235 448.64298084 -87.20703125 448.66210938 C-111.21156335 448.68351851 -135.21603586 448.69195279 -159.22058105 448.67966032 C-161.77856444 448.67838608 -164.33654784 448.67712859 -166.89453125 448.67588806 C-168.78256847 448.67496241 -168.78256847 448.67496241 -170.70874786 448.67401806 C-179.59360531 448.6705593 -188.47842903 448.6764048 -197.36328125 448.68580627 C-208.18581509 448.69700598 -219.00823284 448.69402898 -229.83075333 448.6726833 C-235.35626874 448.66214556 -240.88159036 448.65809735 -246.40710449 448.67127991 C-251.46017853 448.68315332 -256.51287815 448.67672506 -261.56591797 448.6553697 C-263.39896268 448.65088212 -265.2320387 448.65321784 -267.06506348 448.66287285 C-269.54741288 448.67495031 -272.02846193 448.66265128 -274.51074219 448.64398956 C-275.5906373 448.65803656 -275.5906373 448.65803656 -276.69234848 448.67236733 C-280.10445463 448.6207214 -281.8296792 448.36203609 -284.55523682 446.23416471 C-286.24572671 443.96265843 -286.65695489 442.93573784 -286.61328125 440.140625 C-286.62359375 439.480625 -286.63390625 438.820625 -286.64453125 438.140625 C-285.85317523 435.16140233 -284.52508479 434.04227334 -282.11328125 432.140625 C-278.86090088 431.65960693 -278.86090088 431.65960693 -274.95800781 431.68652344 C-274.24541306 431.68593933 -273.5328183 431.68535522 -272.79862976 431.68475342 C-270.44988815 431.68753391 -268.10242535 431.71862177 -265.75390625 431.75 C-264.1229522 431.75746257 -262.49198918 431.76315543 -260.86102295 431.76715088 C-256.57329448 431.78240608 -252.28611006 431.82168646 -247.99859619 431.8659668 C-243.62153482 431.90692223 -239.24438534 431.92516245 -234.8671875 431.9453125 C-226.28230273 431.98818123 -217.69785971 432.05643065 -209.11328125 432.140625 C-209.12422569 431.01098328 -209.12422569 431.01098328 -209.13539124 429.85852051 C-209.14106613 428.86944702 -209.14674103 427.88037354 -209.15258789 426.86132812 C-209.16353233 425.3913739 -209.16353233 425.3913739 -209.17469788 423.89172363 C-208.91727246 412.36059977 -202.46359873 401.58734101 -194.80078125 393.328125 C-186.78951455 385.85452721 -176.92235992 381.50513741 -166.11328125 380.140625 C-163.86204803 380.26598988 -161.61193182 380.41278305 -159.36328125 380.578125 C-152.43278002 380.65077176 -149.58306604 378.87606974 -144.62890625 374.25 C-137.04209229 367.88838581 -127.46367765 365.9678731 -117.86328125 366.078125 C-117.11820313 366.08263672 -116.373125 366.08714844 -115.60546875 366.09179688 C-113.77470485 366.10353254 -111.94398252 366.1214665 -110.11328125 366.140625 C-110.22179566 355.92489697 -110.33461196 345.70922577 -110.45262051 335.49360275 C-110.50731335 330.74787064 -110.56063464 326.00213213 -110.6105957 321.25634766 C-110.65904666 316.65915928 -110.71139489 312.06202901 -110.766222 307.46491241 C-110.78628731 305.72865536 -110.8050493 303.99238264 -110.82235527 302.25609589 C-110.91618793 292.9345643 -111.12855562 283.63117332 -111.58325195 274.31958008 C-111.642853 273.084718 -111.642853 273.084718 -111.7036581 271.82490921 C-112.03588064 265.50381981 -112.73738379 259.31005647 -113.86328125 253.078125 C-114.03666016 252.08208252 -114.21003906 251.08604004 -114.38867188 250.05981445 C-116.65918854 237.49073967 -119.65917648 225.04969305 -124.4140625 213.171875 C-125.11328125 211.140625 -125.11328125 211.140625 -125.11328125 208.140625 C-125.79390625 208.18703125 -126.47453125 208.2334375 -127.17578125 208.28125 C-145.40636888 208.96004848 -165.89294121 201.73744378 -179.67529297 189.78613281 C-182.07232689 187.55993257 -184.39142574 185.2927725 -186.67578125 182.94921875 C-187.48015625 182.35238281 -188.28453125 181.75554687 -189.11328125 181.140625 C-190.79147031 181.41001388 -192.45849483 181.75259045 -194.11328125 182.140625 C-197.81933992 182.37907292 -201.52526354 182.37158388 -205.23828125 182.390625 C-206.71167969 182.4215625 -206.71167969 182.4215625 -208.21484375 182.453125 C-224.68278788 182.53979839 -240.26120266 175.49049687 -252.11328125 164.140625 C-265.86222596 150.05135988 -270.53721204 134.12088936 -270.47900391 114.88769531 C-270.17212064 97.26865424 -263.49353102 83.56228029 -251.11328125 71.140625 C-250.42492187 70.4290625 -249.7365625 69.7175 -249.02734375 68.984375 C-238.43139759 58.74294005 -224.00789221 53.03586543 -209.30078125 52.953125 C-207.90432742 52.99974746 -206.50792522 53.05562413 -205.11328125 53.140625 C-204.84902344 52.55925781 -204.58476562 51.97789063 -204.3125 51.37890625 C-202.21299209 47.46028074 -199.10285357 44.40030242 -196.11328125 41.140625 C-195.59894531 40.54894531 -195.08460938 39.95726562 -194.5546875 39.34765625 C-183.00236751 26.75822025 -164.94366291 19.48176251 -148.11328125 18.140625 C-143.71819259 18.12810576 -139.32002347 18.23850618 -134.93945312 18.60229492 C-130.31299178 18.86578081 -130.31299178 18.86578081 -126.37866211 16.72265625 C-124.86230172 14.91902375 -123.49627121 13.04732071 -122.11328125 11.140625 C-115.39511833 4.9361447 -107.99704182 -0.25183211 -100.11328125 -4.859375 C-99.34886719 -5.31054688 -98.58445313 -5.76171875 -97.796875 -6.2265625 C-67.659435 -22.64662287 -27.78175301 -19.43609957 0 0 Z M-116.01953125 30.7578125 C-116.71046875 31.54414062 -117.40140625 32.33046875 -118.11328125 33.140625 C-118.87705078 34.03394531 -118.87705078 34.03394531 -119.65625 34.9453125 C-122.32260422 37.13272373 -125.84846877 36.41687836 -129.11328125 36.140625 C-130.50546875 35.893125 -130.50546875 35.893125 -131.92578125 35.640625 C-147.70288897 33.16578457 -162.82766732 37.70643958 -176.11328125 46.140625 C-183.22351409 51.42301201 -188.57435818 57.60132804 -193.5546875 64.890625 C-195.11328125 67.140625 -195.11328125 67.140625 -197.11328125 69.140625 C-199.57043942 69.34810518 -201.96511118 69.45920199 -204.42578125 69.515625 C-218.73567589 70.16848681 -231.24209762 74.75169162 -241.36328125 85.203125 C-251.28516434 97.06846973 -254.02781384 109.6514024 -253.33544922 124.71679688 C-252.11986069 137.97873413 -244.3020637 147.97555892 -234.5078125 156.3515625 C-225.31901691 163.2169269 -213.61980396 167.14008589 -202.12109375 165.7890625 C-199.11063002 165.27582823 -196.11282112 164.71388834 -193.11328125 164.140625 C-191.45016838 163.86798355 -189.78352107 163.61551772 -188.11328125 163.390625 C-187.09234375 163.24367187 -187.09234375 163.24367187 -186.05078125 163.09375 C-183.55434099 163.15414775 -182.2117403 163.79829087 -180.11328125 165.140625 C-178.68359375 166.734375 -178.68359375 166.734375 -177.23828125 168.640625 C-168.3950043 178.98914057 -156.79263678 184.88430424 -144.11328125 189.140625 C-143.40042969 189.39457031 -142.68757813 189.64851562 -141.953125 189.91015625 C-125.436528 194.95588588 -107.64541856 191.53380025 -92.11328125 185.140625 C-91.3965625 184.75777344 -90.67984375 184.37492188 -89.94140625 183.98046875 C-86.67180877 182.47841008 -83.45607415 183.23468799 -80.11328125 184.140625 C-77.56850176 185.27960299 -75.13805645 186.52947743 -72.703125 187.88671875 C-66.69236629 190.79690509 -60.99149812 191.52968285 -54.42578125 191.515625 C-53.63776123 191.51401367 -52.84974121 191.51240234 -52.0378418 191.51074219 C-43.65502177 191.33629607 -36.42105589 189.2532647 -29.23828125 184.890625 C-25.63895817 182.87500407 -24.17631886 182.78054742 -20.11328125 183.140625 C-17.59428637 184.02185753 -15.23152538 184.9430642 -12.80078125 186.015625 C-7.28713034 188.32252743 -2.04994034 190.31201004 3.88671875 191.140625 C4.76070313 191.27339844 5.6346875 191.40617188 6.53515625 191.54296875 C24.72599927 193.71318997 43.91879898 188.82425073 58.64501953 177.82763672 C63.53391892 173.94902926 68.26784548 169.91309618 72.48046875 165.30078125 C74.88671875 163.140625 74.88671875 163.140625 77.10546875 162.80078125 C77.85828125 162.93355469 78.61109375 163.06632813 79.38671875 163.203125 C80.25683594 163.33460938 81.12695312 163.46609375 82.0234375 163.6015625 C84.00651215 163.9749108 85.98821012 164.35561825 87.96875 164.7421875 C100.37006926 166.99151989 112.4557921 165.55446419 123.22265625 158.640625 C134.20819942 150.54206758 141.73133451 140.5094898 144.88671875 127.140625 C146.49744811 111.39245648 143.62035066 98.84842222 133.88671875 86.140625 C126.58782854 78.0276278 115.88819362 71.41071397 104.88671875 70.140625 C103.60925781 70.10066406 102.33179688 70.06070313 101.015625 70.01953125 C100.30825195 69.99608643 99.60087891 69.9726416 98.87207031 69.94848633 C97.45131972 69.91065286 96.02950611 69.90024371 94.60839844 69.9206543 C90.49850371 69.82751926 89.07799582 69.33081988 86.125 66.39453125 C85.01705078 64.78384766 85.01705078 64.78384766 83.88671875 63.140625 C82.97019531 61.92439453 82.97019531 61.92439453 82.03515625 60.68359375 C81.44992187 59.90628906 80.8646875 59.12898438 80.26171875 58.328125 C69.31792732 44.72509453 55.07944924 37.49415423 37.88671875 35.140625 C32.03925513 34.74493197 26.650103 35.11602336 20.88671875 36.140625 C16.82586205 36.64216507 13.83913847 36.87325555 10.44921875 34.265625 C9.57685796 33.23914714 8.72594165 32.19436836 7.88671875 31.140625 C-5.76628591 15.22122156 -23.29141981 2.63569485 -44.8671875 0.921875 C-74.10007381 -0.60265623 -96.70115209 8.7423869 -116.01953125 30.7578125 Z M-93.67578125 202.328125 C-94.30935547 202.56337891 -94.94292969 202.79863281 -95.59570312 203.04101562 C-97.44020609 203.72676802 -99.27690031 204.43341033 -101.11328125 205.140625 C-103.10965095 205.81808529 -105.10839351 206.48880479 -107.11328125 207.140625 C-106.1200566 212.10674825 -104.89753984 216.90252292 -103.38647461 221.73852539 C-98.20043348 238.4569156 -95.0311743 255.99180545 -94.90795898 273.51586914 C-94.89805939 274.4047583 -94.88815979 275.29364746 -94.87796021 276.20947266 C-94.84665478 279.1148828 -94.82171172 282.02030924 -94.796875 284.92578125 C-94.77627866 286.95316465 -94.75528152 288.98054402 -94.73390198 291.00791931 C-94.67895795 296.31949577 -94.62942773 301.6311092 -94.58105469 306.94274902 C-94.53063643 312.37267306 -94.47505692 317.80254405 -94.41992188 323.23242188 C-94.31267921 333.86844417 -94.21116032 344.5045127 -94.11328125 355.140625 C-93.02208984 354.65779053 -91.93089844 354.17495605 -90.80664062 353.67749023 C-89.35681747 353.03879387 -87.90694507 352.40020928 -86.45703125 351.76171875 C-85.73999023 351.44408569 -85.02294922 351.12645264 -84.28417969 350.79919434 C-67.57499239 343.45307852 -48.40363769 342.5042182 -30.8203125 347.6796875 C-27.27085031 349.07852718 -23.84168458 350.62634273 -20.3815918 352.23193359 C-18.62192329 353.04747208 -18.62192329 353.04747208 -16.82670593 353.87948608 C-15.93127579 354.29566193 -15.03584564 354.71183777 -14.11328125 355.140625 C-14.10963562 354.05830597 -14.10598999 352.97598694 -14.10223389 351.86087036 C-14.06489734 341.53806476 -14.00671632 331.21554689 -13.92937851 320.8929615 C-13.89027766 315.58911226 -13.85790973 310.28541979 -13.84228516 304.98144531 C-13.75059578 276.00571163 -12.76362062 248.90687847 -4.48046875 220.91796875 C-3.13933116 216.36349525 -2.09551628 211.78519352 -1.11328125 207.140625 C-13.6882915 201.68699926 -13.6882915 201.68699926 -26.96484375 200.71875 C-29.96152991 201.98919974 -29.96152991 201.98919974 -32.48046875 203.60546875 C-39.08219043 207.45484059 -46.29280211 207.52792088 -53.73828125 207.515625 C-54.70451416 207.51473877 -55.67074707 207.51385254 -56.66625977 207.51293945 C-65.97424018 207.36001875 -74.18160634 205.70826308 -82.51953125 201.3671875 C-86.93799013 199.85914827 -89.52703681 200.65079229 -93.67578125 202.328125 Z M-97.15234375 380.1015625 C-99.11328125 382.140625 -99.11328125 382.140625 -101.11328125 383.140625 C-102.71523063 383.15428108 -104.31792271 383.10659617 -105.91796875 383.02734375 C-118.91041163 382.56144059 -128.37633711 382.278618 -138.53125 391.28515625 C-139.9233298 392.65259747 -141.2821722 394.05553587 -142.58984375 395.50390625 C-144.11328125 397.140625 -144.11328125 397.140625 -146.11328125 398.140625 C-148.13762726 398.01933154 -150.16193416 397.89132241 -152.18261719 397.71948242 C-162.88737603 396.82168475 -171.33801772 397.20204454 -180.11328125 404.140625 C-185.82777321 409.1582277 -190.43043167 415.64429504 -192.11328125 423.140625 C-192.11328125 426.110625 -192.11328125 429.080625 -192.11328125 432.140625 C-101.03328125 432.140625 -9.95328125 432.140625 83.88671875 432.140625 C83.88671875 422.06877672 82.04689695 413.59305537 74.88671875 406.140625 C67.70580501 400.09953884 59.38454278 396.69410945 49.94921875 396.94140625 C47.81339985 397.11364623 47.81339985 397.11364623 45.44921875 397.62109375 C38.93755023 398.78247365 38.93755023 398.78247365 35.7890625 396.859375 C34.45656889 395.65138874 33.1585961 394.40441787 31.89453125 393.125 C29.79630362 391.0512653 27.65139946 389.46291214 25.19921875 387.828125 C24.49410156 387.35761719 23.78898438 386.88710938 23.0625 386.40234375 C18.82477946 383.94492233 15.56130666 382.88644491 10.6484375 383.19140625 C9.66294922 383.22943359 8.67746094 383.26746094 7.66210938 383.30664062 C5.61418554 383.40379071 3.56710055 383.52078169 1.52148438 383.65820312 C-4.06001393 383.83637473 -7.34480039 383.55727262 -11.6484375 379.80859375 C-12.82661041 378.60830146 -13.98345738 377.38653471 -15.11328125 376.140625 C-26.67861852 364.81327847 -40.68255255 360.70908091 -56.46289062 360.77709961 C-72.91757064 361.11663583 -86.03144598 368.18888561 -97.15234375 380.1015625 Z " fill="#000000" transform="translate(310.11328125,39.859375)"/>
<path d="M0 0 C2.75171298 1.90503206 3.71801879 3.2856476 4.9375 6.375 C5.05254419 11.20685611 2.42330858 14.73185209 -0.7769928 18.14448547 C-1.90493399 19.28406501 -3.04109083 20.41555123 -4.18383789 21.5402832 C-4.8052919 22.16378159 -5.42674591 22.78727997 -6.06703186 23.42967224 C-8.1117327 25.47736794 -10.16693775 27.51415146 -12.22265625 29.55078125 C-13.64905613 30.97412197 -15.07486465 32.39805556 -16.50010681 33.82255554 C-19.48226631 36.80012056 -22.46925923 39.77271639 -25.46020508 42.74145508 C-29.29953963 46.55243097 -33.1300724 50.37210216 -36.95748234 54.19505024 C-39.89855997 57.13197866 -42.84245822 60.06606484 -45.78741264 62.99910545 C-47.20131532 64.40730134 -48.61474431 65.81597298 -50.02769661 67.22512245 C-51.99771131 69.18828762 -53.97107072 71.14802265 -55.94555664 73.10668945 C-56.53210022 73.69211517 -57.1186438 74.27754089 -57.72296143 74.88070679 C-62.79942202 79.9031792 -62.79942202 79.9031792 -67.875 80.3125 C-70.82968653 80.25340627 -71.89058393 80.06564964 -74.5 78.5 C-76.19873697 75.66877172 -76.759256 73.41525407 -76.55534363 70.10389709 C-74.2603899 61.40955682 -61.76333551 52.61909032 -55.48046875 46.34765625 C-54.17232415 45.03883705 -52.86432795 43.72986952 -51.55647278 42.42076111 C-48.83069132 39.69351316 -46.10312872 36.96806283 -43.37426758 34.24389648 C-39.87254828 30.74790798 -36.37538351 27.24740304 -32.87951183 23.74556828 C-30.18680464 21.04925605 -27.49173091 18.35531947 -24.79592323 15.66210747 C-23.50455595 14.37140785 -22.21393272 13.07996336 -20.92406273 11.78776741 C-19.12910609 9.99028156 -17.33099351 8.19601458 -15.53198242 6.40258789 C-14.73172386 5.59929298 -14.73172386 5.59929298 -13.91529846 4.7797699 C-9.46945506 0.35955992 -6.33943266 -0.9038399 0 0 Z " fill="#000000" transform="translate(452,320)"/>
<path d="M0 0 C1.69851685 1.10972595 1.69851685 1.10972595 3.42236328 2.69506836 C4.11847717 3.33483612 4.81459106 3.97460388 5.53179932 4.63375854 C10.94886084 9.82704595 16.29653678 15.08698199 21.6171875 20.37890625 C22.25827579 21.01591902 22.89936409 21.65293179 23.5598793 22.30924797 C26.94324888 25.6718935 30.32343088 29.03770699 33.70117188 32.40600586 C37.18298745 35.87669416 40.6763378 39.3355332 44.17230034 42.79196262 C46.869254 45.4627884 49.55729969 48.14244596 52.24301529 50.82456779 C53.52744763 52.10413627 54.81525045 53.38033091 56.10650253 54.65301704 C57.90851702 56.43068879 59.69749057 58.22056854 61.48388672 60.01391602 C62.01582138 60.53304062 62.54775604 61.05216522 63.09580994 61.58702087 C66.28949909 64.82618858 67.982937 67.55660423 69 72 C68.48089544 74.76682731 67.38416921 76.47883465 66 79 C62.68918143 80.65540928 59.55379839 80.73504509 56 80 C54.30148315 78.88903809 54.30148315 78.88903809 52.57763672 77.30273438 C51.88152283 76.66295654 51.18540894 76.02317871 50.46820068 75.36401367 C45.05503291 70.17934505 39.70367266 64.93556566 34.3828125 59.65625 C33.74172421 59.02048538 33.10063591 58.38472076 32.4401207 57.72969055 C29.05650464 54.37262698 25.67645207 51.01201742 22.29882812 47.64892578 C19.5124241 44.87591989 16.71890668 42.11038928 13.91894531 39.35107422 C10.52047858 36.0019131 7.13444071 32.64065372 3.75698471 29.27030945 C2.47343447 27.99346154 1.1856413 26.72086368 -0.10650253 25.45271301 C-1.91093931 23.6799271 -3.69892802 21.89197686 -5.48388672 20.09960938 C-6.01582138 19.58408005 -6.54775604 19.06855072 -7.09580994 18.53739929 C-10.60240712 14.97098222 -12.14661264 11.92366283 -13 7 C-10.52782365 0.32512386 -7.04388892 -1.45646847 0 0 Z " fill="#000000" transform="translate(68,320)"/>
<path d="M0 0 C2.85804082 0.90029265 5.45199866 2.17521023 8.11328125 3.54296875 C8.84951218 3.90844315 9.5857431 4.27391754 10.34428406 4.65046692 C11.88846829 5.42203105 13.42871418 6.20152349 14.96508789 6.98852539 C17.31298858 8.18774955 19.67529467 9.35397608 22.04101562 10.51757812 C23.54523541 11.27412688 25.04852527 12.032528 26.55078125 12.79296875 C27.25390945 13.13901657 27.95703766 13.48506439 28.68147278 13.84159851 C32.75320228 15.95611929 35.20851458 17.71715722 37 22 C36.93466756 25.78928158 36.88038531 28.05673002 34.25 30.875 C30.8468741 32.57656295 28.2681201 33.39966458 24.55908203 32.23071289 C23.71716309 31.8155542 22.87524414 31.40039551 22.0078125 30.97265625 C21.06180176 30.51366943 20.11579102 30.05468262 19.14111328 29.58178711 C18.1457959 29.08042236 17.15047852 28.57905762 16.125 28.0625 C15.10519043 27.56049072 14.08538086 27.05848145 13.03466797 26.54125977 C10.01365358 25.04551711 7.00486934 23.52788241 4 22 C3.16726562 21.5781543 2.33453125 21.15630859 1.4765625 20.72167969 C-0.64717752 19.63897093 -2.76353214 18.54392183 -4.875 17.4375 C-5.4922998 17.11595947 -6.10959961 16.79441895 -6.74560547 16.46313477 C-10.87829037 14.24341926 -10.87829037 14.24341926 -12 12 C-12.56872038 4.9478673 -12.56872038 4.9478673 -10.5 1.5 C-7.03865356 -0.57680786 -3.901326 -0.47939173 0 0 Z " fill="#000000" transform="translate(68,392)"/>
<path d="M0 0 C2.5 1.5 2.5 1.5 4 4 C4.54686219 6.77988279 4.72991469 9.25208587 4 12 C0.87926657 15.69616061 -2.85333853 17.74812778 -7.109375 19.890625 C-7.79501526 20.24010193 -8.48065552 20.58957886 -9.18707275 20.949646 C-10.63398811 21.68319308 -12.08307721 22.4124664 -13.53417969 23.13769531 C-15.73775318 24.2438523 -17.92724967 25.37495028 -20.1171875 26.5078125 C-21.53046025 27.22031865 -22.94449961 27.93130665 -24.359375 28.640625 C-25.32855865 29.14677338 -25.32855865 29.14677338 -26.31732178 29.66314697 C-31.09066658 32.0029858 -34.68496387 32.43880442 -40 32 C-42.5 30.5 -42.5 30.5 -44 28 C-44.54686219 25.22011721 -44.72991469 22.74791413 -44 20 C-40.87926657 16.30383939 -37.14666147 14.25187222 -32.890625 12.109375 C-32.20498474 11.75989807 -31.51934448 11.41042114 -30.81292725 11.050354 C-29.36601189 10.31680692 -27.91692279 9.5875336 -26.46582031 8.86230469 C-24.26224682 7.7561477 -22.07275033 6.62504972 -19.8828125 5.4921875 C-18.46953975 4.77968135 -17.05550039 4.06869335 -15.640625 3.359375 C-14.99450256 3.02194275 -14.34838013 2.6845105 -13.68267822 2.33685303 C-8.90933342 -0.0029858 -5.31503613 -0.43880442 0 0 Z " fill="#000000" transform="translate(452,392)"/>
<path d="M0 0 C2.5 1.5 2.5 1.5 4 4 C4.53596169 10.18231208 3.8003013 13.31956104 0.30859375 18.6171875 C-0.07433334 19.20041779 -0.45726044 19.78364807 -0.85179138 20.384552 C-1.66072954 21.6055455 -2.47894116 22.8204414 -3.3059082 24.02929688 C-4.56195678 25.87420211 -5.77491814 27.74275455 -6.98632812 29.6171875 C-7.78141175 30.80632419 -8.5788611 31.99388322 -9.37890625 33.1796875 C-10.0963501 34.24944824 -10.81379395 35.31920898 -11.55297852 36.42138672 C-14.5551486 39.58500244 -16.7386844 40.2798891 -21 41 C-24.3125 40.0625 -24.3125 40.0625 -27 38 C-28.625 34.8125 -28.625 34.8125 -29 31 C-26.00654701 23.96850365 -21.69428467 17.83870195 -17.375 11.5625 C-16.694375 10.55767578 -16.01375 9.55285156 -15.3125 8.51757812 C-10.74072159 1.83609565 -8.65433059 -1.18013599 0 0 Z " fill="#000000" transform="translate(380,336)"/>
<path d="M0 0 C2.44702148 2.57861328 2.44702148 2.57861328 4.62109375 5.8203125 C5.01071793 6.39780243 5.4003421 6.97529236 5.80177307 7.57028198 C6.6169703 8.78950082 7.42242595 10.01528386 8.21850586 11.24707031 C9.43242436 13.11718068 10.68455757 14.95676605 11.94335938 16.796875 C12.73421346 17.99057279 13.52270604 19.18583919 14.30859375 20.3828125 C15.01814209 21.45934082 15.72769043 22.53586914 16.45874023 23.64501953 C18.40986276 27.89218027 18.40147995 30.36893333 18 35 C16.5 37.5 16.5 37.5 14 39 C8.58173077 39.77403846 8.58173077 39.77403846 6 39 C0.50619396 34.60306401 -2.96432735 28.34262774 -6.75 22.5 C-7.43449219 21.46746094 -8.11898437 20.43492187 -8.82421875 19.37109375 C-9.47519531 18.37207031 -10.12617188 17.37304688 -10.796875 16.34375 C-11.38823242 15.43818359 -11.97958984 14.53261719 -12.58886719 13.59960938 C-14.02139944 10.96057763 -14.71089846 8.97959117 -15 6 C-13.76882851 2.51168078 -12.85116317 0.56744211 -9.75 -1.5 C-5.92005083 -2.19635439 -3.62191506 -1.39693707 0 0 Z " fill="#000000" transform="translate(142,337)"/>
</svg>
