<?xml version="1.0" encoding="UTF-8"?>
<svg version="1.1" xmlns="http://www.w3.org/2000/svg" width="512" height="512">
<path d="M0 0 C2.37573702 0.15007802 4.70063734 0.37828067 7.0625 0.66015625 C7.84343018 0.75047623 8.62436035 0.8407962 9.42895508 0.93385315 C21.55189938 2.3768537 33.63892779 4.11132201 45.72509766 5.83129883 C49.30532932 6.34040353 52.88685786 6.83971 56.46876526 7.33686733 C59.26815409 7.72715693 62.06651732 8.12445256 64.86465454 8.52360725 C66.81688074 8.80035477 68.77012402 9.06989767 70.72338867 9.33921814 C79.53848198 10.61116818 88.44251703 12.03517805 96.1875 16.6875 C97.32251953 17.34298828 97.32251953 17.34298828 98.48046875 18.01171875 C105.24353455 23.34877378 109.74583309 30.37623724 114.125 37.6875 C115.26544609 39.56000481 116.40607618 41.43239757 117.546875 43.3046875 C118.12115234 44.25311523 118.69542969 45.20154297 119.28710938 46.17871094 C121.95547715 50.57375912 124.66512943 54.94296389 127.375 59.3125 C127.90488525 60.16851807 128.43477051 61.02453613 128.98071289 61.90649414 C134.40402773 70.66473805 139.85601831 79.4049771 145.328125 88.1328125 C147.74878988 91.99386245 150.15388093 95.86393287 152.546875 99.7421875 C153.63533682 101.49484126 154.72387438 103.24744798 155.8125 105 C156.31015869 105.81355957 156.80781738 106.62711914 157.32055664 107.46533203 C157.77809326 108.19864746 158.23562988 108.93196289 158.70703125 109.6875 C159.1038208 110.33074219 159.50061035 110.97398437 159.90942383 111.63671875 C160.26931396 112.08660156 160.6292041 112.53648437 161 113 C163.7013097 113 164.82596153 111.95566948 167.07568359 110.46484375 C167.91771332 109.91006348 168.75974304 109.3552832 169.62728882 108.78369141 C170.54176788 108.17444824 171.45624695 107.56520508 172.3984375 106.9375 C173.3437735 106.31278809 174.2891095 105.68807617 175.26309204 105.04443359 C178.30325047 103.03389883 181.33914015 101.01701817 184.375 99 C186.38384041 97.67015866 188.39295187 96.34072667 190.40234375 95.01171875 C192.3594617 93.71627681 194.31649432 92.42070594 196.2734375 91.125 C197.22395996 90.49574112 198.17448242 89.86648224 199.15380859 89.21815491 C203.09782964 86.60339209 207.03778903 83.98511049 210.94140625 81.31030273 C212.52888672 80.22664429 212.52888672 80.22664429 214.1484375 79.12109375 C215.00872559 78.52482178 215.86901367 77.9285498 216.75537109 77.31420898 C220.66088572 75.02756713 222.57144716 74.89286179 227 76 C230.05381888 77.97563385 232.45882873 80.41304186 235 83 C235.91136719 83.84175781 236.82273438 84.68351562 237.76171875 85.55078125 C243.17543757 90.64737847 243.17543757 90.64737847 245 93 C245.06989668 95.98225829 243.94409163 97.06951689 242.07421875 99.39453125 C241.28660156 100.19246094 240.49898437 100.99039063 239.6875 101.8125 C238.51767578 103.02873047 238.51767578 103.02873047 237.32421875 104.26953125 C235 106 235 106 233.00390625 106.046875 C228.57774642 103.73457318 225.41708232 99.56783595 222 96 C213.20737288 101.55028138 204.50420921 107.23110548 195.8125 112.9375 C194.46553968 113.82103198 193.11853474 114.70449594 191.77148438 115.58789062 C188.51380952 117.72447894 185.25673462 119.86197881 182 122 C183.14742676 122.19118408 184.29485352 122.38236816 185.47705078 122.5793457 C187.00818185 122.84040062 188.53926666 123.10172693 190.0703125 123.36328125 C190.82352783 123.48803833 191.57674316 123.61279541 192.3527832 123.74133301 C211.52326033 127.04354878 223.21919395 137.2157357 235 152 C235.15855469 150.8140625 235.31710938 149.628125 235.48046875 148.40625 C235.71545666 146.77073417 235.95117433 145.13532307 236.1875 143.5 C236.28869141 142.72785156 236.38988281 141.95570313 236.49414062 141.16015625 C238.8347786 125.34503479 245.40492331 110.59049974 251.5 95.9375 C252.30353451 93.99638558 253.10675353 92.05514052 253.90966797 90.11376953 C255.11944648 87.19037385 256.33030737 84.26745144 257.54464722 81.34594727 C259.69200931 76.1776806 261.81597296 71.00145275 263.89910889 65.80696106 C265.03552943 62.97582736 266.18448689 60.1498861 267.33569336 57.32473755 C268.09729722 55.44343115 268.842906 53.55567379 269.58789062 51.66772461 C273.42397665 42.32880748 278.4322202 33.51122242 287.25 28.0625 C288.05953125 27.53785156 288.8690625 27.01320312 289.703125 26.47265625 C299.52983875 22.08323554 310.19650868 21.26462367 320.79589844 20.37426758 C322.34811451 20.23670253 323.90025714 20.09830654 325.45233154 19.95915222 C329.6336356 19.58679732 333.81589379 19.22647384 337.99847698 18.86881089 C342.40107486 18.49062183 346.80279417 18.10244652 351.20465088 17.71574402 C358.59777273 17.06781729 365.99153412 16.42763964 373.38574219 15.79223633 C381.89576307 15.06086366 390.40469597 14.31775808 398.91313148 13.56818277 C407.14156016 12.84351213 415.37066221 12.12678456 423.60010529 11.41373253 C427.08154248 11.11197158 430.56273628 10.80760144 434.04375458 10.50104713 C438.1571566 10.13919971 442.27111323 9.78442192 446.38556671 9.43474007 C447.88196541 9.30649919 449.37817302 9.17600167 450.87414551 9.04288101 C460.94649899 8.14860205 470.89280888 7.84973774 481 8 C480.76526101 9.98555787 480.53052203 11.97111575 480.29578304 13.95667362 C480.11976351 15.45127059 479.94614373 16.94615047 479.77368164 18.44116211 C479.11111111 23.88888889 479.11111111 23.88888889 478 25 C475.82201875 25.27450445 473.63585752 25.48415443 471.44848633 25.66952515 C470.75569454 25.72951616 470.06290276 25.78950717 469.34911728 25.85131609 C467.01043281 26.05276892 464.67125259 26.24775867 462.33203125 26.44287109 C460.661743 26.58551417 458.99149127 26.72858549 457.3212738 26.87205505 C453.71466923 27.18112073 450.1078503 27.4875079 446.50085449 27.79197311 C440.79334304 28.27414221 435.08655596 28.76452123 429.37988281 29.25650024 C413.14850396 30.65466166 396.91636092 32.04371584 380.68310547 33.41992188 C371.72494767 34.17943884 362.76750389 34.94687654 353.81076145 35.72291052 C348.14310703 36.2135162 342.47473758 36.69437793 336.80564213 37.16802573 C333.26791215 37.46595699 329.73103235 37.77316302 326.19432259 38.08294868 C324.56007453 38.22424722 322.92549708 38.36179675 321.29058647 38.49521065 C304.44580401 39.64325311 304.44580401 39.64325311 291 49 C289.36436163 51.61335245 288.19725152 54.31201593 287.05859375 57.171875 C286.72903183 57.95496033 286.39946991 58.73804565 286.05992126 59.54486084 C285.02199406 62.02288568 284.01060493 64.51072689 283 67 C282.33913052 68.58861066 281.67655293 70.17651189 281.01220703 71.76367188 C279.00267235 76.58182002 277.02999378 81.41456225 275.0625 86.25 C274.01311708 88.82358669 272.96324399 91.39697303 271.91331482 93.97033691 C271.22687691 95.65304644 270.54080489 97.33590528 269.8551178 99.0189209 C267.92714134 103.74683965 265.97722041 108.46433776 264 113.171875 C263.578396 114.18088867 263.15679199 115.18990234 262.72241211 116.22949219 C261.97962748 118.00367026 261.23097816 119.77541135 260.47485352 121.54394531 C260.15444092 122.31319336 259.83402832 123.08244141 259.50390625 123.875 C259.23392822 124.51179688 258.9639502 125.14859375 258.68579102 125.8046875 C257.74211798 128.82551623 257.39245592 131.86601643 257 135 C257.83772949 135.40839111 258.67545898 135.81678223 259.53857422 136.23754883 C262.64663229 137.7574803 265.75095173 139.28456929 268.85302734 140.81665039 C270.19600162 141.47808387 271.54039834 142.13663735 272.88623047 142.79223633 C274.82120416 143.73544675 276.750815 144.68891812 278.6796875 145.64453125 C279.84226074 146.21534424 281.00483398 146.78615723 282.20263672 147.37426758 C285 149 285 149 287 152 C287.64586286 156.23398988 287.94250277 158.58372578 285.5390625 162.1953125 C283.76484811 164.22405554 281.93822729 166.12817879 280 168 C279.42894531 168.57105469 278.85789062 169.14210938 278.26953125 169.73046875 C277.85058594 170.14941406 277.43164062 170.56835938 277 171 C278.39633107 174.18559952 280.04557493 176.23943845 282.5625 178.625 C286.46573445 182.3415933 287.12002597 184.34351118 287.5234375 189.83203125 C286.49606894 194.08717716 282.6902415 196.55542765 279.15332031 198.83349609 C278.13850586 199.39117676 277.12369141 199.94885742 276.078125 200.5234375 C274.97082031 201.1525 273.86351562 201.7815625 272.72265625 202.4296875 C270.97964954 203.40608496 269.23647082 204.382368 267.48193359 205.33789062 C265.77270056 206.2737517 264.08132586 207.24199782 262.390625 208.2109375 C261.38032227 208.77087402 260.37001953 209.33081055 259.32910156 209.90771484 C256.1970841 212.27100196 256.1970841 212.27100196 256 219 C267.88 218.01 267.88 218.01 280 217 C280.71070856 221.26425135 281.11400687 224.65143644 281.0625 228.875 C281.05347656 229.84179688 281.04445313 230.80859375 281.03515625 231.8046875 C281.01775391 232.89136719 281.01775391 232.89136719 281 234 C274.53546102 237.23226949 265.08866585 236.13839044 258 236 C258.03347525 237.39683082 258.10331784 238.79280637 258.1875 240.1875 C258.22230469 240.96480469 258.25710938 241.74210938 258.29296875 242.54296875 C259.42136112 246.46428811 260.55012247 247.73293762 264 250 C268.49505427 250.32572857 272.8448727 249.82439059 277.3125 249.3125 C279.1387793 249.13557617 279.1387793 249.13557617 281.00195312 248.95507812 C284.0045826 248.66070269 287.00243622 248.34159096 290 248 C290.14695312 247.05640625 290.29390625 246.1128125 290.4453125 245.140625 C293.19703515 229.38938498 299.73623666 215.68361178 313.0625 206.0625 C314.69032048 205.01318187 316.33522671 203.98964536 318 203 C319.00160156 202.40251953 319.00160156 202.40251953 320.0234375 201.79296875 C333.08917786 194.67347349 349.73560133 193.57534278 364 197.5625 C379.89931771 203.405143 391.78848 213.56313889 399 229 C400.07346104 231.97788992 401.05810112 234.97812683 402 238 C403.6560022 237.86368164 403.6560022 237.86368164 405.34545898 237.72460938 C409.47700067 237.38548628 413.60892095 237.05118073 417.7409668 236.71826172 C419.52264767 236.57404961 421.30422607 236.42856522 423.08569336 236.28173828 C425.65972831 236.06981829 428.23410816 235.86261459 430.80859375 235.65625 C431.59334579 235.59062866 432.37809784 235.52500732 433.18663025 235.45739746 C438.4737119 235.03962299 443.69622332 234.94458396 449 235 C448.94624207 234.42341141 448.89248413 233.84682281 448.83709717 233.25276184 C447.4430285 218.29542197 446.05780084 203.33728132 444.68017578 188.37841797 C444.24546369 183.65852159 443.8090001 178.93879398 443.37060547 174.21923828 C442.89197141 169.06299115 442.41886146 163.90626632 441.95007324 158.74911499 C441.77677043 156.85215009 441.6015975 154.95535499 441.42443848 153.05874634 C440.51822824 143.34318109 439.76184864 133.76984024 440 124 C439.1487706 124.11673065 438.2975412 124.2334613 437.42051697 124.35372925 C424.25408102 126.08422275 411.04370408 127.22683557 397.81640625 128.3828125 C395.30491388 128.6040126 392.7934344 128.82535921 390.28196716 129.04684448 C384.38250973 129.56630225 378.48278178 130.0826059 372.58295625 130.59786403 C367.22170303 131.06648476 361.86090897 131.54019869 356.50020939 132.01510537 C350.66032204 132.53227004 344.82005526 133.04503334 338.97962761 133.55605698 C336.51126469 133.77253887 334.04300736 133.99022829 331.57486153 134.2091713 C328.12778057 134.51447184 324.68029663 134.81474873 321.23266602 135.11376953 C319.71993103 135.24931747 319.71993103 135.24931747 318.17663574 135.38760376 C299.82881943 136.95939148 299.82881943 136.95939148 293 132 C288.79129058 127.35962808 288.18964951 123.03699601 288 117 C288.26609138 113.35707499 288.83029709 109.79090195 289.44140625 106.19140625 C289.60615952 105.1846434 289.77091278 104.17788055 289.94065857 103.14060974 C290.29175518 101.02261237 290.64929052 98.90567326 291.01293945 96.78979492 C291.55971419 93.57885964 292.07082525 90.36355601 292.58007812 87.14648438 C292.92752483 85.07776061 293.27706623 83.00938735 293.62890625 80.94140625 C293.77606583 79.99318497 293.9232254 79.04496368 294.07484436 78.06800842 C295.60742257 69.49776136 298.99807902 61.62379952 306.3125 56.5 C310.46180009 54.32963305 314.09287713 53.53101863 318.73266602 53.03369141 C319.44764283 52.9562652 320.16261965 52.878839 320.89926243 52.79906654 C334.09556593 51.41493472 347.32504719 50.32337953 360.54333949 49.17213392 C364.63976719 48.81485564 368.73595175 48.45480969 372.83216858 48.09512329 C379.68964174 47.49336683 386.54727725 46.89349138 393.4050293 46.29492188 C402.21227966 45.5261825 411.01924687 44.75424644 419.82613277 43.98134422 C427.41497087 43.3153675 435.00393809 42.65086674 442.59292531 41.98659182 C445.02834759 41.77334961 447.46375145 41.55989806 449.89915276 41.34641647 C453.71181359 41.01229963 457.52455377 40.67910289 461.33735847 40.346632 C462.73787144 40.22437727 464.13835861 40.10182662 465.53881836 39.97896385 C467.44421943 39.8118581 469.34972378 39.64593119 471.25523376 39.48007202 C472.32271316 39.38680319 473.39019255 39.29353436 474.4900198 39.19743919 C477 39 477 39 479 39 C479.33 44.61 479.66 50.22 480 56 C477.29065524 57.35467238 474.92224064 57.32320743 471.8984375 57.53515625 C470.08085938 57.66567383 470.08085938 57.66567383 468.2265625 57.79882812 C466.32003906 57.9293457 466.32003906 57.9293457 464.375 58.0625 C463.09625 58.15337891 461.8175 58.24425781 460.5 58.33789062 C457.33358006 58.56237562 454.16693409 58.78290923 451 59 C451.08564209 59.81976318 451.17128418 60.63952637 451.25952148 61.48413086 C454.38751804 91.59611391 454.38751804 91.59611391 455 106 C456.485 105.505 456.485 105.505 458 105 C464.98658691 104.05838013 471.95998242 103.86255931 479 104 C479.85617989 109.88623674 480 114.87678086 480 121 C472.74 121.66 465.48 122.32 458 123 C457.74312413 134.03362127 458.74278263 144.85905445 459.75 155.83203125 C459.92991345 157.8383041 460.10926566 159.84462735 460.28808594 161.85099792 C460.75710254 167.10110603 461.23189465 172.35067323 461.70849609 177.60009766 C462.47233959 186.01772975 463.22987261 194.43592099 463.98254395 202.85455894 C464.24563289 205.78341412 464.51277251 208.71188003 464.78027344 211.64033508 C464.9422108 213.44095503 465.10400242 215.2415881 465.265625 217.04223633 C465.34043091 217.84913406 465.41523682 218.6560318 465.49230957 219.48738098 C465.89423668 224.01321009 466.07093264 228.45623148 466 233 C470.29 232.67 474.58 232.34 479 232 C479.83253956 237.72370949 480.09705875 243.22156499 480 249 C464.72205393 251.00790183 449.37299885 252.20503983 434.01898193 253.45513916 C430.51182344 253.74134337 427.00494934 254.03099109 423.49804688 254.3203125 C416.6656326 254.88349807 409.83292025 255.44298758 403 256 C402.93664963 256.68670776 402.87329926 257.37341553 402.80802917 258.08093262 C402.72209 258.98170532 402.63615082 259.88247803 402.54760742 260.81054688 C402.46363205 261.70350464 402.37965668 262.5964624 402.2931366 263.51647949 C400.70000372 277.01386678 391.81506129 289.35761409 381.4375 297.5625 C367.34820754 307.7935999 352.1204726 310.51663599 335 308 C320.40736521 304.63112618 307.43370447 296.10527774 299.125 283.5625 C292 271.60328014 292 271.60328014 292 266 C291.3608667 266.06582275 290.7217334 266.13164551 290.06323242 266.19946289 C287.10562677 266.49786346 284.14668787 266.780239 281.1875 267.0625 C280.18267578 267.16626953 279.17785156 267.27003906 278.14257812 267.37695312 C268.44896952 268.28085875 258.25237324 268.9540149 250 263 C240.11552748 254.35108655 240.2389503 241.60740158 239.3125 229.4375 C239.18266461 227.84041122 239.05181366 226.24340465 238.91992188 224.64648438 C238.6015598 220.76517216 238.2969787 216.88300447 238 213 C235.80420025 221.95808571 234.76056731 231.01412791 233.67578125 240.1640625 C231.05592779 260.52650076 231.05592779 260.52650076 223.625 266.5625 C222.89539063 267.18253906 222.16578125 267.80257813 221.4140625 268.44140625 C211.8665861 274.60555363 199.77982416 272.2042812 189.19140625 270.4375 C186.08189503 270.01122674 183.13384795 269.92437169 180 270 C179.27296875 271.57587891 179.27296875 271.57587891 178.53125 273.18359375 C170.98733273 289.14831833 161.69969531 299.49648047 144.86328125 306 C129.8621632 311.23913536 114.11547856 309.9184688 99.671875 303.52734375 C85.34710992 295.75891346 76.13854124 283.82534261 70.96875 268.59765625 C69.56936882 263.40076081 69.17318679 258.35602342 69 253 C67.92355225 252.89695557 66.84710449 252.79391113 65.73803711 252.68774414 C53.05828638 251.43410119 40.46025703 249.73891758 27.85131836 247.91333008 C24.51542377 247.43068896 21.17868399 246.95424143 17.84179688 246.47851562 C15.70828206 246.17223195 13.57481656 245.86560451 11.44140625 245.55859375 C10.44984024 245.41691269 9.45827423 245.27523163 8.43666077 245.1292572 C7.51727219 244.99564285 6.59788361 244.8620285 5.65063477 244.72436523 C4.84634537 244.60826401 4.04205597 244.49216278 3.21339417 244.37254333 C1.12175248 244.02049254 -0.94226745 243.51443314 -3 243 C-2.34 237.72 -1.68 232.44 -1 227 C2.47823115 225.84058962 4.45895578 226.29179116 8 227 C8.03847046 226.23708649 8.07694092 225.47417297 8.11657715 224.68814087 C8.78464811 213.58464384 10.32931725 202.65275171 11.90625 191.6484375 C12.19424725 189.61541743 12.48187912 187.58234557 12.76916504 185.54922485 C13.36805412 181.31803458 13.97010594 177.08731138 14.57470703 172.85693359 C15.34951857 167.43499303 16.11816543 162.01220106 16.88471222 156.58908653 C17.47659813 152.40417635 18.07075123 148.21959073 18.66569519 144.03511429 C18.95004747 142.0344893 19.23391533 140.03379541 19.51728821 138.03303146 C19.91235482 135.24745568 20.31024333 132.46229796 20.70898438 129.67724609 C20.82537766 128.85335388 20.94177094 128.02946167 21.06169128 127.18060303 C21.55792052 123.73344534 22.11464389 120.36762561 23 117 C21.81857422 116.92652344 21.81857422 116.92652344 20.61328125 116.8515625 C12.64931923 116.30492369 4.87640865 115.29830912 -3 114 C-2.34 108.72 -1.68 103.44 -1 98 C3.74008 97.051984 6.22665114 97.15938471 10.875 97.9375 C15.66466112 98.73226794 20.14759175 99.0437447 25 99 C25.26478149 97.06181396 25.26478149 97.06181396 25.53491211 95.08447266 C26.18922117 90.3019145 26.84817179 85.52000554 27.50854492 80.73828125 C27.7939975 78.66651613 28.07818192 76.59457587 28.36108398 74.52246094 C28.76735459 71.54836087 29.17814463 68.57491533 29.58984375 65.6015625 C29.77896584 64.20618759 29.77896584 64.20618759 29.97190857 62.78262329 C30.09195755 61.92188202 30.21200653 61.06114075 30.33569336 60.17431641 C30.4400621 59.41486725 30.54443085 58.65541809 30.65196228 57.87295532 C31 56 31 56 32 54 C30.89785156 53.89042969 29.79570313 53.78085938 28.66015625 53.66796875 C18.00524834 52.56818358 7.52235161 50.99791486 -3 49 C-2.71943562 46.35254679 -2.42614369 43.70762036 -2.125 41.0625 C-2.04636719 40.30775391 -1.96773437 39.55300781 -1.88671875 38.77539062 C-1.66116192 36.84080701 -1.33741026 34.91823981 -1 33 C2.37588041 31.31205979 6.08631539 32.55012201 9.71655273 33.07983398 C10.61910797 33.20648438 11.52166321 33.33313477 12.4515686 33.46362305 C15.44643083 33.8852984 18.43996477 34.31575782 21.43359375 34.74609375 C23.5085459 35.0395912 25.58358481 35.3324759 27.65870667 35.62477112 C33.13115497 36.39701261 38.60255843 37.17641543 44.07373047 37.9576416 C52.82823963 39.20651573 61.58425257 40.44479333 70.34031868 41.68269539 C73.40456686 42.11697988 76.46835459 42.55440337 79.53208923 42.99229431 C81.40606762 43.25851989 83.28005497 43.52468238 85.15405273 43.79077148 C86.0097435 43.91390213 86.86543427 44.03703278 87.74705505 44.16389465 C90.85704214 44.60367426 93.85463464 45 97 45 C96.18642206 43.61321942 95.34767749 42.24120361 94.5 40.875 C93.80390625 39.72644531 93.80390625 39.72644531 93.09375 38.5546875 C87.28759103 31.47030697 81.26996608 29.03721552 72.35546875 27.88671875 C71.3210112 27.73393967 70.28655365 27.58116058 69.2207489 27.42375183 C65.8166392 26.9267215 62.40884052 26.46336918 59 26 C56.59556762 25.65523128 54.19143693 25.30835266 51.78759766 24.95947266 C44.29997408 23.88046473 36.80682611 22.84375858 29.3125 21.8125 C25.4592389 21.28022565 21.60611555 20.74699313 17.7532196 20.21208191 C15.38285602 19.88318796 13.01227072 19.55588673 10.64143372 19.23042297 C9.57809311 19.08324326 8.5147525 18.93606354 7.41918945 18.78442383 C6.49008255 18.65659012 5.56097565 18.52875641 4.60371399 18.39704895 C2.04951599 18.00755086 -0.47107227 17.52768198 -3 17 C-2.69268013 14.35346869 -2.37940678 11.707885 -2.0625 9.0625 C-1.97548828 8.30775391 -1.88847656 7.55300781 -1.79882812 6.77539062 C-1.11328125 1.11328125 -1.11328125 1.11328125 0 0 Z M49 56 C47.56108672 62.03775893 46.48792401 68.03527936 45.7109375 74.19140625 C45.60278717 75.02212143 45.49463684 75.85283661 45.38320923 76.70872498 C45.04332412 79.32617336 44.70906331 81.94430291 44.375 84.5625 C44.14360299 86.35226191 43.91183547 88.14197596 43.6796875 89.93164062 C43.11551268 94.28721959 42.55637584 98.64341822 42 103 C54.50048248 104.83095945 67.00192644 106.65517869 79.50453186 108.47158813 C86.51412802 109.49062099 93.52254308 110.51736772 100.53019714 111.54966736 C105.03749577 112.21225824 109.545635 112.86899264 114.0539856 113.52438354 C116.225472 113.84133616 118.39659737 114.16077229 120.56735229 114.48269653 C123.60259238 114.93243193 126.63897535 115.37348137 129.67578125 115.8125 C130.57984711 115.94857162 131.48391296 116.08464325 132.41537476 116.22483826 C133.24292267 116.34271194 134.07047058 116.46058563 134.9230957 116.58203125 C135.64213577 116.68749268 136.36117584 116.7929541 137.102005 116.90161133 C139.22583726 117.12745194 139.22583726 117.12745194 142 116 C134.61610972 103.56491146 127.07796786 91.24611572 119.29833984 79.0546875 C118.12245782 77.1937956 116.97097049 75.32115105 115.83203125 73.4375 C115.22746094 72.4475 114.62289062 71.4575 114 70.4375 C113.505 69.61121094 113.01 68.78492188 112.5 67.93359375 C109.55318357 64.1349632 105.80994146 63.65699211 101.22167969 63.03857422 C100.0607782 62.87855927 98.89987671 62.71854431 97.70379639 62.55368042 C96.45576233 62.38901276 95.20772827 62.22434509 93.921875 62.0546875 C92.64016418 61.87994904 91.35845337 61.70521057 90.03790283 61.525177 C86.63901081 61.06188018 83.23902819 60.60713331 79.83874512 60.1541748 C76.36575393 59.68998622 72.89386571 59.21769676 69.421875 58.74609375 C62.61563921 57.82281078 55.80821658 56.90855827 49 56 Z M428.58551025 60.35945129 C427.15546661 60.47916039 427.15546661 60.47916039 425.6965332 60.60128784 C424.11473267 60.73447922 424.11473267 60.73447922 422.50097656 60.87036133 C421.39695496 60.96307816 420.29293335 61.05579498 419.15545654 61.15132141 C408.96462387 62.00900597 398.77493736 62.88004775 388.58566666 63.75607777 C381.73379758 64.34487943 374.88158656 64.9288897 368.02832031 65.5012207 C361.41259478 66.05372151 354.79809435 66.61951447 348.18419647 67.1935482 C345.65998471 67.41045468 343.13538612 67.62290664 340.61042023 67.8308506 C337.07801441 68.12256304 333.5473231 68.43010626 330.01660156 68.74145508 C328.44694641 68.86553741 328.44694641 68.86553741 326.84558105 68.99212646 C319.94858548 69.60377925 319.94858548 69.60377925 314 73 C311.46794923 76.50021768 311.1674953 80.87736293 310.4921875 85.0546875 C310.36184113 85.83385529 310.23149475 86.61302307 310.09719849 87.415802 C309.82354678 89.06102561 309.55309859 90.70678486 309.28564453 92.35302734 C308.87735353 94.86054578 308.45704843 97.36583201 308.03515625 99.87109375 C307.770112 101.47383921 307.50576613 103.07670036 307.2421875 104.6796875 C307.11721893 105.42362762 306.99225037 106.16756775 306.86349487 106.93405151 C306.20870059 111.00895229 305.95148267 114.87986061 306 119 C320.7662626 118.31647631 335.46608298 117.06903178 350.1875 115.75 C352.66803735 115.52947859 355.14858772 115.30910359 357.62915039 115.08886719 C362.78615198 114.63026884 367.94294663 114.16942355 373.09960938 113.70703125 C378.39489821 113.23241477 383.69045026 112.76095296 388.98632812 112.29296875 C395.41347158 111.72494512 401.84025111 111.15298202 408.26675415 110.57775879 C410.70997959 110.35960459 413.15331892 110.14272216 415.59677124 109.92712402 C418.99065681 109.62717694 422.3840416 109.32209194 425.77734375 109.015625 C426.7891571 108.92728394 427.80097046 108.83894287 428.84344482 108.7479248 C429.76256653 108.66385376 430.68168823 108.57978271 431.62866211 108.49316406 C432.4293663 108.42164124 433.2300705 108.35011841 434.05503845 108.27642822 C436.07611868 108.09398573 436.07611868 108.09398573 438 107 C437.3312892 91.27376663 435.63481859 75.64842817 434 60 C432.19002857 60 430.38810735 60.20835071 428.58551025 60.35945129 Z M40 120 C38.49519392 126.40930946 37.37242071 132.77170259 36.48779297 139.29321289 C36.35095093 140.27963776 36.21410889 141.26606262 36.07312012 142.28237915 C35.62597034 145.51199844 35.1840406 148.74230843 34.7421875 151.97265625 C34.43148569 154.2242827 34.1204558 156.47586389 33.80911255 158.72740173 C32.99373686 164.63040203 32.18279881 170.5340036 31.37280273 176.43774414 C30.54419811 182.47123744 29.71137133 188.50414773 28.87890625 194.53710938 C27.24848581 206.35750811 25.62275578 218.17854676 24 230 C29.87080397 230.85992298 35.74238506 231.7142517 41.61474609 232.56347656 C43.61106167 232.85296661 45.60715895 233.14396624 47.60302734 233.43652344 C50.47697363 233.85752005 53.35166915 234.27302641 56.2265625 234.6875 C57.55815903 234.88436401 57.55815903 234.88436401 58.91665649 235.08520508 C63.31968764 235.71454871 67.53751362 236.15321842 72 236 C72.20753906 235.39414062 72.41507813 234.78828125 72.62890625 234.1640625 C78.25681065 218.85804634 88.4879004 208.20824974 103 201 C116.19525452 195.5002985 131.56584183 195.13054935 145 200 C158.61074908 205.6786569 167.76411177 212.94517294 175 226 C175.40089844 226.69480469 175.80179688 227.38960938 176.21484375 228.10546875 C179.99014419 235.47086622 180.7737669 243.90871945 182 252 C184.97788016 252.50893577 187.9569254 253.00730636 190.9375 253.5 C191.76830078 253.64308594 192.59910156 253.78617188 193.45507812 253.93359375 C203.19121013 255.82656698 203.19121013 255.82656698 212.4375 253.625 C214.76950491 250.03873535 214.76950491 250.03873535 216 241 C208.08 240.01 200.16 239.02 192 238 C192.52083333 235.03776042 193.04166667 232.07552083 193.5625 229.11328125 C193.95068074 226.35095938 194.08259976 223.78257957 194 221 C195.14597656 221.2165625 196.29195312 221.433125 197.47265625 221.65625 C199.00254447 221.93782452 200.53249581 222.2190563 202.0625 222.5 C202.81466797 222.64308594 203.56683594 222.78617187 204.34179688 222.93359375 C208.97740175 223.776431 213.2889615 224.15015262 218 224 C218.36088615 221.68853911 218.71354191 219.37579171 219.0625 217.0625 C219.25972656 215.77472656 219.45695313 214.48695313 219.66015625 213.16015625 C219.77230469 212.11730469 219.88445312 211.07445312 220 210 C218.02731945 208.02731945 214.38274666 208.29395993 211.67578125 207.94921875 C210.15680879 207.74351863 208.6379314 207.53711549 207.11914062 207.33007812 C204.72161069 207.00722545 202.32382932 206.6889441 199.92407227 206.38305664 C197.61000313 206.08592681 195.29930311 205.76908364 192.98828125 205.44921875 C192.27867752 205.36363205 191.56907379 205.27804535 190.83796692 205.18986511 C184.99330834 204.35615588 180.82986392 202.31140706 177.14453125 197.65625 C173.34942587 188.84849691 175.63203873 174.59158449 178.8125 165.73828125 C180.24462013 162.89194249 181.95529385 161.03553566 184.4375 159.0625 C195.08285646 155.88756912 207.1717357 158.54758611 218 160 C215.58387186 155.43742544 213.5250927 152.07853371 209.4375 148.8125 C208.67308594 148.17957031 207.90867188 147.54664063 207.12109375 146.89453125 C199.39648475 142.20562591 190.90023654 140.34283109 182.04125977 139.15649414 C180.48699028 138.93357948 180.48699028 138.93357948 178.90132141 138.7061615 C175.49951221 138.22114591 172.09560782 137.75305841 168.69140625 137.28515625 C166.28215707 136.94515883 163.87305615 136.60410945 161.46409607 136.2620697 C155.118894 135.36405083 148.77177042 134.48041094 142.4241333 133.59979248 C136.09467615 132.71913669 129.76715441 131.82480928 123.43945312 130.93164062 C112.56973117 129.39922167 101.6982272 127.87999617 90.82552528 126.3688755 C84.63382369 125.50782801 78.44297701 124.64114956 72.25339985 123.76495838 C68.84705044 123.2827778 65.44036998 122.8029638 62.03364372 122.3234539 C60.51043362 122.10841237 58.9873831 121.89223686 57.46450996 121.67482185 C55.42329608 121.38355062 53.38154125 121.09642015 51.33959961 120.81030273 C49.66612709 120.5730674 49.66612709 120.5730674 47.95884705 120.33103943 C45.27273575 120.03051401 42.69934424 119.93501901 40 120 Z M252 152 C251.81111078 165.86237021 251.66973835 179.30971279 254 193 C257.63 191.02 261.26 189.04 265 187 C264.071875 185.9275 263.14375 184.855 262.1875 183.75 C261.64222656 183.10417969 261.09695313 182.45835937 260.53515625 181.79296875 C259.43942191 180.51321795 258.29661399 179.27316779 257.125 178.0625 C255.2960291 174.70938667 255.04282842 171.62545126 256 168 C257.65685655 165.68781959 259.43651658 163.74959787 261.46875 161.76171875 C263.32800649 160.01165459 263.32800649 160.01165459 263 157 C259.37 155.35 255.74 153.7 252 152 Z M194 174 C193.65828994 175.37294222 193.32708883 176.74850118 193 178.125 C192.814375 178.89070312 192.62875 179.65640625 192.4375 180.4453125 C191.94276518 183.33421049 191.9718295 186.07378881 192 189 C196.25320388 189.59503138 200.50732129 190.18285735 204.76245117 190.76391602 C206.21096908 190.96276408 207.65921461 191.16360664 209.10717773 191.36645508 C211.18405508 191.65706159 213.26179457 191.94056791 215.33984375 192.22265625 C216.59144287 192.39547119 217.84304199 192.56828613 219.13256836 192.74633789 C220.0788208 192.83004639 221.02507324 192.91375488 222 193 C223.94090826 191.05909174 223.39919435 187.52706098 223.5625 184.9375 C223.64628906 183.64714844 223.73007813 182.35679687 223.81640625 181.02734375 C223.90728516 179.52880859 223.90728516 179.52880859 224 178 C213.9939515 176.09465663 204.18886891 174.51387339 194 174 Z M95.625 226.375 C88.85189315 234.5409635 85.38848669 243.79464927 85.6875 254.484375 C87.18309421 266.52390839 92.38089315 276.70799818 101.71875 284.4296875 C110.72774807 290.63108685 120.18622767 292.96575828 131 292 C143.77687466 289.37255809 152.26355461 283.41246641 160 273 C165.28006112 263.6419666 166.54192654 253.29551526 164.31640625 242.765625 C161.08295721 232.19318581 154.9557972 224.46250326 146 218 C128.63186486 209.15015728 109.0887002 211.91398867 95.625 226.375 Z M315.75 227.1875 C309.15049203 235.44148072 306.56266728 245.56832829 307 256 C308.80799946 267.9740315 314.6856253 277.37376316 324 285 C334.12554894 291.53312498 344.1899371 293.08819613 356 291 C366.45199785 288.10819414 374.87687238 282.03682868 380.9375 273 C381.66232179 271.68658179 382.35135517 270.35266179 383 269 C383.47566406 268.02353516 383.47566406 268.02353516 383.9609375 267.02734375 C387.4949061 258.35453091 387.33001954 247.92823814 384.375 239.125 C379.52339134 227.7313267 372.60646778 220.47270556 361.4375 215.0625 C344.33068325 208.47288436 327.97217276 214.43663274 315.75 227.1875 Z " fill="#000000" transform="translate(17,180)"/>
<path d="M0 0 C8.86245046 2.33395699 17.73444788 15.07883888 24.10253906 21.49121094 C25.36662757 22.76032467 26.63094862 24.02920682 27.89550781 25.29785156 C30.9672063 28.38047414 34.03573914 31.46621521 37.10253906 34.55371094 C40.04659243 33.22747851 42.10735801 31.79157439 44.37060547 29.49682617 C45.29143417 28.57092934 45.29143417 28.57092934 46.23086548 27.62632751 C46.88203339 26.96169998 47.53320129 26.29707245 48.20410156 25.61230469 C48.88177582 24.92942886 49.55945007 24.24655304 50.25765991 23.54298401 C52.41909198 21.36375616 54.57371314 19.17795455 56.72753906 16.99121094 C58.88936852 14.80178263 61.05263075 12.61381992 63.21884155 10.4287262 C64.56602536 9.06926533 65.91052728 7.70714063 67.25210571 6.34214783 C68.16347794 5.42097923 68.16347794 5.42097923 69.09326172 4.48120117 C69.89457016 3.6675132 69.89457016 3.6675132 70.71206665 2.83738708 C73.55527595 0.21255258 76.27255569 0.33521192 80.03222656 0.12792969 C83.16492128 0.77220087 84.17160527 2.0165306 86.10253906 4.55371094 C86.45163956 7.44336214 86.57069526 9.93963804 86.49316406 12.81933594 C86.48750427 13.61273376 86.48184448 14.40613159 86.47601318 15.22357178 C86.45367053 17.75090567 86.40348082 20.27680759 86.35253906 22.80371094 C86.33247121 24.51983625 86.31422093 26.23598386 86.29785156 27.95214844 C86.25381301 32.15321874 86.18480232 36.35322228 86.10253906 40.55371094 C88.0704541 40.52229004 88.0704541 40.52229004 90.078125 40.49023438 C94.9458525 40.41783123 99.81353241 40.37190981 104.68164062 40.33398438 C106.78849288 40.31386968 108.89528932 40.28657427 111.00195312 40.25195312 C114.03041353 40.20342925 117.05813584 40.18074077 120.08691406 40.16308594 C121.02871521 40.1424408 121.97051636 40.12179565 122.94085693 40.1005249 C129.44537614 40.0982933 129.44537614 40.0982933 132.68554688 42.34375 C134.40581212 45.02669987 134.85373308 47.26714971 134.65820312 50.44921875 C132.3614539 59.14780324 119.96946247 67.79458161 113.66503906 74.05371094 C112.44410216 75.26962207 111.22339714 76.48576609 110.00292969 77.70214844 C107.03879893 80.65536059 104.07154948 83.60540492 101.10253906 86.55371094 C97.46950822 84.85784968 95.15704861 82.81570606 92.35253906 79.92871094 C91.55332031 79.11144531 90.75410156 78.29417969 89.93066406 77.45214844 C89.32738281 76.82566406 88.72410156 76.19917969 88.10253906 75.55371094 C89.46095926 72.51038328 90.9871693 70.43061943 93.36035156 68.10058594 C93.98554688 67.48183594 94.61074219 66.86308594 95.25488281 66.22558594 C96.23134766 65.27425781 96.23134766 65.27425781 97.22753906 64.30371094 C97.88625 63.65402344 98.54496094 63.00433594 99.22363281 62.33496094 C100.84550549 60.73659366 102.47186716 59.14309196 104.10253906 57.55371094 C103.21469727 57.54436523 102.32685547 57.53501953 101.41210938 57.52539062 C98.10907988 57.48130413 94.807339 57.41966348 91.50488281 57.34619141 C90.07726969 57.31801483 88.64950153 57.29678367 87.22167969 57.28271484 C85.16553574 57.26123702 83.11124904 57.2145712 81.05566406 57.16308594 C79.81977539 57.14213867 78.58388672 57.12119141 77.31054688 57.09960938 C74.10253906 56.55371094 74.10253906 56.55371094 71.70605469 54.84082031 C69.80651285 52.13148597 69.56956564 50.63585358 69.49316406 47.35058594 C69.4609375 46.37089844 69.42871094 45.39121094 69.39550781 44.38183594 C69.38132812 43.36605469 69.36714844 42.35027344 69.35253906 41.30371094 C69.32289063 40.27246094 69.29324219 39.24121094 69.26269531 38.17871094 C69.19209129 35.63696599 69.13934897 33.0961331 69.10253906 30.55371094 C68.35568848 31.30579834 67.60883789 32.05788574 66.83935547 32.83276367 C64.0725174 35.61767736 61.30239116 38.39930027 58.53125 41.17993164 C57.33145375 42.38476223 56.1325558 43.59048806 54.93457031 44.79711914 C53.21425983 46.52953446 51.49076362 48.25872363 49.76660156 49.98730469 C49.23007965 50.52898788 48.69355774 51.07067108 48.14077759 51.62876892 C44.78156745 54.98848613 43.24376869 56.39629995 38.47753906 57.05371094 C34.78946856 56.99151542 33.1484988 56.12611008 30.45410156 53.64355469 C29.76268066 53.00853027 29.07125977 52.37350586 28.35888672 51.71923828 C24.21487236 47.74202476 20.14369786 43.69771925 16.10253906 39.61621094 C15.23242188 38.74158203 14.36230469 37.86695313 13.46582031 36.96582031 C11.34240357 34.83073644 9.22137529 32.69333888 7.10253906 30.55371094 C7.09319336 31.19920898 7.08384766 31.84470703 7.07421875 32.50976562 C7.02044805 35.44185038 6.93681566 38.37235102 6.85253906 41.30371094 C6.83835938 42.31949219 6.82417969 43.33527344 6.80957031 44.38183594 C6.57123537 51.62721824 6.57123537 51.62721824 4.75878906 55.20996094 C0.32878119 57.45102374 -4.25307251 57.23538826 -9.14746094 57.30371094 C-10.69433594 57.34818359 -10.69433594 57.34818359 -12.27246094 57.39355469 C-14.81370797 57.46414488 -17.35558905 57.51120472 -19.89746094 57.55371094 C-17.25746094 60.19371094 -14.61746094 62.83371094 -11.89746094 65.55371094 C-13.81886962 69.3965283 -15.49014254 71.35803021 -18.52246094 74.30371094 C-19.33972656 75.10292969 -20.15699219 75.90214844 -20.99902344 76.72558594 C-21.62550781 77.32886719 -22.25199219 77.93214844 -22.89746094 78.55371094 C-26.73164331 76.97292706 -29.159354 74.53563766 -32.06542969 71.61621094 C-32.54571121 71.13547119 -33.02599274 70.65473145 -33.52082825 70.15942383 C-34.53083164 69.14640943 -35.53841367 68.13097574 -36.54370117 67.11328125 C-38.08492139 65.55375096 -39.63404806 64.00242524 -41.18457031 62.45214844 C-49.935468 53.65744496 -49.935468 53.65744496 -50.32324219 46.62402344 C-49.67897101 43.49132872 -48.43464127 42.48464473 -45.89746094 40.55371094 C-43.00780973 40.20461044 -40.51153384 40.08555474 -37.63183594 40.16308594 C-36.83843811 40.16874573 -36.04504028 40.17440552 -35.2276001 40.18023682 C-32.7002662 40.20257947 -30.17436428 40.25276918 -27.64746094 40.30371094 C-25.93133562 40.32377879 -24.21518802 40.34202907 -22.49902344 40.35839844 C-18.29795314 40.40243699 -14.09794959 40.47144768 -9.89746094 40.55371094 C-9.9184082 39.48411133 -9.93935547 38.41451172 -9.9609375 37.3125 C-10.03340719 33.33932921 -10.07928557 29.36621668 -10.1171875 25.39257812 C-10.13728722 23.67372815 -10.16457182 21.95494642 -10.19921875 20.23632812 C-10.24781128 17.76382604 -10.27044529 15.29222883 -10.28808594 12.81933594 C-10.30873108 12.05252502 -10.32937622 11.28571411 -10.35064697 10.4956665 C-10.35211532 6.99424559 -10.18694232 4.95374167 -8.10742188 2.08007812 C-5.43028561 0.23104411 -3.24582638 -0.20221838 0 0 Z " fill="#000000" transform="translate(169.8974609375,135.4462890625)"/>
<path d="M0 0 C5.61 0 11.22 0 17 0 C16.43075067 9.10798921 13.93897991 15.03705803 8 22 C6.58528358 24.82943284 6.73419914 26.86046806 7 30 C8.37831984 32.59083111 8.37831984 32.59083111 10.3125 34.9375 C16.13532152 42.87021029 18.12816969 49.15985324 17 59 C15.2997737 65.51753414 12.40089472 70.02004018 8 75 C7.34 76.65 6.68 78.3 6 80 C0.39 80 -5.22 80 -11 80 C-10.43075067 70.89201079 -7.93897991 64.96294197 -2 58 C-0.57238173 55.14476346 -0.6998017 53.17132562 -1 50 C-2.64057274 47.14152438 -2.64057274 47.14152438 -4.875 44.5 C-10.83119688 37.07076518 -11.95380251 30.34961968 -11 21 C-9.31139798 14.48290897 -6.39748485 9.97610128 -2 5 C-1.34 3.35 -0.68 1.7 0 0 Z " fill="#000000" transform="translate(205,48)"/>
<path d="M0 0 C5.61 0 11.22 0 17 0 C16.43075067 9.10798921 13.93897991 15.03705803 8 22 C6.58528358 24.82943284 6.73419914 26.86046806 7 30 C8.37831984 32.59083111 8.37831984 32.59083111 10.3125 34.9375 C16.13532152 42.87021029 18.12816969 49.15985324 17 59 C15.2997737 65.51753414 12.40089472 70.02004018 8 75 C7.34 76.65 6.68 78.3 6 80 C0.39 80 -5.22 80 -11 80 C-10.43075067 70.89201079 -7.93897991 64.96294197 -2 58 C-0.57238173 55.14476346 -0.6998017 53.17132562 -1 50 C-2.64057274 47.14152438 -2.64057274 47.14152438 -4.875 44.5 C-10.83119688 37.07076518 -11.95380251 30.34961968 -11 21 C-9.31139798 14.48290897 -6.39748485 9.97610128 -2 5 C-1.34 3.35 -0.68 1.7 0 0 Z " fill="#000000" transform="translate(253,32)"/>
<path d="M0 0 C11.15963203 0.52794344 21.99844472 2.13513082 33 4 C32.85786703 5.89611434 32.71113093 7.79188394 32.5625 9.6875 C32.48128906 10.74324219 32.40007812 11.79898437 32.31640625 12.88671875 C32.03548319 15.65086297 31.59843148 18.28945741 31 21 C20.29968686 19.85960382 9.64179257 18.60824518 -1 17 C-2.3357457 13.22628488 -1.72408671 10.14168653 -1.0625 6.25 C-0.86785156 5.07953125 -0.67320313 3.9090625 -0.47265625 2.703125 C-0.31667969 1.81109375 -0.16070312 0.9190625 0 0 Z " fill="#000000" transform="translate(69,317)"/>
<path d="M0 0 C0.90413673 3.83724172 1.10576898 7.37502274 1.0625 11.3125 C1.05347656 12.38113281 1.04445313 13.44976562 1.03515625 14.55078125 C1.02355469 15.35902344 1.01195312 16.16726563 1 17 C-1.41366535 18.20683268 -3.28968105 18.30251299 -5.98046875 18.53515625 C-6.98013672 18.62216797 -7.97980469 18.70917969 -9.00976562 18.79882812 C-10.05841797 18.88583984 -11.10707031 18.97285156 -12.1875 19.0625 C-13.21681641 19.15337891 -14.24613281 19.24425781 -15.30664062 19.33789062 C-20.54771538 19.7844396 -25.73965295 20.22554738 -31 20 C-33.05922402 17.94077598 -32.41427579 13.78291876 -32.5625 10.9375 C-32.60568359 10.17888672 -32.64886719 9.42027344 -32.69335938 8.63867188 C-32.79973633 6.75934562 -32.90039934 4.87969756 -33 3 C-28.62186332 2.57153061 -24.24360692 2.14431253 -19.86523438 1.71826172 C-18.37529181 1.57309949 -16.88538272 1.42759331 -15.39550781 1.28173828 C-13.25594618 1.07234044 -11.11626786 0.8641734 -8.9765625 0.65625 C-7.68830566 0.53056641 -6.40004883 0.40488281 -5.07275391 0.27539062 C-2 0 -2 0 0 0 Z " fill="#000000" transform="translate(363,327)"/>
<path d="M0 0 C2.0836309 0.14151828 4.16689938 0.28837936 6.25 0.4375 C7.99023438 0.55931641 7.99023438 0.55931641 9.765625 0.68359375 C12.30977376 0.93247787 14.55953248 1.28114942 17 2 C16.85786703 3.89611434 16.71113093 5.79188394 16.5625 7.6875 C16.48128906 8.74324219 16.40007812 9.79898437 16.31640625 10.88671875 C16 14 16 14 15 19 C9.39 18.34 3.78 17.68 -2 17 C-1.0625 4.8125 -1.0625 4.8125 0 0 Z " fill="#000000" transform="translate(135,423)"/>
<path d="M0 0 C1.52106634 3.04213267 1.37429338 6.28047572 1.5625 9.625 C1.60568359 10.33140625 1.64886719 11.0378125 1.69335938 11.765625 C1.79944751 13.51018537 1.90022889 15.25506697 2 17 C-2.018118 17.75712312 -5.78825175 18.11233839 -9.875 18.0625 C-10.84179688 18.05347656 -11.80859375 18.04445313 -12.8046875 18.03515625 C-13.52914063 18.02355469 -14.25359375 18.01195312 -15 18 C-16.09595681 14.71212957 -16.35704545 11.82778573 -16.625 8.375 C-16.72039062 7.20710938 -16.81578125 6.03921875 -16.9140625 4.8359375 C-16.94242187 3.90007812 -16.97078125 2.96421875 -17 2 C-15.30522644 0.30522644 -13.06974742 0.6328798 -10.75 0.4375 C-9.79609375 0.35371094 -8.8421875 0.26992188 -7.859375 0.18359375 C-5.22902817 0.01470536 -2.63468868 -0.03365478 0 0 Z " fill="#000000" transform="translate(371,423)"/>
</svg>
