<?xml version="1.0" encoding="UTF-8"?>
<svg version="1.1" xmlns="http://www.w3.org/2000/svg" width="512" height="512">
<path d="M0 0 C17.17417973 13.51959072 28.03768796 31.13632114 30.99609375 52.8984375 C31.24222131 56.71494411 31.24886551 60.51163156 31.22073364 64.33499146 C31.22088152 65.43243207 31.22102939 66.52987268 31.22118175 67.66056907 C31.21946496 71.30911011 31.20364645 74.95745132 31.18798828 78.60595703 C31.18418687 81.23333618 31.18137974 83.86071693 31.17948914 86.48809814 C31.17449625 92.13171516 31.16313091 97.77528916 31.14822769 103.41888809 C31.12543523 112.34436765 31.12576658 121.26978009 31.13009644 130.19528198 C31.13132838 133.2544193 31.13246288 136.31355666 31.13360405 139.37269402 C31.13390178 140.13699076 31.13419951 140.90128751 31.13450626 141.68874476 C31.13770354 150.37111046 31.13745826 159.05347403 31.13476562 167.73583984 C31.13452675 168.52874329 31.13428788 169.32164674 31.13404177 170.13857757 C31.12943208 183.00024275 31.10240558 195.86178424 31.06894781 208.72340228 C31.03526033 221.94839634 31.03215554 235.17316655 31.05569351 248.39818275 C31.0691015 256.54563815 31.05782485 264.69230084 31.01456444 272.83965586 C30.98381869 279.082042 30.9948904 285.32371792 31.02141762 291.5661087 C31.02564091 294.12309399 31.01618786 296.6801443 30.99199104 299.23701859 C30.96092852 302.73116916 30.97919428 306.22177111 31.009552 309.71585083 C30.98877598 310.72490608 30.96799996 311.73396134 30.94659436 312.77359402 C31.10186446 320.84259728 34.37348271 324.42137621 39.99609375 329.8984375 C57.01153992 351.52418842 63.61371331 380.40436379 60.53125 407.453125 C57.60389546 429.02224649 48.74264425 448.81350371 33.99609375 464.8984375 C33.15304687 465.82269531 32.31 466.74695313 31.44140625 467.69921875 C13.7491952 486.23757903 -11.00488334 498.39695561 -36.7890625 499.234375 C-69.96581871 499.64851868 -96.08676824 491.20599328 -120.00390625 467.8984375 C-120.96876953 467.04378906 -120.96876953 467.04378906 -121.953125 466.171875 C-139.09490598 450.58843774 -148.87640492 424.37538898 -150.12646484 401.67260742 C-151.1435571 372.22316345 -143.03034837 344.99950048 -123.00390625 322.8984375 C-122.34390625 322.2384375 -121.68390625 321.5784375 -121.00390625 320.8984375 C-120.70195283 318.86743579 -120.70195283 318.86743579 -120.75336647 316.49596214 C-120.74836777 315.56481382 -120.74336908 314.63366549 -120.7382189 313.67430055 C-120.74288212 312.64437506 -120.74754533 311.61444957 -120.75234985 310.55331421 C-120.74937971 309.46441883 -120.74640958 308.37552345 -120.74334943 307.25363123 C-120.73566911 303.57967958 -120.74222016 299.90588592 -120.74853516 296.23193359 C-120.74578698 293.60738516 -120.74210815 290.98283756 -120.73756409 288.35829163 C-120.72891615 282.69162529 -120.72712675 277.02499019 -120.72951126 271.35831833 C-120.73260714 263.14777166 -120.72097449 254.93729405 -120.70496146 246.72676475 C-120.67897015 233.38360456 -120.65897015 220.04044431 -120.64550781 206.69726562 C-120.64469744 205.89811822 -120.64388707 205.09897082 -120.64305215 204.27560683 C-120.63185632 192.96160479 -120.62655578 181.64760766 -120.62366502 170.33360083 C-120.62346103 169.53869811 -120.62325704 168.74379538 -120.62304688 167.92480469 C-120.62274697 166.73390982 -120.62274697 166.73390982 -120.62244101 165.51895647 C-120.61869801 152.24339298 -120.59953832 138.9679039 -120.56795251 125.69237769 C-120.54910384 117.51276664 -120.54303564 109.33334708 -120.55376969 101.15372039 C-120.56012594 95.53434465 -120.55194455 89.91510521 -120.53271557 84.29575931 C-120.52211189 81.06130826 -120.51997091 77.82725301 -120.53118706 74.59279442 C-120.58376375 58.0908016 -120.26968313 42.4235437 -112.25390625 27.5234375 C-111.90884033 26.86263184 -111.56377441 26.20182617 -111.20825195 25.52099609 C-101.22932929 6.98579854 -85.12370419 -4.87739954 -65.3515625 -11.15625 C-43.26406202 -17.39332715 -18.70381571 -13.08537432 0 0 Z M-78.328125 32.51171875 C-84.77586037 40.93787199 -89.12084153 50.04994139 -89.13419151 60.79169369 C-89.13781586 61.75588252 -89.14144021 62.72007135 -89.14517438 63.71347803 C-89.14410613 64.76483188 -89.14303788 65.81618574 -89.14193726 66.8993988 C-89.14475854 68.02241443 -89.14757982 69.14543006 -89.15048659 70.30247647 C-89.15883346 74.07332135 -89.16017091 77.84413687 -89.16162109 81.61499023 C-89.16628915 84.31531984 -89.17136617 87.0156455 -89.17701721 89.7159729 C-89.1885347 95.53483863 -89.1967832 101.35370148 -89.20313644 107.172575 C-89.2134686 116.36979453 -89.23403306 125.56697802 -89.2562561 134.76417542 C-89.26373545 137.91145599 -89.27114921 141.05873672 -89.27854347 144.20601749 C-89.28039404 144.99251612 -89.2822446 145.77901474 -89.28415125 146.58934666 C-89.30507199 155.53913451 -89.32390407 164.48892632 -89.34179688 173.4387207 C-89.34343506 174.2567384 -89.34507324 175.07475609 -89.34676106 175.91756219 C-89.37305672 189.17926401 -89.39169528 202.44096861 -89.40838878 215.70268547 C-89.4258062 229.31955494 -89.45464605 242.93636974 -89.49327815 256.55319554 C-89.51667926 264.95179991 -89.53067281 273.35031516 -89.53260578 281.7489524 C-89.53471432 287.50324038 -89.54763647 293.25743965 -89.56908511 299.01168781 C-89.58111793 302.33197215 -89.58663317 305.65193114 -89.58237267 308.97225761 C-89.57849098 312.57186312 -89.59289114 316.17094589 -89.61190796 319.77049255 C-89.60637826 320.81961569 -89.60084857 321.86873882 -89.59515131 322.94965357 C-89.65313373 329.29108038 -90.26484023 333.91768918 -94.73046875 338.77734375 C-95.35695313 339.33292969 -95.9834375 339.88851563 -96.62890625 340.4609375 C-110.53720473 353.93460165 -118.68480705 372.52775457 -119.35522461 391.86474609 C-119.59890729 412.79131024 -111.61501077 431.39954346 -97.37109375 446.5546875 C-82.76927556 461.01193324 -64.94267724 468.19945547 -44.50390625 468.3984375 C-23.23475562 468.19137129 -5.92150124 460.31111021 9.39453125 445.59375 C23.75345988 430.64674238 30.42484021 411.27210313 30.20703125 390.7109375 C29.11245592 370.9275019 20.65908568 353.06116423 6.49609375 339.3359375 C5.86703125 338.77777344 5.23796875 338.21960938 4.58984375 337.64453125 C1.48409397 334.24190833 0.74615321 330.52561541 0.74555397 326.0247345 C0.74055527 325.06486256 0.73555658 324.10499062 0.7304064 323.11603165 C0.73740122 321.54616312 0.73740122 321.54616312 0.74453735 319.94458008 C0.74156721 318.82650341 0.73859708 317.70842674 0.73553693 316.55646896 C0.72788544 312.8019171 0.73439587 309.04752114 0.74072266 305.29296875 C0.73797323 302.6039931 0.73441192 299.91503073 0.72975159 297.22605896 C0.72111876 291.43011654 0.71931052 285.63420464 0.72169876 279.83825684 C0.72479819 271.44413895 0.7131504 263.05008843 0.69714896 254.6559875 C0.67118227 241.01822296 0.6511677 227.38045836 0.63769531 213.74267578 C0.63688494 212.92649426 0.63607457 212.11031274 0.63523965 211.26939845 C0.62403106 199.70063067 0.61874 188.13186769 0.61585252 176.56309521 C0.61564853 175.74933922 0.61544454 174.93558323 0.61523438 174.09716797 C0.61503444 173.28440804 0.6148345 172.47164812 0.61462851 171.6342591 C0.61088907 158.05690258 0.59175703 144.47961894 0.56014001 130.90229893 C0.5412713 122.53592124 0.53523557 114.16973091 0.54595719 105.80333787 C0.55230025 100.06206984 0.54416866 94.32093557 0.52490307 88.57969683 C0.51427248 85.27268921 0.51219154 81.96607105 0.52337456 78.65905571 C0.6235672 54.79543226 0.6235672 54.79543226 -10.00390625 33.8984375 C-10.87015625 32.5990625 -10.87015625 32.5990625 -11.75390625 31.2734375 C-19.85521956 22.72205123 -29.86626408 17.89557211 -41.58569336 17.42749023 C-56.20149982 17.24723519 -68.3662166 21.31085032 -78.328125 32.51171875 Z " fill="#000000" transform="translate(292.00390625,13.1015625)"/>
<path d="M0 0 C4.004793 2.0023965 6.6587028 4.17998877 9 8 C9.92241712 10.76725136 10.12448725 12.3907588 10.12304783 15.2422514 C10.12503888 16.11210664 10.12702993 16.98196189 10.12908131 17.87817639 C10.12471205 19.31250137 10.12471205 19.31250137 10.12025452 20.77580261 C10.12110894 21.79108687 10.12196337 22.80637113 10.12284368 23.85242158 C10.12449693 27.2703658 10.11897961 30.68826144 10.11352539 34.10620117 C10.11324346 36.54996235 10.11340137 38.99372361 10.1139679 41.43748474 C10.11419596 46.70692258 10.11135095 51.97634517 10.10573006 57.24577904 C10.09760844 64.86452604 10.09499916 72.48326705 10.09374207 80.10201792 C10.09155259 92.46246521 10.08489533 104.8229059 10.07543945 117.18334961 C10.06626264 129.19148729 10.05918312 141.19962319 10.05493164 153.20776367 C10.05466892 153.9477504 10.05440619 154.68773714 10.05413551 155.45014771 C10.05283049 159.16238547 10.05156677 162.87462324 10.05032361 166.58686101 C10.03995424 197.39124547 10.0222645 228.19562173 10 259 C10.77939941 259.14099121 11.55879883 259.28198242 12.36181641 259.42724609 C21.15177904 261.33556114 28.91912944 269.62869416 33.75 276.875 C40.09022987 287.63670596 41.83609704 300.61146811 38.75 312.6875 C34.39700899 326.78480115 25.63422037 336.3284158 12.65625 343.25 C2.63928886 347.70198273 -10.75563071 347.85092942 -21.125 344.375 C-34.46086939 338.48000982 -43.53375677 329.53974064 -49 316 C-53.15124784 304.00528868 -51.37131684 291.37402342 -46.375 279.9375 C-41.88444559 271.62229089 -34.48785822 264.19746273 -26 260 C-24.33828574 259.64279613 -22.6718056 259.30652069 -21 259 C-21.00276538 257.72740515 -21.00553076 256.4548103 -21.00837994 255.14365196 C-21.07334792 224.93750904 -21.12281875 194.73138496 -21.15319599 164.52518895 C-21.15694813 160.80764537 -21.16083109 157.09010195 -21.16479492 153.37255859 C-21.16558185 152.63245999 -21.16636878 151.89236139 -21.16717956 151.12983556 C-21.18023488 139.14492599 -21.20388942 127.16005956 -21.23145839 115.17517559 C-21.25950908 102.87835437 -21.27617555 90.58155575 -21.28226548 78.28470385 C-21.28638263 70.69635922 -21.29938814 63.10813656 -21.3237494 55.51982947 C-21.34147598 49.70194272 -21.34336646 43.88411863 -21.33932304 38.06620407 C-21.34014958 35.67890674 -21.34613291 33.29160487 -21.35761642 30.90433502 C-21.37251331 27.64824119 -21.36896349 24.3926718 -21.36076355 21.13656616 C-21.36950207 20.18908803 -21.3782406 19.2416099 -21.38724393 18.26542032 C-21.35193609 13.08831376 -20.91396509 9.46807291 -18 5 C-12.18140719 -0.25092522 -7.70061453 -0.79398992 0 0 Z M-17.8125 292.6875 C-19.68427139 296.33252849 -20.11343626 299.9233845 -20 304 C-18.17525555 309.37285867 -15.05197929 312.47401035 -10 315 C-5.29302583 315.57425085 -1.87855208 315.45554552 2.375 313.25 C7.04629281 309.24603474 8.63958172 306.46113156 9.125 300.3125 C8.84039598 295.04732572 6.0875919 291.98642056 2.3125 288.5625 C-5.7075037 284.77947939 -11.48255097 286.79409918 -17.8125 292.6875 Z " fill="#000000" transform="translate(253,106)"/>
<path d="M0 0 C1.39025391 -0.02513672 1.39025391 -0.02513672 2.80859375 -0.05078125 C8.65408817 0.72032652 12.64445843 4.92918325 16.9375 8.6875 C18.1757645 9.76304012 19.41404637 10.83856024 20.65234375 11.9140625 C21.29155762 12.47125977 21.93077148 13.02845703 22.58935547 13.60253906 C24.57026561 15.31922981 26.56591426 17.01712585 28.56640625 18.7109375 C47.0855541 34.4476518 47.0855541 34.4476518 47.875 42.5 C47.44372497 47.76155539 46.01107817 52.04788237 42.0546875 55.70703125 C37.52163963 58.69040927 32.86251209 59.25221846 27.5625 58.3125 C22.98658997 56.51874327 19.34866086 53.37748736 15.5625 50.3125 C15.57138245 51.41417511 15.58026489 52.51585022 15.5894165 53.65090942 C15.67054093 64.03858075 15.73048401 74.42618772 15.76974869 84.81410408 C15.7906138 90.15452412 15.81891212 95.4946882 15.86425781 100.83496094 C15.90775346 105.98967883 15.9316452 111.14415068 15.94200897 116.29903793 C15.94939363 118.26462552 15.9638142 120.23019981 15.98542023 122.19568253 C16.01450353 124.95122513 16.01845393 127.70575412 16.01660156 130.46142578 C16.03098267 131.27206985 16.04536377 132.08271393 16.06018066 132.91792297 C16.01544124 139.07807398 14.02570297 142.3592357 10.0703125 147.1015625 C7.01205462 149.55767635 3.39866034 150.0583695 -0.4375 150.3125 C-5.35411356 149.62831106 -9.14909958 148.09227059 -12.4375 144.3125 C-15.61847987 139.5410302 -15.60302617 135.53605412 -15.64282227 129.9855957 C-15.65272186 129.13659698 -15.66262146 128.28759827 -15.67282104 127.41287231 C-15.70442583 124.60470373 -15.72918948 121.79651822 -15.75390625 118.98828125 C-15.77447666 117.04200296 -15.79547315 115.09572912 -15.81687927 113.14945984 C-15.87209099 108.02521372 -15.92150427 102.90092735 -15.96972656 97.77661133 C-16.01994813 92.54830337 -16.07563078 87.32005392 -16.13085938 82.09179688 C-16.23842995 71.83208123 -16.33987741 61.57231479 -16.4375 51.3125 C-16.98019531 51.73402344 -17.52289063 52.15554687 -18.08203125 52.58984375 C-18.79746094 53.13769531 -19.51289063 53.68554688 -20.25 54.25 C-20.95769531 54.79527344 -21.66539062 55.34054688 -22.39453125 55.90234375 C-26.44797604 58.7002282 -30.66936651 58.81012304 -35.4375 58.3125 C-40.78490414 56.35864079 -43.89368143 53.40013713 -46.4375 48.3125 C-46.67578125 45.921875 -46.67578125 45.921875 -46.75 43.0625 C-46.80607422 41.66257812 -46.80607422 41.66257812 -46.86328125 40.234375 C-45.94962225 33.96449489 -41.40118754 30.06814459 -36.875 26 C-36.3505127 25.5270752 -35.82602539 25.05415039 -35.28564453 24.56689453 C-31.00916472 20.74259883 -26.58596934 17.11192183 -22.11328125 13.51953125 C-18.49293524 10.53340643 -15.05769166 7.36299205 -11.62890625 4.16015625 C-7.77224769 0.90846374 -5.04771369 0.02100297 0 0 Z " fill="#000000" transform="translate(393.4375,161.6875)"/>
<path d="M0 0 C0.92933853 -0.00191345 1.85867706 -0.0038269 2.81617737 -0.00579834 C4.77532218 -0.0071551 6.73447614 -0.00349435 8.69360352 0.00488281 C11.67810457 0.01557734 14.66200207 0.00497638 17.64648438 -0.0078125 C19.5559909 -0.00649058 21.46549705 -0.00392751 23.375 0 C24.70343178 -0.00607269 24.70343178 -0.00607269 26.05870056 -0.01226807 C37.65993085 0.07469757 37.65993085 0.07469757 42.21484375 3.921875 C42.91480469 4.83453125 42.91480469 4.83453125 43.62890625 5.765625 C44.11101562 6.3740625 44.593125 6.9825 45.08984375 7.609375 C48.07199095 11.85243008 47.80331781 16.23580087 47.25390625 21.265625 C45.02993965 25.88463255 42.00971272 29.24634375 37.25390625 31.265625 C33.4084234 31.85012012 29.60645343 31.82638111 25.72265625 31.796875 C24.0587384 31.80261536 24.0587384 31.80261536 22.36120605 31.80847168 C20.02123098 31.8111877 17.68122538 31.80384836 15.34130859 31.78710938 C11.76591097 31.76569689 8.19252285 31.78692324 4.6171875 31.8125 C2.33983933 31.80985667 0.0624924 31.80473159 -2.21484375 31.796875 C-3.28061646 31.80497192 -4.34638916 31.81306885 -5.44445801 31.82141113 C-11.52538609 31.74483376 -15.1083465 31.31398192 -19.74609375 27.265625 C-22.63563872 24.02068146 -23.99314134 20.53384719 -24.18359375 16.203125 C-23.5914051 10.87342714 -22.28261142 7.76061516 -18.43359375 4.015625 C-12.4736264 0.13471603 -6.88511678 -0.03140233 0 0 Z " fill="#000000" transform="translate(94.74609375,159.734375)"/>
<path d="M0 0 C0.95153458 -0.00428513 1.90306915 -0.00857025 2.88343811 -0.01298523 C4.88965054 -0.01871113 6.89588372 -0.01924166 8.90209961 -0.01489258 C11.95918427 -0.01173268 15.01530041 -0.03521359 18.07226562 -0.06054688 C20.02734254 -0.06282016 21.98242203 -0.06352323 23.9375 -0.0625 C24.84499496 -0.07170975 25.75248993 -0.08091949 26.68748474 -0.09040833 C32.81517864 -0.04607927 37.99544304 0.62228957 42.77734375 4.8359375 C47.01948954 10.55552027 47.80943632 14.21230171 47.03515625 21.30078125 C44.81118965 25.9197888 41.79096272 29.2815 37.03515625 31.30078125 C33.1896734 31.88527637 29.38770343 31.86153736 25.50390625 31.83203125 C23.8399884 31.83777161 23.8399884 31.83777161 22.14245605 31.84362793 C19.80248098 31.84634395 17.46247538 31.83900461 15.12255859 31.82226562 C11.54716097 31.80085314 7.97377285 31.82207949 4.3984375 31.84765625 C2.12108933 31.84501292 -0.1562576 31.83988784 -2.43359375 31.83203125 C-3.49936646 31.84012817 -4.56513916 31.8482251 -5.66320801 31.85656738 C-11.73679546 31.78008246 -15.34402001 31.36529778 -19.96484375 27.30078125 C-22.71415526 23.73549761 -23.86635443 20.11683563 -24.40234375 15.67578125 C-23.75386125 10.67320193 -22.27127951 7.57190793 -18.65234375 4.05078125 C-12.63783618 0.13435772 -6.95038078 -0.00696481 0 0 Z " fill="#000000" transform="translate(94.96484375,99.69921875)"/>
<path d="M0 0 C1.10927856 -0.0038269 2.21855713 -0.00765381 3.3614502 -0.01159668 C5.70142527 -0.0143127 8.04143087 -0.00697336 10.38134766 0.00976562 C13.95674528 0.03117811 17.5301334 0.00995176 21.10546875 -0.015625 C23.38281692 -0.01298167 25.66016385 -0.00785659 27.9375 0 C29.00327271 -0.00809692 30.06904541 -0.01619385 31.16711426 -0.02453613 C37.25830003 0.05217041 40.83513384 0.46425464 45.46875 4.53125 C49.40699059 8.88404223 50.09403727 12.44547096 49.86328125 18.12890625 C49.28262259 21.66460007 47.76912641 23.83652334 45.46875 26.53125 C45.05625 27.10875 44.64375 27.68625 44.21875 28.28125 C38.85792235 32.1104126 31.35359022 31.83899204 25.03515625 31.83203125 C24.15778305 31.83631638 23.28040985 31.8406015 22.37644958 31.84501648 C20.53181822 31.85072665 18.68716435 31.85128467 16.8425293 31.84692383 C14.0424103 31.8437626 11.24334828 31.86726888 8.44335938 31.89257812 C6.64062632 31.89485156 4.83789045 31.89555441 3.03515625 31.89453125 C2.2098793 31.903741 1.38460236 31.91295074 0.53431702 31.92243958 C-5.5519702 31.87471473 -12.38657147 31.26312382 -17.16184998 27.11470032 C-20.82862639 22.87477176 -21.90079673 19.2294082 -21.80859375 13.65625 C-21.16991178 8.76268671 -18.80379794 5.64207558 -15.16064453 2.46191406 C-10.52283025 -0.55395179 -5.35227793 -0.0406625 0 0 Z " fill="#000000" transform="translate(92.53125,280.46875)"/>
<path d="M0 0 C1.10927856 -0.0038269 2.21855713 -0.00765381 3.3614502 -0.01159668 C5.70142527 -0.0143127 8.04143087 -0.00697336 10.38134766 0.00976562 C13.95674528 0.03117811 17.5301334 0.00995176 21.10546875 -0.015625 C23.38281692 -0.01298167 25.66016385 -0.00785659 27.9375 0 C29.00327271 -0.00809692 30.06904541 -0.01619385 31.16711426 -0.02453613 C37.25830003 0.05217041 40.83513384 0.46425464 45.46875 4.53125 C49.40501932 8.88186345 50.10758919 12.44902006 49.8515625 18.1328125 C49.08337786 22.9457244 46.59323934 25.54426861 43.04101562 28.66210938 C38.4367269 31.62565293 33.23353577 31.10273522 27.9375 31.0625 C26.27358215 31.06824036 26.27358215 31.06824036 24.5760498 31.07409668 C22.23607473 31.0768127 19.89606913 31.06947336 17.55615234 31.05273438 C13.98075472 31.03132189 10.4073666 31.05254824 6.83203125 31.078125 C4.55468308 31.07548167 2.27733615 31.07035659 0 31.0625 C-1.06577271 31.07059692 -2.13154541 31.07869385 -3.22961426 31.08703613 C-9.31054234 31.01045876 -12.89350275 30.57960692 -17.53125 26.53125 C-20.38659157 23.32471669 -21.78250908 19.80959377 -22.03125 15.53125 C-21.78250908 11.25290623 -20.38659157 7.73778331 -17.53125 4.53125 C-12.05174117 -0.25189282 -7.07054856 -0.05371661 0 0 Z " fill="#000000" transform="translate(92.53125,220.46875)"/>
</svg>
