<?xml version="1.0" encoding="UTF-8"?>
<svg version="1.1" xmlns="http://www.w3.org/2000/svg" width="512" height="512">
<path d="M0 0 C3.05894902 1.51939006 5.44859185 3.75067857 8 6 C9.11492793 6.95814654 10.23090388 7.91507428 11.34765625 8.87109375 C13.93089222 11.09123247 16.50236343 13.3241331 19.06640625 15.56640625 C22.71267826 18.75432047 26.38201934 21.91418712 30.0625 25.0625 C30.63564941 25.55314941 31.20879883 26.04379883 31.79931641 26.54931641 C32.95479957 27.53838399 34.11039819 28.52731671 35.26611328 29.51611328 C38.17894046 32.00895524 41.08934061 34.50462766 44 37 C45.16665518 38.0000134 46.33332184 39.00001341 47.5 40 C121 103 121 103 194.5 166 C195.3667334 166.74286255 195.3667334 166.74286255 196.25097656 167.50073242 C197.41452598 168.4981301 198.57793804 169.49568803 199.74121094 170.4934082 C202.70445065 173.03457301 205.6702197 175.57268199 208.640625 178.10546875 C230.7690252 196.98721959 230.7690252 196.98721959 231.4375 202.8125 C231.33942654 207.64484674 229.38803669 209.69263085 226 213 C214.66666667 218.66666667 200.67105187 214 188 214 C188 260.86 188 307.72 188 356 C194.27 353.03 200.54 350.06 207 347 C218.28911029 342.68357548 233.64932927 337.89223682 245.66796875 341.88671875 C248.92087344 343.43961295 250.19849465 344.86404625 252 348 C252.81370521 352.52880376 252.61385352 355.89034171 250.375 359.9375 C245.46903288 364.19794513 239.63072095 364.32399464 233.4375 364.8125 C221.20477726 366.00672033 211.19473015 370.88463206 200.23291016 376.11425781 C177.23405894 386.98795265 150.82472533 388.33060536 126.82617188 379.74462891 C119.8112989 377.08962869 113.07907952 373.81992361 106.39428711 370.42773438 C91.60807854 363.05684021 72.58097711 362.27051231 56.75 366.875 C49.5091516 369.52113203 42.64262379 372.98823562 35.73461914 376.39575195 C15.09508885 386.43193932 -9.92009655 388.28229407 -31.92431641 381.39794922 C-37.90730221 379.31955056 -43.62452313 376.67037046 -49.328125 373.9375 C-50.06482422 373.58518311 -50.80152344 373.23286621 -51.56054688 372.86987305 C-52.96317394 372.19248926 -54.36087635 371.50475241 -55.75195312 370.80395508 C-65.47367229 366.03767872 -74.72568997 364.50601989 -85.5 364.625 C-87.07587891 364.60759766 -87.07587891 364.60759766 -88.68359375 364.58984375 C-97.9074705 364.62404848 -106.15073538 366.5537983 -114.625 370.1875 C-115.61886719 370.61160156 -116.61273438 371.03570312 -117.63671875 371.47265625 C-120.14300301 372.61081786 -122.61375013 373.78057848 -125.08203125 374.99609375 C-146.33421314 385.42160176 -170.93966804 388.69772608 -194 382 C-202.67045762 378.99390494 -210.94038708 374.99722908 -219.20703125 371.04052734 C-227.52367864 367.07064092 -234.41878925 365.13788817 -243.625 364.5625 C-249.73927188 364.14821522 -254.13176123 363.40561961 -258.9375 359.375 C-260.63140611 355.58862163 -260.75931329 352.06373222 -260 348 C-258.41122105 344.96114502 -256.47762584 342.5038059 -253.12109375 341.359375 C-232.72188943 337.90315622 -213.61379894 347.19310053 -196 356 C-196 309.14 -196 262.28 -196 214 C-207.88 214 -219.76 214 -232 214 C-238.81818182 208.31818182 -238.81818182 208.31818182 -239.5 203.375 C-239.37586644 198.74895588 -237.65751519 196.56941081 -234.5 193.31640625 C-229.43829949 188.62642437 -224.22588276 184.12218042 -218.9609375 179.66259766 C-216.5195478 177.59264449 -214.09178184 175.5071322 -211.66430664 173.42089844 C-209.35687813 171.43872176 -207.04527446 169.46144357 -204.73388672 167.48388672 C-201.82105954 164.99104476 -198.91065939 162.49537234 -196 160 C-194.83334482 158.9999866 -193.66667816 157.99998659 -192.5 157 C-191.9225 156.505 -191.345 156.01 -190.75 155.5 C-142.33333333 114 -93.91666667 72.5 -45.5 31 C-44.9222583 30.5047583 -44.3445166 30.0095166 -43.74926758 29.49926758 C-42.58518023 28.50154805 -41.42095544 27.50398886 -40.2565918 26.5065918 C-37.29930113 23.97301257 -34.34461631 21.43649863 -31.39453125 18.89453125 C-7.85016411 -1.37623628 -7.85016411 -1.37623628 0 0 Z M-9.9375 30.4375 C-13.71202637 33.95201594 -17.54473875 37.32310845 -21.5625 40.5625 C-25.13828469 43.44848793 -28.60401318 46.40444804 -32 49.5 C-36.29991791 53.41891252 -40.75919547 57.09170869 -45.28125 60.75 C-47.92147729 62.93501569 -50.4672972 65.19171391 -53 67.5 C-57.29991791 71.41891252 -61.75919547 75.09170869 -66.28125 78.75 C-68.92147729 80.93501569 -71.4672972 83.19171391 -74 85.5 C-78.29991791 89.41891252 -82.75919547 93.09170869 -87.28125 96.75 C-89.92147729 98.93501569 -92.4672972 101.19171391 -95 103.5 C-99.29991791 107.41891252 -103.75919547 111.09170869 -108.28125 114.75 C-110.92147729 116.93501569 -113.4672972 119.19171391 -116 121.5 C-120.29991791 125.41891252 -124.75919547 129.09170869 -129.28125 132.75 C-131.92147729 134.93501569 -134.4672972 137.19171391 -137 139.5 C-141.29991791 143.41891252 -145.75919547 147.09170869 -150.28125 150.75 C-152.92147729 152.93501569 -155.4672972 155.19171391 -158 157.5 C-162.29991791 161.41891252 -166.75919547 165.09170869 -171.28125 168.75 C-174.76776735 171.63539367 -178.09674936 174.67491528 -181.4375 177.7265625 C-185.09811977 180.9742465 -188.9156181 184.01550412 -192.75 187.0546875 C-195.17960253 188.98055544 -195.17960253 188.98055544 -197 192 C-195.46279297 192.05607422 -195.46279297 192.05607422 -193.89453125 192.11328125 C-192.53381938 192.17897079 -191.17314389 192.24541709 -189.8125 192.3125 C-188.80219727 192.34633789 -188.80219727 192.34633789 -187.77148438 192.38085938 C-183.40608713 192.6151002 -180.39597301 193.18761285 -177 196 C-174.98140327 199.96254375 -174.74215966 203.30152692 -174.7215271 207.7134552 C-174.7128385 208.70604128 -174.7128385 208.70604128 -174.70397437 209.71867961 C-174.68701704 211.92814424 -174.68410161 214.13739946 -174.68115234 216.34692383 C-174.67185121 217.93385325 -174.66168226 219.52077778 -174.65071106 221.10769653 C-174.62341789 225.41097186 -174.60826367 229.71421446 -174.59528303 234.01755357 C-174.57964953 238.51659793 -174.55285999 243.01557549 -174.5272522 247.51457214 C-174.48046832 256.03192064 -174.44372231 264.5492817 -174.41057932 273.06669301 C-174.37235519 282.76436827 -174.32294578 292.46197643 -174.27259517 302.15959513 C-174.16928113 322.10634721 -174.08001898 342.05314176 -174 362 C-170.95711262 362.03144213 -167.91455392 362.05439736 -164.87158203 362.07250977 C-164.01518631 362.08223061 -163.15879059 362.09195145 -162.27644348 362.10196686 C-150.93415349 362.15256709 -142.22756538 358.43744287 -132.125 353.5625 C-119.4485014 347.62764661 -108.0895252 343.80150571 -94.140625 342.39453125 C-91.13917103 342.34365677 -91.13917103 342.34365677 -90 341 C-89.88529522 338.01344388 -89.83513403 335.04908097 -89.82641602 332.06152344 C-89.8163855 330.65420708 -89.8163855 330.65420708 -89.80615234 329.21846008 C-89.79206497 327.17335072 -89.78018279 325.12822528 -89.77020454 323.08309174 C-89.75384421 319.84710392 -89.73060727 316.61123467 -89.70530701 313.37530518 C-89.6344028 304.17197547 -89.57444457 294.96859637 -89.52319336 285.76513672 C-89.49139828 280.14237772 -89.45011649 274.5197528 -89.40299797 268.89710236 C-89.38697546 266.75212265 -89.37465505 264.60711199 -89.36609077 262.46208954 C-89.35393488 259.45993959 -89.3297821 256.45810449 -89.30297852 253.45605469 C-89.30238937 252.56858047 -89.30180023 251.68110626 -89.30119324 250.76673889 C-89.20645684 242.75758679 -89.20645684 242.75758679 -87 239 C-83.64606518 235.78086966 -81.12022206 235.62192597 -76.55433655 235.61231995 C-75.9092454 235.60693441 -75.26415426 235.60154887 -74.5995149 235.59600013 C-72.43992799 235.58170315 -70.28095254 235.58882814 -68.12133789 235.59594727 C-66.57222501 235.59024457 -65.02311632 235.5832807 -63.47401428 235.57514954 C-59.26737753 235.55719155 -55.06094907 235.55839146 -50.85428548 235.56409192 C-47.34277193 235.56718005 -43.83129861 235.5610955 -40.31979078 235.55505317 C-32.03583241 235.54100082 -23.75197716 235.54257506 -15.46801758 235.55395508 C-6.92122704 235.56543669 1.62524973 235.55136161 10.17199892 235.5245586 C17.50969909 235.50240861 24.84730072 235.49576265 32.18503195 235.50163502 C36.56764936 235.50500753 40.95006564 235.50257011 45.33265495 235.48538399 C49.45400018 235.46992804 53.57488029 235.47385506 57.69620705 235.49268913 C59.20830063 235.49637883 60.72042858 235.4932554 62.23249054 235.48280334 C64.29798182 235.4696164 66.36192805 235.48111751 68.42735291 235.49879456 C70.16036604 235.49910848 70.16036604 235.49910848 71.92838955 235.49942875 C75.70281873 236.11453629 77.35414995 237.27180629 80 240 C81.09439316 242.70991106 81.13214772 245.29646043 81.15821838 248.20147705 C81.17290161 249.44660568 81.17290161 249.44660568 81.18788147 250.71688843 C81.19363693 251.6188797 81.1993924 252.52087097 81.20532227 253.45019531 C81.21522186 254.40662933 81.22512146 255.36306335 81.23532104 256.34848022 C81.2668965 259.50833668 81.29167792 262.66820816 81.31640625 265.828125 C81.33697918 268.01959625 81.35797575 270.21106356 81.37937927 272.40252686 C81.43456485 278.1695639 81.48398967 283.93663655 81.53222656 289.70373535 C81.5824672 295.58898079 81.6381399 301.47417454 81.69335938 307.359375 C81.80089799 318.90620584 81.90235255 330.45308157 82 342 C83.09119141 342.13059814 84.18238281 342.26119629 85.30664062 342.39575195 C86.7565266 342.57229551 88.2063955 342.74897937 89.65625 342.92578125 C90.37329102 343.01122192 91.09033203 343.0966626 91.82910156 343.18469238 C105.12807154 344.8166312 116.61394207 349.99363139 128.59765625 355.71875 C129.69980469 356.2446875 130.80195313 356.770625 131.9375 357.3125 C132.89527344 357.78300781 133.85304688 358.25351562 134.83984375 358.73828125 C142.17493925 361.66687933 149.22320284 362.28312391 157.0625 362.125 C158.3609082 362.11146484 158.3609082 362.11146484 159.68554688 362.09765625 C161.79048779 362.07439723 163.89528342 362.03854008 166 362 C166.00358253 360.76366979 166.00358253 360.76366979 166.00723743 359.5023632 C166.06637512 339.44665607 166.14191734 319.39106922 166.23571491 299.33549309 C166.28067921 289.63675905 166.32009244 279.93806178 166.34643555 270.23925781 C166.36941046 261.78571461 166.40280286 253.33228772 166.44870156 244.87883675 C166.47264059 240.40284825 166.49136492 235.92697498 166.49761391 231.45092392 C166.50366168 227.23690743 166.52365036 223.02318582 166.55427551 218.80927849 C166.56306067 217.26376455 166.56677732 215.71821208 166.56500816 214.17267418 C166.56335304 212.05934618 166.58007342 209.94691458 166.60127258 207.83370972 C166.60588155 206.65197111 166.61049051 205.47023251 166.61523914 204.25268364 C167.04908643 200.58503408 168.11899617 198.15940551 170 195 C173.39307398 192.33846032 177.59367921 192.56356654 181.75 192.375 C182.44738281 192.33632812 183.14476562 192.29765625 183.86328125 192.2578125 C185.57510818 192.16401376 187.28751682 192.08093826 189 192 C186.26625185 188.3634792 183.4454341 185.56054579 179.875 182.75 C176.14695303 179.76360694 172.52632476 176.722137 169 173.5 C165.58260628 170.38541332 162.0947765 167.4081338 158.5 164.5 C154.03723787 160.88967558 149.77280467 157.11572071 145.53125 153.25 C142.9115519 150.92137947 140.2248469 148.70437053 137.5 146.5 C133.03723787 142.88967558 128.77280467 139.11572071 124.53125 135.25 C121.9115519 132.92137947 119.2248469 130.70437053 116.5 128.5 C112.03723787 124.88967558 107.77280467 121.11572071 103.53125 117.25 C100.9115519 114.92137947 98.2248469 112.70437053 95.5 110.5 C91.03723787 106.88967558 86.77280467 103.11572071 82.53125 99.25 C79.9115519 96.92137947 77.2248469 94.70437053 74.5 92.5 C70.03723787 88.88967558 65.77280467 85.11572071 61.53125 81.25 C58.9115519 78.92137947 56.2248469 76.70437053 53.5 74.5 C49.03723787 70.88967558 44.77280467 67.11572071 40.53125 63.25 C37.9115519 60.92137947 35.2248469 58.70437053 32.5 56.5 C28.9052235 53.5918662 25.41739372 50.61458668 22 47.5 C17.68931979 43.57188412 13.22556748 39.88014535 8.6875 36.21875 C5.2774567 33.40348169 2.01867876 30.44047414 -1.22265625 27.43359375 C-5.07945929 24.32272185 -6.88979497 27.56469913 -9.9375 30.4375 Z M-68 257 C-68 285.38 -68 313.76 -68 343 C-62.72 344.65 -57.44 346.3 -52 348 C-47.83290462 349.80869672 -43.76123288 351.63594733 -39.6875 353.625 C-27.84282125 359.38769709 -17.81342592 362.52196036 -4.5625 362.375 C-2.99918945 362.39240234 -2.99918945 362.39240234 -1.40429688 362.41015625 C11.34809019 362.36272022 21.53768775 358.63611279 32.875 353.0625 C41.86591028 348.64296328 50.18787011 345.80346568 60 343 C60 314.62 60 286.24 60 257 C17.76 257 -24.48 257 -68 257 Z " fill="#000000" transform="translate(260,21)"/>
<path d="M0 0 C7.8513296 2.72833704 15.37950853 6.50552559 22.84179688 10.14916992 C39.95557989 18.44954558 58.93460402 20.56854577 77.3203125 14.55859375 C83.3524674 12.20208313 89.16839917 9.52891385 94.97607422 6.66845703 C116.11369453 -3.63379145 141.34798331 -6.58274777 164.16796875 0.4140625 C172.06182508 3.40163743 179.67908877 6.84372345 187.30078125 10.4609375 C203.97593917 18.32730381 221.93206181 20.30753709 239.80859375 14.78125 C246.86848012 12.16353932 253.59101861 8.89862273 260.36547852 5.6340332 C280.0572896 -3.69742573 306.71994735 -6.43740928 327.671875 0.5546875 C328.66703125 0.94785156 329.6621875 1.34101563 330.6875 1.74609375 C331.66203125 2.10832031 332.6365625 2.47054688 333.640625 2.84375 C338.16339236 4.62746173 342.54782685 6.67197259 346.9296875 8.7734375 C347.67492676 9.12954102 348.42016602 9.48564453 349.18798828 9.85253906 C350.64608859 10.55326276 352.10047572 11.26178742 353.55029297 11.97949219 C368.84433907 19.38533571 387.66066731 19.63128947 403.8046875 14.81640625 C409.56801156 12.68998898 415.05065174 10.09303322 420.55371094 7.38085938 C433.42628741 1.08074809 444.94202077 -2.52248698 459.375 -2.75390625 C460.22505615 -2.77267822 461.0751123 -2.7914502 461.95092773 -2.81079102 C466.04658236 -2.7676875 468.16990694 -2.58066617 471.70703125 -0.34765625 C474.38321007 2.48159789 474.89409484 4.18754619 475.0625 7.99609375 C475.11148438 8.74375 475.16046875 9.49140625 475.2109375 10.26171875 C474.42143891 14.00889115 472.72165477 16.50469261 469.6875 18.74609375 C466.39658494 19.7974097 463.11913519 20.07711862 459.6875 20.37109375 C457.78041288 20.59452974 455.87413414 20.82497906 453.96875 21.0625 C453.05222656 21.17480957 452.13570313 21.28711914 451.19140625 21.40283203 C440.7748958 22.83083649 431.59377105 27.4969887 422.28320312 32.12915039 C401.73855718 42.29843909 376.77108171 44.25204521 354.6875 37.74609375 C349.19964293 35.75389007 343.94063355 33.2821362 338.6875 30.74609375 C331.13830868 27.1587713 323.83269529 23.73937218 315.6875 21.74609375 C314.97335937 21.56304687 314.25921875 21.38 313.5234375 21.19140625 C294.40174289 18.1888261 278.51986951 22.62597453 261.54638672 31.02075195 C240.14075362 41.51259858 214.7863525 44.72579262 191.6875 37.74609375 C184.28350995 35.19874026 177.27072652 32.0544215 170.24633789 28.61987305 C159.09275529 23.19956857 149.15032475 20.53930509 136.6875 20.37109375 C135.89303467 20.35691406 135.09856934 20.34273438 134.2800293 20.328125 C121.95973951 20.42817811 111.37747895 24.39248703 100.4375 29.74609375 C77.54340921 40.7928928 52.62805428 45.09372592 27.6875 37.74609375 C22.19964293 35.75389007 16.94063355 33.2821362 11.6875 30.74609375 C9.39801915 29.6581486 7.10648521 28.57450884 4.8125 27.49609375 C3.86632813 27.0371875 2.92015625 26.57828125 1.9453125 26.10546875 C-6.84799708 22.43631799 -15.45143546 21.0120634 -24.89648438 20.19335938 C-29.27786622 19.68671231 -32.38590052 19.31557907 -35.4140625 15.92578125 C-37.98786046 11.61493446 -38.30852931 8.61856145 -37.3125 3.74609375 C-30.51717083 -7.12643292 -10.58618668 -2.96109525 0 0 Z " fill="#000000" transform="translate(37.3125,450.25390625)"/>
</svg>
