<?xml version="1.0" encoding="UTF-8"?>
<svg version="1.1" xmlns="http://www.w3.org/2000/svg" width="512" height="512">
<path d="M0 0 C2.98073724 1.37657626 5.31814358 3.25896335 7.8125 5.375 C8.50061768 5.92446289 9.18873535 6.47392578 9.89770508 7.04003906 C11.29514838 8.15695892 12.68520598 9.28318787 14.06738281 10.41894531 C16.72692369 12.59468896 19.45308022 14.66900001 22.1875 16.75 C23.24398889 17.56445689 24.29995393 18.37959363 25.35546875 19.1953125 C29.8894377 22.69048766 34.44547219 26.1566863 39 29.625 C40.3288623 30.63735718 40.3288623 30.63735718 41.68457031 31.67016602 C46.38977761 35.25386161 51.09764389 38.83401273 55.80859375 42.41015625 C56.75154297 43.12671387 57.69449219 43.84327148 58.66601562 44.58154297 C60.46721825 45.95021579 62.26925576 47.31779083 64.07226562 48.68408203 C65.68474835 49.9099109 67.29309733 51.14120397 68.89648438 52.37890625 C70.16257111 53.35462769 71.43744233 54.31930818 72.72851562 55.26171875 C77.20685941 58.67379021 79.76960521 62.87729547 82.625 67.625 C83.67805858 69.33483676 84.73145349 71.04446641 85.78515625 72.75390625 C86.58397217 74.06125732 86.58397217 74.06125732 87.39892578 75.39501953 C89.42247653 78.68737795 91.49167624 81.94927489 93.56689453 85.20922852 C95.05996062 87.55850439 96.54083302 89.91509713 98.01953125 92.2734375 C100.04907987 95.50754774 102.11377503 98.7157473 104.19921875 101.9140625 C105.21663056 103.50489843 106.2335748 105.09603352 107.25 106.6875 C107.72832275 107.40558838 108.20664551 108.12367676 108.69946289 108.86352539 C109.13379639 109.5518042 109.56812988 110.24008301 110.015625 110.94921875 C110.40008789 111.54049561 110.78455078 112.13177246 111.18066406 112.7409668 C113.54390733 119.2567862 111.64655231 125.05188887 109.15625 131.1484375 C108.86770142 131.8870401 108.57915283 132.6256427 108.28186035 133.3866272 C107.36719504 135.72129897 106.43448348 138.04819886 105.5 140.375 C104.56914111 142.7244936 103.64210017 145.07542819 102.71813965 147.42764282 C102.14423914 148.88524836 101.56569106 150.3410343 100.98205566 151.79476929 C99.50493224 155.28865801 99.50493224 155.28865801 99 159 C100.73902588 159.43699219 100.73902588 159.43699219 102.51318359 159.8828125 C106.86247902 160.98297366 111.20244544 162.11674909 115.54052734 163.26025391 C117.409936 163.74813575 119.28167487 164.22718614 121.15576172 164.69677734 C131.96071639 167.41098196 141.02146096 169.73441622 149 178 C149.87914062 178.82628906 150.75828125 179.65257812 151.6640625 180.50390625 C152.31117188 181.18324219 152.95828125 181.86257812 153.625 182.5625 C158.23207777 187.28293293 163.10996164 191.58816942 168.171875 195.8125 C168.87828125 196.410625 169.5846875 197.00875 170.3125 197.625 C170.94800781 198.15351563 171.58351562 198.68203125 172.23828125 199.2265625 C174.88936601 201.89528197 176.83512516 204.1978163 177.19023132 208.0793457 C177.17748211 210.64625433 177.07327795 213.19780484 176.94921875 215.76171875 C176.90813652 217.7049982 176.87115772 219.64836793 176.83789062 221.59179688 C176.77439833 224.63918208 176.68802441 227.67736493 176.53051758 230.72143555 C175.59749871 241.81293974 175.59749871 241.81293974 179.4112854 251.79489136 C183.13343796 254.9900169 187.40335912 256.99257354 191.85458374 258.98165894 C195.15940266 260.55032087 198.08589324 262.5835564 201.08203125 264.66796875 C202.209166 265.42549794 203.33741589 266.18137064 204.46679688 266.93554688 C205.58215458 267.68601466 206.69738877 268.43666603 207.8125 269.1875 C209.51067164 270.32895798 211.20935965 271.46962561 212.90914917 272.6086731 C214.55125364 273.70983 216.19093458 274.81459826 217.83056641 275.91943359 C221.72961112 278.47895131 225.72528867 280.8610256 229.7644043 283.19262695 C235.72674373 288.01289547 236.39225644 296.29362515 237.91796875 303.3984375 C238.18007645 304.58853424 238.44218414 305.77863098 238.7122345 307.00479126 C239.54481427 310.79326481 240.36629493 314.58404632 241.1875 318.375 C241.75122199 320.94937896 242.31566688 323.52359973 242.88085938 326.09765625 C244.26228923 332.39662838 245.63462274 338.69752995 247 345 C247.66905869 345.20409485 248.33811737 345.4081897 249.02745056 345.61846924 C255.36905585 347.55407257 261.70894535 349.49518717 268.047019 351.44232559 C271.30461097 352.44289252 274.56280161 353.44140551 277.82250977 354.43505859 C281.58022806 355.5806218 285.33507832 356.7354185 289.08984375 357.890625 C290.24645004 358.24183411 291.40305634 358.59304321 292.5947113 358.95489502 C310.43557634 364.46785252 310.43557634 364.46785252 315.375 370.375 C316.12007813 371.25671875 316.86515625 372.1384375 317.6328125 373.046875 C321.13132826 377.41136001 324.60548646 381.79211126 328.03515625 386.2109375 C331.19549178 390.27072858 334.43591629 394.26314063 337.6875 398.25 C342.02496499 403.56913537 346.33929241 408.90385746 350.609375 414.27734375 C351.88714067 415.92249019 351.88714067 415.92249019 353 417 C355.00554207 417.01705132 357.01171696 416.96162472 359.015625 416.87890625 C360.96106201 416.80555054 360.96106201 416.80555054 362.94580078 416.73071289 C363.64610413 416.70284698 364.34640747 416.67498108 365.06793213 416.64627075 C372.04337389 416.37847981 379.02231303 416.19843385 386 416 C386.83446655 415.97534668 387.66893311 415.95069336 388.52868652 415.92529297 C393.58009754 415.77914878 398.6303664 415.66841662 403.68347168 415.60202026 C405.30225734 415.57581748 406.92090621 415.53876608 408.53918457 415.49050903 C422.89615944 415.07450204 422.89615944 415.07450204 427.2265625 418.6171875 C428.70849609 420.27270508 428.70849609 420.27270508 430 422 C430.45068848 422.52682373 430.90137695 423.05364746 431.36572266 423.59643555 C432.72095781 425.21267345 433.9882726 426.87251066 435.25 428.5625 C436.19710836 429.79979537 437.14638563 431.03543308 438.09765625 432.26953125 C438.57605957 432.89037598 439.05446289 433.5112207 439.54736328 434.15087891 C441.85070732 437.08290038 444.2631838 439.91783123 446.6875 442.75 C450.47168334 447.18135646 454.17156929 451.66499774 457.79296875 456.23046875 C460.5687354 459.71368743 463.37712979 463.16968109 466.1875 466.625 C466.73639893 467.30071045 467.28529785 467.9764209 467.85083008 468.67260742 C470.75503354 472.24626863 473.66584936 475.8143046 476.5859375 479.375 C477.16835205 480.0870459 477.7507666 480.7990918 478.35083008 481.53271484 C479.46041656 482.88903436 480.57210583 484.24363742 481.6862793 485.59619141 C490.71551629 496.64707069 490.71551629 496.64707069 490.3984375 503.87890625 C489.80063128 507.06134526 488.32072342 508.81578972 486 511 C482.85865422 512.57067289 479.50173092 512.14073211 476.05288982 512.13422108 C475.21802352 512.13657331 474.38315721 512.13892554 473.52299193 512.14134905 C470.69497723 512.14806365 467.86700822 512.14758009 465.03898621 512.14717102 C463.00317146 512.15046811 460.96735737 512.15419334 458.93154413 512.1583125 C453.31333745 512.16835813 447.69514146 512.1720534 442.07692707 512.17470181 C436.02704402 512.17859724 429.97716949 512.18817603 423.92729187 512.19691467 C409.99707705 512.2157644 396.06686303 512.22593793 382.13663913 512.23437535 C375.25606981 512.23857939 368.37550136 512.24380168 361.49493278 512.24905988 C337.95195471 512.26695074 314.4089764 512.28194804 290.86599255 512.28938007 C289.38753607 512.28985483 287.9090796 512.29033072 286.43062313 512.29080774 C285.69742664 512.29104411 284.96423014 512.29128049 284.20881557 512.29152403 C280.49394671 512.29272525 276.77907784 512.29394069 273.06420898 512.29516602 C271.9583599 512.29552624 271.9583599 512.29552624 270.83017043 512.29589374 C246.91856783 512.30378953 223.00701479 512.32722678 199.09543384 512.35972196 C173.82741465 512.39399795 148.55942448 512.41372911 123.29138166 512.41702431 C120.51906128 512.41744187 117.74674091 512.41792144 114.97442055 512.41844749 C114.29177433 512.41857069 113.6091281 512.41869388 112.90579563 512.4188208 C101.9069411 512.42115554 90.90814401 512.43683065 79.90930997 512.45728934 C68.85972943 512.47751681 57.81020316 512.48270506 46.76060363 512.47351871 C40.77118643 512.46895711 34.78195624 512.47096782 28.79256439 512.49028015 C23.31440657 512.50779214 17.83657384 512.50701207 12.35841314 512.49138286 C10.37185214 512.4889885 8.38526933 512.49342397 6.39874186 512.50521151 C3.70697182 512.52020013 1.01637319 512.51074894 -1.6753664 512.49498463 C-2.45420629 512.50520683 -3.23304617 512.51542904 -4.03548726 512.52596101 C-7.69600222 512.47888059 -9.82311138 512.11024548 -12.9577896 510.15656346 C-16.6870661 506.21846706 -16.14287971 501.97798016 -16.13142776 496.86737251 C-16.1334804 496.02459887 -16.13553303 495.18182522 -16.13764787 494.31351298 C-16.14334189 491.46461964 -16.14185767 488.61577428 -16.14044189 485.76687622 C-16.14302415 483.71369937 -16.14603691 481.66052302 -16.1494453 479.60734737 C-16.15753485 473.94579222 -16.15930595 468.28424973 -16.16004276 462.62268949 C-16.1618899 456.52442664 -16.16943545 450.42617041 -16.17617798 444.32791138 C-16.19048444 430.28919125 -16.19628936 416.25047529 -16.20086992 402.21174962 C-16.20320473 395.27712881 -16.20680723 388.34250882 -16.2105653 381.40788866 C-16.22340085 357.67834523 -16.23412062 333.94880227 -16.2375679 310.21925545 C-16.23778954 308.72934915 -16.23801132 307.23944286 -16.23823325 305.74953657 C-16.23845389 304.25599869 -16.23867438 302.76246081 -16.2388947 301.26892292 C-16.23933726 298.27254367 -16.23978437 295.27616441 -16.24023438 292.27978516 C-16.24034377 291.53685595 -16.24045316 290.79392674 -16.24056586 290.02848453 C-16.2441979 265.92956762 -16.26012345 241.83068076 -16.28342474 217.73177537 C-16.30800517 192.26346297 -16.32173988 166.79516775 -16.32293582 141.32684314 C-16.32310728 138.53263211 -16.32332271 135.73842108 -16.32357025 132.94421005 C-16.32362602 132.25617773 -16.32368179 131.56814541 -16.32373925 130.85926362 C-16.32489118 119.77400181 -16.33592509 108.68877079 -16.35045731 97.60351939 C-16.36480359 86.4678071 -16.36781677 75.33213384 -16.36001733 64.19641127 C-16.35609833 58.16043794 -16.35710115 52.12456848 -16.37107468 46.08860779 C-16.38373876 40.56797647 -16.38268245 35.04752785 -16.37048396 29.52689706 C-16.36851391 27.52489045 -16.37166514 25.52287122 -16.38032833 23.52088238 C-16.39132684 20.80846664 -16.38400007 18.09670646 -16.3719368 15.38430977 C-16.37953199 14.59933835 -16.38712718 13.81436693 -16.39495254 13.0056085 C-16.35135148 8.49286356 -15.82598084 5.56756313 -13 2 C-8.71879083 -0.85413945 -5.02425765 -0.77325216 0 0 Z M6 34 C6 184.48 6 334.96 6 490 C154.17 490 302.34 490 455 490 C450.28521336 483.69082331 450.28521336 483.69082331 445.4375 477.5 C444.42429687 476.23929687 444.42429687 476.23929687 443.390625 474.953125 C441.59208859 472.73140356 439.79002744 470.51280053 437.984375 468.296875 C417.839756 443.57324658 417.839756 443.57324658 415.734375 439.62890625 C413.31991302 437.36126966 411.14869991 437.56540461 407.94604492 437.59765625 C406.67337769 437.64212891 406.67337769 437.64212891 405.375 437.6875 C404.47563721 437.70296875 403.57627441 437.7184375 402.6496582 437.734375 C399.43203845 437.79827477 396.21661615 437.89739447 393 438 C390.9858016 438.05882502 388.97160295 438.11764206 386.95739746 438.17622375 C381.99707794 438.32105762 377.036992 438.46819144 372.07763672 438.64331055 C368.73670217 438.76019492 365.39555889 438.86023878 362.0536499 438.94580078 C360.6414679 438.9830706 359.2293952 439.02465315 357.81744385 439.06982422 C355.64526676 439.1354717 353.47357964 439.17958047 351.30078125 439.21875 C350.01985596 439.24904297 348.73893066 439.27933594 347.41918945 439.31054688 C341.70832638 438.79185942 338.81370094 436.12193157 335.20947266 431.8269043 C334.76909668 431.28590088 334.3287207 430.74489746 333.875 430.1875 C333.39981934 429.61491455 332.92463867 429.0423291 332.43505859 428.45239258 C328.63687136 423.84888953 324.94262736 419.16359188 321.27587891 414.45507812 C317.15248641 409.16380523 312.92849264 403.95802356 308.67822266 398.76831055 C308.17081543 398.14738525 307.6634082 397.52645996 307.140625 396.88671875 C306.65138046 396.29867966 306.16213593 395.71064056 305.6580658 395.1047821 C304 393 304 393 302.58653259 390.80838013 C297.85703098 383.77459766 292.90885344 381.79826605 284.92578125 379.54296875 C283.18544868 379.01030144 283.18544868 379.01030144 281.40995789 378.46687317 C277.71896447 377.34416469 274.01688456 376.26509965 270.3125 375.1875 C267.84352454 374.44627271 265.37541401 373.70215789 262.90820312 372.95507812 C258.34669031 371.57580975 253.78014595 370.21622687 249.20825195 368.87182617 C244.92783297 367.59029263 240.6512534 366.29874251 236.39135742 364.95043945 C235.42735519 364.64821976 234.46335297 364.34600006 233.47013855 364.03462219 C230.95573265 362.98145854 229.67635714 362.12267749 228 360 C226.99902344 357.21899414 226.99902344 357.21899414 226.109375 353.72265625 C225.94346863 353.07426285 225.77756226 352.42586945 225.60662842 351.75782776 C224.14728842 345.91298244 222.92739276 340.01871715 221.703125 334.12109375 C221.09127229 331.21362127 220.47854214 328.30633581 219.86523438 325.39916992 C219.4521603 323.4106772 219.04929702 321.42003824 218.65625 319.42749023 C218.07644569 316.50582007 217.4561658 313.59522349 216.828125 310.68359375 C216.66322571 309.79917099 216.49832642 308.91474823 216.32843018 308.00352478 C215.00842919 302.12059128 213.00790114 299.47909919 207.95880127 296.18083191 C206.98919464 295.59632011 206.98919464 295.59632011 206 295 C205.19916992 294.44948975 204.39833984 293.89897949 203.57324219 293.33178711 C202.90454102 292.9013208 202.23583984 292.47085449 201.546875 292.02734375 C200.7724707 291.52654297 199.99806641 291.02574219 199.20019531 290.50976562 C198.39163086 289.99091797 197.58306641 289.47207031 196.75 288.9375 C194.98951265 287.80089073 193.22909819 286.66416854 191.46875 285.52734375 C190.57027344 284.94839355 189.67179688 284.36944336 188.74609375 283.77294922 C186.00352537 282.00227607 183.26641911 280.22348469 180.53125 278.44140625 C179.64598633 277.86463135 178.76072266 277.28785645 177.84863281 276.69360352 C176.16553184 275.59667835 174.48257954 274.49952502 172.79980469 273.40209961 C172.02540039 272.89815674 171.25099609 272.39421387 170.453125 271.875 C169.3403418 271.14796875 169.3403418 271.14796875 168.20507812 270.40625 C166.72571888 269.46281452 165.22893558 268.5461999 163.71679688 267.65625 C163.00072266 267.2334375 162.28464844 266.810625 161.546875 266.375 C160.91104492 266.01148438 160.27521484 265.64796875 159.62011719 265.2734375 C157.60576132 263.69012222 156.97718915 262.36250851 156 260 C155.78881836 257.87789917 155.78881836 257.87789917 155.83984375 255.57373047 C155.85225098 254.70537567 155.8646582 253.83702087 155.87744141 252.94235229 C155.89726074 252.01004791 155.91708008 251.07774353 155.9375 250.1171875 C155.94644031 248.12500942 155.95286988 246.13281879 155.95703125 244.140625 C155.97123151 241.0126507 155.99970146 237.88795303 156.07177734 234.76074219 C156.87808092 222.55271524 156.87808092 222.55271524 152.85424805 211.47045898 C150.36246374 208.9649269 147.91479667 206.98403994 145 205 C143.59095847 203.78599697 142.19219566 202.55975349 140.8125 201.3125 C140.24144531 200.83425781 139.67039063 200.35601562 139.08203125 199.86328125 C137 198 137 198 135.578125 196.35668945 C130.77761824 190.98520043 126.26694059 189.29233825 119.375 187.5625 C117.83924316 187.14327271 117.83924316 187.14327271 116.27246094 186.71557617 C112.8542467 185.78638018 109.42829076 184.89126257 106 184 C101.3925133 182.79193053 96.78954995 181.56791774 92.19024658 180.32907104 C90.2790439 179.82023265 88.36291669 179.33000849 86.44677734 178.84008789 C85.27324707 178.5280542 84.0997168 178.21602051 82.890625 177.89453125 C81.84938477 177.62487549 80.80814453 177.35521973 79.73535156 177.07739258 C76.4121872 175.76847395 74.9654163 175.01899 73 172 C71.83148631 164.98013206 73.60527572 159.10881637 76.31640625 152.703125 C76.6517186 151.86585876 76.98703094 151.02859253 77.33250427 150.16595459 C78.3930312 147.52041804 79.47516881 144.88462209 80.5625 142.25 C81.65241026 139.60076864 82.73675726 136.94996726 83.8032074 134.29119873 C84.46364019 132.64495555 85.13741135 131.00398177 85.8263092 129.3694458 C87.63911096 124.85486898 88.52664585 121.82109963 87 117 C85.82835401 114.56003681 85.82835401 114.56003681 84.26171875 112.26953125 C83.69445068 111.39288818 83.12718262 110.51624512 82.54272461 109.61303711 C81.93050049 108.68885986 81.31827637 107.76468262 80.6875 106.8125 C79.41079576 104.85199382 78.13476684 102.89104771 76.859375 100.9296875 C75.89161133 99.45000488 75.89161133 99.45000488 74.90429688 97.94042969 C73.09618329 95.14851687 71.3283545 92.33629006 69.578125 89.5078125 C69.04743408 88.6521167 68.51674316 87.7964209 67.9699707 86.91479492 C66.97455638 85.30567127 65.98326399 83.69398778 64.99682617 82.0793457 C60.43829927 74.76224263 54.71614376 69.83172004 47.9375 64.625 C47.15890625 64.02284668 46.3803125 63.42069336 45.578125 62.80029297 C38.75107299 57.53754759 31.85407967 52.3688496 24.94165039 47.21899414 C19.74609256 43.34072145 14.6496453 39.38786999 9.6796875 35.22265625 C8.07676195 33.80383099 8.07676195 33.80383099 6 34 Z " fill="#000000" transform="translate(19,0)"/>
<path d="M0 0 C0.6461879 -0.00861557 1.29237579 -0.01723114 1.95814514 -0.02610779 C4.0825366 -0.04870988 6.20560281 -0.04204138 8.33007812 -0.03295898 C9.81311432 -0.03819688 11.29614717 -0.04447397 12.7791748 -0.05174255 C15.88272818 -0.06213576 18.98582274 -0.05760087 22.08935547 -0.04296875 C26.06096813 -0.02577386 30.03113499 -0.04928819 34.00258636 -0.08445835 C37.06363457 -0.10644761 40.12433752 -0.10498753 43.18544006 -0.09669304 C44.64943529 -0.09587449 46.11345611 -0.1027196 47.57737732 -0.11746407 C49.62670084 -0.13494294 51.67343557 -0.12034748 53.72265625 -0.09765625 C55.46875183 -0.09621361 55.46875183 -0.09621361 57.25012207 -0.09474182 C62.26208024 0.91723147 64.43177245 4.18966598 67.2355957 8.24291992 C67.81978271 9.21793457 68.40396973 10.19294922 69.00585938 11.19750977 C69.67552734 12.30715088 70.34519531 13.41679199 71.03515625 14.56005859 C71.74848581 15.7592605 72.4613659 16.95872986 73.17382812 18.15844727 C73.9162326 19.39918561 74.65907809 20.63966017 75.40234375 21.87988281 C76.94534932 24.45699348 78.48369591 27.03682148 80.02001953 29.61791992 C81.94546676 32.846753 83.89520272 36.06001367 85.8556366 39.2677002 C87.3438502 41.70532606 88.82227173 44.14879947 90.29891968 46.59344482 C91.34095915 48.31234749 92.39364725 50.02478026 93.4465332 51.73706055 C99.67497664 62.11647604 99.67497664 62.11647604 99.36132812 67.53344727 C96.96991742 73.58166584 93.25079362 79.01943722 89.67773438 84.41625977 C89.14035141 85.23415985 88.60296844 86.05205994 88.04930115 86.89474487 C86.9193675 88.61214889 85.78725872 90.32812362 84.65307617 92.04272461 C82.92666777 94.65415191 81.20897319 97.27115531 79.4921875 99.88891602 C78.38788512 101.5650369 77.28308416 103.24082943 76.17773438 104.91625977 C75.66924454 105.69139923 75.1607547 106.4665387 74.63685608 107.26516724 C65.96698983 120.33524081 65.96698983 120.33524081 57.81526184 122.07766724 C56.91498764 122.21534515 56.01471344 122.35302307 55.0871582 122.49487305 C53.54449028 122.73489548 53.54449028 122.73489548 51.97065735 122.97976685 C50.86852402 123.14443451 49.76639069 123.30910217 48.63085938 123.47875977 C47.48526047 123.65349823 46.33966156 123.82823669 45.15934753 124.00827026 C42.73649286 124.37598719 40.31316346 124.74058781 37.8894043 125.10229492 C34.20332938 125.65403148 30.51964053 126.22002332 26.8359375 126.78735352 C24.47604243 127.14369075 22.11602013 127.49918657 19.75585938 127.85375977 C18.6638472 128.02247589 17.57183502 128.19119202 16.44673157 128.36502075 C0.52980661 130.7080454 0.52980661 130.7080454 -5.53637695 128.45922852 C-8.30864403 125.91972756 -9.74045887 123.08567577 -11.27539062 119.72094727 C-11.96835302 118.27031452 -12.66156331 116.81980018 -13.35498047 115.36938477 C-13.72185974 114.58917969 -14.08873901 113.80897461 -14.46673584 113.00512695 C-16.11908064 109.52023789 -17.831799 106.06613817 -19.54202271 102.609375 C-21.38779402 98.8758596 -23.21845287 95.13501068 -25.04956055 91.39428711 C-25.99136011 89.47197265 -26.93474439 87.55043385 -27.87963867 85.62963867 C-29.26774111 82.8076486 -30.65098461 79.98332307 -32.03320312 77.15844727 C-32.4519722 76.30935791 -32.87074127 75.46026855 -33.30220032 74.58544922 C-40.64104811 59.53801431 -40.64104811 59.53801431 -38.63867188 52.53344727 C-36.94518541 48.95180325 -34.96929511 45.56549009 -32.95117188 42.15844727 C-31.76898338 40.12398721 -30.58803982 38.08880334 -29.40820312 36.05297852 C-28.79154785 34.9941748 -28.17489258 33.93537109 -27.53955078 32.84448242 C-25.59386195 29.45539535 -23.70832626 26.03880508 -21.83789062 22.60766602 C-21.21938232 21.47828613 -20.60087402 20.34890625 -19.96362305 19.18530273 C-18.76766678 16.99690276 -17.57875611 14.80463428 -16.39770508 12.6081543 C-15.84816162 11.61025879 -15.29861816 10.61236328 -14.73242188 9.58422852 C-14.25482422 8.70420166 -13.77722656 7.8241748 -13.28515625 6.91748047 C-9.64240488 1.64294501 -6.35001862 0.03381351 0 0 Z M4.36132812 22.53344727 C3.92788086 23.31469971 3.49443359 24.09595215 3.04785156 24.90087891 C1.42303947 27.82897093 -0.20216879 30.75684235 -1.82763672 33.68457031 C-2.52798832 34.94620232 -3.2281868 36.20791933 -3.92822266 37.46972656 C-4.60819454 38.69532496 -5.2885683 39.92070049 -5.96936035 41.14584351 C-6.63147804 42.33923143 -7.29157246 43.53374428 -7.94958496 44.72940063 C-9.60569791 47.7290147 -11.33981447 50.64419428 -13.18554688 53.52954102 C-14.99693987 57.27406041 -14.63157089 58.53112774 -13.63867188 62.53344727 C-12.55435881 65.2481871 -11.27253096 67.84700523 -9.96289062 70.45922852 C-9.5964595 71.20625534 -9.23002838 71.95328217 -8.85249329 72.72294617 C-7.68435275 75.10095928 -6.50572253 77.4735763 -5.32617188 79.84594727 C-4.15947704 82.20860712 -2.99502122 84.57235027 -1.83198547 86.93681335 C-1.1099594 88.40294734 -0.38551596 89.86789449 0.34187317 91.33137512 C2.82030441 96.33999896 5.12543735 101.41216316 7.36132812 106.53344727 C14.69706405 105.55064454 22.03000721 104.54866022 29.36132812 103.53344727 C30.33166992 103.4000293 31.30201172 103.26661133 32.30175781 103.12915039 C35.03112779 102.75093366 37.75885515 102.36258311 40.48632812 101.97094727 C41.73687988 101.79921997 41.73687988 101.79921997 43.01269531 101.62402344 C43.79032227 101.51034424 44.56794922 101.39666504 45.36914062 101.27954102 C46.04605957 101.18342529 46.72297852 101.08730957 47.42041016 100.98828125 C52.52722669 99.79155179 54.3259922 97.53478224 57.07617188 93.11547852 C57.76259766 92.02557617 58.44902344 90.93567383 59.15625 89.81274414 C59.87087842 88.65741458 60.58506813 87.50181354 61.29882812 86.34594727 C62.7002725 84.10024387 64.10702768 81.85793567 65.51367188 79.61547852 C66.49956299 78.02340576 66.49956299 78.02340576 67.50537109 76.39916992 C69.05972088 73.99914916 70.69194985 71.82276742 72.49023438 69.60766602 C74.74618774 66.7090395 74.74618774 66.7090395 73.7097168 63.73876953 C72.27622774 60.33115088 70.59606847 57.32227994 68.65820312 54.17407227 C68.11779388 53.29014801 68.11779388 53.29014801 67.56646729 52.3883667 C66.42040185 50.51652374 65.26613403 48.64990775 64.11132812 46.78344727 C62.97657271 44.93626112 61.84350242 43.08810651 60.71420288 41.23757935 C59.96931016 40.02982922 59.2129372 38.8290839 58.44522095 37.63571167 C56.72819545 34.94287847 55.33541085 32.45916202 54.28076172 29.4362793 C53.02707743 26.10512853 52.2745536 24.6281951 49.36132812 22.53344727 C41.92058135 20.85157634 34.04416749 21.60248524 26.48632812 21.90844727 C24.34580614 21.95862587 22.2051722 22.00425013 20.06445312 22.04516602 C14.82763201 22.1551887 9.59499535 22.32230805 4.36132812 22.53344727 Z " fill="#000000" transform="translate(207.638671875,28.466552734375)"/>
<path d="M0 0 C1.53375011 -0.00882212 3.06748716 -0.02034054 4.60119629 -0.03460693 C6.78350177 -0.05249759 8.96539576 -0.05637052 11.14776611 -0.0562439 C12.41870117 -0.06035278 13.68963623 -0.06446167 14.99908447 -0.06869507 C20.08319587 0.29763782 22.36525033 1.11460681 25.90802002 4.84927368 C28.49387948 8.18296163 30.65539095 11.72789056 32.76885986 15.3734436 C33.16690826 16.04913895 33.56495667 16.72483429 33.97506714 17.42100525 C35.23698621 19.5649458 36.49159988 21.71304104 37.74542236 23.86172485 C39.39631677 26.67975274 41.05068947 29.49571963 42.70635986 32.3109436 C43.10463486 32.99032486 43.50290985 33.66970612 43.91325378 34.36967468 C46.8259146 39.31613966 49.88113045 44.15274425 53.06158447 48.93252563 C55.20540005 52.60432467 55.58069022 54.89877838 55.37042236 59.17422485 C53.08523537 65.15790158 49.3332619 70.47648915 45.74542236 75.73672485 C44.68008246 77.31338851 43.61498237 78.89021423 42.55010986 80.4671936 C42.01869385 81.251427 41.48727783 82.0356604 40.9397583 82.84365845 C39.44430915 85.06449815 37.96943635 87.2972771 36.50323486 89.5375061 C36.0580249 90.21547241 35.61281494 90.89343872 35.15411377 91.59194946 C34.32236477 92.86013731 33.49371178 94.1303633 32.66876221 95.40298462 C27.27694336 103.58061496 27.27694336 103.58061496 22.31158447 105.12661743 C20.52893188 105.43828857 20.52893188 105.43828857 18.71026611 105.7562561 C18.05670639 105.87386795 17.40314667 105.9914798 16.7297821 106.11265564 C14.61282462 106.48628602 12.49287479 106.83328236 10.37042236 107.17422485 C9.66508362 107.2900592 8.95974487 107.40589355 8.23303223 107.52523804 C3.87828036 108.23567382 -0.48197889 108.90006017 -4.8480835 109.53677368 C-7.09081775 109.86520137 -9.33183091 110.20402509 -11.57293701 110.54336548 C-13.02792311 110.75818242 -14.48299826 110.97239729 -15.93817139 111.1859436 C-17.22521973 111.37632202 -18.51226807 111.56670044 -19.83831787 111.7628479 C-29.83358483 112.84740098 -29.83358483 112.84740098 -34.36004639 111.15078735 C-37.49363208 108.42170928 -39.12731426 105.2140812 -40.94207764 101.54922485 C-41.34869629 100.75322876 -41.75531494 99.95723267 -42.17425537 99.13711548 C-43.68162347 96.16011133 -45.15781893 93.16900187 -46.62957764 90.17422485 C-46.94999023 89.52312744 -47.27040283 88.87203003 -47.6005249 88.20120239 C-51.55816311 80.15475161 -55.4875287 72.09447793 -59.38348389 64.01797485 C-59.69658508 63.37184235 -60.00968628 62.72570984 -60.33227539 62.05999756 C-62.89722725 56.72466477 -64.74193782 52.13605434 -63.62957764 46.17422485 C-61.66914744 41.62157782 -59.19563405 37.38166348 -56.69207764 33.11172485 C-55.99966949 31.90475653 -55.30851222 30.69706977 -54.61859131 29.48867798 C-53.25986374 27.11692571 -51.89069797 24.75177105 -50.51043701 22.39248657 C-48.9150573 19.66269745 -47.33837397 16.92358231 -45.77020264 14.1781311 C-39.34029736 3.08387235 -39.34029736 3.08387235 -35.62957764 1.17422485 C-32.85284837 0.77624725 -30.29387042 0.56575054 -27.50457764 0.48672485 C-26.66725098 0.45473999 -25.82992432 0.42275513 -24.96722412 0.38980103 C-16.64898466 0.11944913 -8.32223171 0.04617491 0 0 Z M-24.62957764 23.17422485 C-25.0129126 23.85525269 -25.39624756 24.53628052 -25.79119873 25.23794556 C-27.52778358 28.32155418 -29.26615922 31.40414958 -31.00457764 34.48672485 C-31.60785889 35.55858032 -32.21114014 36.63043579 -32.83270264 37.73477173 C-33.41278076 38.76279907 -33.99285889 39.79082642 -34.59051514 40.8500061 C-35.12467041 41.79786987 -35.65882568 42.74573364 -36.20916748 43.72232056 C-37.2845648 45.57866558 -38.4395555 47.38919165 -39.62957764 49.17422485 C-39.2649248 52.9025984 -37.95975543 55.92376934 -36.33660889 59.2718811 C-35.87061279 60.23932251 -35.4046167 61.20676392 -34.92449951 62.20352173 C-34.43530029 63.20447876 -33.94610107 64.20543579 -33.44207764 65.23672485 C-32.97221436 66.21061157 -32.50235107 67.18449829 -32.01824951 68.18789673 C-28.61840937 75.21485147 -25.13447222 82.19918348 -21.62957764 89.17422485 C-16.92493183 88.72731419 -12.23371642 88.21449724 -7.54266357 87.64224243 C-5.95023107 87.45712457 -4.35566533 87.2894197 -2.75946045 87.14028931 C6.87848438 86.39058212 6.87848438 86.39058212 15.05377197 81.79946899 C17.08514445 79.01411567 18.74514877 76.2112229 20.37042236 73.17422485 C21.35102506 71.75475211 22.35037467 70.34790652 23.37432861 68.9593811 C24.22926192 67.71992007 25.08219565 66.47907693 25.93292236 65.23672485 C26.38216064 64.6044397 26.83139893 63.97215454 27.29425049 63.32070923 C29.65071456 60.14185903 29.65071456 60.14185903 30.21759033 56.38540649 C29.01140173 53.23714997 27.33926864 50.4003815 25.62432861 47.51016235 C25.25315414 46.87688019 24.88197968 46.24359802 24.4995575 45.59112549 C23.7159839 44.25674106 22.92996407 42.92379046 22.1416626 41.5921936 C20.93503615 39.5527975 19.73713381 37.5084683 18.54034424 35.46328735 C17.77718359 34.16611145 17.01352848 32.8692263 16.24932861 31.57266235 C15.89093399 30.96119354 15.53253937 30.34972473 15.1632843 29.71972656 C13.71333979 27.27769424 12.38775554 25.19155803 10.37042236 23.17422485 C7.71750479 22.999121 5.17056063 22.94267003 2.51885986 22.97891235 C1.35781235 22.9831572 1.35781235 22.9831572 0.17330933 22.98748779 C-2.30280921 22.99869732 -4.77856814 23.02380283 -7.25457764 23.04922485 C-8.93165575 23.05925368 -10.60873953 23.0683797 -12.28582764 23.0765686 C-16.40054987 23.09863911 -20.51500275 23.13317384 -24.62957764 23.17422485 Z " fill="#000000" transform="translate(328.62957763671875,199.82577514648438)"/>
<path d="M0 0 C1.04135605 -0.01268417 2.0827121 -0.02536835 3.15562439 -0.03843689 C4.27030594 -0.03550125 5.38498749 -0.03256561 6.53344727 -0.02954102 C7.68853287 -0.03478287 8.84361847 -0.04002472 10.03370667 -0.04542542 C12.47379758 -0.05184207 14.91391944 -0.05051327 17.35400391 -0.04199219 C21.08299981 -0.03348571 24.81046213 -0.06224568 28.53930664 -0.09399414 C30.91235306 -0.09560637 33.28540218 -0.09502821 35.65844727 -0.09204102 C37.32743324 -0.10889198 37.32743324 -0.10889198 39.03013611 -0.12608337 C45.0346117 -0.0721559 49.08879534 0.0905386 53.66235352 4.40405273 C55.76123047 7.28222656 55.76123047 7.28222656 57.65063477 10.61108398 C57.99559494 11.20931976 58.34055511 11.80755554 58.69596863 12.42391968 C59.80177924 14.34777134 60.88826742 16.28179052 61.97485352 18.21655273 C62.72991867 19.5374483 63.48643318 20.85751641 64.24438477 22.17675781 C65.72454585 24.75502755 67.1988609 27.33648842 68.66870117 29.9206543 C71.10034016 34.18441717 73.61462357 38.39627992 76.16235352 42.59155273 C79.51513192 48.13008475 81.60118826 51.76922997 80.66235352 58.40405273 C79.48620674 61.34695292 77.84414513 63.89121851 76.09985352 66.52905273 C75.61677734 67.28387939 75.13370117 68.03870605 74.63598633 68.81640625 C73.57397912 70.46291743 72.50206133 72.10306776 71.42163086 73.73754883 C69.53544474 76.596406 67.68804591 79.47864268 65.83813477 82.36108398 C64.53210718 84.35625572 63.22354648 86.34977179 61.91235352 88.34155273 C61.29932373 89.29497559 60.68629395 90.24839844 60.0546875 91.23071289 C59.45599854 92.12193848 58.85730957 93.01316406 58.24047852 93.93139648 C57.45785645 95.1185022 57.45785645 95.1185022 56.65942383 96.32958984 C51.85981197 101.31520133 45.16842987 102.06640552 38.61547852 103.00952148 C37.76362976 103.13845291 36.91178101 103.26738434 36.03411865 103.40022278 C34.23966275 103.66940348 32.44449367 103.93386804 30.64868164 104.19384766 C27.93234426 104.58864723 25.21931264 105.00203065 22.50610352 105.41772461 C-1.04138467 108.95872674 -1.04138467 108.95872674 -6.37207031 105.34960938 C-9.75459269 102.31758469 -11.51713571 98.86834066 -13.39624023 94.78686523 C-13.7484816 94.0526535 -14.10072296 93.31844177 -14.46363831 92.5619812 C-15.58129643 90.2239558 -16.67841073 87.87695316 -17.77514648 85.52905273 C-18.50623795 83.99196091 -19.23865016 82.45549655 -19.97241211 80.91967773 C-21.41722146 77.89018537 -22.84576275 74.85378837 -24.26293945 71.8112793 C-25.61203527 68.92157138 -27.00084395 66.05773708 -28.43188477 63.20776367 C-28.75955338 62.54267792 -29.08722198 61.87759216 -29.42481995 61.19235229 C-30.3093302 59.399869 -31.20784649 57.61431598 -32.10742188 55.8293457 C-33.9097195 50.81123979 -34.17007131 46.69017651 -32.30297852 41.5625 C-31.82199707 40.70712646 -31.34101563 39.85175293 -30.84545898 38.97045898 C-30.30985352 37.99939209 -29.77424805 37.0283252 -29.22241211 36.02783203 C-28.35132813 34.51249878 -28.35132813 34.51249878 -27.46264648 32.96655273 C-26.87418945 31.91701416 -26.28573242 30.86747559 -25.67944336 29.78613281 C-24.48278587 27.66038033 -23.27808559 25.53913435 -22.06518555 23.42260742 C-20.49592725 20.68061907 -18.95547506 17.92483579 -17.42358398 15.16186523 C-16.56340796 13.6374089 -15.70154956 12.11390006 -14.83764648 10.59155273 C-14.45366699 9.89940674 -14.0696875 9.20726074 -13.67407227 8.49414062 C-10.25623464 2.61632593 -6.84969187 0.04056472 0 0 Z M4.66235352 22.40405273 C2.63159411 25.86232663 0.62022623 29.33108446 -1.37402344 32.81054688 C-2.05468609 33.99194922 -2.74051955 35.17038836 -3.43164062 36.34570312 C-4.42567135 38.03820324 -5.39950451 39.74251443 -6.37280273 41.44702148 C-6.96456299 42.46820068 -7.55632324 43.48937988 -8.16601562 44.54150391 C-9.54130211 47.90162769 -9.50554772 49.00987991 -8.33764648 52.40405273 C-7.30793659 54.85562552 -6.24489454 57.24274524 -5.09936523 59.63842773 C-4.7773262 60.31705872 -4.45528717 60.9956897 -4.12348938 61.69488525 C-3.44319648 63.12173236 -2.75971701 64.54706405 -2.07324219 65.97094727 C-1.02503851 68.15427763 0.00140105 70.34702405 1.02758789 72.54077148 C1.69228999 73.92812033 2.35826226 75.31486149 3.02563477 76.70092773 C3.48212151 77.68678864 3.48212151 77.68678864 3.9478302 78.69256592 C5.58458777 82.12111764 5.58458777 82.12111764 8.52075195 84.36499023 C13.60117394 84.45765639 18.59597346 83.43854781 23.59985352 82.65405273 C24.77999023 82.48389648 25.96012695 82.31374023 27.17602539 82.13842773 C28.31491211 81.96311523 29.45379883 81.78780273 30.62719727 81.60717773 C32.18361938 81.3698291 32.18361938 81.3698291 33.77148438 81.12768555 C39.57152396 79.6758388 42.27163629 77.05379029 45.43188477 72.07983398 C46.0925293 71.05180664 46.75317383 70.0237793 47.43383789 68.96459961 C48.10737305 67.89274414 48.7809082 66.82088867 49.47485352 65.71655273 C50.16772461 64.6330957 50.8605957 63.54963867 51.57446289 62.43334961 C53.28022962 59.76294239 54.9756805 57.08654512 56.66235352 54.40405273 C54.48800281 50.51469391 54.48800281 50.51469391 52.22460938 46.67700195 C50.02128419 43.01467506 48.27828188 39.49744513 46.84204102 35.46655273 C44.69159303 30.13176742 42.71290185 25.50030964 37.66235352 22.40405273 C26.89731892 20.11782357 15.52442358 21.31719547 4.66235352 22.40405273 Z " fill="#000000" transform="translate(386.337646484375,74.595947265625)"/>
<path d="M0 0 C0.84151108 -0.00287018 1.68302216 -0.00574036 2.55003357 -0.00869751 C4.31908852 -0.01072849 6.08816642 -0.00526661 7.85717773 0.00732422 C10.5543868 0.02341241 13.25010221 0.00743271 15.94726562 -0.01171875 C17.67318037 -0.00973654 19.39909418 -0.00589332 21.125 0 C21.9251503 -0.00607269 22.7253006 -0.01214539 23.54969788 -0.0184021 C28.41849121 0.04235793 31.78676476 0.69470733 35.99609375 3.3984375 C37.73720508 5.66804805 39.14435658 7.75498209 40.55859375 10.2109375 C41.17226807 11.24154297 41.17226807 11.24154297 41.79833984 12.29296875 C42.70313623 13.81514379 43.60192261 15.34090254 44.49560547 16.86962891 C46.13287247 19.62895394 47.82816374 22.34725074 49.53125 25.06640625 C50.72875836 27.00986623 51.92538137 28.95387203 53.12109375 30.8984375 C53.70189697 31.81729736 54.2827002 32.73615723 54.88110352 33.68286133 C58.24262999 39.24326204 60.03921896 42.88395235 58.99609375 49.3984375 C57.82480222 51.98973925 56.72541322 54.06208442 55.18359375 56.3984375 C54.78487061 57.02854736 54.38614746 57.65865723 53.9753418 58.30786133 C52.66929136 60.35203767 51.33421378 62.37513553 49.99609375 64.3984375 C49.53106445 65.11821777 49.06603516 65.83799805 48.58691406 66.57958984 C47.17681318 68.75940698 45.74723515 70.92486898 44.30859375 73.0859375 C43.86990967 73.75689453 43.43122559 74.42785156 42.97924805 75.11914062 C42.54781494 75.75142578 42.11638184 76.38371094 41.671875 77.03515625 C41.29973877 77.58905029 40.92760254 78.14294434 40.54418945 78.71362305 C36.22221111 83.41729322 31.73538373 84.97603834 25.54296875 85.8828125 C24.84270569 85.98813293 24.14244263 86.09345337 23.42095947 86.20196533 C21.94623727 86.42063259 20.47041747 86.63201023 18.99365234 86.83642578 C16.76374151 87.14598759 14.53837286 87.47915279 12.3125 87.81640625 C-7.85258973 90.80060937 -7.85258973 90.80060937 -12.57763672 87.72094727 C-15.18800923 85.22220771 -16.51230794 83.08613718 -18.08984375 79.84765625 C-18.62520752 78.76331299 -19.16057129 77.67896973 -19.7121582 76.56176758 C-20.26218506 75.41474365 -20.81221191 74.26771973 -21.37890625 73.0859375 C-21.94891357 71.91635498 -22.5189209 70.74677246 -23.10620117 69.54174805 C-24.23533818 67.21898409 -25.3590959 64.89359627 -26.47705078 62.56542969 C-27.76410396 59.89583362 -29.0753562 57.24163187 -30.40625 54.59375 C-31.04392691 53.29995098 -31.68074704 52.00572904 -32.31640625 50.7109375 C-32.84878906 49.63457031 -33.38117188 48.55820312 -33.9296875 47.44921875 C-35.59476492 42.72039888 -35.88728206 39.45901298 -33.87133789 34.7565918 C-32.28600226 31.64964354 -30.60538124 28.61665174 -28.87890625 25.5859375 C-28.30914062 24.55662109 -27.739375 23.52730469 -27.15234375 22.46679688 C-26.01278785 20.4194811 -24.85891706 18.38006344 -23.69042969 16.34912109 C-22.58893488 14.42198353 -21.51762633 12.47718814 -20.48144531 10.51416016 C-19.99643555 9.62647949 -19.51142578 8.73879883 -19.01171875 7.82421875 C-18.39127686 6.649198 -18.39127686 6.649198 -17.75830078 5.45043945 C-13.10129689 0.00344284 -6.65187291 -0.05061203 0 0 Z M-9.8203125 36.09375 C-11.22922765 40.24849723 -10.96602027 42.37661741 -9.00390625 46.3984375 C-8.31739507 47.96731088 -7.63122939 49.53633546 -6.9453125 51.10546875 C-6.15610921 52.80904113 -5.3630494 54.51083151 -4.56640625 56.2109375 C-4.17130859 57.08169922 -3.77621094 57.95246094 -3.36914062 58.84960938 C-2.98177734 59.67654297 -2.59441406 60.50347656 -2.1953125 61.35546875 C-1.84670166 62.10803955 -1.49809082 62.86061035 -1.13891602 63.63598633 C-0.04999972 65.73106318 -0.04999972 65.73106318 2.99609375 66.3984375 C10.65455087 66.44587523 19.86009002 65.91304022 25.953125 61.02734375 C27.9938813 58.21398754 29.52768832 55.54673067 30.99609375 52.3984375 C31.40512939 51.81755371 31.81416504 51.23666992 32.2355957 50.63818359 C34.27894036 47.50385668 35.22898037 45.54408941 34.46630859 41.79223633 C31.45462155 34.31182836 26.88656755 25.60833675 19.26660156 22.16503906 C5.14488965 18.64524135 -3.97209183 23.13448241 -9.8203125 36.09375 Z " fill="#000000" transform="translate(427.00390625,302.6015625)"/>
<path d="M0 0 C4.52997296 3.03078692 8.94568713 6.86421783 11 12 C11.54957375 16.31807946 11.2941115 18.44328894 9.25 22.3125 C6.72105157 25.3331884 4.88690383 26.69163439 0.9921875 27.328125 C-4.55660875 27.12337237 -7.45317307 25.21183285 -11.5 21.4375 C-16.58267756 15.89635386 -16.58267756 15.89635386 -17.3125 11.75 C-16.9679638 7.61556558 -16.42724761 5.36682733 -14 2 C-9.51425489 -1.23390926 -5.19372655 -1.92216422 0 0 Z " fill="#000000" transform="translate(345,331)"/>
<path d="M0 0 C3.05848963 1.98431421 5.50136087 4.36003512 8 7 C8.54914063 7.50917969 9.09828125 8.01835937 9.6640625 8.54296875 C11.87776014 10.95732319 12.01267879 13.17116365 12.25 16.375 C11.98284578 20.2487362 11.34494559 21.96025572 9 25 C4.72371704 27.85085531 1.01308456 27.98630214 -4 27 C-9.41306126 23.6849541 -14.26536609 18.83358793 -15.875 12.625 C-16.04696515 7.63801078 -14.60115673 4.84748853 -11.375 1.125 C-7.54516225 -0.68913367 -4.13251003 -0.96876875 0 0 Z " fill="#000000" transform="translate(242,180)"/>
<path d="M0 0 C4.49149769 3.25894716 8.78419734 7.31853882 10.75 12.625 C11.11792737 17.59201947 9.4222305 20.75437289 6.8125 24.875 C3.74691303 26.77777812 0.52731696 27.08750977 -3 27 C-8.89547434 25.19526296 -12.34410359 20.74360113 -16 16 C-17.61540873 12.76918255 -17.5896275 9.49240902 -17 6 C-13.14465412 -0.95153099 -7.24272855 -2.41045283 0 0 Z " fill="#000000" transform="translate(118,27)"/>
<path d="M0 0 C9.73339223 8.33392226 9.73339223 8.33392226 10.375 14.75 C10.35058775 18.10058068 9.75601354 19.84894532 7.625 22.4375 C4.36573198 25.6191664 3.81085819 25.93242848 -0.75 26.3125 C-6.01077474 26.21754017 -8.89717377 23.98955925 -12.66796875 20.421875 C-16.35837843 16.52985149 -18.10107209 13.55896505 -18 8 C-16.47795031 3.83439034 -14.86752954 1.22675943 -11 -1 C-7.19727313 -2.70467067 -3.5691621 -1.89893285 0 0 Z " fill="#000000" transform="translate(443,215)"/>
<path d="M0 0 C3.11646826 1.93755908 5.50918529 4.32363927 8 7 C9.2375 8.2065625 9.2375 8.2065625 10.5 9.4375 C12.59113213 13.00985073 12.68753627 15.95663193 12 20 C10.36312815 23.58552881 9.31027417 24.79315055 6 27 C1.49900326 27.73730613 -2.08638964 27.44784822 -6.1875 25.4375 C-14.54794521 18.19178082 -14.54794521 18.19178082 -15.515625 13.5 C-15.69596263 9.171897 -15.41508114 6.67796585 -13.125 2.9375 C-9.17080591 -0.66779461 -5.17539815 -1.01526949 0 0 Z " fill="#000000" transform="translate(341,29)"/>
</svg>
