<?xml version="1.0" encoding="UTF-8"?>
<svg version="1.1" xmlns="http://www.w3.org/2000/svg" width="512" height="512">
<path d="M0 0 C0.99 -0.03287109 0.99 -0.03287109 2 -0.06640625 C5.32820505 0.98015823 6.27807886 2.56056669 8 5.5625 C8.47188054 8.8513755 8.37849465 12.06132066 8.25 15.375 C8.23195313 16.25865234 8.21390625 17.14230469 8.1953125 18.05273438 C8.14838513 20.22312543 8.07664731 22.39295519 8 24.5625 C8.92425781 24.68496094 9.84851563 24.80742187 10.80078125 24.93359375 C14.86675899 25.73288852 17.38249399 27.43643586 20 30.5625 C22.73258483 36.51947027 23.44671784 41.41473546 23.3984375 47.91796875 C23.40130768 48.7826326 23.40417786 49.64729645 23.40713501 50.53816223 C23.40916367 52.35251527 23.40371827 54.16689078 23.39111328 55.98120117 C23.3749829 58.75293757 23.39103267 61.52322903 23.41015625 64.29492188 C23.40817476 66.06510737 23.40433302 67.83529197 23.3984375 69.60546875 C23.40451019 70.42951706 23.41058289 71.25356537 23.4168396 72.10258484 C23.36030819 76.7333739 23.00476118 79.80173468 20 83.5625 C16.90826248 85.10836876 14.40570448 84.85609521 11 84.5625 C8.81152344 83.11425781 8.81152344 83.11425781 7 80.5625 C6.39088103 77.52001785 6.39507686 74.51737644 6.390625 71.421875 C6.37408875 70.53969299 6.35755249 69.65751099 6.34051514 68.74859619 C6.29200806 65.9364935 6.27065845 63.12493168 6.25 60.3125 C6.22184254 58.40361858 6.19191543 56.49476239 6.16015625 54.5859375 C6.08624846 49.91150286 6.03669045 45.23736894 6 40.5625 C4.02 40.2325 2.04 39.9025 0 39.5625 C0 70.5825 0 101.6025 0 133.5625 C2.31 133.5625 4.62 133.5625 7 133.5625 C6.97905273 132.82612305 6.95810547 132.08974609 6.93652344 131.33105469 C6.85332856 127.99167558 6.80132843 124.65251451 6.75 121.3125 C6.71648437 120.15363281 6.68296875 118.99476562 6.6484375 117.80078125 C6.63554687 116.68574219 6.62265625 115.57070312 6.609375 114.421875 C6.58842773 113.39545898 6.56748047 112.36904297 6.54589844 111.31152344 C7.12181843 107.82504005 8.21222421 106.67287233 11 104.5625 C14.75349462 104.09331317 17.03848453 104.03113619 20.375 105.875 C23.7547989 109.38479117 23.14510192 113.71265188 23.1418457 118.27172852 C23.14705734 119.44798042 23.14705734 119.44798042 23.15237427 120.647995 C23.1597272 122.35202386 23.16507505 124.05606228 23.16866493 125.76010323 C23.17584165 128.46416558 23.19151968 131.16804765 23.21000671 133.87205505 C23.26240207 141.56091762 23.31039269 149.24968367 23.32592773 156.9387207 C23.33605544 161.64322989 23.36550525 166.34728818 23.40724754 171.05161858 C23.4194994 172.8379874 23.42468951 174.62442011 23.42244911 176.41082954 C23.41047354 189.08274526 24.30799133 198.23835341 32.4765625 208.41796875 C37.0090518 214.79831908 39.9468358 222.29559985 40.31640625 230.109375 C40.35830078 230.95371094 40.40019531 231.79804688 40.44335938 232.66796875 C40.50233398 233.97701172 40.50233398 233.97701172 40.5625 235.3125 C40.60568359 236.20066406 40.64886719 237.08882812 40.69335938 238.00390625 C40.79913615 240.18995963 40.90122546 242.37612089 41 244.5625 C47.37842449 239.43308259 53.59777672 234.20813677 59.6484375 228.6953125 C61.84473207 226.70332441 64.07024685 224.75242688 66.3125 222.8125 C68.57845779 220.84806078 70.73594749 218.85057554 72.8125 216.6875 C75.93755976 213.65172766 78.61202224 213.37259459 82.8125 213.25 C91.09445873 213.39341054 95.65626734 218.91357176 101.46484375 224.2578125 C103.73967121 226.32583747 106.07107106 228.28887104 108.4375 230.25 C112.7204374 234.01379347 114.70718046 237.26177505 115.4375 243 C114.51613177 250.5025699 109.64779661 255.38192954 104.4375 260.4375 C103.50877075 261.3514856 103.50877075 261.3514856 102.5612793 262.28393555 C97.30714209 267.39338284 91.75927526 272.03311415 86 276.5625 C84.12350339 278.12320232 82.24850821 279.68571159 80.375 281.25 C75.77894122 285.0194295 71.02824558 288.3965676 66 291.5625 C66.16226074 292.22096924 66.32452148 292.87943848 66.49169922 293.55786133 C67.11847051 297.26279612 67.14314685 300.8919573 67.1328125 304.63671875 C67.13424759 305.78428398 67.13424759 305.78428398 67.13571167 306.95503235 C67.13638967 308.56450483 67.13456199 310.1739801 67.13037109 311.78344727 C67.12499526 314.25217774 67.13034025 316.72072811 67.13671875 319.18945312 C67.13605833 320.75520874 67.13477793 322.32096423 67.1328125 323.88671875 C67.13483673 324.62629318 67.13686096 325.36586761 67.13894653 326.12785339 C67.11497642 331.33254717 67.11497642 331.33254717 66 333.5625 C66.65484375 333.72105469 67.3096875 333.87960937 67.984375 334.04296875 C88.24762496 339.22326288 88.24762496 339.22326288 94 346.5625 C96.42877218 351.42004436 95.39393152 357.11125627 94.0234375 362.16015625 C90.17846434 373.37662704 90.17846434 373.37662704 86 377.5625 C84.0181254 378.28126109 82.01861997 378.95453795 80 379.5625 C80.21153214 380.29110733 80.42306427 381.01971466 80.64100647 381.770401 C83.68497611 393.74589424 83.45468183 405.5887713 83.43359375 417.87109375 C83.43816247 420.21086274 83.44347008 422.55063038 83.44947815 424.89039612 C83.45836588 429.76772557 83.4560321 434.64489084 83.44604492 439.5222168 C83.43450461 445.76532266 83.45486651 452.00786713 83.48396206 458.25089931 C83.50231083 463.07137121 83.50203515 467.89170784 83.49632454 472.71220589 C83.49617146 475.01465714 83.50220428 477.31711764 83.51461601 479.61953545 C83.52951522 482.83322433 83.51885944 486.04586514 83.50170898 489.25952148 C83.51137695 490.20353821 83.52104492 491.14755493 83.53100586 492.12017822 C83.45558799 498.8787853 82.07327921 503.21119798 77.40234375 508.3046875 C72.52227695 512.07860582 69.43011545 512.68799741 63.3465786 512.7023077 C62.66371046 512.70525912 61.98084233 512.70821055 61.27728122 512.71125141 C58.97230793 512.71996388 56.66738468 512.721525 54.36239624 512.72312927 C52.69980075 512.72785879 51.0372064 512.7330095 49.3746134 512.73854691 C44.79253378 512.75247362 40.21046212 512.76004242 35.62836671 512.7665199 C31.70147415 512.77288524 27.7745947 512.78295613 23.8477103 512.79308056 C10.90864498 512.82642486 -2.03042832 512.84792945 -14.96952254 512.86628041 C-18.33795049 512.87107438 -21.70637812 512.87605782 -25.07480574 512.88108563 C-45.98495127 512.91205512 -66.89509956 512.93874513 -87.80526161 512.95550442 C-92.64995961 512.95945403 -97.49465757 512.963457 -102.33935547 512.9675293 C-103.54350654 512.96853766 -104.74765761 512.96954602 -105.9882981 512.97058494 C-125.49806703 512.98759455 -145.00770918 513.02870625 -164.51741619 513.07955229 C-184.54024398 513.13130705 -204.56300654 513.16044384 -224.58590066 513.1677013 C-235.83101586 513.17236619 -247.07592342 513.18714515 -258.32097244 513.2274456 C-267.89725166 513.26172346 -277.47328579 513.27569397 -287.04962285 513.26302146 C-291.93590039 513.25718941 -296.82165946 513.26109711 -301.70785904 513.2911911 C-306.1828222 513.31852742 -310.65689789 513.31807487 -315.13188057 513.29568065 C-316.74904629 513.29245471 -318.36627116 513.29934379 -319.98333843 513.31747787 C-328.05619073 513.40250597 -334.70051139 513.33737632 -341.36079347 508.25575787 C-347.39234548 502.02532093 -347.59729185 494.37597764 -347.53125 486.140625 C-347.5350769 485.07761169 -347.53890381 484.01459839 -347.54284668 482.91937256 C-347.54555358 480.68728683 -347.53827865 478.45516872 -347.52148438 476.22314453 C-347.49997294 472.80820385 -347.52137254 469.39534657 -347.546875 465.98046875 C-347.54423317 463.80468287 -347.5391112 461.62889828 -347.53125 459.453125 C-347.53934692 458.43534973 -347.54744385 457.41757446 -347.55578613 456.36895752 C-347.4967473 451.91322288 -347.44300766 449.29179625 -345.09179688 445.42114258 C-342.83240007 443.41358096 -341.97661648 442.90116703 -339 443 C-338.34 442.99871094 -337.68 442.99742187 -337 442.99609375 C-333.86991039 443.88254491 -332.92748246 444.8835552 -331 447.5625 C-330.36426745 451.25603523 -330.39499737 454.93106088 -330.390625 458.671875 C-330.37408875 459.75382141 -330.35755249 460.83576782 -330.34051514 461.95050049 C-330.29194899 465.40455758 -330.27064434 468.85817411 -330.25 472.3125 C-330.22184764 474.65497018 -330.19192126 476.99741977 -330.16015625 479.33984375 C-330.08284887 485.08093355 -330.04240678 490.82062166 -330 496.5625 C-315.48 496.8925 -300.96 497.2225 -286 497.5625 C-286.03480469 493.65019531 -286.06960938 489.73789062 -286.10546875 485.70703125 C-286.12886552 481.91756927 -286.1470815 478.12811534 -286.16479492 474.33862305 C-286.17988057 471.70512286 -286.20035166 469.07164779 -286.22631836 466.43823242 C-286.26271019 462.65276896 -286.2797289 458.86763773 -286.29296875 455.08203125 C-286.31619453 453.3161541 -286.31619453 453.3161541 -286.33988953 451.51460266 C-286.34011612 450.41383896 -286.34034271 449.31307526 -286.34057617 448.17895508 C-286.34723801 447.21298904 -286.35389984 446.24702301 -286.36076355 445.25178528 C-285.93065233 442.04555294 -284.88855761 440.16676203 -283 437.5625 C-279.90826248 436.01663124 -277.40570448 436.26890479 -274 436.5625 C-259.5912835 450.9712165 -270 477.18549771 -270 497.5625 C-178.26 497.5625 -86.52 497.5625 8 497.5625 C7.34 494.2625 6.68 490.9625 6 487.5625 C5.72069473 485.84082306 5.45791738 484.11617188 5.22799683 482.38720703 C5.0471756 481.04569328 5.0471756 481.04569328 4.86270142 479.67707825 C4.73898163 478.73434555 4.61526184 477.79161285 4.48779297 476.8203125 C4.35095093 475.79793991 4.21410889 474.77556732 4.07312012 473.72221375 C3.62630046 470.37772356 3.18415392 467.03263469 2.7421875 463.6875 C2.43141129 461.35242456 2.12038241 459.01738273 1.80911255 456.68237305 C1.15995639 451.8075563 0.51295915 446.93245978 -0.13232422 442.05712891 C-0.96087706 435.79750821 -1.7934784 429.53843458 -2.62750435 423.27954102 C-3.26856485 418.46716913 -3.90820193 413.654609 -4.54732895 408.84197998 C-4.8540636 406.53257526 -5.16108268 404.2232083 -5.4683876 401.91387939 C-5.89580149 398.69927372 -6.32146569 395.48444146 -6.74658203 392.26953125 C-6.87435028 391.31060471 -7.00211853 390.35167816 -7.13375854 389.36369324 C-7.24866638 388.49190933 -7.36357422 387.62012543 -7.48196411 386.72192383 C-7.58260729 385.96244949 -7.68325047 385.20297516 -7.78694344 384.42048645 C-8 382.5625 -8 382.5625 -8 380.5625 C-8.70125 380.52125 -9.4025 380.48 -10.125 380.4375 C-14.1125089 379.22391033 -16.58739568 376.93731602 -19 373.5625 C-21.62691961 367.86632723 -21.44296154 361.84646802 -21.625 355.6875 C-21.66367187 354.61757813 -21.70234375 353.54765625 -21.7421875 352.4453125 C-21.83602452 349.81787592 -21.92171557 347.19043829 -22 344.5625 C-22.63687744 344.82877197 -23.27375488 345.09504395 -23.92993164 345.36938477 C-89.87310614 372.77150691 -161.17175094 377.33431589 -228.3125 350.25 C-235.48736477 347.26143894 -242.47856272 343.95820955 -249.375 340.375 C-250.12950439 339.9833667 -250.88400879 339.5917334 -251.66137695 339.18823242 C-256.19403179 336.75219125 -260.14264944 334.02380322 -264.07104492 330.69360352 C-267.357232 328.7666443 -270.18246969 329.49401034 -273.7421875 330.40625 C-284.97741208 334.39381172 -295.22178452 339.36118323 -304 347.5625 C-304.77730469 348.26117188 -305.55460937 348.95984375 -306.35546875 349.6796875 C-312.02995297 355.02149676 -316.15819497 360.80323401 -320 367.5625 C-320.46277344 368.36429687 -320.92554688 369.16609375 -321.40234375 369.9921875 C-328.54834519 383.24161266 -330.18912431 397.29900859 -330.34179688 412.08789062 C-330.55156491 418.92242599 -330.55156491 418.92242599 -332.828125 422.171875 C-336.09254906 424.2620458 -338.20990211 424.16093651 -342 423.5625 C-344.8254405 421.54081326 -346.70430629 419.95505424 -347.44702148 416.45727539 C-347.60534516 413.89011362 -347.58853656 411.38307317 -347.5 408.8125 C-347.4808252 407.88091064 -347.46165039 406.94932129 -347.44189453 405.98950195 C-346.53823965 377.37294979 -335.14568323 353.55234141 -314.5234375 333.71484375 C-304.15542498 324.15566286 -290.10381054 316.13157121 -276 314.5625 C-276.32226562 313.74136719 -276.64453125 312.92023438 -276.9765625 312.07421875 C-280.36045231 300.46308539 -278.24605151 288.6698046 -272.75 278.17578125 C-260.52046817 257.71216123 -230.02021602 249.27293984 -209 240.5625 C-209.38236816 239.99402344 -209.76473633 239.42554688 -210.15869141 238.83984375 C-220.42479669 223.51901643 -229.36552414 207.90679793 -235.3125 190.375 C-235.54283936 189.69977295 -235.77317871 189.0245459 -236.01049805 188.32885742 C-239.9874803 176.01845547 -241.46823936 164.24653166 -241.43359375 151.3671875 C-241.43817542 149.84326958 -241.44348673 148.3193537 -241.44947815 146.79544067 C-241.45834039 143.62037707 -241.45606877 140.44556584 -241.44604492 137.27050781 C-241.43687863 134.05897906 -241.44372768 130.84817882 -241.46655273 127.63671875 C-241.69767951 94.9592966 -238.74451997 66.78832619 -217 40.5625 C-216.54238281 39.97082031 -216.08476562 39.37914062 -215.61328125 38.76953125 C-198.97194835 17.93210295 -170.00727684 5.34254595 -144.1875 2.22265625 C-112.90463551 -0.94907862 -83.77635835 8.42891332 -59.3125 28 C-37.33831809 46.55044252 -25.17200586 70.46003746 -22.39038086 99.04321289 C-21.56657004 109.2588209 -21.66672326 119.52520893 -21.68432617 129.7668457 C-21.68749716 133.62154162 -21.66390378 137.47547582 -21.63867188 141.33007812 C-21.59398145 158.25139999 -22.51035834 173.85583316 -28.125 189.9375 C-28.4243042 190.80979248 -28.7236084 191.68208496 -29.03198242 192.58081055 C-34.47743856 207.9801768 -41.97730132 221.98724348 -51 235.5625 C-51.58467041 236.44301025 -51.58467041 236.44301025 -52.18115234 237.34130859 C-53.11863388 238.74979534 -54.05898991 240.15636822 -55 241.5625 C-54.29496338 241.67730713 -53.58992676 241.79211426 -52.86352539 241.91040039 C-49.75055719 242.61930465 -47.09997264 243.69895525 -44.18359375 244.99609375 C-43.08982422 245.48013672 -41.99605469 245.96417969 -40.86914062 246.46289062 C-39.73669922 246.97013672 -38.60425781 247.47738281 -37.4375 248 C-36.30119141 248.50337891 -35.16488281 249.00675781 -33.99414062 249.52539062 C-29.62309787 251.4672167 -25.27161933 253.41010335 -21 255.5625 C-21.00368717 254.99173453 -21.00737434 254.42096907 -21.01117325 253.83290768 C-21.09961574 239.92740413 -21.16549838 226.02195005 -21.20724869 212.11622524 C-21.22785006 205.39142679 -21.2559238 198.6668164 -21.30175781 191.94213867 C-21.34523717 185.45174731 -21.36914193 178.96155124 -21.37950897 172.47102547 C-21.38689648 169.99550363 -21.4013225 167.5199924 -21.42292023 165.04455376 C-21.45198084 161.5756106 -21.45595473 158.10747315 -21.45410156 154.63842773 C-21.46848267 153.61631195 -21.48286377 152.59419617 -21.49768066 151.54110718 C-21.46610935 146.07501967 -20.9138093 142.90728086 -17.90870667 138.38019466 C-15.99764697 134.55748361 -16.45056404 130.19198727 -16.48583984 126.0090332 C-16.47871475 124.97080414 -16.47158966 123.93257507 -16.46424866 122.86288452 C-16.44501765 119.44615471 -16.45323669 116.03004695 -16.4609375 112.61328125 C-16.45102981 110.23389279 -16.4390883 107.854512 -16.42520142 105.47514343 C-16.39286094 99.22135142 -16.38244847 92.96773459 -16.37835693 86.71386719 C-16.3695945 76.69346193 -16.33417305 66.6732003 -16.2861824 56.65291405 C-16.27357648 53.1518813 -16.2743568 49.65102953 -16.27645874 46.14997864 C-16.26988005 44.00924539 -16.26287412 41.86851341 -16.25537109 39.7277832 C-16.26155708 38.2650573 -16.26155708 38.2650573 -16.26786804 36.77278137 C-16.2624852 35.87708435 -16.25710236 34.98138733 -16.2515564 34.05854797 C-16.25122091 33.28227208 -16.25088543 32.50599619 -16.25053978 31.70619678 C-15.96015828 29.22160175 -15.37197774 27.65272703 -14 25.5625 C-10.875 24.3125 -10.875 24.3125 -8 23.5625 C-8.02094727 23.00788086 -8.04189453 22.45326172 -8.06347656 21.88183594 C-8.14683548 19.35890977 -8.19871868 16.83627351 -8.25 14.3125 C-8.28351563 13.43980469 -8.31703125 12.56710937 -8.3515625 11.66796875 C-8.45002581 5.21862171 -8.45002581 5.21862171 -6.234375 1.98828125 C-3.91504019 0.50828613 -2.72408262 -0.00532047 0 0 Z M-205.70605469 52.05273438 C-209.00542279 55.90241218 -211.56587158 60.132648 -214 64.5625 C-214.45890625 65.38363281 -214.9178125 66.20476562 -215.390625 67.05078125 C-223.29810874 81.98449301 -225.31811792 97.12255884 -225.3359375 113.828125 C-225.34238938 115.27480186 -225.34911936 116.7214775 -225.35610962 118.16815186 C-225.36799603 121.18358375 -225.37179945 124.19890185 -225.37060547 127.21435547 C-225.37040275 131.03087809 -225.39769494 134.84665226 -225.43214989 138.6629982 C-225.4546607 141.64720851 -225.45843573 144.63124551 -225.45738602 147.61553192 C-225.45970623 149.02020595 -225.46832064 150.42488753 -225.48405075 151.8294754 C-225.83308964 186.20964315 -206.89626396 219.81942707 -183.8125 244.1875 C-177.8340088 250.05683336 -171.21513141 254.35660632 -164 258.5625 C-162.94039062 259.20832031 -162.94039062 259.20832031 -161.859375 259.8671875 C-147.53637411 267.90052278 -128.94208008 268.93493162 -113.2890625 264.734375 C-102.88931484 261.02900172 -93.29358591 255.88221787 -85 248.5625 C-84.21625 247.92054688 -83.4325 247.27859375 -82.625 246.6171875 C-59.36896465 226.92223256 -40.91828139 192.02220459 -38 161.5625 C-37.84400635 157.35425376 -37.83605825 153.14832126 -37.83203125 148.9375 C-37.82870285 147.71780518 -37.82537445 146.49811035 -37.82194519 145.24145508 C-37.81689228 142.66276424 -37.81453636 140.08406688 -37.81469727 137.50537109 C-37.81252298 133.60372815 -37.79438308 129.70237379 -37.77539062 125.80078125 C-37.70485805 95.08464465 -41.8416399 68.77709413 -63.6875 45.4375 C-80.68844132 29.33660852 -103.46459994 18.64947631 -127 17.5625 C-127.66257812 17.52253906 -128.32515625 17.48257812 -129.0078125 17.44140625 C-158.47893822 16.51703515 -186.16948389 30.623771 -205.70605469 52.05273438 Z M-5 149.5625 C-5.02332539 177.5777462 -5.0409774 205.59299095 -5.05181217 233.6082449 C-5.0569759 246.61521669 -5.06402004 259.62218246 -5.07543945 272.62915039 C-5.08538396 283.96154235 -5.09185287 295.29392995 -5.09408849 306.62632614 C-5.095396 312.63077176 -5.09848435 318.6352049 -5.10573006 324.63964653 C-5.1124866 330.28412969 -5.11461771 335.92859516 -5.11310768 341.57308197 C-5.11338418 343.65124927 -5.11539145 345.72941713 -5.11920547 347.80758095 C-5.12413702 350.63174749 -5.12300029 353.45584612 -5.12025452 356.28001404 C-5.12316736 357.11365508 -5.1260802 357.94729612 -5.12908131 358.80619901 C-5.47068548 362.48536592 -5.47068548 362.48536592 -4 365.5625 C-1.92737924 365.65017112 0.14820294 365.66945873 2.22265625 365.66015625 C3.48271484 365.65693359 4.74277344 365.65371094 6.04101562 365.65039062 C7.38151109 365.64203403 8.72200588 365.63356907 10.0625 365.625 C11.40689942 365.6199866 12.7513006 365.61542342 14.09570312 365.61132812 C17.39717941 365.59949488 20.69856803 365.58300971 24 365.5625 C24.0936013 347.87266863 24.16405638 330.18290187 24.20724869 312.49287605 C24.22784014 304.27836942 24.25589501 296.064017 24.30175781 287.84960938 C24.34173065 280.68670509 24.36745764 273.52391254 24.37635398 266.36089981 C24.38155115 262.57100642 24.39369413 258.78143258 24.42292023 254.991642 C24.45025503 251.41783493 24.45840903 247.84447626 24.45243073 244.27057457 C24.45404017 242.34729133 24.47546788 240.42405591 24.49768066 238.50090027 C24.45228742 228.87117212 22.46986288 221.1929824 16.5 213.5 C11.45895192 206.63076066 7.96031113 199.49867873 7.79467773 190.88574219 C7.77473251 189.96508972 7.75478729 189.04443726 7.73423767 188.09588623 C7.71752518 187.11033752 7.70081268 186.12478882 7.68359375 185.109375 C7.66281265 184.09401672 7.64203156 183.07865845 7.62062073 182.03253174 C7.55529403 178.79258927 7.49631863 175.55256652 7.4375 172.3125 C7.39429874 170.11457507 7.35068393 167.91665822 7.30664062 165.71875 C7.19962988 160.33341539 7.09831478 154.9480001 7 149.5625 C3.04 149.5625 -0.92 149.5625 -5 149.5625 Z M80.22265625 232.21484375 C79.15337891 233.34599609 79.15337891 233.34599609 78.0625 234.5 C73.03020947 239.63646215 67.63365823 244.10494052 62 248.5625 C60.82263188 249.50745778 59.64556091 250.45278588 58.46875 251.3984375 C57.25048371 252.37039826 56.03173964 253.3417605 54.8125 254.3125 C54.25473877 254.76028809 53.69697754 255.20807617 53.12231445 255.66943359 C52.572771 256.10336426 52.02322754 256.53729492 51.45703125 256.984375 C50.90805176 257.42241455 50.35907227 257.8604541 49.79345703 258.31176758 C48 259.5625 48 259.5625 45.81201172 260.5690918 C43.43272614 261.70345134 41.79747376 262.62393331 40 264.5625 C39.00769967 268.7007174 39.24321175 272.65033953 39.5 276.875 C39.53609375 277.99712891 39.5721875 279.11925781 39.609375 280.27539062 C39.70353179 283.04124621 39.83487339 285.80012241 40 288.5625 C50.79593158 282.82716135 60.39915325 276.10304567 70 268.5625 C70.96679688 267.81097656 71.93359375 267.05945313 72.9296875 266.28515625 C78.52869407 261.82422669 83.81626834 257.05326311 89.0625 252.1875 C90.04682007 251.27605225 90.04682007 251.27605225 91.05102539 250.34619141 C91.66453857 249.77046387 92.27805176 249.19473633 92.91015625 248.6015625 C93.45808838 248.08803223 94.00602051 247.57450195 94.57055664 247.04541016 C96.22662852 245.41548158 96.22662852 245.41548158 98 242.5625 C96.41856529 241.12291153 94.83477221 239.68591355 93.25 238.25 C92.36828125 237.44949219 91.4865625 236.64898437 90.578125 235.82421875 C85.75412355 230.7129316 85.75412355 230.7129316 80.22265625 232.21484375 Z M-204.1953125 256.125 C-204.81547745 256.39194672 -205.4356424 256.65889343 -206.07460022 256.93392944 C-208.09350009 257.80536191 -210.10952521 258.6831771 -212.125 259.5625 C-212.80817291 259.85972961 -213.49134583 260.15695923 -214.19522095 260.4631958 C-224.2862684 264.85947524 -234.3313384 269.28761657 -244 274.5625 C-245.05058594 275.13097656 -246.10117188 275.69945312 -247.18359375 276.28515625 C-253.93775568 280.22284162 -259.14451747 284.87006284 -261.6328125 292.50390625 C-262.89200871 299.56344244 -262.9161053 307.36092998 -259 313.5625 C-238.09853208 339.6760388 -188.06384892 347.7263645 -157 351.5625 C-113.74134914 356.19225996 -58.16870326 350.3416355 -21 325.5625 C-20.56187253 323.26354926 -20.56187253 323.26354926 -20.65942383 320.56201172 C-20.65976372 319.00061966 -20.65976372 319.00061966 -20.66011047 317.40768433 C-20.67559433 316.28057037 -20.69107819 315.15345642 -20.70703125 313.9921875 C-20.71127609 312.84082306 -20.71552094 311.68945862 -20.71989441 310.50320435 C-20.73672948 306.81440145 -20.77439126 303.12613864 -20.8125 299.4375 C-20.82754056 296.94141412 -20.84123005 294.44531971 -20.85351562 291.94921875 C-20.8866488 285.82012725 -20.93689611 279.6913522 -21 273.5625 C-37.71053853 265.53546211 -37.71053853 265.53546211 -54.5625 257.8125 C-55.53123047 257.36390625 -56.49996094 256.9153125 -57.49804688 256.453125 C-58.42810547 256.040625 -59.35816406 255.628125 -60.31640625 255.203125 C-61.12537354 254.83735352 -61.93434082 254.47158203 -62.76782227 254.09472656 C-65.00422246 253.34169735 -65.00422246 253.34169735 -67.09204102 254.34790039 C-67.72166748 254.74871826 -68.35129395 255.14953613 -69 255.5625 C-70.05960938 256.15417969 -71.11921875 256.74585938 -72.2109375 257.35546875 C-74.47848416 259.30653048 -74.96665377 260.39041068 -75.54394531 263.36962891 C-75.73838921 266.88989536 -75.71887861 270.3507971 -75.625 273.875 C-75.63466797 275.67227539 -75.63466797 275.67227539 -75.64453125 277.50585938 C-75.55820219 284.62800666 -74.86554169 289.53511833 -71 295.5625 C-68.3728654 298.12049948 -66.03100145 299.54699928 -62.75 301.1875 C-60 302.5625 -60 302.5625 -59 304.5625 C-58.37082423 308.05792095 -58.2601615 310.46280048 -60.29296875 313.484375 C-76.75610582 331.03569384 -103.42765987 340.86280796 -127.08984375 341.74609375 C-152.98112736 342.33233361 -176.72810474 334.71930171 -197 318.5625 C-197.72316406 318.03785156 -198.44632813 317.51320313 -199.19140625 316.97265625 C-202.60045967 314.37626607 -203.82619808 313.19253196 -205 308.9375 C-205 306.1923792 -204.92199886 304.12360793 -204 301.5625 C-202.948125 301.335625 -201.89625 301.10875 -200.8125 300.875 C-195.80982149 299.43988819 -193.22889877 296.27418043 -190.25 292.125 C-186.15670543 283.73374614 -186.56431407 270.63763231 -188 261.5625 C-190.02025064 257.77050335 -192.15337562 255.49353633 -196 253.5625 C-199.06129228 253.5625 -201.39339791 254.91634643 -204.1953125 256.125 Z M-172 272.5625 C-172.09796875 273.81804687 -172.1959375 275.07359375 -172.296875 276.3671875 C-173.40005596 289.1940685 -175.66579884 298.80166386 -183 309.5625 C-165.57419122 323.133752 -143.8666894 328.56659586 -121.99609375 326.36035156 C-107.67951814 324.50423975 -92.53123912 319.43103213 -81 310.5625 C-81 307.00533021 -81.74789788 306.24053646 -83.8125 303.4375 C-90.43345098 293.66222803 -90.61763938 284.04650357 -91 272.5625 C-94.58774118 273.72233012 -98.04845658 274.98691142 -101.5 276.5 C-125.33783313 285.92918733 -148.91400466 281.82687995 -172 272.5625 Z M44.375 304.0625 C42.93125 304.8875 41.4875 305.7125 40 306.5625 C40 312.5025 40 318.4425 40 324.5625 C47.04416396 327.73806172 47.04416396 327.73806172 51 327.5625 C51 318.9825 51 310.4025 51 301.5625 C48.25748805 301.5625 46.74494155 302.70824768 44.375 304.0625 Z M40 341.5625 C40 344.5325 40 347.5025 40 350.5625 C51.63682723 355.87052645 63.85561636 359.61012478 76 363.5625 C76.66 360.5925 77.32 357.6225 78 354.5625 C68.49618852 351.03638773 58.98671269 347.52660182 49.4375 344.125 C48.71828369 343.86638184 47.99906738 343.60776367 47.25805664 343.34130859 C43.71622914 342.01669006 43.71622914 342.01669006 40 341.5625 Z M40 368.5625 C40.64256748 375.25223546 42.70475296 381.35621657 44.7890625 387.72265625 C45.17057465 388.90355331 45.55208679 390.08445038 45.94515991 391.3011322 C46.9609749 394.44218227 47.98161123 397.58160897 49.00476074 400.72027588 C50.01862203 403.8337938 51.02665645 406.94919519 52.03515625 410.06445312 C53.219224 413.72151745 54.40376096 417.37842252 55.59063721 421.03457642 C59.10498614 431.8631375 62.56347298 442.70902325 66 453.5625 C66.33 453.5625 66.66 453.5625 67 453.5625 C67.09354323 446.12904801 67.16418545 438.69565862 67.20724869 431.26174831 C67.22793894 427.80815469 67.2559058 424.35496981 67.30175781 420.90161133 C68.47593148 396.67206449 68.47593148 396.67206449 60 374.5625 C58.1801745 373.37164375 58.1801745 373.37164375 56.09375 372.76171875 C54.97806641 372.37983398 54.97806641 372.37983398 53.83984375 371.99023438 C53.06769531 371.74595703 52.29554688 371.50167969 51.5 371.25 C50.72785156 370.98638672 49.95570313 370.72277344 49.16015625 370.45117188 C45.93334734 369.37463684 43.42981445 368.5625 40 368.5625 Z M9 381.5625 C9.62786863 391.65400897 10.68053349 401.61162937 12.03125 411.62890625 C12.22952794 413.12145301 12.42747872 414.61404327 12.62512207 416.10667419 C13.03607834 419.2037091 13.44976625 422.30036128 13.86572266 425.39672852 C14.39766449 429.35692218 14.92438895 433.31778767 15.44931793 437.27891636 C15.85626635 440.34775958 16.26502447 443.41635941 16.67442322 446.48487663 C16.86932339 447.94601791 17.06387774 449.40720535 17.2580719 450.86844063 C17.52907214 452.90414359 17.80228801 454.93953676 18.07617188 456.97485352 C18.23081909 458.12953629 18.38546631 459.28421906 18.5447998 460.47389221 C18.94423197 463.18410477 19.46274207 465.87621035 20 468.5625 C30.23 465.9225 40.46 463.2825 51 460.5625 C50.26701865 455.43163054 49.45945363 451.41565999 47.8828125 446.58911133 C47.66969421 445.93127151 47.45657593 445.2734317 47.23699951 444.59565735 C46.53835167 442.44349789 45.8316969 440.29405961 45.125 438.14453125 C44.63503845 436.63971766 44.14562658 435.13472499 43.65673828 433.62956238 C42.3732233 429.68233304 41.08307651 425.73730468 39.79125977 421.79278564 C37.72202932 415.47001293 35.66377115 409.14365611 33.60394287 402.81781578 C32.88496236 400.6125874 32.16366667 398.40812769 31.44189453 396.20381165 C31.00030329 394.85178338 30.55873315 393.49974823 30.1171875 392.14770508 C29.73159668 390.96968826 29.34600586 389.79167145 28.94873047 388.57795715 C28.22033344 386.26281066 27.58864078 383.91706313 27 381.5625 C21.06 381.5625 15.12 381.5625 9 381.5625 Z M41.06616211 478.87060547 C38.94385496 479.43580758 36.81879441 479.98966216 34.69335938 480.54296875 C33.34617091 480.90035157 31.99915933 481.25840199 30.65234375 481.6171875 C29.42507568 481.94187012 28.19780762 482.26655273 26.93334961 482.60107422 C23.91583594 483.34552786 23.91583594 483.34552786 22 485.5625 C22.2006964 488.25043893 22.2006964 488.25043893 22.875 491.1875 C23.07867187 492.19039063 23.28234375 493.19328125 23.4921875 494.2265625 C23.74355469 495.38285156 23.74355469 495.38285156 24 496.5625 C33.0347588 494.51538377 42.04418029 492.37065816 51 490 C51.78294434 489.80253174 52.56588867 489.60506348 53.37255859 489.40161133 C55.27740149 488.88579601 57.14469158 488.2350493 59 487.5625 C60.15957207 484.08378379 59.77456651 483.22030355 58.5625 479.875 C58.27503906 479.06675781 57.98757813 478.25851562 57.69140625 477.42578125 C57.34916016 476.50345703 57.34916016 476.50345703 57 475.5625 C51.55860693 475.5625 46.30257299 477.47171747 41.06616211 478.87060547 Z " fill="#000000" transform="translate(372,-0.5625)"/>
<path d="M0 0 C1.14227554 -0.00992981 2.28455109 -0.01985962 3.46144104 -0.03009033 C7.23457263 -0.0592613 11.00753596 -0.07292652 14.78076172 -0.08398438 C17.41144818 -0.0954947 20.04213462 -0.10701008 22.67282104 -0.11853027 C27.48464902 -0.13765041 32.29644096 -0.14945726 37.10830224 -0.15552378 C44.16234345 -0.16446898 51.21560643 -0.1995 58.26941121 -0.25752497 C64.40328373 -0.30620803 70.53683849 -0.321424 76.67089462 -0.32487488 C79.26789456 -0.33090628 81.86489208 -0.34688996 84.46176529 -0.37324524 C88.10660966 -0.40759084 91.74958803 -0.40355298 95.39453125 -0.390625 C96.45469955 -0.40905457 97.51486786 -0.42748413 98.60716248 -0.44647217 C107.42939447 -0.3490945 115.1394955 2.40397942 121.82835579 8.29897308 C128.29374398 15.05394195 131.27672079 22.85811658 131.73779297 32.13867188 C131.29960977 41.29557713 128.21554463 48.58862783 122.07373047 55.32226562 C114.02219507 61.7938294 106.14138395 63.53087838 96.02294922 65.00976562 C94.76675781 65.20892578 93.51056641 65.40808594 92.21630859 65.61328125 C88.343542 66.21685499 84.46665382 66.77575333 80.58544922 67.32226562 C79.29622559 67.51208008 78.00700195 67.70189453 76.67871094 67.89746094 C66.70823259 69.27584536 56.89574413 69.71981288 46.83544922 69.69726562 C46.03951355 69.69771881 45.24357788 69.698172 44.42352295 69.69863892 C30.17585922 69.6750342 16.44315445 68.38094344 2.40380859 65.83056641 C-0.0992578 65.3791298 -2.60279236 64.97816435 -5.11767578 64.59960938 C-15.14025348 62.93250731 -22.71658403 59.9143861 -29.35205078 52.00976562 C-35.22225625 43.68902626 -36.5185928 35.41811652 -35.41455078 25.32226562 C-32.90997598 15.64060283 -28.08494117 8.99792303 -19.79345703 3.58398438 C-13.23051801 0.10314808 -7.27221316 0.01516218 0 0 Z M-17.41455078 23.32226562 C-20.03450891 26.94030304 -19.94745797 31.01737472 -19.41455078 35.32226562 C-17.65987904 40.03217399 -15.45989616 43.32871004 -11.41455078 46.32226562 C19.00086554 55.31706862 51.56243432 55.5072605 82.71044922 51.00976562 C83.44956543 50.90334747 84.18868164 50.79692932 84.95019531 50.68728638 C100.06590378 48.95534012 100.06590378 48.95534012 112.58544922 41.32226562 C115.10417528 37.14022989 115.93999253 33.52340073 115.08544922 28.69726562 C113.81514121 24.28541745 112.05619618 21.42378419 108.58544922 18.32226562 C102.28323411 15.32837106 96.12560148 14.88854069 89.25146484 14.93408203 C87.76425179 14.92619659 87.76425179 14.92619659 86.24699402 14.91815186 C82.99506511 14.90503232 79.74363243 14.91366152 76.49169922 14.92382812 C74.21683662 14.92180508 71.94197465 14.91889173 69.66711426 14.91513062 C64.90952351 14.91071815 60.15210223 14.91710372 55.39453125 14.93115234 C49.31185667 14.94824337 43.22957928 14.93839643 37.14691925 14.92043495 C32.45246414 14.90956809 27.75810241 14.9130568 23.06364441 14.92081833 C20.8214666 14.9228123 18.57928017 14.92038942 16.33711243 14.91337967 C13.19765935 14.90571747 10.05883978 14.91743641 6.91943359 14.93408203 C6.00280441 14.92800934 5.08617523 14.92193665 4.14176941 14.91567993 C-4.413482 14.99924917 -11.82487925 16.37752221 -17.41455078 23.32226562 Z " fill="#000000" transform="translate(192.41455078125,95.677734375)"/>
<path d="M0 0 C1.06154297 -0.0309375 1.06154297 -0.0309375 2.14453125 -0.0625 C6.67950401 -0.09628006 9.54563357 0.42348924 13.125 3.25 C15.125 6.25 15.125 6.25 14.9375 9.75 C14.11954375 13.27350386 13.90750212 14.18097976 11.125 16.25 C7.51000337 16.88599654 3.85216506 16.71332403 0.1875 16.6875 C-1.31586914 16.7174707 -1.31586914 16.7174707 -2.84960938 16.74804688 C-10.14961445 16.74317696 -10.14961445 16.74317696 -13.53515625 14.44140625 C-15.51811797 11.19813649 -15.40641584 8.96991089 -14.875 5.25 C-10.82604594 -0.05552601 -6.24450632 0.04500545 0 0 Z " fill="#000000" transform="translate(279.875,121.75)"/>
<path d="M0 0 C0.70318359 -0.020625 1.40636719 -0.04125 2.13085938 -0.0625 C6.63638346 -0.09628087 9.51543667 0.42032026 13.0625 3.25 C14.73604451 6.59708903 15.2880613 8.34775482 14.375 12 C13.0625 14.25 13.0625 14.25 10.0625 16.25 C6.59861866 16.70642994 3.11579246 16.62030492 -0.375 16.625 C-1.80682617 16.66173828 -1.80682617 16.66173828 -3.26757812 16.69921875 C-10.23944055 16.72849179 -10.23944055 16.72849179 -13.5703125 14.4453125 C-15.57099621 11.23278608 -15.40071337 8.95570698 -14.9375 5.25 C-13.67152651 2.84465036 -12.90271829 1.60056354 -10.32421875 0.6640625 C-6.88855373 0.06802242 -3.4762583 0.02535102 0 0 Z " fill="#000000" transform="translate(200.9375,121.75)"/>
</svg>
