<?xml version="1.0" encoding="UTF-8"?>
<svg version="1.1" xmlns="http://www.w3.org/2000/svg" width="512" height="512">
<path d="M0 0 C1.82337891 -0.03287109 1.82337891 -0.03287109 3.68359375 -0.06640625 C15.52280647 1.85314385 23.28942818 11.72102107 31.3359375 19.83984375 C32.7501261 21.25387717 34.16498323 22.66724226 35.58047485 24.07997131 C38.53351631 27.03163353 41.47950693 29.99010226 44.42041016 32.95385742 C48.18450469 36.74639985 51.96403389 40.52310411 55.74872398 44.29508114 C58.66774618 47.20714122 61.57934122 50.12653561 64.48866653 53.04828072 C65.87963201 54.44375087 67.2726772 55.83715132 68.66785812 57.22840691 C70.61595037 59.17358017 72.55403411 61.12820973 74.48974609 63.08569336 C75.06326813 63.65471375 75.63679016 64.22373413 76.22769165 64.80999756 C80.92449252 69.59463459 83.99726864 74.12933727 83.9375 81.0625 C83.94523437 81.9596875 83.95296875 82.856875 83.9609375 83.78125 C82.84419728 91.5765347 77.3124785 96.20714646 71.95703125 101.4609375 C71.11782639 102.29589752 70.27862152 103.13085754 69.41398621 103.99111938 C66.74130281 106.6470576 64.05836009 109.29235345 61.375 111.9375 C59.55725533 113.74019256 57.74019 115.54357041 55.92382812 117.34765625 C51.4778941 121.7605761 47.02349862 126.16481224 42.5625 130.5625 C43.45040852 130.56581015 44.33831703 130.56912029 45.25313187 130.57253075 C66.84362713 130.65370043 88.43405178 130.74577303 110.02444839 130.85002708 C120.46533997 130.90017949 130.90622359 130.9466221 141.34716797 130.984375 C150.44596985 131.01728427 159.54471047 131.05710959 168.64344478 131.10529006 C173.46252227 131.13056562 178.28155906 131.1523438 183.10068512 131.16584396 C187.63473534 131.1786547 192.16864606 131.20069844 196.70261955 131.22988319 C198.36830832 131.2389667 200.03401956 131.244651 201.69973183 131.24671364 C203.97122468 131.25003074 206.2423207 131.26549287 208.51373291 131.2840271 C209.78580723 131.28955786 211.05788155 131.29508862 212.36850357 131.30078697 C215.39001757 131.54836695 217.064556 131.90672719 219.5625 133.5625 C221.65929403 136.25837803 221.55760821 137.655444 221.375 141.125 C220.30163043 145.66617893 220.30163043 145.66617893 217.5625 147.5625 C213.98819613 148.75393462 210.79308454 148.65455673 207.07849121 148.59286499 C206.30937519 148.58439722 205.54025916 148.57592944 204.74783659 148.56720507 C203.05916029 148.5481316 201.37050896 148.52674536 199.68188667 148.5033741 C194.98437565 148.43868684 190.28667042 148.39140532 185.58898926 148.34091187 C184.58594065 148.3296306 183.58289204 148.31834934 182.54944801 148.30672622 C169.69123928 148.16534324 156.83251046 148.11576348 143.97367573 148.06482005 C131.45973067 148.01500005 118.94789316 147.93548832 106.43505859 147.75683594 C96.49417748 147.61506584 86.55539233 147.54144299 76.61346483 147.54645598 C71.35759007 147.54667441 66.10681628 147.51405284 60.85209656 147.39899826 C35.95255068 146.00348291 35.95255068 146.00348291 13.91186237 155.57473469 C7.07256129 162.46907849 2.58407603 170.05391799 2.35129356 179.89710617 C2.41250344 182.21260171 2.5554394 184.5130772 2.70703125 186.82421875 C2.73510341 188.29400777 2.75440244 189.76399002 2.76501465 191.23400879 C2.86306852 196.57564322 3.12833801 201.91316285 3.375 207.25 C3.766875 219.233125 4.15875 231.21625 4.5625 243.5625 C51.4225 243.8925 98.2825 244.2225 146.5625 244.5625 C146.36462902 217.14294254 146.36462902 217.14294254 146.11206055 189.72387695 C146.08947754 184.41442871 146.08947754 184.41442871 146.08528137 181.92692566 C146.07761548 180.19374674 146.06005444 178.46059411 146.03462219 176.72758484 C145.99797353 174.09827536 145.9929711 171.47059141 145.99487305 168.84106445 C145.96788723 167.6876366 145.96788723 167.6876366 145.94035625 166.51090717 C145.97815046 162.6028202 146.42937373 160.73953951 148.80255127 157.58354187 C151.67414918 155.48074208 152.8072891 154.93825624 156.28930664 154.94726562 C157.65080589 154.9333075 157.65080589 154.9333075 159.03981018 154.91906738 C160.00764938 154.93546265 160.97548859 154.95185791 161.97265625 154.96875 C162.97711288 154.96870972 163.98156952 154.96866943 165.01646423 154.96862793 C167.1354703 154.97397955 169.2544761 154.99154687 171.37329102 155.02050781 C174.61731551 155.06240076 177.85926595 155.06157185 181.10351562 155.0546875 C183.16407693 155.06517896 185.22462754 155.07811683 187.28515625 155.09375 C188.25501968 155.09395142 189.22488312 155.09415283 190.22413635 155.09436035 C191.12865036 155.11027222 192.03316437 155.12618408 192.96508789 155.14257812 C193.75830948 155.15099731 194.55153107 155.1594165 195.36878967 155.16809082 C198.14005663 155.66633943 199.51847329 156.64963242 201.5625 158.5625 C202.79533771 162.26101313 202.69411347 165.67181103 202.67602539 169.5222168 C202.67617142 170.33220123 202.67631744 171.14218567 202.6764679 171.97671509 C202.675771 174.65507685 202.66798903 177.33336913 202.66015625 180.01171875 C202.65829128 181.86831118 202.65686775 183.7249041 202.65586853 185.58149719 C202.6520496 190.46905881 202.64222461 195.35659074 202.63116455 200.24414062 C202.62093704 205.23111571 202.61636803 210.21809558 202.61132812 215.20507812 C202.60060181 224.99089847 202.58353284 234.77669676 202.5625 244.5625 C203.45453125 244.53929687 204.3465625 244.51609375 205.265625 244.4921875 C206.43609375 244.47414063 207.6065625 244.45609375 208.8125 244.4375 C209.97265625 244.41429687 211.1328125 244.39109375 212.328125 244.3671875 C215.41632971 244.55367329 217.01801451 244.88014606 219.5625 246.5625 C221.65929403 249.25837803 221.55760821 250.655444 221.375 254.125 C220.55336932 257.60112982 220.32053458 258.51744174 217.5625 260.5625 C215.27241993 260.93164349 215.27241993 260.93164349 212.53218079 260.92326355 C211.49311584 260.92738754 210.4540509 260.93151154 209.38349915 260.9357605 C208.24414413 260.92497467 207.10478912 260.91418884 205.9309082 260.90307617 C204.13071732 260.90373329 204.13071732 260.90373329 202.29415894 260.90440369 C199.00289832 260.90267051 195.71220075 260.88761531 192.42103982 260.86668181 C188.98173442 260.84794047 185.5424217 260.84616659 182.10307312 260.84260559 C175.59010419 260.83327761 169.07728614 260.80865376 162.56438369 260.77855712 C155.14972438 260.74503644 147.73505791 260.72853299 140.32034171 260.71347082 C125.06764039 260.68210477 109.81508964 260.62932977 94.5625 260.5625 C94.58848267 262.22079834 94.58848267 262.22079834 94.61499023 263.91259766 C94.56502069 267.38722446 94.26932606 268.97654274 92.625 271.9375 C92.26535156 272.60523438 91.90570313 273.27296875 91.53515625 273.9609375 C90.5625 275.5625 90.5625 275.5625 89.5625 276.5625 C90.45233597 276.56469984 90.45233597 276.56469984 91.36014843 276.56694412 C105.79923606 276.60400699 120.2381109 276.66301468 134.67700481 276.74640274 C141.65959238 276.78620047 148.64206713 276.81858913 155.62475586 276.83349609 C162.36168446 276.84789925 169.09821302 276.88300174 175.83500099 276.93080902 C178.40701067 276.94566246 180.97907024 276.95354327 183.55112267 276.95438385 C187.14994085 276.95674322 190.74778476 276.98374207 194.34643555 277.01660156 C195.41314484 277.0115712 196.47985413 277.00654083 197.57888794 277.00135803 C204.79603106 277.1035141 204.79603106 277.1035141 208.70491028 279.4442749 C210.89568095 281.94242902 211.48162858 283.24677181 211.5625 286.5625 C210.78963772 289.80852156 210.08099096 291.17244701 207.40262413 293.18734229 C203.95597436 294.85617322 201.56972585 294.93847694 197.74551392 294.94002342 C197.06926995 294.94438374 196.39302598 294.94874407 195.69628978 294.95323652 C193.42574107 294.96420237 191.15579839 294.95376498 188.88525391 294.94345093 C187.24282838 294.94690697 185.60040517 294.95167118 183.95798683 294.95763266 C179.44104733 294.97017964 174.92429748 294.9639555 170.40735722 294.95467401 C165.53748844 294.94789898 160.66765277 294.95835706 155.79779053 294.96661377 C146.25627877 294.97996983 136.71483771 294.97706503 127.17332315 294.96837585 C119.42033208 294.96160707 111.66736085 294.96067909 103.91436768 294.9639473 C102.81189497 294.964407 101.70942226 294.96486669 100.57354128 294.96534032 C98.3340516 294.96629948 96.09456193 294.96727212 93.85507226 294.9682581 C72.84393147 294.97681748 51.83282992 294.96696926 30.82169557 294.950857 C12.78410552 294.93745333 -5.25342662 294.93978126 -23.29101562 294.95361328 C-44.22578447 294.96965941 -65.16051891 294.97599345 -86.09529305 294.96677649 C-88.32665125 294.96582082 -90.55800946 294.96487771 -92.78936768 294.9639473 C-93.88730506 294.96348447 -94.98524245 294.96302164 -96.11645067 294.96254479 C-103.86220841 294.959952 -111.60794436 294.96433212 -119.35369873 294.97138596 C-128.79020565 294.97979041 -138.22663769 294.97754304 -147.66313601 294.96154372 C-152.47991592 294.9536468 -157.29657086 294.95059358 -162.11334991 294.96049118 C-166.5199735 294.9694092 -170.9263559 294.96455315 -175.33295751 294.94855852 C-176.92978846 294.94519842 -178.52663966 294.94693227 -180.12345767 294.95418589 C-182.28943519 294.96327265 -184.45458026 294.95398905 -186.62051392 294.94002342 C-188.42714477 294.93929284 -188.42714477 294.93929284 -190.27027321 294.93854749 C-193.75708887 294.52455495 -195.6450863 293.65560258 -198.4375 291.5625 C-199.96596661 288.50556678 -199.66992445 285.93265453 -199.4375 282.5625 C-197.67734869 279.3774643 -196.93859084 278.72953028 -193.4375 277.5625 C-191.88852275 277.44824862 -190.33538234 277.38632085 -188.7824707 277.35717773 C-187.84172195 277.33723251 -186.90097321 277.31728729 -185.93171692 277.29673767 C-184.41284126 277.27166893 -184.41284126 277.27166893 -182.86328125 277.24609375 C-181.82431198 277.22531265 -180.78534271 277.20453156 -179.71488953 277.18312073 C-176.39332747 277.11769344 -173.07168584 277.05877179 -169.75 277 C-167.4993407 276.95680831 -165.24868948 276.91319381 -162.99804688 276.86914062 C-157.4779489 276.76201902 -151.95777163 276.66023984 -146.4375 276.5625 C-147.13018982 275.88313385 -147.82287964 275.2037677 -148.53656006 274.5038147 C-155.08514863 268.07723104 -161.61755003 261.63457769 -168.13473129 255.17614174 C-171.48524504 251.85684573 -174.84106661 248.54332325 -178.20996094 245.24267578 C-181.465258 242.05291052 -184.70537083 238.84840697 -187.93579865 235.63346481 C-189.16643082 234.41385831 -190.40230381 233.19951508 -191.64360809 231.99077225 C-199.51958787 224.31314784 -206.16933303 217.45676104 -206.875 205.9375 C-205.88566628 189.32251318 -188.07009808 177.03539407 -177.11108398 166.05908203 C-175.35903039 164.30075389 -173.60716368 162.54223953 -171.85546875 160.78355408 C-166.62827304 155.53725669 -161.3968794 150.29516294 -156.16458973 145.05394727 C-154.19046681 143.07630692 -152.21665817 141.09835306 -150.24286536 139.12038324 C-141.52971661 130.38879806 -132.81522679 121.6585539 -124.09670925 112.93232918 C-121.97144566 110.80515612 -119.84618755 108.67797759 -117.72094727 106.55078125 C-117.19281522 106.02216546 -116.66468317 105.49354968 -116.12054712 104.94891523 C-107.54826558 96.36831703 -98.98454932 87.77922291 -90.42433476 79.18658806 C-81.61740787 70.34658046 -72.80295908 61.51413009 -63.98107392 52.6890496 C-59.03513923 47.74095279 -54.09252798 42.78963427 -49.15832329 37.8298378 C-44.52251222 33.17003536 -39.87654819 28.52053611 -35.22357941 23.8778553 C-33.51894857 22.1737205 -31.81773144 20.46616306 -30.12021828 18.75493813 C-27.8008012 16.41783812 -25.46934593 14.09343683 -23.13450623 11.77175903 C-22.46746829 11.09375185 -21.80043035 10.41574467 -21.11317915 9.71719182 C-14.8436486 3.53252902 -9.0076129 -0.00953187 0 0 Z M-11.2203064 23.57667542 C-11.98497368 24.33127719 -12.74964097 25.08587897 -13.53748 25.86334747 C-16.10376465 28.40329499 -18.64800707 30.96423849 -21.19287109 33.52563477 C-23.02500954 35.34800919 -24.85841481 37.16911077 -26.69299316 38.98902893 C-31.16081875 43.42630048 -35.61218351 47.8797402 -40.05778234 52.33926893 C-43.67094829 55.96324667 -47.28973591 59.58151844 -50.91261673 63.19578362 C-51.68572311 63.96707781 -51.68572311 63.96707781 -52.47444779 64.75395371 C-53.52147046 65.79848574 -54.56850329 66.84300759 -55.61554618 67.88751935 C-65.43605192 77.68573652 -75.23768592 87.50266148 -85.03324755 97.32580703 C-93.4397629 105.75503964 -101.86332252 114.16692401 -110.29931641 122.56665039 C-120.09358757 132.31881926 -129.87628569 142.08237267 -139.64139235 151.86375087 C-140.68266928 152.90668747 -141.72396438 153.94960592 -142.76527786 154.99250603 C-143.27763245 155.50564555 -143.78998703 156.01878508 -144.31786751 156.54747428 C-147.93012509 160.16362433 -151.55062309 163.77139539 -155.17444992 167.37594795 C-160.05170396 172.22767297 -164.91023637 177.0974908 -169.7565918 181.98007774 C-171.54041755 183.77157612 -173.33026206 185.55710406 -175.12642288 187.33623505 C-177.57299139 189.76150836 -179.99708827 192.20721179 -182.41659546 194.65943909 C-183.13621912 195.36276558 -183.85584279 196.06609207 -184.59727323 196.79073149 C-187.83822254 200.12041309 -189.3162751 201.68923133 -189.97098637 206.40557957 C-189.33779224 210.15252344 -188.39399304 211.49788753 -185.74438477 214.18701172 C-184.50448288 215.46919586 -184.50448288 215.46919586 -183.23953247 216.77728271 C-182.31486176 217.69640442 -181.39019104 218.61552612 -180.4375 219.5625 C-179.45637518 220.56173684 -178.4765848 221.5622854 -177.49801636 222.56402588 C-174.2001186 225.92534926 -170.86465741 229.24819778 -167.52734375 232.5703125 C-166.30687308 233.78891318 -165.08662663 235.00773848 -163.86659241 236.22677612 C-160.68781986 239.4017692 -157.50605383 242.57374516 -154.3236084 245.74505615 C-151.06349922 248.99485176 -147.80629429 252.24755552 -144.54882812 255.5 C-138.18119006 261.85698158 -131.81037893 268.21077271 -125.4375 274.5625 C-119.64707365 269.75252801 -114.32360951 264.58449348 -109.01391602 259.25244141 C-108.0960582 258.33472961 -107.17820038 257.41701782 -106.23252869 256.47149658 C-103.73491188 253.97416478 -101.240374 251.47377842 -98.74640775 248.97280169 C-96.13238002 246.35249074 -93.51548937 243.73504206 -90.89891052 241.11727905 C-85.95306305 236.16833285 -81.0097686 231.21684478 -76.06740278 226.26442182 C-70.43692946 220.62274193 -64.8035908 214.98392683 -59.17001832 209.34534192 C-47.58933737 197.75422962 -36.01223185 186.15955307 -24.4375 174.5625 C-26.24288576 170.66396345 -28.74306251 168.03313214 -31.80517578 165.07885742 C-32.35166779 164.54331741 -32.89815979 164.0077774 -33.46121216 163.45600891 C-34.64541641 162.29611231 -35.83173916 161.13837551 -37.01993179 159.98256493 C-38.90007209 158.15115651 -40.77168654 156.31144434 -42.64083862 154.46882629 C-47.95464986 149.23129995 -53.27484511 144.00056274 -58.62158203 138.79663086 C-61.89387441 135.61053995 -65.14881737 132.4075907 -68.39318466 129.19307899 C-69.63159304 127.97261458 -70.87640429 126.7586117 -72.12765884 125.55132103 C-73.87776422 123.86149851 -75.60494107 122.15104513 -77.32861328 120.43432617 C-77.84911255 119.94213593 -78.36961182 119.44994568 -78.90588379 118.94284058 C-81.63112813 116.17841803 -82.41949569 114.73562862 -82.82655334 110.82138062 C-82.4155195 107.37838178 -82.05091141 106.29202823 -79.67578125 103.87109375 C-79.03592285 103.20319824 -78.39606445 102.53530273 -77.73681641 101.84716797 C-76.97804199 101.09322754 -76.21926758 100.33928711 -75.4375 99.5625 C-74.54595215 98.64742676 -73.6544043 97.73235352 -72.73583984 96.78955078 C-70.24150025 94.2350383 -67.72238165 91.70666065 -65.19262695 89.18725586 C-63.60704204 87.60710356 -62.02696558 86.02158024 -60.44726562 84.43554688 C-59.43782108 83.42676194 -58.42806701 82.41828662 -57.41796875 81.41015625 C-56.50942139 80.50273682 -55.60087402 79.59531738 -54.66479492 78.66040039 C-51.90550988 76.06141581 -50.98423208 75.62914572 -47.19493103 75.16723633 C-42.46387582 75.66492058 -40.46139566 77.59099134 -37.31860352 80.88671875 C-36.75187424 81.45242584 -36.18514496 82.01813293 -35.60124207 82.60098267 C-33.73921373 84.46787311 -31.90318267 86.35828743 -30.06640625 88.25 C-28.7775715 89.55189566 -27.48717855 90.85225045 -26.19529724 92.15112305 C-22.8045594 95.56854666 -19.43536931 99.0064673 -16.07025146 102.44909668 C-12.63057556 105.96046841 -9.17091738 109.45202819 -5.71289062 112.9453125 C1.06526901 119.79847308 7.82082817 126.67345539 14.5625 133.5625 C18.24284948 132.01553492 20.59544884 129.78301959 23.40698242 126.97680664 C23.87413162 126.51316208 24.34128082 126.04951752 24.82258606 125.57182312 C26.359437 124.04374751 27.88888843 122.50850467 29.41796875 120.97265625 C30.48573568 119.90623694 31.55379933 118.84011465 32.62214661 117.77427673 C34.85707842 115.5422903 37.08836057 113.30673433 39.31713867 111.06860352 C42.17534622 108.19898799 45.04245677 105.33846263 47.91234875 102.48053837 C50.11810708 100.28200261 52.31908513 98.07873105 54.51864052 95.87399101 C55.57414217 94.81715469 56.63113293 93.76180345 57.68962669 92.70796394 C59.16670961 91.23595424 60.63723914 89.75769577 62.10620117 88.27758789 C62.94463058 87.43756729 63.78306 86.59754669 64.64689636 85.73207092 C66.7587965 83.62503424 66.7587965 83.62503424 67.5625 80.5625 C59.3857953 72.36265992 51.20641777 64.16549655 43.02358437 55.97177219 C39.22435614 52.16731777 35.42606684 48.36193556 31.62988281 44.55444336 C27.96867441 40.88239678 24.30505289 37.21277407 20.63972092 33.54484367 C19.23936498 32.14263517 17.83989177 30.73954456 16.44130325 29.3355732 C14.48742573 27.37447295 12.53047808 25.41648767 10.57275391 23.45922852 C9.99084793 22.87372726 9.40894196 22.28822601 8.80940247 21.6849823 C4.95938369 17.79773251 4.95938369 17.79773251 -0.0760746 16.06161404 C-5.22446674 16.8287759 -7.66105761 19.95341104 -11.2203064 23.57667542 Z M-50.04150391 95.93945312 C-50.65944824 96.56787109 -51.27739258 97.19628906 -51.9140625 97.84375 C-52.584375 98.52050781 -53.2546875 99.19726562 -53.9453125 99.89453125 C-54.99332031 100.96767578 -54.99332031 100.96767578 -56.0625 102.0625 C-56.76890625 102.77792969 -57.4753125 103.49335938 -58.203125 104.23046875 C-59.95245593 106.00343929 -61.69696536 107.78090011 -63.4375 109.5625 C-61.887668 113.26294944 -59.63355329 115.60831087 -56.80419922 118.42285156 C-56.33573578 118.89160706 -55.86727234 119.36036255 -55.38461304 119.84332275 C-53.84183305 121.38471432 -52.29210036 122.91890873 -50.7421875 124.453125 C-49.66843808 125.52314255 -48.59513067 126.59360381 -47.52224731 127.66448975 C-44.70229548 130.47681879 -41.87638846 133.28308889 -39.04919434 136.08813477 C-36.1632863 138.95355523 -33.28305743 141.82467168 -30.40234375 144.6953125 C-24.75293511 150.32329512 -19.09722175 155.94488884 -13.4375 161.5625 C-10.53130865 160.16653514 -8.46628234 158.83185799 -6.203125 156.5234375 C-5.34267578 155.65332031 -5.34267578 155.65332031 -4.46484375 154.765625 C-3.87832031 154.16234375 -3.29179687 153.5590625 -2.6875 152.9375 C-2.08550781 152.32648438 -1.48351562 151.71546875 -0.86328125 151.0859375 C0.61655305 149.58261376 2.09014676 148.07315144 3.5625 146.5625 C2.01376424 142.87496439 -0.22787476 140.51864716 -3.0390625 137.70214844 C-3.50431335 137.23339294 -3.96956421 136.76463745 -4.44891357 136.28167725 C-5.98179638 134.74002068 -7.52184442 133.20576096 -9.0625 131.671875 C-10.13131503 130.60171253 -11.19983303 129.53125333 -12.26806641 128.46051025 C-14.50424918 126.22138251 -16.74400093 123.9859037 -18.98632812 121.75292969 C-21.86501696 118.8856626 -24.73459784 116.00947384 -27.60159302 113.13051987 C-29.8043827 110.92051821 -32.01189501 108.71528367 -34.22088623 106.51148224 C-35.28134127 105.4523641 -36.34030509 104.39175074 -37.39776611 103.32964325 C-38.87238252 101.84996951 -40.35321938 100.37682254 -41.8359375 98.90527344 C-42.67817871 98.06462341 -43.52041992 97.22397339 -44.38818359 96.35784912 C-46.83931754 94.21047883 -47.52885061 93.78247221 -50.04150391 95.93945312 Z M162.5625 171.5625 C162.5625 195.6525 162.5625 219.7425 162.5625 244.5625 C170.1525 244.5625 177.7425 244.5625 185.5625 244.5625 C185.5625 220.4725 185.5625 196.3825 185.5625 171.5625 C177.9725 171.5625 170.3825 171.5625 162.5625 171.5625 Z M-14.88648987 186.89123535 C-15.81581581 187.82389221 -15.81581581 187.82389221 -16.76391602 188.77539062 C-17.8148922 189.8264801 -17.8148922 189.8264801 -18.88710022 190.89880371 C-19.64752121 191.66438599 -20.4079422 192.42996826 -21.19140625 193.21875 C-21.96685287 193.99561157 -22.7422995 194.77247314 -23.54124451 195.57287598 C-26.02984055 198.0670923 -28.51494669 200.56475441 -31 203.0625 C-32.68141275 204.74892514 -34.36305037 206.43512612 -36.04492188 208.12109375 C-40.17839891 212.26562669 -44.309012 216.41299764 -48.4375 220.5625 C-47.29431153 222.87864262 -46.11395009 225.13365657 -44.83984375 227.3828125 C-42.15433362 233.4719636 -42.50378144 240.6159829 -44.0234375 247.0390625 C-46.41356034 252.71834521 -51.06789777 255.83043126 -56.4375 258.5625 C-59.84830324 259.74641518 -63.0977988 259.66401849 -66.6875 259.625 C-67.76515625 259.61597656 -68.8428125 259.60695313 -69.953125 259.59765625 C-71.18289062 259.58025391 -71.18289062 259.58025391 -72.4375 259.5625 C-72.42589844 260.44292969 -72.41429687 261.32335937 -72.40234375 262.23046875 C-72.39332031 263.39191406 -72.38429687 264.55335938 -72.375 265.75 C-72.36339844 266.89855469 -72.35179687 268.04710937 -72.33984375 269.23046875 C-72.4375 272.5625 -72.4375 272.5625 -73.4375 277.5625 C-44.3975 277.5625 -15.3575 277.5625 14.5625 277.5625 C12.9125 274.5925 11.2625 271.6225 9.5625 268.5625 C8.25 264 8.25 264 7.5625 260.5625 C6.89863281 260.45292969 6.23476562 260.34335937 5.55078125 260.23046875 C-4.11394184 258.49505132 -4.11394184 258.49505132 -7.4375 255.5625 C-12.14797082 248.32001386 -12.03895506 241.69464896 -12.046875 233.21875 C-12.06187863 231.84010904 -12.07861032 230.4614859 -12.09698486 229.08288574 C-12.14042686 225.47936109 -12.16060537 221.87607879 -12.17572021 218.27233887 C-12.19537565 214.58506068 -12.2373357 210.89804107 -12.27734375 207.2109375 C-12.35239439 199.99486158 -12.4028371 192.77889505 -12.4375 185.5625 C-13.64232655 185.44985644 -13.64232655 185.44985644 -14.88648987 186.89123535 Z M-63.3828125 235.3125 C-64.46175781 236.42625 -64.46175781 236.42625 -65.5625 237.5625 C-66.28695312 238.305 -67.01140625 239.0475 -67.7578125 239.8125 C-68.31210938 240.39 -68.86640625 240.9675 -69.4375 241.5625 C-67.55611241 243.85180236 -67.55611241 243.85180236 -64.5 243.9375 C-61.41316556 243.84172547 -61.41316556 243.84172547 -59.5 241.9375 C-58.09692941 238.80122457 -58.61862505 236.83799981 -59.4375 233.5625 C-61.62579043 233.33956675 -61.62579043 233.33956675 -63.3828125 235.3125 Z M24.5625 260.5625 C24.8925 262.2125 25.2225 263.8625 25.5625 265.5625 C28.38967213 267.89546251 28.38967213 267.89546251 31.625 267.3125 C34.661959 266.8031756 34.661959 266.8031756 36.5625 264.5625 C36.5625 263.2425 36.5625 261.9225 36.5625 260.5625 C32.6025 260.5625 28.6425 260.5625 24.5625 260.5625 Z M65.5625 260.5625 C67.03889003 265.62258639 67.03889003 265.62258639 70.5625 267.5625 C73.42488484 267.34782114 75.08008131 266.9284728 77.375 265.1875 C78.85750829 263.49424698 78.85750829 263.49424698 78.5625 260.5625 C74.2725 260.5625 69.9825 260.5625 65.5625 260.5625 Z M-90.4375 262.5625 C-93.0775 265.2025 -95.7175 267.8425 -98.4375 270.5625 C-97.4475 271.5525 -96.4575 272.5425 -95.4375 273.5625 C-92.26738842 273.48324721 -90.88655389 272.98161696 -88.5625 270.8125 C-87.2075187 268.57914338 -87.2075187 268.57914338 -87.625 265.875 C-88.19565152 263.39358618 -88.19565152 263.39358618 -90.4375 262.5625 Z M50.5625 271.5625 C49.17311923 273.52397874 47.8364589 275.52416576 46.5625 277.5625 C49.5325 277.5625 52.5025 277.5625 55.5625 277.5625 C54.0775 274.5925 54.0775 274.5925 52.5625 271.5625 C51.9025 271.5625 51.2425 271.5625 50.5625 271.5625 Z " fill="#000000" transform="translate(248.4375,93.4375)"/>
<path d="M0 0 C0.67962071 -0.00581376 1.35924143 -0.01162753 2.05945671 -0.01761746 C4.34164852 -0.03224036 6.62276865 -0.01832264 8.904953 -0.00457001 C10.55563056 -0.00917804 12.20630403 -0.01553031 13.85696888 -0.02347898 C18.39675993 -0.04020888 22.93621553 -0.03190938 27.47600794 -0.01953411 C32.37042697 -0.01050089 37.26478746 -0.02444475 42.15919495 -0.0354538 C51.74885104 -0.05326209 61.33838208 -0.04938875 70.92804313 -0.03780323 C78.72013105 -0.02877827 86.51218387 -0.02754085 94.30427551 -0.0318985 C95.41229894 -0.03251143 96.52032238 -0.03312436 97.66192228 -0.03375587 C99.91268596 -0.03503474 102.16344964 -0.03633159 104.4142133 -0.03764623 C125.53123604 -0.0490588 146.64818938 -0.03592771 167.76520073 -0.01444477 C185.89376946 0.00342681 204.02223574 0.0003229 222.15080261 -0.01811981 C243.19105435 -0.03951457 264.23124522 -0.0479601 285.27150631 -0.03567076 C287.51409848 -0.03439653 289.75669065 -0.03313905 291.99928284 -0.0318985 C293.65448125 -0.03097285 293.65448125 -0.03097285 295.34311801 -0.03002849 C303.12795553 -0.02657141 310.91275451 -0.03241166 318.69758606 -0.04181671 C328.18169152 -0.05302258 337.66566452 -0.05002641 347.14975476 -0.02869374 C351.99087012 -0.0181643 356.83176443 -0.01409369 361.67287827 -0.02729034 C366.10177437 -0.03918093 370.53024386 -0.03270703 374.95910108 -0.01138014 C376.56400548 -0.00689988 378.16894568 -0.00921214 379.7738272 -0.01888329 C381.95092092 -0.03099956 384.12654223 -0.01862312 386.30355835 0 C387.51405444 0.00064941 388.72455053 0.00129882 389.97172832 0.00196791 C393.78293566 0.60287862 395.43724543 1.81109788 398.15177917 4.50336456 C399.61474395 7.9779059 399.26453036 9.22417115 397.83927917 12.75336456 C396.15177917 15.50336456 396.15177917 15.50336456 394.15177917 16.50336456 C391.98254228 16.60239244 389.81016753 16.63439758 387.63867378 16.63758564 C386.95883826 16.63993787 386.27900273 16.6422901 385.57856613 16.64471361 C383.27793235 16.65142305 380.9773548 16.65094481 378.67671204 16.65053558 C377.01966607 16.65383299 375.36262091 16.65755829 373.70557678 16.66167706 C369.13438405 16.67171901 364.56320445 16.67541736 359.99200225 16.67806637 C355.06893716 16.68196286 350.14588253 16.69154155 345.2228241 16.70027924 C333.32587438 16.72006086 321.42892379 16.73011141 309.53196174 16.73900703 C303.9348446 16.74338662 298.33772841 16.74875423 292.74061203 16.7539959 C274.14437367 16.77100887 255.5481359 16.78550469 236.95189095 16.79274464 C232.12382634 16.79465465 227.29576173 16.79657496 222.46769714 16.79853058 C221.26765025 16.79901432 220.06760336 16.79949806 218.83119141 16.79999646 C199.37621332 16.80830289 179.9212966 16.83364984 160.46634533 16.86611126 C140.51024245 16.89913853 120.55417082 16.91718942 100.59804046 16.92038888 C89.38609824 16.92255786 78.17424553 16.93136316 66.96232986 16.95685005 C57.41702415 16.97849785 47.87182969 16.98663673 38.32650222 16.97688327 C33.45311455 16.97232149 28.57995671 16.97433321 23.70660019 16.99364471 C19.24928673 17.0111557 14.7923728 17.01037778 10.33505581 16.99474742 C8.7186304 16.99235288 7.10217818 16.99678951 5.48579396 17.00857607 C3.29555911 17.02356368 1.10676422 17.01411614 -1.08343315 16.99834919 C-2.91129948 16.9998144 -2.91129948 16.9998144 -4.77609241 17.00130922 C-8.44237206 16.40706181 -9.61119192 15.40828651 -11.84822083 12.50336456 C-12.41462708 10.50336456 -12.41462708 10.50336456 -12.41072083 8.50336456 C-12.43263489 7.84336456 -12.45454895 7.18336456 -12.47712708 6.50336456 C-10.65146002 0.69751653 -5.33559412 0.00286245 0 0 Z " fill="#000000" transform="translate(60.84822082519531,401.4966354370117)"/>
<path d="M0 0 C2.01974313 -0.00436544 4.03728522 -0.04067029 6.05664062 -0.07861328 C7.97476562 -0.08441406 7.97476562 -0.08441406 9.93164062 -0.09033203 C11.10130371 -0.0985498 12.2709668 -0.10676758 13.47607422 -0.11523438 C17.31079692 0.47024193 18.94846412 1.63986553 21.65820312 4.37060547 C22.58700218 7.15700264 22.79403346 8.88086278 22.81933594 11.76269531 C22.82894348 12.6472641 22.83855103 13.53183289 22.84844971 14.44320679 C22.85269958 15.39635773 22.85694946 16.34950867 22.86132812 17.33154297 C22.8670282 18.31426178 22.87272827 19.29698059 22.87860107 20.30947876 C22.88804831 22.38908817 22.89458396 24.46871254 22.8984375 26.54833984 C22.90814428 29.72634028 22.93917098 32.90369429 22.97070312 36.08154297 C22.97723324 38.10237246 22.98248368 40.12320658 22.98632812 42.14404297 C22.99867493 43.09314545 23.01102173 44.04224792 23.02374268 45.02011108 C23.00720621 49.92894316 22.94660831 53.42872232 19.65820312 57.37060547 C15.27109776 59.56415815 9.35863947 58.5977082 4.48242188 58.61083984 C2.29843958 58.62053781 0.11540167 58.65155678 -2.06835938 58.68310547 C-3.45897879 58.68963655 -4.84960493 58.69488661 -6.24023438 58.69873047 C-7.50528809 58.70807617 -8.7703418 58.71742188 -10.07373047 58.72705078 C-13.56703548 58.34603888 -14.95896978 57.91660052 -17.34179688 55.37060547 C-18.25696042 52.53385364 -18.47617394 49.92582677 -18.50292969 46.95678711 C-18.51253723 46.09231461 -18.52214478 45.2278421 -18.53204346 44.33717346 C-18.53629333 43.41105759 -18.54054321 42.48494171 -18.54492188 41.53076172 C-18.55062195 40.5716539 -18.55632202 39.61254608 -18.56219482 38.62437439 C-18.57163086 36.59782002 -18.57817325 34.5712504 -18.58203125 32.54467773 C-18.59175022 29.44797037 -18.62279233 26.35192316 -18.65429688 23.25537109 C-18.66082605 21.2846719 -18.66607686 19.31396798 -18.66992188 17.34326172 C-18.68226868 16.41917007 -18.69461548 15.49507843 -18.70733643 14.54298401 C-18.69052351 9.68233048 -18.58813636 6.26878026 -15.34179688 2.37060547 C-10.61538219 -0.78033765 -5.56243389 -0.0013488 0 0 Z M-1.34179688 16.37060547 C-1.34179688 24.95060547 -1.34179688 33.53060547 -1.34179688 42.37060547 C0.96820313 42.37060547 3.27820313 42.37060547 5.65820312 42.37060547 C5.65820312 33.79060547 5.65820312 25.21060547 5.65820312 16.37060547 C3.34820312 16.37060547 1.03820312 16.37060547 -1.34179688 16.37060547 Z " fill="#000000" transform="translate(348.341796875,248.62939453125)"/>
<path d="M0 0 C7.26669201 5.02806959 13.43160629 12.27878896 19.65698242 18.52661133 C21.45442236 20.32947341 23.25722661 22.12684985 25.06054688 23.92382812 C26.20605047 25.06999147 27.35124439 26.21646442 28.49609375 27.36328125 C29.03455429 27.89971756 29.57301483 28.43615387 30.12779236 28.98884583 C34.73892668 33.62936508 34.73892668 33.62936508 35.5 37.625 C34.72441808 42.86017793 31.62828641 45.31242787 28 49 C26.97220919 50.12079434 25.94630302 51.24331867 24.921875 52.3671875 C23.8036882 53.55879967 22.68388652 54.74889848 21.5625 55.9375 C21.03760986 56.51765869 20.51271973 57.09781738 19.97192383 57.69555664 C16.70066211 61.07210034 13.84738511 63.20009289 9.02929688 63.40332031 C4.63432218 62.52982438 2.00387463 59.11278778 -1 56 C-2.01388225 55.0014597 -3.03087529 54.00607207 -4.05029297 53.01318359 C-6.94156334 50.1885448 -9.80400259 47.33665521 -12.65698242 44.47338867 C-14.45442236 42.67052659 -16.25722661 40.87315015 -18.06054688 39.07617188 C-19.20605047 37.93000853 -20.35124439 36.78353558 -21.49609375 35.63671875 C-22.03455429 35.10028244 -22.57301483 34.56384613 -23.12779236 34.01115417 C-27.73892668 29.37063492 -27.73892668 29.37063492 -28.5 25.375 C-27.72629824 20.15251312 -24.64064824 17.6642123 -21 14 C-19.9035393 12.87770824 -18.80719376 11.75530396 -17.7109375 10.6328125 C-6.32211441 -0.93660954 -6.32211441 -0.93660954 0 0 Z M-4 20 C-5.32 21.65 -6.64 23.3 -8 25 C-2.39 30.61 3.22 36.22 9 42 C13.12403473 40.35143175 13.12403473 40.35143175 15 37 C12.21641519 34.15862758 9.42184273 31.32831845 6.625 28.5 C5.8309375 27.68917969 5.036875 26.87835938 4.21875 26.04296875 C3.45820313 25.27597656 2.69765625 24.50898438 1.9140625 23.71875 C1.2123291 23.00654297 0.5105957 22.29433594 -0.21240234 21.56054688 C-1.85562056 19.78078511 -1.85562056 19.78078511 -4 20 Z " fill="#000000" transform="translate(245,127)"/>
<path d="M0 0 C1.92885901 1.7943485 3.77717073 3.64630758 5.61483765 5.53393555 C6.29205368 6.2144397 6.96926971 6.89494385 7.66700745 7.59606934 C9.09106793 9.03052247 10.51036361 10.46971976 11.92514038 11.91333008 C14.09641173 14.12881339 16.28089102 16.33054128 18.46835327 18.5300293 C19.85129625 19.92639114 21.23348452 21.32350093 22.61483765 22.72143555 C23.26894119 23.38292603 23.92304474 24.0444165 24.5969696 24.72595215 C25.19817123 25.33998901 25.79937286 25.95402588 26.41879272 26.58666992 C26.94918655 27.12690796 27.47958038 27.667146 28.02604675 28.22375488 C29.98477803 30.41186055 30.31019175 31.798844 30.7828064 34.75268555 C30.05588855 40.38629882 27.22108314 42.72217317 23.2828064 46.62768555 C22.25962044 47.6735338 21.23756027 48.72048419 20.21640015 49.76831055 C10.72964305 59.42804799 10.72964305 59.42804799 5.65560913 60.12817383 C0.89961914 60.05011349 -1.3236856 57.97764006 -4.62928772 54.75021362 C-5.3066951 54.04720123 -5.98410248 53.34418884 -6.68203735 52.61987305 C-7.40081558 51.90163361 -8.11959381 51.18339417 -8.8601532 50.44338989 C-10.37136274 48.9244967 -11.8727921 47.3958177 -13.36489868 45.8581543 C-15.64892766 43.50861686 -17.96572806 41.19570629 -20.28945923 38.88549805 C-21.75572145 37.40316728 -23.21998479 35.91885605 -24.68203735 34.43237305 C-25.37361435 33.74150604 -26.06519135 33.05063904 -26.77772522 32.33883667 C-29.57873513 29.42555528 -31.48013714 27.29546905 -32.84439087 23.45239258 C-32.5157452 16.15406159 -25.62820604 11.20703391 -20.7796936 6.37768555 C-19.96822876 5.55010742 -19.15676392 4.7225293 -18.32070923 3.86987305 C-17.53502563 3.08354492 -16.74934204 2.2972168 -15.93984985 1.48706055 C-15.22578979 0.77001953 -14.51172974 0.05297852 -13.77603149 -0.68579102 C-9.12459482 -4.49607497 -4.69513235 -3.75216747 0 0 Z M-8.7171936 17.62768555 C-10.0371936 19.27768555 -11.3571936 20.92768555 -12.7171936 22.62768555 C-7.1071936 28.23768555 -1.4971936 33.84768555 4.2828064 39.62768555 C8.40684113 37.97911729 8.40684113 37.97911729 10.2828064 34.62768555 C7.49922158 31.78631312 4.70464913 28.956004 1.9078064 26.12768555 C1.1137439 25.31686523 0.3196814 24.50604492 -0.4984436 23.6706543 C-1.25899048 22.90366211 -2.01953735 22.13666992 -2.8031311 21.34643555 C-3.5048645 20.63422852 -4.2065979 19.92202148 -4.92959595 19.18823242 C-6.57281416 17.40847066 -6.57281416 17.40847066 -8.7171936 17.62768555 Z " fill="#000000" transform="translate(110.71719360351563,268.372314453125)"/>
<path d="M0 0 C4.15580962 1.54715275 6.88274288 4.60264583 9.93457031 7.72021484 C10.91805445 8.6853414 11.90372142 9.64824669 12.89111328 10.609375 C15.67027118 13.32505697 18.42188281 16.06684787 21.16430664 18.81958008 C22.88931744 20.55001621 24.61969459 22.27495974 26.35058594 23.99951172 C27.45051664 25.10010213 28.55013769 26.20100213 29.64941406 27.30224609 C30.16600082 27.81680862 30.68258759 28.33137115 31.21482849 28.86152649 C34.24763594 31.91447608 35.7470358 33.54812411 36.43457031 37.84521484 C35.70765247 43.47882812 32.87284706 45.81470247 28.93457031 49.72021484 C27.91138436 50.7660631 26.88932418 51.81301348 25.86816406 52.86083984 C16.38140697 62.52057729 16.38140697 62.52057729 11.30737305 63.22070312 C6.55138306 63.14264279 4.32807831 61.07016936 1.0224762 57.84274292 C0.34506882 57.13973053 -0.33233856 56.43671814 -1.03027344 55.71240234 C-1.74905167 54.9941629 -2.4678299 54.27592346 -3.20838928 53.53591919 C-4.71959883 52.017026 -6.22102818 50.488347 -7.71313477 48.95068359 C-9.99716375 46.60114616 -12.31396414 44.28823559 -14.63769531 41.97802734 C-16.10395754 40.49569657 -17.56822087 39.01138535 -19.03027344 37.52490234 C-19.72185043 36.83403534 -20.41342743 36.14316833 -21.1259613 35.43136597 C-23.92697122 32.51808458 -25.82837322 30.38799834 -27.19262695 26.54492188 C-26.86859354 19.34901679 -20.11138442 14.25596637 -15.37792969 9.40771484 C-14.21100586 8.1537793 -14.21100586 8.1537793 -13.02050781 6.87451172 C-5.57579794 -0.73163474 -5.57579794 -0.73163474 0 0 Z M-3.06542969 20.72021484 C-4.38542969 22.37021484 -5.70542969 24.02021484 -7.06542969 25.72021484 C-1.45542969 31.33021484 4.15457031 36.94021484 9.93457031 42.72021484 C14.05860505 41.07164659 14.05860505 41.07164659 15.93457031 37.72021484 C13.1509855 34.87884242 10.35641304 32.0485333 7.55957031 29.22021484 C6.76550781 28.40939453 5.97144531 27.59857422 5.15332031 26.76318359 C4.39277344 25.99619141 3.63222656 25.22919922 2.84863281 24.43896484 C2.14689941 23.72675781 1.44516602 23.01455078 0.72216797 22.28076172 C-0.92105025 20.50099995 -0.92105025 20.50099995 -3.06542969 20.72021484 Z " fill="#000000" transform="translate(146.0654296875,224.27978515625)"/>
<path d="M0 0 C1.9790332 -0.00773438 1.9790332 -0.00773438 3.99804688 -0.015625 C4.6800415 -0.00724609 5.36203613 0.00113281 6.06469727 0.00976562 C8.15042947 0.0312303 10.23273208 0.00992031 12.31835938 -0.015625 C13.63642578 -0.01046875 14.95449219 -0.0053125 16.3125 0 C18.11859741 0.00676758 18.11859741 0.00676758 19.96118164 0.01367188 C23.66580722 0.62653229 24.80694711 1.61752165 27.08984375 4.53125 C28.27065181 6.89286612 28.2350407 8.35889657 28.2668457 10.9934082 C28.28609856 12.38043694 28.28609856 12.38043694 28.30574036 13.79548645 C28.31312729 14.79754623 28.32051422 15.79960602 28.328125 16.83203125 C28.33619675 17.8605571 28.34426849 18.88908295 28.35258484 19.94877625 C28.36643142 22.12851268 28.377151 24.30827086 28.38500977 26.48803711 C28.40222064 29.81991727 28.4461021 33.15080486 28.49023438 36.48242188 C28.50036131 38.59895103 28.50887741 40.71548863 28.515625 42.83203125 C28.53313309 43.82801834 28.55064117 44.82400543 28.56867981 45.85017395 C28.55549772 50.05925262 28.42747606 52.85975723 26.51635742 56.66064453 C23.19249608 59.22301757 21.01326124 59.16249444 16.83984375 59.16015625 C15.79715332 59.16377419 15.79715332 59.16377419 14.73339844 59.16746521 C13.26751994 59.16648815 11.80160391 59.15312751 10.3359375 59.12817383 C8.09637716 59.09385013 5.86076249 59.10751839 3.62109375 59.12695312 C2.19399368 59.12005433 0.76690376 59.11038161 -0.66015625 59.09765625 C-1.954375 59.08677979 -3.24859375 59.07590332 -4.58203125 59.06469727 C-7.91015625 58.53125 -7.91015625 58.53125 -10.32788086 57.19506836 C-12.92447745 52.82360324 -12.49989581 48.33276644 -12.4765625 43.34375 C-12.48276108 42.24909424 -12.48895966 41.15443848 -12.49534607 40.02661133 C-12.50244659 37.71338796 -12.49926626 35.4001135 -12.48657227 33.08691406 C-12.47270602 29.54396753 -12.5067778 26.00366094 -12.54492188 22.4609375 C-12.54587304 20.21354102 -12.54401439 17.96614123 -12.5390625 15.71875 C-12.55232071 14.65825439 -12.56557892 13.59775879 -12.57923889 12.50512695 C-12.48733366 5.26141419 -12.48733366 5.26141419 -9.80273438 1.86523438 C-6.32385337 0.26086184 -3.83010716 0.01433826 0 0 Z M4.08984375 16.53125 C4.08984375 25.11125 4.08984375 33.69125 4.08984375 42.53125 C6.39984375 42.53125 8.70984375 42.53125 11.08984375 42.53125 C11.08984375 33.95125 11.08984375 25.37125 11.08984375 16.53125 C8.77984375 16.53125 6.46984375 16.53125 4.08984375 16.53125 Z " fill="#000000" transform="translate(284.91015625,248.46875)"/>
<path d="M0 0 C3.19575383 1.80629564 4.60402344 3.12329401 6.11328125 6.46484375 C7.33143948 11.32137768 7.32911475 15.94975123 7.3125 20.9375 C7.32861328 21.90107422 7.34472656 22.86464844 7.36132812 23.85742188 C7.36531458 29.68960366 6.82450379 33.86391683 4 39 C1.6415966 41.21967379 0.07332792 41.91998828 -3.1484375 42.16015625 C-7.41863207 41.98282259 -9.30077656 41.55878112 -12.7421875 38.80859375 C-16.64055377 33.74510289 -15.71826206 27.06825155 -15.625 21 C-15.64433594 19.741875 -15.66367187 18.48375 -15.68359375 17.1875 C-15.62932088 6.94078223 -15.62932088 6.94078223 -12.5859375 3.1875 C-8.55455846 -0.22273 -5.19503498 -0.70796062 0 0 Z " fill="#000000" transform="translate(353,114)"/>
<path d="M0 0 C2.8100346 1.79363911 4.50940468 3.01880935 6 6 C6.71031076 9.89056574 6.90138861 13.45961331 4.859375 16.94921875 C3.01044632 19.08984735 1.02753111 21.02708252 -1 23 C-1.94506947 24.03977936 -2.88483247 25.08439725 -3.8203125 26.1328125 C-12.47928276 35.63413321 -12.47928276 35.63413321 -17.875 36.5 C-22.19817019 36.36661725 -24.91041478 35.08958522 -28 32 C-30.08387225 27.88568812 -30.35879871 25.16540046 -28.9921875 20.7265625 C-26.82053435 16.03481228 -23.2409783 12.73195896 -19.5625 9.1875 C-18.89412109 8.52041016 -18.22574219 7.85332031 -17.53710938 7.16601562 C-12.14423242 1.8693446 -7.99772896 -1.33295483 0 0 Z " fill="#000000" transform="translate(399,121)"/>
<path d="M0 0 C1.407395 -0.01654042 2.81470665 -0.04380628 4.22167969 -0.08203125 C6.25686943 -0.13700408 8.29009407 -0.15870111 10.32592773 -0.17333984 C11.5438501 -0.19315918 12.76177246 -0.21297852 14.01660156 -0.23339844 C18.24013307 0.5157103 19.675736 2.03164134 22.30639648 5.35009766 C23.4912253 9.42294671 23.57081852 11.58621177 22.18139648 15.60009766 C20.07803465 18.68502834 18.63555833 19.72088339 15.30639648 21.35009766 C10.84491894 21.96098086 6.36789293 21.81376844 1.86889648 21.78759766 C0.65395508 21.80757812 -0.56098633 21.82755859 -1.81274414 21.84814453 C-12.95071305 21.84204153 -12.95071305 21.84204153 -17.69360352 17.35009766 C-19.4223013 13.89270208 -19.18327247 10.13034198 -18.69360352 6.35009766 C-14.01336301 -1.13828715 -7.99448119 0.06884576 0 0 Z " fill="#000000" transform="translate(386.693603515625,163.64990234375)"/>
</svg>
