<?xml version="1.0" encoding="UTF-8"?>
<svg version="1.1" xmlns="http://www.w3.org/2000/svg" width="512" height="512">
<path d="M0 0 C12.1324992 5.87562808 19.05497536 16.91216198 24 29 C28.29859677 41.86530382 27.70021155 53.75763748 24.61328125 66.79296875 C23.59157459 72.13577876 23.65475109 76.79379179 26.5625 81.5625 C28.03171847 83.34244198 28.03171847 83.34244198 31.125 83.25 C34.04162565 82.80719246 34.85535125 82.18564367 36.6953125 79.82421875 C40.22622664 73.26807414 41.94715866 66.85557508 42.79980469 59.52124023 C43.28272723 55.98025051 44.04232225 53.94154768 46.15234375 51.02734375 C49 49 49 49 52.55078125 48.37109375 C56.94386849 49.17209833 57.64504171 50.48732171 60.1875 54.0625 C63.56805235 57.75347032 63.56805235 57.75347032 68.18017578 59.34326172 C73.34611409 59.40273627 78.46232047 58.73369371 83.59228516 58.18652344 C97.87544429 57.08002034 111.40913524 62.96077099 122.34375 71.6796875 C130.52572066 78.82687951 136.80018407 87.21887602 139.5625 97.8125 C140.7694167 101.38817853 141.38399209 102.6543265 144.71484375 104.5234375 C146.94260981 105.31282429 149.18903291 106.05107745 151.44921875 106.7421875 C157.2912695 108.81164882 162.00013492 112.36946734 167 116 C167.65484375 115.55269531 168.3096875 115.10539062 168.984375 114.64453125 C175.88916239 110.07059723 183.81394262 104.82261401 192.203125 103.70703125 C194.26588709 103.12202879 194.26588709 103.12202879 195.23828125 100.62890625 C195.77001953 99.11103516 195.77001953 99.11103516 196.3125 97.5625 C198.73629547 91.29046311 201.91524308 86.30636647 206 81 C207.11375 79.453125 207.11375 79.453125 208.25 77.875 C220.9962809 64.5493427 237.13282104 59.00895266 255.09375 58.0390625 C272.35465842 57.86645342 286.83777155 63.92289556 299.1875 75.8125 C303.43693008 80.18125885 306.89039619 84.76676432 310 90 C315.35414659 81.87317035 316.64163978 75.7848363 316.04101562 66.23291016 C315.78400822 61.57720064 315.92721073 58.80615186 319 55 C322.21490118 53.39254941 324.4301071 53.59694758 328 54 C331.0061245 55.62606734 333.46006225 57.72716851 336 60 C336.68449219 60.60328125 337.36898438 61.2065625 338.07421875 61.828125 C348.34911026 71.45716619 354.84957339 84.9432249 356 99 C356 106.98813107 355.22382868 114.28043472 352.63671875 121.83984375 C351.69691702 125.02825086 351.71911393 127.69958869 352 131 C353.03876234 132.22514289 353.03876234 132.22514289 355.25 132.4375 C358.58988469 131.90615471 359.86606586 130.63611915 361.87109375 127.96484375 C364.82288966 122.82728892 365.82762708 116.95285551 366.875 111.1875 C367.84979728 106.82412169 369.12394303 104.50328679 373 102 C377.4747889 100.92943949 381.23365519 100.99756158 385.28515625 103.296875 C393.03299101 109.61099828 396.2515097 118.06640347 397.484375 127.83984375 C399.18064828 150.48991886 392.86285679 171.01149782 385 192 C384.67 192.99 384.34 193.98 384 195 C391.86169897 193.03457526 394.4562006 187.42632291 398.6328125 180.98828125 C400 179 400 179 402 177 C405.92323324 176.55586039 408.19403703 176.49840371 411.5859375 178.609375 C419.05092344 186.00188535 418.42902971 200.25876183 418.5 210.0625 C418.29062773 232.48930725 410.56238173 251.0866509 394.88671875 267.16796875 C383.37121449 278.05190971 368.68698083 285.67471744 353 288 C352.896875 289.02480469 352.79375 290.04960937 352.6875 291.10546875 C350.00296731 306.3127363 336.74024123 318.88407247 324.73828125 327.65234375 C315.00983064 333.97181663 302.68923823 338.28166839 291 338 C289.68 337.67 288.36 337.34 287 337 C287 349.21 287 361.42 287 374 C288.65 373.34 290.3 372.68 292 372 C303.38139434 369.74407534 314.46828869 371.38373049 324.25 377.6875 C325.12140625 378.31011719 325.9928125 378.93273437 326.890625 379.57421875 C328.85182441 381.18666658 328.85182441 381.18666658 331 381 C332.55333616 376.33999152 332.34203631 371.4499173 332.5234375 366.56640625 C333.0100196 362.92501723 333.24224814 361.38809576 336 359 C339.42356072 357.91540087 341.36177999 357.79441092 344.7890625 358.8984375 C352.4706409 362.897937 359.28549206 367.53364347 366 373 C366.87785156 373.7115625 367.75570313 374.423125 368.66015625 375.15625 C383.51540552 387.83028029 394.01020269 405.78625014 395.72753906 425.41357422 C396.22603689 432.88939096 395.79223595 439.68764214 394 447 C395.31355469 446.94199219 396.62710937 446.88398438 397.98046875 446.82421875 C399.71611023 446.77730952 401.45179023 446.73181061 403.1875 446.6875 C404.05181641 446.64560547 404.91613281 446.60371094 405.80664062 446.56054688 C410.35470923 446.47341912 412.34325258 446.50180659 416.07421875 449.33203125 C418 452 418 452 418.625 455 C417.76881393 459.10969314 416.28539479 460.41473312 413 463 C409.99461727 463.49037942 407.5594656 463.67191334 404.55880737 463.62641239 C403.70697254 463.63338 402.85513772 463.64034761 401.97748971 463.64752635 C399.10937707 463.66483729 396.2426032 463.64637002 393.37451172 463.62818909 C391.30310387 463.6332318 389.23170036 463.64045849 387.16030693 463.64968723 C381.45752093 463.66867538 375.75516176 463.65633863 370.05238628 463.6389643 C363.90642179 463.62562836 357.76052132 463.64101381 351.61456299 463.65278625 C340.26699245 463.67013071 328.91959758 463.66474546 317.57204169 463.6477995 C307.0896613 463.63224223 296.60733037 463.6263771 286.12493896 463.6301403 C285.4300622 463.63037711 284.73518544 463.63061391 284.01925181 463.63085788 C281.19863701 463.63183278 278.37802224 463.63285359 275.55740749 463.63394299 C249.08897469 463.64402979 222.62062878 463.62575072 196.1522164 463.59422263 C172.62813956 463.56636122 149.10416606 463.56139799 125.58007812 463.57641602 C119.55658982 463.58023834 113.53310151 463.5840331 107.50961304 463.5875864 C106.39732647 463.58824312 106.39732647 463.58824312 105.26256947 463.58891311 C85.61558771 463.60014867 65.96861357 463.59280714 46.32163429 463.57970566 C44.2080056 463.57831706 42.0943769 463.57693635 39.98074819 463.57556724 C38.57857779 463.57465785 37.1764074 463.57373518 35.77423702 463.57279913 C25.29754013 463.56599846 14.82087308 463.56866778 4.34417725 463.57574654 C-7.56635401 463.58370612 -19.47677732 463.5767756 -31.38729429 463.5515715 C-37.46785413 463.53904531 -43.54824055 463.53296772 -49.62880707 463.54411316 C-55.1901365 463.55411461 -60.75111926 463.54578345 -66.3124063 463.52253198 C-68.3291503 463.51734982 -70.34592508 463.51897533 -72.36265588 463.52792663 C-75.09512646 463.53905003 -77.82641011 463.52576746 -80.55880737 463.50615788 C-81.34962448 463.51523669 -82.14044158 463.52431551 -82.95522285 463.53366944 C-86.68823046 463.48111634 -88.80980338 463.12135308 -91.9882679 461.09336513 C-94 459 -94 459 -94.62890625 457 C-94.60699219 456.34 -94.58507812 455.68 -94.5625 455 C-94.56378906 454.34 -94.56507812 453.68 -94.56640625 453 C-93.72242639 450.01987803 -92.47988811 448.83454898 -90 447 C-86.765625 446.609375 -86.765625 446.609375 -83.25 446.75 C-82.07953125 446.78609375 -80.9090625 446.8221875 -79.703125 446.859375 C-78.81109375 446.90578125 -77.9190625 446.9521875 -77 447 C-76.97421875 446.27296875 -76.9484375 445.5459375 -76.921875 444.796875 C-76.12144491 430.60743251 -71.49741202 418.55169371 -61.1171875 408.6328125 C-55.85068738 404.57119433 -49.51228915 401.4175457 -43 400 C-38.92330016 398.64110005 -38.27206309 396.60857078 -36 393 C-29.10808022 385.73063228 -21.0284699 380.2910694 -10.79296875 379.8671875 C-9.00826172 379.87105469 -9.00826172 379.87105469 -7.1875 379.875 C-6.00542969 379.87242187 -4.82335937 379.86984375 -3.60546875 379.8671875 C-0 380 -0 380 3.515625 380.71484375 C7.97509927 381.07980073 10.06637322 379.86038219 13.9375 377.6875 C26.12947701 371.16472023 35.49268041 370.99837342 49 374 C49 361.79 49 349.58 49 337 C46.69 337.33 44.38 337.66 42 338 C27.63138708 337.32797133 15.27365988 332.96856448 4 324 C3.29101562 323.45472656 2.58203125 322.90945313 1.8515625 322.34765625 C-9.85658173 312.81516334 -16.49051623 298.69840494 -19 284 C-19.19909307 280.94435421 -19.15326477 278.0652954 -19 275 C-19.804375 274.814375 -20.60875 274.62875 -21.4375 274.4375 C-26.36142721 272.45065218 -29.98617008 269.42935995 -34 266 C-34.61101563 265.48566406 -35.22203125 264.97132813 -35.8515625 264.44140625 C-45.99078643 255.15869211 -53.17428131 240.77185781 -54.14086914 226.99169922 C-54.6808837 214.28308584 -54.43251296 201.2065373 -48.23828125 189.73828125 C-46.46215663 184.37628988 -47.75259887 180.39522797 -49 175 C-49.39296237 172.86512459 -49.77549809 170.72830783 -50.1484375 168.58984375 C-50.55662743 166.37227346 -50.96548792 164.15482651 -51.375 161.9375 C-51.5709375 160.83083984 -51.766875 159.72417969 -51.96875 158.58398438 C-54.27556469 146.22500566 -58.05991449 135.16679975 -68.34375 127.1796875 C-70.53283005 125.72759774 -72.74084968 124.34002833 -75 123 C-78.0625 121.125 -78.0625 121.125 -80 119 C-80.6486756 116.20837822 -80.78275845 113.76394709 -80 111 C-74.47773249 104.13306688 -64.05135841 100.54989312 -55.54296875 99.17578125 C-48.31043849 98.67583676 -41.82133918 99.65538601 -35 102 C-35.01571045 101.21463867 -35.0314209 100.42927734 -35.04760742 99.62011719 C-35.11069303 95.99682064 -35.14922211 92.37364027 -35.1875 88.75 C-35.21263672 87.51507813 -35.23777344 86.28015625 -35.26367188 85.0078125 C-35.35134593 73.90243278 -33.62459779 64.05733954 -28.4375 54.1875 C-28.09887939 53.52371338 -27.76025879 52.85992676 -27.41137695 52.17602539 C-24.47122848 46.56674958 -21.06734354 41.30449734 -17.41381836 36.13549805 C-12.48557238 29.10321299 -10.57477337 23.42205523 -11 14.875 C-11.47216145 5.29012256 -11.47216145 5.29012256 -8 1 C-5.00818583 -0.49590709 -3.3583794 -0.42743011 0 0 Z M5 28 C4.52691406 28.99257812 4.05382812 29.98515625 3.56640625 31.0078125 C0.15867218 38.04656703 -3.36612003 44.84920613 -7.6875 51.375 C-15.54113342 63.26212087 -19.38573432 73.07714371 -19.3125 87.375 C-19.31056641 88.94979126 -19.31056641 88.94979126 -19.30859375 90.55639648 C-19.21029107 98.64240651 -18.26715289 106.31250164 -16.65625 114.22265625 C-15.0901354 123.23713733 -15.0901354 123.23713733 -17 126.9375 C-19.50510154 128.26833519 -21.72106028 128.83093779 -24.5625 128.7578125 C-28.60288017 127.50166866 -31.40081107 124.56372564 -34.49462891 121.79296875 C-39.22876688 117.61411538 -43.66290454 114.87149347 -50.109375 115.0625 C-52.24170241 115.30155289 -52.24170241 115.30155289 -55 116 C-54.45472656 116.70962891 -54.45472656 116.70962891 -53.8984375 117.43359375 C-52.24541924 119.60794854 -50.61985503 121.80083464 -49 124 C-48.48566406 124.68578125 -47.97132812 125.3715625 -47.44140625 126.078125 C-39.41815586 137.33151516 -36.89581168 150.20010235 -34.66601562 163.56420898 C-32.71048817 175.11792863 -30.38087261 188.02932393 -21 196 C-7.8782192 205.30654033 6.86711431 208.70179398 22.72387695 206.17700195 C32.34420185 204.49808377 41.14600481 201.69949389 49.3125 196.1875 C52.94040529 193.79157088 55.61280316 193.31181226 60 194 C61.9375 195 61.9375 195 63 197 C63.88442211 201.90452261 63.88442211 201.90452261 63 205 C53.3998732 216.81769995 32.26342782 220.47177559 18 222 C-0.31191626 223.43622873 -17.32004462 218.21088327 -31.6015625 206.890625 C-33.83741463 204.99692097 -33.83741463 204.99692097 -36 204 C-40.13495817 216.70140537 -38.82923744 229.65333382 -32.875 241.5 C-27.04579322 251.24973524 -19.94171258 257.15999098 -10.0390625 262.30859375 C-5.36196158 264.91165892 -5.36196158 264.91165892 -4 267 C-3.62890625 270.1171875 -3.62890625 270.1171875 -3.5625 273.875 C-3.0896714 285.30330889 -0.04268225 294.90011319 7 304 C7.721875 305.03125 8.44375 306.0625 9.1875 307.125 C16.54472915 315.5869888 28.52113563 320.49675027 39.4375 321.875 C51.64753089 322.53219713 63.64796153 319.00460081 73.1953125 311.20703125 C73.77023438 310.66433594 74.34515625 310.12164062 74.9375 309.5625 C78 307 78 307 81.3125 306.125 C86.11403753 307.26434789 88.63439377 309.73965411 92.34765625 312.89453125 C101.48139217 320.14502265 112.65275612 322.22897676 124.1328125 321.9140625 C135.5632286 320.54241257 146.958609 314.61676157 154.72265625 306.11328125 C163.30440584 294.57920964 166.03726302 284.24481379 166.65625 270.0390625 C167 267 167 267 169 264 C170.8007363 263.05974212 172.64109007 262.19426185 174.5 261.375 C187.20702003 255.16606087 195.17127284 245.47115162 199.9375 232.1875 C203.04275941 220.07698829 201.58493901 207.09173642 195.421875 196.21484375 C191.45394625 190.28976095 186.81976516 183.963802 180.37109375 180.6484375 C177.27196935 178.99968569 175.2477468 177.71890911 173 175 C171.87662222 170.62043805 172.1185373 166.07247279 172.109375 161.58203125 C172.04134502 149.83471068 166.68090521 139.40352525 159.00390625 130.75 C151.44380743 123.42572077 141.7022024 119.53347602 131.70703125 116.640625 C130 116 130 116 128 114 C127.38796693 112.05657745 126.83440471 110.09454085 126.3125 108.125 C122.64290453 95.91550036 116.57911771 85.91132508 105.33203125 79.47265625 C96.21046906 75.03409637 86.03331362 72.28535887 76 75 C76.27263672 75.81247192 76.27263672 75.81247192 76.55078125 76.64135742 C77.37105239 79.09296909 78.18652948 81.54612345 79 84 C79.37705078 85.13622803 79.37705078 85.13622803 79.76171875 86.29541016 C89.27309125 115.35164666 93.16165721 148.93543299 81.96484375 178.1640625 C81 180 81 180 79 181 C76.06655244 181.27937596 73.8455444 181.48681411 71 181 C68.875 179.125 68.875 179.125 68 176 C68.29891251 172.58968003 69.19386322 169.32111559 70 166 C76.86249611 135.41570245 73.13703401 103.52584571 58 76 C57.34 76 56.68 76 56 76 C55.79246094 76.61746094 55.58492188 77.23492187 55.37109375 77.87109375 C52.52750508 85.68798814 48.70304205 93.1834886 41.3125 97.5625 C35.435771 100.03871397 28.7104996 100.0880872 22.62890625 98.3046875 C15.74850555 95.20915751 11.92676893 89.87790699 9 83 C6.78782218 75.7601453 7.82037695 68.28804822 9.5 61.0625 C12.0519205 49.75590486 11.37547047 40.84286294 7 30 C6.34 29.34 5.68 28.68 5 28 Z M221 88 C215.56403128 94.55294859 211.75962026 100.96704598 209 109 C206.70828513 115.65336576 206.70828513 115.65336576 203.7890625 117.08203125 C200.81981568 118.05930436 197.83082859 118.87501447 194.8125 119.6875 C188.24542221 121.6546315 183.31290779 124.73048493 178 129 C178.72316406 130.68416016 178.72316406 130.68416016 179.4609375 132.40234375 C186.9213721 149.98091912 186.9213721 149.98091912 187.046875 157.9921875 C186.98619659 163.83586133 186.98619659 163.83586133 189.55859375 168.81640625 C191.65147722 170.31365427 193.81250954 171.64565808 196 173 C207.12764655 182.00503189 214.13636298 195.90603963 216 210 C217.61295877 228.46934955 213.79842867 244.24448354 202.640625 259.15234375 C196.73825262 266.00398303 190.07776097 270.96111952 182 275 C181.40534877 277.88405848 180.9170856 280.7145675 180.5 283.625 C180.26446826 285.22195698 180.02493343 286.81832907 179.78125 288.4140625 C179.66305908 289.19040039 179.54486816 289.96673828 179.4230957 290.76660156 C179.02342153 292.87636462 178.44791732 294.80472467 177.76171875 296.8359375 C176.72267011 299.86810639 176.72267011 299.86810639 177.80078125 302.1875 C187.47872753 313.79103248 198.90193486 320.361569 214 322 C227.55186952 322.16832571 238.84990021 317.39479628 248.8671875 308.3203125 C251.80883556 306.49929227 253.59466481 306.52098866 257 307 C259.5625 308.609375 259.5625 308.609375 262 310.75 C262.86238281 311.47960937 263.72476563 312.20921875 264.61328125 312.9609375 C265.40089844 313.63382813 266.18851562 314.30671875 267 315 C275.52077343 321.34881157 285.0996421 322.43223843 295.5703125 321.859375 C310.365638 319.61321997 322.57357078 309.89179055 331.81640625 298.6328125 C333.94154473 295.70110331 336 292.69197623 336 289 C334.74509766 288.87044922 334.74509766 288.87044922 333.46484375 288.73828125 C320.11149369 287.12641507 303.83963923 283.83963923 294 274 C293.56888661 270.11997946 293.46826228 267.85078036 295.5625 264.5 C299.04140195 262.35913726 301.05758621 263.18432818 305 264 C308.140625 265.3046875 308.140625 265.3046875 311.25 266.875 C325.62697457 273.65597667 341.60964307 275.75190536 357.109375 271.09765625 C375.43193035 264.14003726 389.35081588 252.86924922 397.75 234.9296875 C401.51789357 226.09868694 402.94817712 217.63905525 403 208 C402.67 207.34 402.34 206.68 402 206 C401.1646875 206.433125 401.1646875 206.433125 400.3125 206.875 C393.24395991 210.31374923 386.27515027 211.55398535 378.546875 209.27734375 C374.32638267 207.3468593 371.86488591 205.38796685 370 201 C366.48020054 191.40054694 371.46142725 181.54657884 374.53125 172.47265625 C374.79470215 171.69059814 375.0581543 170.90854004 375.32958984 170.1027832 C375.84530257 168.57733091 376.36615228 167.05360189 376.89306641 165.53198242 C379.55626475 157.71026556 381.1949863 150.12662304 381.6875 141.875 C381.73455078 141.21113281 381.78160156 140.54726562 381.83007812 139.86328125 C382.096923 135.392536 381.75731407 131.38444987 381 127 C379.37878046 129.43182931 378.03884796 131.79555405 376.6875 134.375 C372.97543004 141.03298594 368.35083088 145.67016038 361 148 C353.90730398 149.0235815 347.86191562 148.26825061 342 144 C337.28162359 139.15745579 335.71196434 134.50757345 335.6875 127.8125 C335.75821523 122.57957312 336.58681326 118.32000043 338.2578125 113.39453125 C341.31014682 103.54673685 339.89084864 94.48367198 335.375 85.375 C334.59529506 83.91023639 333.80794976 82.44937552 333 81 C331.91313278 83.14857548 330.8585167 85.30447588 329.84375 87.48828125 C327.00022178 93.46465016 323.80481981 98.93694153 320.0625 104.375 C311.31582161 117.16504718 305.59215029 129.12441931 305.6875 144.875 C305.68878906 145.77831055 305.69007813 146.68162109 305.69140625 147.61230469 C305.79035606 154.70947981 306.60464461 161.55128006 307.93237305 168.51904297 C309.89517834 178.9399665 309.89517834 178.9399665 309 184 C306.88800064 186.79210775 306.02500391 186.99473602 302.4375 187.75 C297.01557875 187.59111586 294.19727657 183.84844988 290.5 180.26953125 C284.26857445 174.61256525 278.33983281 173.54250299 270.08984375 173.859375 C269.40019531 173.90578125 268.71054687 173.9521875 268 174 C268 178.64874655 271.0459612 181.17462885 273.859375 184.72265625 C280.89819694 195.49924678 280.41090632 205.29190384 280.0625 217.75 C279.99420989 220.40293804 279.93232753 223.05532787 279.88926697 225.70880127 C279.86223185 227.34970516 279.82085276 228.99045787 279.76271057 230.6305542 C279.67566027 235.5874498 280.48012235 238.60470432 283 243 C283.51893143 246.70665305 283.49923932 248.27034254 281.375 251.375 C278.24988831 253.51323431 276.71837535 253.6829669 273 253 C267.94781525 249.35772727 266.42332613 244.83089101 265 239 C264.68697791 236.01018751 264.73691452 233.09089087 264.84765625 230.08984375 C264.87583875 228.42383129 264.90382774 226.75781555 264.93164062 225.09179688 C264.99379339 222.50914048 265.06280665 219.92682165 265.13696289 217.34448242 C265.20373719 214.82213711 265.24540527 212.3002386 265.28515625 209.77734375 C265.31521255 209.01566391 265.34526886 208.25398407 265.37623596 207.46922302 C265.47692949 200.09625268 262.54167501 194.2113193 257.76953125 188.62109375 C255.77014532 186.78942673 253.59646366 185.30996261 251.36132812 183.78173828 C244.40339342 178.9732939 244.40339342 178.9732939 243.08203125 175.78515625 C242.9539051 172.50878766 243.63827202 170.43195057 245.73046875 167.93359375 C248.16584679 165.85870196 250.38734789 164.65759852 253.3125 163.375 C254.21613281 162.97023438 255.11976563 162.56546875 256.05078125 162.1484375 C262.0539437 159.81078219 267.43868573 158.67501381 273.875 158.75 C275.19242187 158.74484375 276.50984375 158.7396875 277.8671875 158.734375 C282.37649439 158.88827626 286.64098894 159.88969779 291 161 C290.9685791 159.84552368 290.9685791 159.84552368 290.93652344 158.66772461 C290.19294913 127.19523623 290.19294913 127.19523623 297.4375 113.1875 C299.04988993 109.77076896 299.11868444 107.73045822 298.1875 104.0625 C296.06415134 98.38848947 292.78729343 93.68865345 289 89 C288.47535156 88.34902344 287.95070313 87.69804687 287.41015625 87.02734375 C280.47211982 79.30899026 270.24505301 74.94770825 260 74 C245.55824861 73.52705376 231.39098364 77.60901636 221 88 Z M167 315 C166.38125 315.845625 165.7625 316.69125 165.125 317.5625 C156.62324469 327.71670916 141.94819074 334.88624459 128.85449219 336.21826172 C123.9021431 336.60934584 118.96870201 336.80125192 114 337 C114 343.6 114 350.2 114 357 C115.44375 356.175 116.8875 355.35 118.375 354.5 C124.89843091 351.24752453 130.28299878 350.92778811 137.25 352.9375 C141.3032192 355.9774144 143.50508232 359.63709267 146 364 C146.56460938 364.98226562 147.12921875 365.96453125 147.7109375 366.9765625 C150.91142036 372.91173024 153.04838038 377.24377088 152 384 C148.70195583 394.30638802 135.83182017 399.06199867 127 403.875 C122.71 406.22625 118.42 408.5775 114 411 C114 422.88 114 434.76 114 447 C124.23 447 134.46 447 145 447 C145.66 442.38 146.32 437.76 147 433 C150.56051502 421.60635193 155.65308365 412.73781562 166.33984375 406.671875 C169.84171441 405.06759921 172.86899145 404.02220484 176.6875 403.375 C181.20896378 401.49816598 182.13173571 398.78021763 184.42578125 394.6015625 C189.37878043 386.41620901 197.14331387 382.81029464 206 380 C211.28 380 216.56 380 222 380 C222 365.81 222 351.62 222 337 C216.39 336.67 210.78 336.34 205 336 C191.24830456 332.94406768 181.14153476 327.53965292 170.9609375 317.8203125 C169.12571952 315.94587973 169.12571952 315.94587973 167 315 Z M76.3125 327.25 C72.60105573 329.65983556 68.86829822 331.78954388 65 334 C65 371.29 65 408.58 65 447 C75.89 447 86.78 447 98 447 C98.01417969 443.95394531 98.02835938 440.90789062 98.04296875 437.76953125 C98.0735973 434.81393401 98.112684 431.85856101 98.15258789 428.90307617 C98.17576059 426.85172476 98.19016189 424.8002545 98.19555664 422.7487793 C98.20485143 419.7966105 98.24585364 416.84630914 98.29296875 413.89453125 C98.28706978 412.52238213 98.28706978 412.52238213 98.28105164 411.12251282 C98.37969584 406.8011582 98.51448665 404.65081555 101.15551758 401.1105957 C104.09347354 398.93064297 107.00370442 397.08297203 110.21875 395.3359375 C110.79911011 395.01718658 111.37947021 394.69843567 111.97741699 394.37002563 C113.81394968 393.36350126 115.65663962 392.36895461 117.5 391.375 C119.34181433 390.37125225 121.18229418 389.36509238 123.02258301 388.35855103 C124.69067826 387.44788356 126.36185608 386.5428692 128.03320312 385.63818359 C130.72820947 384.15007525 133.3719313 382.60273292 136 381 C135.41892368 377.2397015 134.34800504 374.46964968 132.4375 371.1875 C131.98246094 370.39730469 131.52742188 369.60710937 131.05859375 368.79296875 C130.70925781 368.20128906 130.35992187 367.60960937 130 367 C125.10554017 368.76053075 120.81493602 371.40753751 116.43554688 374.16601562 C111.92664906 376.8613899 108.29865057 377.99455432 103 378 C100.76538086 376.55175781 100.76538086 376.55175781 99 374 C98.77506491 370.93159198 98.77261032 368.22123329 98.953125 365.17578125 C98.997118 363.40698756 99.03736277 361.63809742 99.07421875 359.86914062 C99.15021237 357.09145113 99.2493762 354.32297598 99.41455078 351.54907227 C100.01769713 342.60564497 100.01769713 342.60564497 98 334 C93.74433875 329.31711508 87.87003557 327.01699069 82 325 C79.43502225 325 78.45164775 325.85472092 76.3125 327.25 Z M248.1875 327.8125 C247.33542969 328.33457031 246.48335938 328.85664063 245.60546875 329.39453125 C244.74566406 329.92433594 243.88585937 330.45414062 243 331 C242.13296951 331.30714432 241.26593903 331.61428864 240.37263489 331.93074036 C237.84459882 333.71995889 237.84459882 333.71995889 237.54897118 336.07573509 C237.38030784 338.96636362 237.38260804 341.81834488 237.43237305 344.71362305 C237.43164291 345.8162146 237.43091278 346.91880615 237.43016052 348.05480957 C237.43365033 351.7076091 237.47257997 355.35914136 237.51171875 359.01171875 C237.52104185 361.5409119 237.52816033 364.07011406 237.53315735 366.59931946 C237.55031229 372.58123135 237.58973751 378.56259735 237.6399048 384.54429036 C237.69578012 391.35432298 237.72328006 398.16437733 237.74838197 404.97458208 C237.80065378 418.98335398 237.89235225 432.99154982 238 447 C248.89 447 259.78 447 271 447 C271 410.04 271 373.08 271 335 C267.37 333.02 263.74 331.04 260 329 C258.31337481 327.69200496 256.63533988 326.37157538 255 325 C252.14322043 325 250.60713628 326.32153971 248.1875 327.8125 Z M348 381 C347.80148437 381.74378906 347.60296875 382.48757813 347.3984375 383.25390625 C344.39715615 392.95652191 339.584024 401.05017877 334.07763672 409.56274414 C328.70496826 417.99041651 324.35205489 426.24690877 324.6875 436.4375 C324.71199219 437.59121094 324.73648437 438.74492187 324.76171875 439.93359375 C324.92891274 443.18781569 324.92891274 443.18781569 326 447 C342.83 447 359.66 447 377 447 C382.14027439 434.14931404 379.92634288 421.35183485 374.7109375 408.9296875 C368.95522211 397.64334056 360.39937206 388.19956527 350 381 C349.34 381 348.68 381 348 381 Z M15.25 395.75 C12.27556736 398.22074084 11.24661976 398.95820004 7.3125 399.625 C4 399 4 399 1.1875 397.5 C-3.85487289 395.12711864 -8.86520553 395.06953097 -14.2109375 396.65625 C-20.49325662 399.44839183 -24.4248561 404.13046701 -27.6875 410.07421875 C-30.59332046 413.75067065 -33.37916105 414.42705894 -37.75 415.4375 C-46.02479065 417.68968863 -51.59843379 420.91959174 -56.3125 428.3125 C-59.3530288 434.29896338 -61 440.30311738 -61 447 C-24.7 447 11.6 447 49 447 C49 428.85 49 410.7 49 392 C36.94859024 385.97429512 25.7277527 386.93509884 15.25 395.75 Z M287 392 C286.56133535 394.42125971 286.56133535 394.42125971 286.65942383 397.27587891 C286.65965042 398.3768692 286.65987701 399.4778595 286.66011047 400.61221313 C286.67559433 401.80494843 286.69107819 402.99768372 286.70703125 404.2265625 C286.71127609 405.44451508 286.71552094 406.66246765 286.71989441 407.91732788 C286.73673169 411.82010704 286.77439405 415.72237604 286.8125 419.625 C286.82754026 422.26561756 286.84122981 424.90624319 286.85351562 427.546875 C286.88665189 434.03144756 286.93846955 440.51563719 287 447 C294.59 447 302.18 447 310 447 C309.9175 443.968125 309.835 440.93625 309.75 437.8125 C309.64345177 424.76930914 313.02796575 414.96297418 319.609375 403.77734375 C321.29847772 400.9215561 321.29847772 400.9215561 321 397 C316.64271477 391.71844214 311.446297 388.17108575 304.6875 387.0625 C298.30484437 386.58079014 292.27981112 388.48012592 287 392 Z M196.25390625 404.00390625 C194.88155589 406.18855122 194.37545858 408.14917302 193.6875 410.625 C192.67387786 413.2003833 191.85859992 414.60997354 189.29736328 415.7734375 C186.37450516 416.72327909 183.41685586 417.46102712 180.43359375 418.19458008 C173.28014217 420.0036843 168.74129121 422.74207726 164.6796875 429.05078125 C161.36584359 435.20340754 161 439.92097272 161 447 C181.13 447 201.26 447 222 447 C222 430.17 222 413.34 222 396 C211.33903793 393.33475948 203.32552601 395.41825824 196.25390625 404.00390625 Z " fill="#000000" transform="translate(94,42)"/>
<path d="M0 0 C1.92420866 1.61217482 3.38594204 3.10447144 5 5 C5.87978516 6.00353516 5.87978516 6.00353516 6.77734375 7.02734375 C18.97812648 21.5474832 28.22910736 38.88560326 30 58 C30.07089844 58.7528125 30.14179688 59.505625 30.21484375 60.28125 C30.74839786 72.06212471 26.80058358 84.00751569 19.2890625 93.0625 C11.67263377 100.51824458 1.82573141 103.46182304 -8.625 103.5625 C-19.05219274 103.35759125 -27.32161735 100.75429166 -34.98828125 93.41796875 C-44.16057067 82.39341117 -45.13375342 69.71316464 -44 56 C-41.21014013 42.49707823 -31.9172118 32.99256242 -21.75 24.375 C-15.4697236 18.88129442 -13.44399403 13.78245498 -11.80859375 5.70703125 C-10.96226372 2.87366551 -10.33617147 1.75355658 -8 0 C-4.57930706 -1.14023098 -3.38312738 -1.12770913 0 0 Z M-1 25 C-1.52787109 25.74443359 -1.52787109 25.74443359 -2.06640625 26.50390625 C-6.77329599 32.98048821 -11.97503472 38.32794238 -18.125 43.4375 C-23.99167739 48.49537332 -27.60392994 54.14976495 -28.23828125 61.91796875 C-28.40121302 69.09554219 -28.059851 74.91022351 -24 81 C-19.64485846 85.35514154 -14.9475018 87.2834453 -8.8125 87.4375 C-2.67614829 87.29672 2.0704634 85.67490725 7 82 C12.28584084 76.18061184 14.57877136 68.23366318 14.3046875 60.4375 C12.84507813 48.76062505 8.28319828 32.98181534 -1 25 Z " fill="#000000" transform="translate(270,10)"/>
<path d="M0 0 C2.9867298 2.41782888 4.90137233 4.84897637 7 8.0625 C10.22702792 12.80219725 14.67666994 15.51929041 19.5 18.5 C28.62320486 24.13793559 34.75533293 30.00791215 37.875 40.5 C40.19145123 50.41385973 39.41777257 59.92714983 33.9375 68.75 C30.05049827 73.766253 23.93717478 77.02094174 18 79 C6.58600006 79.96434071 -1.23308284 77.78035162 -10.15234375 70.6875 C-17.39073267 64.07654014 -22.18155226 54.82137283 -23 45 C-23.09474609 43.99839844 -23.09474609 43.99839844 -23.19140625 42.9765625 C-23.9690615 27.87499918 -17.80589797 12.31295196 -8 1 C-5.11138291 -0.44430855 -3.20352299 -0.37688506 0 0 Z M-3 24 C-7.08452011 33.05697938 -8.55722199 41.27138951 -5.04296875 50.82421875 C-2.71809224 55.67424204 0.47705027 58.99550124 4.9375 61.9375 C8.64704708 63.22448572 11.09879151 63.5573155 15 63 C18.21715827 60.87546152 20.3621621 58.99835497 22.4375 55.75 C23.71802045 49.48967779 22.58033506 44.18021318 19.29296875 38.69042969 C17.06429184 35.77665345 14.20478002 34.12369828 11.0625 32.3125 C9.84344566 31.58210159 8.62596836 30.84906399 7.41015625 30.11328125 C6.83023926 29.76604004 6.25032227 29.41879883 5.65283203 29.06103516 C4 28 4 28 1.18359375 25.73046875 C-0.79688684 23.79296737 -0.79688684 23.79296737 -3 24 Z " fill="#000000" transform="translate(376,7)"/>
</svg>
